<?xml version="1.0" standalone="yes"?><svg version="1.1" xmlns = 'http://www.w3.org/2000/svg'><defs><font id='web' horiz-adv-x="1000">
<font-face font-family="web" descent="-228" cap-height="715" units-per-em="1000" bbox="-182,-204,1019,910" x-height="514" ascent="772" />
<missing-glyph horiz-adv-x="500" d="" /><glyph horiz-adv-x="384" d="M 232 693 L 196 693 C 170 693 151 687 139 675 C 127 663 121 642 121 614 L 121 517 L 232 517 L 232 491 L 121 491 L 121 0 L 91 0 L 91 491 L 18 491 L 18 517 L 91 517 L 91 615 C 91 653 99 680 117 696 C 135 712 161 720 195 720 L 232 720 L 232 693 Z M 330 0 L 300 0 L 300 517 L 330 517 L 330 0 Z M 330 643 L 300 643 L 300 710 L 330 710 L 330 643 Z" unicode="" />
<glyph horiz-adv-x="386" d="M 232 693 L 196 693 C 170 693 151 687 139 675 C 127 663 121 642 121 614 L 121 517 L 232 517 L 232 491 L 121 491 L 121 0 L 91 0 L 91 491 L 18 491 L 18 517 L 91 517 L 91 615 C 91 653 99 680 117 696 C 135 712 161 720 195 720 L 232 720 L 232 693 Z M 330 0 L 300 0 L 300 715 L 330 715 L 330 0 Z" unicode="" />
<glyph horiz-adv-x="55" d="" unicode=" " />
<glyph horiz-adv-x="500" d="M 0 269 L 500 269 L 500 241 L 0 241 L 0 269 Z" unicode="–" />
<glyph horiz-adv-x="1000" d="M 100 269 L 900 269 L 900 241 L 100 241 L 100 269 Z" unicode="—" />
<glyph horiz-adv-x="126" d="M 95 694 C 83 686 75 676 71 663 C 66 650 64 635 64 618 L 64 612 L 78 612 L 78 545 L 42 545 L 42 615 C 42 637 45 656 53 674 C 60 692 74 706 95 716 L 95 694 L 95 694 Z" unicode="‘" />
<glyph horiz-adv-x="126" d="M 31 566 C 42 573 50 583 55 596 C 59 609 62 624 62 642 L 62 648 L 48 648 L 48 715 L 84 715 L 84 645 C 84 623 80 603 73 585 C 65 567 51 554 31 544 L 31 566 Z" unicode="’" />
<glyph horiz-adv-x="136" d="M 41 -80 C 52 -72 60 -62 65 -49 C 69 -36 72 -21 72 -4 L 72 2 L 58 2 L 58 69 L 94 69 L 94 -1 C 94 -23 90 -42 83 -60 C 75 -78 61 -92 41 -102 L 41 -80 Z" unicode="‚" />
<glyph horiz-adv-x="225" d="M 95 694 C 83 686 75 676 71 663 C 66 650 64 635 64 618 L 64 612 L 78 612 L 78 545 L 42 545 L 42 615 C 42 637 45 656 53 674 C 60 692 74 706 95 716 L 95 694 Z M 193 694 C 181 686 173 676 169 663 C 164 650 162 635 162 618 L 162 612 L 176 612 L 176 545 L 140 545 L 140 615 C 140 637 143 656 151 674 C 158 692 172 706 193 716 L 193 694 Z" unicode="“" />
<glyph horiz-adv-x="224" d="M 31 566 C 42 573 50 583 55 596 C 59 609 62 624 62 642 L 62 648 L 48 648 L 48 715 L 84 715 L 84 645 C 84 623 80 603 73 585 C 65 567 51 554 31 544 L 31 566 Z M 129 566 C 140 573 148 583 153 596 C 157 609 160 624 160 642 L 160 648 L 146 648 L 146 715 L 182 715 L 182 645 C 182 623 178 603 171 585 C 163 567 149 554 129 544 L 129 566 Z" unicode="”" />
<glyph horiz-adv-x="235" d="M 41 -80 C 52 -72 60 -62 65 -49 C 69 -36 72 -21 72 -4 L 72 2 L 58 2 L 58 69 L 94 69 L 94 -1 C 94 -23 90 -42 83 -60 C 75 -78 61 -92 41 -102 L 41 -80 Z M 140 -80 C 151 -72 159 -62 164 -49 C 168 -36 171 -21 171 -4 L 171 2 L 157 2 L 157 69 L 193 69 L 193 -1 C 193 -23 189 -42 182 -60 C 174 -78 160 -92 140 -102 L 140 -80 Z" unicode="„" />
<glyph horiz-adv-x="164" d="" unicode=" " />
<glyph horiz-adv-x="174" d="M 97 175 L 75 175 L 70 458 L 70 715 L 103 715 L 103 458 L 97 175 Z M 105 0 L 69 0 L 69 66 L 105 66 L 105 0 Z" unicode="!" />
<glyph horiz-adv-x="231" d="M 73 514 L 43 514 L 43 715 L 73 715 L 73 514 Z M 188 514 L 158 514 L 158 715 L 188 715 L 188 514 Z" unicode="&#x22;" />
<glyph horiz-adv-x="535" d="M 69 469 L 174 469 L 206 684 L 235 684 L 202 469 L 366 469 L 399 684 L 427 684 L 395 469 L 503 469 L 498 443 L 391 443 L 363 255 L 469 255 L 465 228 L 359 228 L 325 0 L 296 0 L 330 228 L 167 228 L 133 0 L 104 0 L 138 228 L 32 228 L 37 255 L 141 255 L 170 443 L 64 443 L 69 469 Z M 170 255 L 334 255 L 362 443 L 199 443 L 170 255 Z" unicode="#" />
<glyph horiz-adv-x="546" d="M 287 701 C 349 697 398 681 432 651 C 466 621 486 578 494 523 L 464 523 C 457 571 439 608 409 632 C 379 656 338 669 287 673 L 287 378 C 323 372 355 364 383 356 C 411 348 434 337 454 323 C 474 309 489 291 499 270 C 509 249 515 223 515 191 C 515 163 509 137 498 114 C 486 90 470 70 450 54 C 430 38 406 25 378 16 C 350 6 319 1 287 1 L 287 -83 L 261 -83 L 261 1 C 222 3 188 9 159 21 C 129 33 105 48 85 68 C 65 87 49 110 39 136 C 28 162 22 190 20 222 L 50 222 C 53 166 72 120 108 86 C 143 51 194 32 261 28 L 261 354 C 225 360 194 368 168 377 C 141 385 119 396 101 409 C 83 422 70 438 62 457 C 53 476 49 499 49 526 C 49 552 54 575 64 596 C 74 617 89 635 108 651 C 126 666 149 678 175 687 C 201 695 229 700 261 701 L 261 758 L 287 758 L 287 701 Z M 484 189 C 484 214 480 235 473 253 C 465 270 454 285 438 297 C 422 309 401 319 376 327 C 351 335 321 342 287 349 L 287 28 C 314 28 340 32 364 40 C 388 47 408 58 426 72 C 444 86 458 102 468 122 C 478 142 484 164 484 189 Z M 80 527 C 80 505 83 487 90 471 C 96 455 107 442 122 431 C 136 420 155 411 178 404 C 201 396 229 390 261 384 L 261 674 C 205 672 161 658 129 632 C 96 605 80 570 80 527 Z" unicode="$" />
<glyph horiz-adv-x="713" d="M 552 685 L 582 685 L 168 0 L 138 0 L 552 685 Z M 170 321 C 128 321 93 337 67 370 C 41 402 28 447 28 505 C 28 563 41 609 68 641 C 95 673 129 689 170 689 C 190 689 208 685 225 677 C 241 669 256 657 269 641 C 281 625 291 606 298 583 C 305 560 309 534 309 505 C 309 447 296 402 270 370 C 244 337 211 321 170 321 Z M 170 346 C 203 346 230 359 250 386 C 270 413 280 453 280 505 C 280 557 269 596 249 623 C 228 650 202 664 170 664 C 138 664 111 650 90 623 C 68 596 58 557 58 505 C 58 453 68 414 89 387 C 109 359 136 346 170 346 Z M 545 -10 C 503 -10 469 6 443 39 C 417 71 404 116 404 174 C 404 202 407 228 415 251 C 422 274 432 293 444 309 C 456 325 471 337 489 345 C 506 353 525 358 545 358 C 585 358 618 342 644 310 C 670 278 684 233 684 174 C 684 116 671 71 645 39 C 619 6 586 -10 545 -10 Z M 545 15 C 579 15 605 28 625 55 C 645 82 655 122 655 174 C 655 226 644 265 624 292 C 603 319 577 333 545 333 C 513 333 486 319 465 292 C 443 265 433 226 433 174 C 433 122 443 83 464 56 C 485 28 512 15 545 15 Z" unicode="%" />
<glyph horiz-adv-x="559" d="M 118 568 C 118 586 121 604 128 620 C 134 636 144 651 156 663 C 168 675 182 684 200 691 C 217 698 236 702 258 702 C 276 702 293 699 309 693 C 325 687 340 678 352 667 C 364 655 374 641 381 624 C 388 606 392 587 392 565 C 392 543 388 524 381 508 C 374 492 364 477 352 463 C 340 449 325 435 307 423 C 289 411 270 398 249 386 L 440 149 C 464 198 478 255 480 319 L 511 319 C 509 283 504 248 496 215 C 488 182 476 152 460 124 L 560 0 L 523 0 L 444 98 C 420 65 392 39 358 19 C 324 0 286 -10 242 -10 C 214 -10 187 -6 162 2 C 137 10 115 21 96 37 C 77 53 62 72 51 94 C 40 116 35 142 35 170 C 35 198 39 223 48 245 C 57 266 69 285 85 303 C 101 320 119 336 140 350 C 160 364 182 378 206 392 L 193 409 C 169 438 150 464 137 488 C 124 512 118 538 118 568 Z M 243 18 C 282 18 317 27 348 46 C 378 64 404 90 425 122 L 223 371 C 203 359 183 346 165 334 C 146 321 129 307 115 291 C 100 275 88 258 80 238 C 71 218 67 196 67 170 C 67 147 71 126 80 108 C 89 89 101 73 117 60 C 133 46 151 36 173 29 C 194 21 217 18 243 18 Z M 150 567 C 150 541 156 518 168 497 C 180 475 196 453 214 430 L 232 407 C 275 433 307 457 329 481 C 350 504 361 532 361 566 C 361 600 351 626 332 645 C 312 664 288 674 258 674 C 224 674 198 664 179 644 C 159 624 150 599 150 567 Z" unicode="&#x26;" />
<glyph horiz-adv-x="116" d="M 73 514 L 43 514 L 43 715 L 73 715 L 73 514 Z" unicode="'" />
<glyph horiz-adv-x="250" d="M 229 754 C 212 727 196 698 182 667 C 167 636 154 603 143 568 C 131 532 122 495 116 456 C 109 417 106 377 106 335 C 106 243 117 161 139 88 C 161 14 191 -54 229 -118 L 200 -118 C 181 -87 164 -55 148 -22 C 132 11 119 46 108 83 C 96 120 87 159 81 201 C 75 243 72 287 72 335 C 72 379 75 420 82 459 C 89 498 98 535 110 570 C 122 605 135 638 151 669 C 166 699 182 728 200 754 L 229 754 Z" unicode="(" />
<glyph horiz-adv-x="250" d="M 50 754 C 68 726 84 696 100 664 C 115 632 128 598 140 562 C 152 526 161 488 168 448 C 174 408 178 365 178 320 C 178 228 165 147 141 75 C 116 3 86 -60 50 -118 L 21 -118 C 38 -88 54 -57 69 -25 C 84 7 97 42 108 78 C 119 114 128 153 134 193 C 140 233 144 276 144 320 C 144 407 132 486 109 558 C 86 630 57 695 21 754 L 50 754 Z" unicode=")" />
<glyph horiz-adv-x="344" d="M 158 588 L 158 710 L 185 710 L 185 588 L 294 625 L 302 603 L 194 565 L 264 467 L 244 453 L 172 554 L 101 453 L 81 467 L 150 565 L 42 603 L 50 625 L 158 588 Z" unicode="*" />
<glyph horiz-adv-x="524" d="M 54 341 L 247 341 L 247 542 L 277 542 L 277 341 L 470 341 L 470 312 L 277 312 L 277 109 L 247 109 L 247 312 L 54 312 L 54 341 Z" unicode="+" />
<glyph horiz-adv-x="122" d="M 24 -86 C 36 -77 45 -66 49 -52 C 53 -38 56 -22 56 -3 L 56 0 L 42 0 L 42 66 L 79 66 L 79 -1 C 79 -26 75 -48 67 -66 C 59 -84 45 -98 24 -108 L 24 -86 Z" unicode="," />
<glyph horiz-adv-x="305" d="M 36 292 L 269 292 L 269 264 L 36 264 L 36 292 Z" unicode="-" />
<glyph horiz-adv-x="123" d="M 80 0 L 43 0 L 43 66 L 80 66 L 80 0 Z" unicode="." />
<glyph horiz-adv-x="356" d="M 48 0 L 16 0 L 308 715 L 340 715 L 48 0 Z" unicode="/" />
<glyph horiz-adv-x="575" d="M 288 -10 C 248 -10 213 -1 183 15 C 152 31 126 55 105 86 C 84 116 68 153 57 197 C 45 240 40 289 40 343 C 40 397 46 446 58 490 C 70 533 86 570 108 601 C 130 631 156 655 186 671 C 216 687 250 696 288 696 C 324 696 358 688 389 672 C 419 656 445 632 467 602 C 488 572 505 535 517 491 C 529 447 535 398 535 343 C 535 289 529 240 518 197 C 507 153 491 116 470 86 C 448 55 422 31 392 15 C 361 -1 326 -10 288 -10 Z M 288 18 C 322 18 352 25 379 41 C 405 56 428 78 446 106 C 464 134 478 168 488 208 C 498 248 503 293 503 343 C 503 393 498 438 488 478 C 478 518 463 553 445 581 C 426 609 403 630 377 645 C 350 660 320 668 288 668 C 255 668 225 660 199 645 C 172 630 149 609 131 581 C 112 553 97 519 87 479 C 77 439 72 393 72 343 C 72 293 77 249 87 209 C 97 169 111 134 129 106 C 147 78 170 56 197 41 C 223 25 254 18 288 18 Z" unicode="0" />
<glyph horiz-adv-x="301" d="M 217 688 L 217 0 L 186 0 L 186 582 C 178 570 168 560 156 553 C 143 545 129 540 115 536 C 101 532 86 529 72 528 C 57 526 44 526 34 526 L 34 554 C 58 554 80 557 99 561 C 117 565 133 573 146 583 C 158 593 168 606 176 623 C 183 639 188 661 192 688 L 217 688 Z" unicode="1" />
<glyph horiz-adv-x="509" d="M 471 0 L 31 0 C 31 41 38 77 52 107 C 65 137 82 164 104 187 C 125 210 149 230 176 248 C 203 265 231 281 259 297 C 284 311 308 324 330 337 C 352 349 372 363 388 379 C 404 394 417 411 427 431 C 436 451 441 475 441 503 C 441 555 425 596 394 626 C 363 656 320 672 265 672 C 235 672 209 667 186 657 C 163 647 144 634 128 617 C 112 600 99 580 91 556 C 83 532 79 507 79 479 L 48 479 C 48 511 53 540 63 567 C 73 594 88 617 107 637 C 126 657 149 672 176 683 C 202 694 232 700 266 700 C 298 700 326 695 352 685 C 378 675 400 661 418 643 C 436 625 449 605 459 581 C 468 557 473 532 473 504 C 473 472 467 444 456 421 C 444 398 429 378 411 360 C 392 342 370 327 346 313 C 322 299 297 284 271 270 C 245 256 221 242 197 227 C 173 212 152 195 133 177 C 114 158 98 137 86 113 C 74 89 67 61 65 29 L 471 29 L 471 0 Z" unicode="2" />
<glyph horiz-adv-x="526" d="M 217 377 L 277 377 C 327 377 365 390 393 416 C 421 442 435 474 435 514 C 435 538 430 559 422 578 C 413 597 401 613 385 627 C 369 640 351 650 330 657 C 308 664 285 668 260 668 C 229 668 202 663 180 653 C 157 643 138 631 123 615 C 108 599 97 580 89 559 C 81 537 76 515 76 491 L 45 491 C 45 519 50 545 60 570 C 70 595 84 617 102 635 C 120 653 142 668 168 679 C 194 690 225 696 261 696 C 290 696 317 691 342 683 C 367 675 389 663 407 647 C 425 631 440 612 450 590 C 460 568 466 543 466 515 C 466 477 455 446 435 420 C 415 394 387 376 351 366 L 351 364 C 394 353 429 333 455 303 C 481 273 494 236 494 190 C 494 159 488 131 477 107 C 466 82 450 61 430 44 C 410 26 386 13 358 4 C 330 -5 299 -10 265 -10 C 229 -10 196 -4 167 6 C 138 16 113 31 92 50 C 71 69 54 92 42 119 C 30 145 23 174 22 206 L 54 206 C 58 148 79 103 116 70 C 153 36 203 20 266 20 C 326 20 374 35 409 65 C 444 95 462 138 462 192 C 462 216 457 238 448 258 C 438 278 425 294 409 308 C 393 321 373 331 351 338 C 329 345 304 349 278 349 L 217 349 L 217 377 Z" unicode="3" />
<glyph horiz-adv-x="534" d="M 371 0 L 371 188 L 24 188 L 24 218 L 373 692 L 402 692 L 402 216 L 510 216 L 510 188 L 402 188 L 402 0 L 371 0 Z M 59 218 L 59 216 L 371 216 L 371 638 L 370 638 L 59 218 Z" unicode="4" />
<glyph horiz-adv-x="504" d="M 436 657 L 137 657 L 83 372 C 101 391 123 407 151 421 C 178 434 213 441 255 441 C 287 441 316 435 342 425 C 368 414 391 399 410 379 C 429 359 444 336 455 309 C 465 281 471 251 471 218 C 471 183 465 152 454 124 C 442 96 427 72 407 52 C 387 32 364 16 337 6 C 310 -4 281 -10 249 -10 C 213 -10 182 -4 155 5 C 127 15 104 29 86 47 C 67 64 53 84 43 107 C 33 130 27 154 25 180 L 56 180 C 59 158 65 137 73 118 C 81 98 93 81 109 67 C 124 53 143 41 166 33 C 188 24 216 20 248 20 C 276 20 301 24 325 34 C 348 43 368 56 385 73 C 402 90 415 111 425 135 C 434 159 439 187 439 218 C 439 246 434 272 426 296 C 417 320 405 340 389 357 C 373 374 353 387 330 397 C 306 407 280 412 251 412 C 227 412 205 409 187 405 C 168 400 152 394 138 386 C 124 378 111 368 101 358 C 91 348 82 337 76 327 L 46 327 L 113 685 L 436 685 L 436 657 Z" unicode="5" />
<glyph horiz-adv-x="538" d="M 71 344 C 71 332 71 317 72 301 C 73 285 74 271 76 261 C 80 285 88 308 100 329 C 112 350 126 368 144 384 C 161 400 181 412 205 421 C 228 429 254 434 283 434 C 315 434 344 428 371 418 C 398 407 421 392 441 373 C 461 354 476 331 487 305 C 497 279 503 250 503 219 C 503 183 497 152 486 124 C 474 96 459 72 439 52 C 419 32 396 16 370 6 C 344 -4 316 -10 286 -10 C 223 -10 171 8 130 46 C 98 74 75 111 61 159 C 47 206 40 266 40 339 C 40 453 61 541 104 603 C 146 665 207 696 286 696 C 342 696 388 680 422 650 C 456 620 476 579 482 528 L 450 528 C 445 571 428 605 399 630 C 370 655 332 668 286 668 C 217 668 164 640 128 585 C 91 530 72 450 71 344 Z M 91 210 C 91 180 95 154 105 131 C 115 107 128 87 146 70 C 163 53 183 40 207 31 C 231 22 257 18 285 18 C 309 18 333 22 356 32 C 378 41 398 54 415 72 C 431 89 445 110 455 135 C 465 159 470 187 470 218 C 470 246 465 271 456 294 C 446 317 433 337 417 354 C 401 370 381 383 358 392 C 335 401 310 406 283 406 C 253 406 226 400 202 390 C 178 379 157 365 141 347 C 125 329 112 308 104 284 C 95 260 91 236 91 210 Z" unicode="6" />
<glyph horiz-adv-x="489" d="M 146 0 C 152 124 180 242 230 353 C 280 463 350 564 438 656 L 438 657 L 23 657 L 23 685 L 473 685 L 473 656 C 383 564 313 465 264 357 C 214 249 186 130 180 0 L 146 0 Z" unicode="7" />
<glyph horiz-adv-x="544" d="M 274 -10 C 238 -10 206 -5 177 4 C 147 13 122 26 101 44 C 79 61 63 82 51 107 C 39 131 33 159 33 190 C 33 238 47 278 76 310 C 104 341 143 362 191 374 L 191 376 C 153 387 123 406 102 433 C 80 459 70 491 70 529 C 70 553 75 576 85 596 C 95 616 109 634 127 649 C 145 663 166 675 191 683 C 215 691 242 696 272 696 C 302 696 330 691 355 683 C 379 675 400 663 418 648 C 436 633 449 615 459 595 C 469 575 474 553 474 529 C 474 491 463 459 441 433 C 419 407 389 388 351 377 L 351 375 C 399 364 437 342 467 310 C 496 277 511 237 511 190 C 511 159 505 131 493 107 C 481 82 464 61 443 44 C 422 26 397 13 368 4 C 339 -5 308 -10 274 -10 Z M 274 18 C 305 18 333 22 359 31 C 384 39 405 51 423 66 C 441 81 454 99 464 120 C 474 141 479 164 479 190 C 479 241 460 282 423 313 C 386 344 335 360 271 360 C 207 360 156 344 120 313 C 83 282 65 241 65 190 C 65 164 69 141 79 120 C 89 99 103 81 121 66 C 139 50 161 38 187 30 C 213 22 242 18 274 18 Z M 271 387 C 297 387 320 390 341 397 C 362 404 380 414 395 427 C 410 439 422 454 430 472 C 438 489 442 508 442 528 C 442 548 438 566 430 584 C 422 601 410 616 396 628 C 381 640 363 650 342 658 C 321 665 298 669 272 669 C 246 669 222 665 201 658 C 180 650 162 640 147 628 C 132 616 121 601 113 584 C 105 566 101 548 101 528 C 101 508 105 489 113 472 C 121 454 132 439 147 427 C 161 415 179 405 200 398 C 221 390 245 387 271 387 Z" unicode="8" />
<glyph horiz-adv-x="536" d="M 468 336 C 468 351 467 367 466 385 C 465 402 464 415 463 425 C 458 399 450 376 438 355 C 426 334 412 316 394 301 C 376 285 356 273 333 265 C 309 256 283 252 255 252 C 223 252 194 257 167 268 C 140 278 117 293 98 312 C 78 331 63 354 52 380 C 41 406 36 436 36 468 C 36 503 41 535 53 563 C 65 591 80 615 100 635 C 120 655 143 670 169 680 C 195 690 222 696 252 696 C 282 696 309 692 333 684 C 357 676 381 664 403 647 C 437 620 461 581 476 531 C 491 481 499 414 499 332 C 499 277 493 227 483 183 C 472 139 455 101 432 71 C 411 43 386 22 356 9 C 326 -3 293 -10 256 -10 C 228 -10 201 -6 177 2 C 153 10 132 21 114 35 C 96 49 81 67 70 88 C 58 108 51 132 49 158 L 81 158 C 86 114 105 79 137 55 C 169 30 208 18 255 18 C 288 18 317 23 342 34 C 367 45 388 63 406 88 C 427 116 442 150 452 190 C 462 230 467 279 468 336 Z M 448 475 C 448 501 443 526 435 550 C 426 573 413 593 397 611 C 381 628 360 642 336 652 C 312 662 284 668 253 668 C 228 668 204 663 182 654 C 160 645 140 632 123 615 C 106 598 93 577 83 553 C 73 528 68 500 68 469 C 68 441 72 415 81 392 C 90 369 103 349 120 333 C 136 316 156 303 179 294 C 202 284 227 280 255 280 C 285 280 313 285 337 296 C 361 307 381 322 398 340 C 414 358 427 378 435 402 C 443 425 448 449 448 475 Z" unicode="9" />
<glyph horiz-adv-x="131" d="M 84 319 L 47 319 L 47 385 L 84 385 L 84 319 Z M 84 0 L 47 0 L 47 66 L 84 66 L 84 0 Z" unicode=":" />
<glyph horiz-adv-x="129" d="M 28 -86 C 40 -77 49 -66 53 -52 C 57 -38 60 -22 60 -3 L 60 0 L 46 0 L 46 66 L 83 66 L 83 -1 C 83 -26 79 -48 71 -66 C 63 -84 49 -98 28 -108 L 28 -86 Z M 83 319 L 46 319 L 46 385 L 83 385 L 83 319 Z" unicode=";" />
<glyph horiz-adv-x="494" d="M 440 126 L 50 296 L 50 328 L 440 498 L 440 467 L 80 312 L 80 311 L 440 157 L 440 126 Z" unicode="&#x3C;" />
<glyph horiz-adv-x="522" d="M 54 397 L 468 397 L 468 368 L 54 368 L 54 397 Z M 54 255 L 468 255 L 468 226 L 54 226 L 54 255 Z" unicode="=" />
<glyph horiz-adv-x="494" d="M 54 157 L 414 312 L 54 467 L 54 498 L 444 328 L 444 296 L 54 126 L 54 157 Z" unicode="&#x3E;" />
<glyph horiz-adv-x="479" d="M 205 176 C 205 202 206 225 210 244 C 213 263 219 280 227 296 C 235 311 245 326 258 340 C 271 354 287 369 307 385 C 319 395 331 405 343 415 C 355 425 366 436 376 448 C 386 460 394 474 400 490 C 406 506 409 524 409 546 C 409 568 404 589 396 607 C 388 625 376 641 362 655 C 347 668 329 678 309 686 C 288 693 266 697 242 697 C 212 697 185 692 163 682 C 140 672 121 659 105 643 C 89 627 77 607 69 585 C 61 563 56 539 56 513 L 25 513 C 25 541 30 567 39 593 C 48 618 62 640 80 660 C 98 680 120 695 147 707 C 174 719 206 725 244 725 C 273 725 300 720 324 711 C 348 702 369 690 387 674 C 404 658 417 639 427 617 C 436 595 441 571 441 546 C 441 522 437 501 431 483 C 425 465 416 450 406 436 C 395 422 383 410 369 399 C 355 387 341 376 327 364 C 309 349 295 335 283 323 C 271 311 261 298 254 284 C 246 270 241 254 238 237 C 235 220 234 200 234 176 L 205 176 Z M 238 0 L 201 0 L 201 66 L 238 66 L 238 0 Z" unicode="?" />
<glyph horiz-adv-x="862" d="M 398 84 C 372 84 349 88 329 98 C 309 108 293 121 279 138 C 265 154 255 174 249 196 C 242 218 239 242 239 268 C 239 304 243 338 253 369 C 263 399 276 426 293 448 C 310 470 331 487 355 499 C 379 511 405 518 434 518 C 470 518 500 508 524 489 C 548 470 565 445 575 415 L 576 415 L 589 509 L 616 509 L 580 226 C 575 192 579 166 591 147 C 603 127 625 118 655 118 C 677 118 696 123 714 135 C 732 146 747 162 759 182 C 771 202 780 226 787 254 C 793 282 797 313 797 347 C 797 402 787 450 768 492 C 749 534 724 569 692 597 C 660 625 624 646 582 660 C 540 674 496 681 450 681 C 400 681 352 672 306 654 C 260 636 219 611 183 577 C 147 543 119 502 98 454 C 76 406 66 351 66 289 C 66 235 74 185 91 141 C 108 97 132 59 164 28 C 196 -3 234 -27 279 -45 C 324 -62 375 -71 432 -71 C 471 -71 507 -66 540 -58 C 573 -50 602 -40 626 -29 L 636 -53 C 610 -65 580 -75 546 -84 C 511 -93 473 -98 431 -98 C 371 -98 317 -88 269 -70 C 220 -52 178 -26 144 8 C 110 42 83 82 65 130 C 46 177 37 230 37 288 C 37 354 48 414 72 466 C 96 518 127 561 165 597 C 203 633 247 660 297 679 C 347 697 398 707 450 707 C 498 707 544 699 589 684 C 634 668 674 646 709 616 C 744 586 772 548 794 503 C 815 458 826 406 826 347 C 826 309 822 275 814 244 C 806 213 794 186 779 164 C 764 142 746 124 725 112 C 704 99 681 93 655 93 C 619 93 593 102 577 122 C 560 141 552 165 554 194 C 540 162 519 135 491 115 C 463 94 432 84 398 84 Z M 397 110 C 421 110 444 116 465 128 C 485 140 503 156 517 177 C 531 198 543 223 551 251 C 559 279 563 310 563 342 C 563 388 551 424 529 452 C 507 479 475 493 434 493 C 408 493 384 487 364 475 C 344 463 327 448 313 428 C 299 408 288 384 281 357 C 273 329 270 300 270 268 C 270 247 272 227 277 208 C 282 189 290 172 300 158 C 310 143 324 131 340 123 C 356 114 375 110 397 110 Z" unicode="@" />
<glyph horiz-adv-x="604" d="M 469 244 L 135 244 L 41 0 L 8 0 L 284 715 L 320 715 L 596 0 L 563 0 L 469 244 Z M 145 271 L 458 271 L 303 677 L 302 677 L 145 271 Z" unicode="A" />
<glyph horiz-adv-x="608" d="M 550 536 C 550 496 539 463 519 437 C 499 410 470 390 432 378 C 478 366 514 345 541 315 C 567 284 581 245 581 198 C 581 138 561 90 522 55 C 502 37 479 24 451 14 C 423 4 392 0 358 0 L 65 0 L 65 715 L 343 715 C 404 715 453 700 491 671 C 509 655 524 636 534 614 C 544 592 550 566 550 536 Z M 96 361 L 96 29 L 355 29 C 385 29 413 33 437 41 C 461 49 481 61 498 76 C 531 105 548 146 548 199 C 548 248 531 287 499 316 C 466 344 423 359 369 361 L 96 361 Z M 96 389 L 365 389 C 387 389 408 393 427 401 C 445 408 461 418 475 431 C 488 443 498 458 506 476 C 513 493 517 512 517 534 C 517 559 512 581 504 600 C 495 619 483 635 468 648 C 452 660 434 670 413 676 C 391 682 368 686 343 686 L 96 686 L 96 389 Z" unicode="B" />
<glyph horiz-adv-x="675" d="M 601 514 C 597 538 588 562 576 584 C 563 606 546 626 526 643 C 506 659 482 673 454 683 C 426 693 395 698 361 698 C 313 698 272 689 236 672 C 200 654 169 630 145 600 C 120 569 101 533 89 492 C 76 450 70 405 70 357 C 70 307 76 262 89 220 C 102 178 121 143 145 113 C 169 83 199 59 235 43 C 271 26 312 18 358 18 C 396 18 431 24 461 37 C 491 49 516 66 538 88 C 560 110 577 135 590 164 C 602 192 611 223 615 256 L 644 256 C 640 221 632 188 620 157 C 607 126 590 99 568 75 C 544 48 514 27 478 12 C 442 -3 402 -11 358 -11 C 308 -11 264 -2 225 15 C 185 33 152 58 124 90 C 96 122 74 160 59 206 C 44 251 37 301 37 357 C 37 411 44 460 59 506 C 74 551 96 590 124 622 C 152 654 186 680 226 698 C 266 716 311 726 361 726 C 399 726 434 720 465 709 C 496 698 523 683 546 664 C 569 645 588 623 603 597 C 617 571 627 544 633 514 L 601 514 Z" unicode="C" />
<glyph horiz-adv-x="653" d="M 65 715 L 321 715 C 373 715 417 705 454 686 C 491 667 522 641 546 609 C 570 576 587 538 599 494 C 610 450 616 404 616 354 C 616 304 610 257 598 214 C 586 171 567 134 542 102 C 517 70 486 45 448 27 C 410 9 366 0 314 0 L 65 0 L 65 715 Z M 313 28 C 356 28 394 35 428 50 C 461 65 489 87 512 115 C 535 143 553 177 565 217 C 577 257 583 303 583 354 C 583 404 577 450 566 491 C 554 531 538 566 516 595 C 494 624 466 646 434 662 C 401 678 363 686 320 686 L 96 686 L 96 28 L 313 28 Z" unicode="D" />
<glyph horiz-adv-x="582" d="M 96 384 L 500 384 L 500 356 L 96 356 L 96 29 L 545 29 L 545 0 L 65 0 L 65 715 L 535 715 L 535 687 L 96 687 L 96 384 Z" unicode="E" />
<glyph horiz-adv-x="551" d="M 96 387 L 465 387 L 465 359 L 96 359 L 96 0 L 65 0 L 65 715 L 525 715 L 525 687 L 96 687 L 96 387 Z" unicode="F" />
<glyph horiz-adv-x="715" d="M 379 326 L 379 354 L 659 354 L 659 0 L 633 0 L 630 169 L 628 169 C 622 147 612 125 598 103 C 584 81 567 62 545 45 C 523 28 498 14 469 4 C 439 -5 406 -11 369 -11 C 315 -11 267 -1 226 17 C 184 35 150 61 122 94 C 94 127 72 166 58 211 C 44 255 37 304 37 356 C 37 406 44 454 58 499 C 72 544 94 583 122 617 C 150 651 185 677 227 697 C 268 716 316 726 370 726 C 445 726 507 706 556 668 C 604 630 635 577 648 511 L 617 511 C 611 539 602 564 588 587 C 574 610 556 630 535 646 C 513 662 489 675 461 684 C 433 693 403 698 370 698 C 320 698 276 688 238 670 C 200 652 169 627 144 596 C 119 564 100 528 88 487 C 76 445 70 402 70 356 C 70 308 76 264 88 223 C 100 182 119 146 144 116 C 169 86 200 62 238 44 C 275 26 319 18 369 18 C 409 18 446 24 478 38 C 510 52 537 71 559 95 C 581 119 598 147 610 181 C 622 214 628 250 628 290 L 628 326 L 379 326 Z" unicode="G" />
<glyph horiz-adv-x="651" d="M 65 715 L 96 715 L 96 394 L 555 394 L 555 715 L 586 715 L 586 0 L 555 0 L 555 367 L 96 367 L 96 0 L 65 0 L 65 715 Z" unicode="H" />
<glyph horiz-adv-x="167" d="M 99 0 L 68 0 L 68 715 L 99 715 L 99 0 Z" unicode="I" />
<glyph horiz-adv-x="454" d="M 53 211 L 53 186 C 53 129 67 87 95 59 C 123 31 163 17 215 17 C 265 17 302 31 327 59 C 351 87 364 127 364 180 L 364 715 L 395 715 L 395 178 C 395 150 391 124 384 101 C 377 77 366 57 351 41 C 336 24 317 11 295 2 C 272 -7 245 -12 215 -12 C 154 -12 107 4 73 38 C 39 71 22 120 22 185 L 22 211 L 53 211 Z" unicode="J" />
<glyph horiz-adv-x="607" d="M 267 421 L 605 0 L 567 0 L 244 399 L 96 258 L 96 0 L 65 0 L 65 715 L 96 715 L 96 297 L 532 715 L 574 715 L 267 421 Z" unicode="K" />
<glyph horiz-adv-x="530" d="M 96 29 L 507 29 L 507 0 L 65 0 L 65 715 L 96 715 L 96 29 Z" unicode="L" />
<glyph horiz-adv-x="793" d="M 96 667 L 95 667 L 95 0 L 65 0 L 65 715 L 110 715 L 397 41 L 398 41 L 681 715 L 728 715 L 728 0 L 697 0 L 697 667 L 696 667 L 413 0 L 381 0 L 96 667 Z" unicode="M" />
<glyph horiz-adv-x="660" d="M 595 0 L 562 0 L 96 663 L 95 663 L 95 0 L 65 0 L 65 715 L 100 715 L 564 52 L 565 52 L 565 715 L 595 715 L 595 0 Z" unicode="N" />
<glyph horiz-adv-x="732" d="M 365 -10 C 316 -10 272 0 232 17 C 192 35 157 61 128 94 C 99 126 77 165 61 210 C 45 254 37 303 37 357 C 37 409 45 458 61 504 C 77 549 99 588 128 621 C 157 653 192 679 232 698 C 272 716 316 726 365 726 C 413 726 458 716 498 698 C 538 679 573 653 602 621 C 631 588 654 549 670 504 C 686 458 695 409 695 357 C 695 304 686 255 670 210 C 654 165 631 126 602 94 C 573 61 538 35 498 17 C 458 0 413 -10 365 -10 Z M 365 19 C 410 19 451 27 488 45 C 524 63 555 87 581 117 C 607 147 627 183 641 224 C 655 265 662 309 662 357 C 662 404 655 448 641 490 C 627 531 607 567 581 598 C 555 628 524 652 488 670 C 451 688 410 697 365 697 C 319 697 277 688 241 670 C 205 652 174 628 149 598 C 123 567 104 531 90 490 C 76 448 70 404 70 357 C 70 309 76 265 90 224 C 104 183 123 147 149 117 C 174 87 205 63 241 45 C 277 27 319 19 365 19 Z" unicode="O" />
<glyph horiz-adv-x="567" d="M 96 327 L 96 0 L 65 0 L 65 715 L 326 715 C 387 715 436 701 472 673 C 495 657 513 637 525 612 C 537 587 544 557 544 522 C 544 458 525 409 488 376 C 450 343 394 327 319 327 L 96 327 Z M 96 355 L 317 355 C 385 355 435 369 466 399 C 496 428 512 469 512 522 C 512 574 495 615 462 643 C 429 671 383 686 324 686 L 96 686 L 96 355 Z" unicode="P" />
<glyph horiz-adv-x="732" d="M 365 -11 C 316 -11 272 -1 232 16 C 192 34 157 60 128 93 C 99 126 77 165 61 210 C 45 254 37 303 37 357 C 37 409 45 458 61 504 C 77 549 99 588 128 621 C 157 653 192 679 232 698 C 272 716 316 726 365 726 C 413 726 458 716 498 698 C 538 679 573 653 602 621 C 631 588 654 549 670 504 C 686 458 695 409 695 357 C 695 295 684 240 663 190 C 641 140 612 98 574 65 L 677 -18 L 659 -42 L 550 47 C 524 28 495 14 464 4 C 433 -6 400 -11 365 -11 Z M 550 85 C 586 115 613 154 633 201 C 652 248 662 300 662 357 C 662 404 655 448 641 490 C 627 531 607 567 581 598 C 555 628 524 652 488 670 C 451 688 410 697 365 697 C 319 697 277 688 241 670 C 205 652 174 628 149 598 C 123 567 104 531 90 490 C 76 448 70 404 70 357 C 70 309 76 265 90 224 C 104 183 123 147 149 117 C 174 86 205 62 241 44 C 277 26 319 18 365 18 C 396 18 425 22 452 30 C 478 38 503 50 526 66 L 443 134 L 461 157 L 550 85 Z" unicode="Q" />
<glyph horiz-adv-x="595" d="M 96 0 L 65 0 L 65 715 L 334 715 C 370 715 401 710 427 701 C 453 692 476 679 496 662 C 514 646 527 626 537 603 C 547 580 552 553 552 522 C 552 468 538 425 510 393 C 482 361 440 341 384 334 L 575 0 L 541 0 L 352 329 L 96 329 L 96 0 Z M 96 358 L 327 358 C 395 358 444 372 474 401 C 504 430 520 470 520 522 C 520 574 503 615 470 644 C 437 672 391 687 332 687 L 96 687 L 96 358 Z" unicode="R" />
<glyph horiz-adv-x="585" d="M 55 227 C 58 163 81 113 123 75 C 165 37 225 18 304 18 C 336 18 366 22 392 30 C 418 38 441 49 460 64 C 478 78 493 96 503 117 C 513 138 518 162 518 188 C 518 216 513 239 504 258 C 494 277 480 293 461 306 C 441 319 417 330 387 339 C 357 348 321 356 280 364 C 243 370 210 378 182 388 C 154 397 130 409 110 423 C 90 437 76 455 66 475 C 56 495 51 520 51 548 C 51 574 56 599 67 621 C 78 643 94 661 114 677 C 134 693 159 705 187 713 C 215 721 247 726 282 726 C 354 726 411 707 453 670 C 494 633 518 585 526 525 L 494 525 C 486 579 464 622 428 652 C 391 682 343 697 283 697 C 220 697 171 683 136 656 C 100 629 83 593 83 549 C 83 525 87 504 95 488 C 103 471 116 457 134 445 C 152 433 174 422 201 414 C 227 406 259 398 295 392 C 333 384 368 376 400 367 C 431 358 458 346 480 331 C 502 316 520 297 532 275 C 544 252 550 224 550 190 C 550 160 544 132 533 108 C 521 83 505 62 484 44 C 463 26 437 13 407 3 C 377 -6 343 -11 305 -11 C 259 -11 218 -5 184 7 C 150 19 121 35 98 57 C 74 78 56 103 44 132 C 31 161 24 193 22 227 L 55 227 Z" unicode="S" />
<glyph horiz-adv-x="582" d="M 275 0 L 275 686 L 20 686 L 20 715 L 562 715 L 562 686 L 307 686 L 307 0 L 275 0 Z" unicode="T" />
<glyph horiz-adv-x="624" d="M 87 715 L 87 233 C 87 193 92 160 103 133 C 114 106 129 84 149 67 C 169 49 192 37 220 29 C 248 21 278 18 312 18 C 344 18 373 21 401 29 C 428 37 452 49 472 67 C 492 84 508 106 520 133 C 531 160 537 193 537 233 L 537 715 L 569 715 L 569 231 C 569 188 562 151 549 121 C 535 91 517 66 494 46 C 471 26 444 12 413 3 C 381 -5 347 -10 311 -10 C 273 -10 239 -5 208 4 C 176 13 149 27 127 47 C 104 66 86 91 74 122 C 61 152 55 189 55 231 L 55 715 L 87 715 Z" unicode="U" />
<glyph horiz-adv-x="591" d="M 294 44 L 295 44 L 550 715 L 582 715 L 312 0 L 278 0 L 9 715 L 42 715 L 294 44 Z" unicode="V" />
<glyph horiz-adv-x="868" d="M 452 715 L 635 51 L 636 51 L 824 715 L 855 715 L 652 0 L 618 0 L 435 664 L 434 664 L 253 0 L 218 0 L 13 715 L 45 715 L 235 52 L 236 52 L 418 715 L 452 715 Z" unicode="W" />
<glyph horiz-adv-x="576" d="M 270 367 L 29 715 L 65 715 L 290 390 L 291 390 L 516 715 L 552 715 L 309 366 L 563 0 L 527 0 L 289 342 L 288 342 L 49 0 L 13 0 L 270 367 Z" unicode="X" />
<glyph horiz-adv-x="576" d="M 287 350 L 288 350 L 533 715 L 568 715 L 303 320 L 303 0 L 272 0 L 272 321 L 8 715 L 43 715 L 287 350 Z" unicode="Y" />
<glyph horiz-adv-x="588" d="M 53 715 L 535 715 L 535 686 L 64 30 L 64 28 L 555 28 L 555 0 L 27 0 L 27 31 L 497 686 L 497 687 L 53 687 L 53 715 Z" unicode="Z" />
<glyph horiz-adv-x="253" d="M 221 -90 L 221 -118 L 79 -118 L 79 754 L 221 754 L 221 726 L 110 726 L 110 -90 L 221 -90 Z" unicode="[" />
<glyph horiz-adv-x="356" d="M 16 715 L 48 715 L 340 0 L 308 0 L 16 715 Z" unicode="\" />
<glyph horiz-adv-x="253" d="M 143 -90 L 143 726 L 32 726 L 32 754 L 174 754 L 174 -118 L 32 -118 L 32 -90 L 143 -90 Z" unicode="]" />
<glyph horiz-adv-x="380" d="M 190 690 L 189 690 L 44 448 L 11 448 L 172 715 L 207 715 L 368 448 L 336 448 L 190 690 Z" unicode="^" />
<glyph horiz-adv-x="375" d="M -2 -140 L 377 -140 L 377 -166 L -2 -166 L -2 -140 Z" unicode="_" />
<glyph horiz-adv-x="468" d="M 259 597 L 230 597 L 147 721 L 187 721 L 259 597 Z" unicode="`" />
<glyph horiz-adv-x="490" d="M 449 -6 C 426 -6 410 0 401 13 C 391 26 387 43 387 65 L 387 100 L 385 100 C 379 85 370 71 358 58 C 346 44 332 33 316 23 C 299 13 280 5 259 -1 C 238 -7 215 -10 189 -10 C 139 -10 99 2 69 27 C 39 51 24 86 24 130 C 24 158 29 181 40 199 C 50 217 65 232 83 243 C 101 254 123 262 147 268 C 171 274 196 278 224 282 C 256 285 282 288 303 292 C 323 296 340 300 353 306 C 365 312 374 319 379 328 C 384 336 387 348 387 362 L 387 370 C 387 456 339 499 243 499 C 192 499 153 488 125 467 C 97 446 81 413 78 368 L 47 368 C 49 390 54 411 62 431 C 70 450 82 467 98 481 C 114 495 133 506 157 514 C 181 522 209 526 243 526 C 301 526 344 512 373 486 C 402 459 417 420 417 369 L 417 68 C 417 48 420 35 427 29 C 434 22 443 19 455 19 C 460 19 465 19 470 21 C 474 23 478 24 482 26 L 485 26 L 485 2 C 481 0 476 -1 470 -3 C 464 -5 457 -6 449 -6 Z M 191 16 C 219 16 246 20 270 29 C 294 37 315 49 332 64 C 349 79 362 97 372 118 C 382 138 387 161 387 185 L 387 301 C 374 291 356 282 333 275 C 309 268 275 262 230 257 C 202 253 178 249 156 244 C 134 239 116 232 101 223 C 86 213 74 201 66 186 C 58 171 54 152 54 129 C 54 108 58 90 66 76 C 74 62 84 50 97 41 C 110 32 125 26 141 22 C 157 18 174 16 191 16 Z" unicode="a" />
<glyph horiz-adv-x="523" d="M 53 715 L 83 715 L 83 384 L 84 384 C 100 430 126 465 161 489 C 196 513 236 526 282 526 C 311 526 339 520 365 509 C 391 497 413 480 433 458 C 453 436 468 408 480 374 C 492 340 498 302 498 258 C 498 218 492 182 482 149 C 471 116 456 88 437 64 C 417 40 394 22 368 9 C 341 -3 311 -10 279 -10 C 231 -10 190 2 157 26 C 123 50 99 82 84 124 L 83 124 L 83 0 L 53 0 L 53 715 Z M 278 16 C 306 16 332 22 355 34 C 378 46 398 62 415 84 C 431 105 444 130 453 160 C 462 189 467 221 467 257 C 467 297 462 332 452 362 C 442 392 429 417 412 437 C 395 457 375 473 352 483 C 328 493 303 499 277 499 C 247 499 220 493 196 481 C 172 469 151 453 134 431 C 117 409 104 384 95 354 C 85 324 81 292 81 256 C 81 219 85 186 95 157 C 104 127 117 102 134 81 C 151 60 172 44 196 33 C 220 21 248 16 278 16 Z" unicode="b" />
<glyph horiz-adv-x="491" d="M 472 174 C 468 147 461 122 451 100 C 440 77 426 57 408 41 C 390 25 369 12 344 3 C 318 -5 290 -10 258 -10 C 220 -10 187 -3 159 11 C 130 25 106 44 86 68 C 66 92 51 121 41 154 C 31 186 26 221 26 259 C 26 296 31 331 41 363 C 51 395 66 424 86 448 C 106 472 130 491 159 505 C 187 519 220 526 258 526 C 314 526 361 512 398 484 C 435 456 458 416 468 364 L 438 364 C 427 412 405 446 373 467 C 340 488 302 499 258 499 C 227 499 199 493 175 481 C 150 469 129 453 111 432 C 93 411 80 386 70 357 C 60 327 56 295 56 259 C 56 223 60 190 70 160 C 80 130 93 105 111 84 C 129 62 150 46 175 34 C 199 22 227 17 258 17 C 311 17 353 31 385 59 C 417 87 436 126 443 174 L 472 174 Z" unicode="c" />
<glyph horiz-adv-x="524" d="M 248 16 C 277 16 304 21 328 32 C 352 43 372 59 389 80 C 406 100 419 125 429 155 C 438 185 443 218 443 256 C 443 292 438 325 429 355 C 420 385 407 410 390 432 C 373 453 353 469 329 481 C 305 493 278 499 249 499 C 221 499 196 493 173 483 C 149 473 129 457 112 437 C 94 417 81 392 71 362 C 61 332 56 297 56 257 C 56 221 60 189 69 159 C 78 129 91 104 108 83 C 124 61 144 45 168 33 C 192 21 218 16 248 16 Z M 441 125 L 440 125 C 424 82 400 49 366 25 C 332 1 292 -10 246 -10 C 212 -10 182 -3 155 9 C 128 22 105 40 86 64 C 67 88 52 116 42 149 C 31 182 26 218 26 258 C 26 302 32 340 44 374 C 56 408 72 436 92 458 C 112 480 135 497 161 509 C 187 520 215 526 245 526 C 289 526 328 514 363 491 C 398 468 424 433 440 387 L 441 387 L 441 715 L 471 715 L 471 0 L 441 0 L 441 125 Z" unicode="d" />
<glyph horiz-adv-x="499" d="M 56 260 C 56 224 60 192 69 162 C 78 132 91 107 108 86 C 125 64 146 47 172 35 C 198 23 227 17 261 17 C 308 17 346 28 376 52 C 406 76 427 109 439 152 L 469 152 C 463 129 455 108 444 88 C 433 68 419 51 402 37 C 384 22 364 10 340 2 C 316 -5 290 -10 261 -10 C 223 -10 189 -3 160 10 C 130 24 106 43 86 67 C 66 91 51 119 41 153 C 31 186 26 222 26 262 C 26 299 31 334 42 366 C 52 398 67 426 87 450 C 107 474 131 492 160 506 C 188 519 221 526 257 526 C 284 526 309 522 331 514 C 353 506 372 494 390 480 C 418 456 439 425 453 388 C 466 350 473 308 475 260 L 56 260 Z M 444 285 C 440 354 421 407 387 444 C 353 480 310 499 257 499 C 229 499 203 494 179 484 C 155 474 134 459 117 441 C 99 422 85 399 75 373 C 65 347 59 317 57 285 L 444 285 Z" unicode="e" />
<glyph horiz-adv-x="254" d="M 232 693 L 196 693 C 170 693 151 687 139 675 C 127 663 121 642 121 614 L 121 517 L 232 517 L 232 491 L 121 491 L 121 0 L 91 0 L 91 491 L 18 491 L 18 517 L 91 517 L 91 615 C 91 653 99 680 117 696 C 135 712 161 720 195 720 L 232 720 L 232 693 Z" unicode="f" />
<glyph horiz-adv-x="521" d="M 438 517 L 468 517 L 468 19 C 468 -42 448 -90 410 -126 C 392 -142 370 -155 344 -164 C 318 -172 289 -177 255 -177 C 192 -177 143 -165 109 -142 C 75 -119 55 -89 50 -51 L 81 -51 C 87 -84 105 -109 135 -126 C 165 -142 204 -151 254 -151 C 286 -151 313 -146 336 -138 C 359 -129 378 -117 393 -102 C 408 -87 419 -69 427 -49 C 434 -28 438 -5 438 19 L 438 137 L 436 137 C 420 95 396 62 364 39 C 332 16 292 5 246 5 C 212 5 182 11 155 23 C 128 35 105 53 86 76 C 67 99 52 126 42 158 C 31 190 26 225 26 265 C 26 308 32 346 44 379 C 56 411 72 438 92 460 C 112 482 135 498 162 509 C 188 520 216 526 246 526 C 270 526 293 522 313 515 C 333 508 352 498 368 486 C 384 474 397 459 409 443 C 420 426 429 408 436 388 L 438 388 L 438 517 Z M 248 31 C 276 31 302 36 326 47 C 350 57 370 73 387 93 C 404 113 417 137 426 166 C 435 194 440 226 440 262 C 440 297 435 329 426 358 C 417 387 404 412 388 433 C 372 454 352 470 328 482 C 304 493 278 499 249 499 C 221 499 196 493 173 483 C 149 473 129 458 112 438 C 94 418 81 394 71 365 C 61 335 56 302 56 264 C 56 229 60 197 69 169 C 78 140 91 115 108 95 C 124 75 144 59 168 48 C 192 36 218 31 248 31 Z" unicode="g" />
<glyph horiz-adv-x="484" d="M 85 424 L 87 424 C 94 436 103 449 115 461 C 126 473 139 484 154 494 C 169 503 186 510 206 516 C 226 522 248 525 273 525 C 325 525 365 510 393 482 C 421 453 435 416 435 370 L 435 0 L 404 0 L 404 367 C 404 411 391 443 367 465 C 343 487 310 498 268 498 C 242 498 217 493 195 485 C 173 477 153 466 137 452 C 121 438 108 421 99 403 C 89 385 85 366 85 347 L 85 0 L 55 0 L 55 715 L 85 715 L 85 424 Z" unicode="h" />
<glyph horiz-adv-x="138" d="M 84 0 L 54 0 L 54 517 L 84 517 L 84 0 Z M 84 643 L 54 643 L 54 710 L 84 710 L 84 643 Z" unicode="i" />
<glyph horiz-adv-x="151" d="M 96 517 L 96 -62 C 96 -94 89 -118 75 -133 C 61 -148 39 -156 7 -156 C 3 -156 -2 -155 -8 -155 C -14 -154 -18 -153 -22 -152 L -22 -125 C -14 -127 -4 -129 6 -129 C 29 -129 45 -123 53 -112 C 61 -101 66 -84 66 -62 L 66 517 L 96 517 Z M 96 643 L 66 643 L 66 710 L 96 710 L 96 643 Z" unicode="j" />
<glyph horiz-adv-x="450" d="M 191 297 L 83 192 L 83 0 L 53 0 L 53 715 L 83 715 L 83 228 L 379 517 L 418 517 L 212 317 L 449 0 L 414 0 L 191 297 Z" unicode="k" />
<glyph horiz-adv-x="142" d="M 86 0 L 56 0 L 56 715 L 86 715 L 86 0 Z" unicode="l" />
<glyph horiz-adv-x="770" d="M 402 0 L 372 0 L 372 367 C 372 411 360 443 338 465 C 315 487 285 498 247 498 C 223 498 201 493 181 485 C 161 477 143 466 129 452 C 114 438 103 421 95 403 C 87 385 83 366 83 347 L 83 0 L 53 0 L 53 517 L 83 517 L 83 427 L 85 427 C 92 439 100 451 110 463 C 120 475 131 485 145 494 C 159 503 174 510 192 516 C 209 522 229 525 252 525 C 290 525 322 515 346 497 C 370 478 385 452 393 420 L 396 420 C 410 450 431 475 460 495 C 488 515 525 525 569 525 C 618 525 655 510 681 482 C 707 453 720 416 720 370 L 720 0 L 690 0 L 690 367 C 690 411 679 443 657 465 C 635 487 604 498 564 498 C 540 498 518 494 498 486 C 478 478 461 467 447 454 C 433 440 422 424 414 406 C 406 387 402 367 402 347 L 402 0 Z" unicode="m" />
<glyph horiz-adv-x="482" d="M 83 424 L 85 424 C 92 436 101 449 113 461 C 124 473 137 484 152 494 C 167 503 184 510 204 516 C 224 522 246 525 271 525 C 322 525 362 510 390 482 C 418 453 432 416 432 370 L 432 0 L 402 0 L 402 367 C 402 411 389 443 365 465 C 341 487 308 498 266 498 C 239 498 214 493 192 485 C 170 477 150 466 134 452 C 118 438 105 421 96 403 C 87 385 83 366 83 347 L 83 0 L 53 0 L 53 517 L 83 517 L 83 424 Z" unicode="n" />
<glyph horiz-adv-x="522" d="M 261 -10 C 224 -10 191 -3 162 11 C 133 25 108 44 88 68 C 68 92 52 121 42 154 C 31 186 26 221 26 259 C 26 295 31 330 42 363 C 52 395 68 424 88 448 C 108 472 133 491 162 505 C 191 519 224 526 261 526 C 297 526 330 519 360 505 C 389 491 414 472 434 448 C 454 424 469 395 480 363 C 490 331 496 296 496 259 C 496 221 490 186 480 154 C 469 121 454 92 434 68 C 414 44 389 25 360 11 C 330 -3 297 -10 261 -10 Z M 261 16 C 291 16 318 21 343 33 C 368 45 390 61 408 83 C 426 104 440 130 450 160 C 460 190 465 223 465 259 C 465 295 460 327 450 357 C 440 387 426 412 408 433 C 390 454 368 470 343 482 C 318 494 291 500 261 500 C 231 500 203 494 178 482 C 153 470 132 454 114 433 C 96 412 81 387 71 357 C 61 327 56 295 56 259 C 56 223 61 190 71 160 C 81 130 96 104 114 83 C 132 61 153 45 178 33 C 203 21 231 16 261 16 Z" unicode="o" />
<glyph horiz-adv-x="523" d="M 53 517 L 83 517 L 83 384 L 84 384 C 100 430 126 466 161 490 C 196 514 236 526 282 526 C 311 526 339 520 365 509 C 391 497 413 480 433 458 C 453 436 468 408 480 375 C 492 341 498 303 498 259 C 498 219 492 183 482 150 C 471 117 456 89 437 65 C 417 41 394 23 368 10 C 341 -2 311 -9 279 -9 C 231 -9 190 3 157 27 C 123 51 99 84 84 124 L 83 124 L 83 -166 L 53 -166 L 53 517 Z M 278 17 C 306 17 332 23 355 35 C 378 47 398 63 415 85 C 431 106 444 131 453 161 C 462 190 467 222 467 258 C 467 298 462 333 452 363 C 442 393 429 418 412 438 C 395 458 375 473 352 483 C 328 493 303 499 277 499 C 247 499 220 493 196 481 C 172 469 151 453 134 431 C 117 409 104 384 95 354 C 85 324 81 292 81 256 C 81 219 85 186 95 157 C 104 127 117 102 134 82 C 151 61 172 45 196 34 C 220 22 248 17 278 17 Z" unicode="p" />
<glyph horiz-adv-x="526" d="M 249 17 C 278 17 305 22 329 33 C 353 44 373 60 391 80 C 408 100 421 125 431 155 C 440 185 445 218 445 256 C 445 292 440 325 431 355 C 422 385 409 410 392 432 C 375 453 355 469 331 481 C 307 493 280 499 251 499 C 223 499 198 493 175 483 C 151 473 131 457 114 437 C 96 417 83 392 73 362 C 63 332 58 297 58 257 C 58 221 62 189 71 159 C 80 129 93 104 109 83 C 125 62 145 46 169 34 C 193 22 219 17 249 17 Z M 443 125 L 441 125 C 425 83 401 50 368 26 C 334 2 294 -9 248 -9 C 214 -9 184 -2 157 10 C 130 23 107 41 88 65 C 68 88 53 116 43 149 C 32 182 27 218 27 258 C 27 302 33 340 45 374 C 57 408 73 436 93 458 C 113 480 137 497 164 509 C 190 520 218 526 248 526 C 292 526 331 514 365 492 C 399 469 425 435 441 389 L 443 389 L 443 517 L 473 517 L 473 -166 L 443 -166 L 443 125 Z" unicode="q" />
<glyph horiz-adv-x="294" d="M 277 489 C 267 490 258 490 248 490 C 238 490 229 489 220 487 C 199 483 180 476 164 466 C 147 456 133 443 121 428 C 109 412 99 396 93 378 C 86 360 83 342 83 324 L 83 0 L 53 0 L 53 517 L 83 517 L 83 412 L 85 412 C 98 440 116 463 138 480 C 160 496 184 507 210 511 C 221 515 232 517 244 518 C 256 519 267 519 277 518 L 277 489 Z" unicode="r" />
<glyph horiz-adv-x="444" d="M 50 159 C 54 113 71 77 101 53 C 131 28 173 16 229 16 C 281 16 321 26 349 48 C 377 70 391 99 391 135 C 391 152 388 167 383 180 C 377 193 368 204 355 214 C 342 223 325 231 304 238 C 283 245 257 252 225 258 C 162 268 115 284 85 304 C 55 324 40 355 40 395 C 40 433 55 465 85 489 C 115 513 158 526 214 526 C 244 526 271 522 293 514 C 315 506 333 496 348 483 C 363 469 375 454 383 436 C 391 418 397 398 401 377 L 371 377 C 365 414 350 444 326 466 C 301 488 264 499 214 499 C 163 499 126 489 104 469 C 81 449 70 425 70 395 C 70 379 72 366 78 355 C 84 343 93 333 106 325 C 119 316 136 308 157 302 C 178 296 204 290 235 285 C 266 279 293 273 317 265 C 340 257 359 248 375 236 C 390 224 401 210 409 194 C 417 178 421 158 421 135 C 421 90 403 55 369 29 C 334 3 287 -10 229 -10 C 195 -10 165 -5 140 3 C 114 11 93 23 76 38 C 58 53 45 71 36 92 C 26 112 21 135 20 159 L 50 159 Z" unicode="s" />
<glyph horiz-adv-x="265" d="M 18 517 L 93 517 L 93 677 L 123 677 L 123 517 L 236 517 L 236 491 L 123 491 L 123 82 C 123 60 127 45 137 35 C 146 25 162 21 186 21 C 203 21 219 23 233 29 L 235 29 L 235 3 C 227 0 219 -1 209 -3 C 199 -4 190 -5 181 -5 C 122 -5 93 23 93 80 L 93 491 L 18 491 L 18 517 Z" unicode="t" />
<glyph horiz-adv-x="476" d="M 393 89 L 391 89 C 383 76 374 64 364 52 C 353 40 340 30 326 21 C 312 12 295 5 277 0 C 258 -6 237 -9 213 -9 C 160 -9 119 5 91 34 C 63 62 49 100 49 147 L 49 517 L 80 517 L 80 150 C 80 105 92 72 116 50 C 140 28 174 17 218 17 C 244 17 267 21 289 30 C 310 38 328 50 344 64 C 359 78 371 95 380 114 C 388 133 393 153 393 173 L 393 517 L 423 517 L 423 0 L 393 0 L 393 89 Z" unicode="u" />
<glyph horiz-adv-x="434" d="M 215 36 L 216 36 L 398 517 L 429 517 L 234 0 L 198 0 L 5 517 L 37 517 L 215 36 Z" unicode="v" />
<glyph horiz-adv-x="694" d="M 188 40 L 189 40 L 329 517 L 363 517 L 499 39 L 655 517 L 686 517 L 516 0 L 481 0 L 346 471 L 345 471 L 207 0 L 170 0 L 8 517 L 40 517 L 188 40 Z" unicode="w" />
<glyph horiz-adv-x="464" d="M 213 275 L 31 517 L 68 517 L 231 297 L 393 517 L 429 517 L 250 275 L 457 0 L 420 0 L 232 253 L 231 253 L 43 0 L 7 0 L 213 275 Z" unicode="x" />
<glyph horiz-adv-x="440" d="M 216 -53 C 206 -77 197 -96 188 -111 C 179 -126 170 -138 160 -146 C 150 -154 139 -160 127 -164 C 115 -167 101 -169 86 -169 C 75 -169 66 -168 59 -167 C 52 -165 46 -164 41 -162 L 41 -134 L 42 -134 C 53 -138 68 -141 87 -141 C 98 -141 108 -139 117 -137 C 126 -135 134 -130 142 -123 C 150 -116 157 -106 165 -94 C 172 -81 180 -64 188 -44 L 208 7 L 5 517 L 37 517 L 223 46 L 224 46 L 403 517 L 435 517 L 216 -53 Z" unicode="y" />
<glyph horiz-adv-x="441" d="M 66 28 L 66 27 L 416 27 L 416 0 L 30 0 L 30 28 L 366 489 L 366 490 L 48 490 L 48 517 L 405 517 L 405 491 L 66 28 Z" unicode="z" />
<glyph horiz-adv-x="262" d="M 91 621 C 91 669 101 704 121 724 C 141 744 173 754 215 754 L 223 754 L 223 726 L 216 726 C 183 726 159 718 144 703 C 129 687 122 660 122 621 L 122 405 C 122 361 106 333 74 322 C 91 316 103 306 111 293 C 118 280 122 262 122 239 L 122 16 C 122 -24 129 -51 144 -67 C 159 -82 183 -90 216 -90 L 223 -90 L 223 -118 L 215 -118 C 173 -118 141 -107 121 -87 C 101 -67 91 -32 91 16 L 91 237 C 91 259 86 277 77 289 C 68 301 52 307 28 308 L 24 308 L 24 336 L 28 336 C 51 336 67 343 77 355 C 86 367 91 384 91 407 L 91 621 L 91 621 Z" unicode="{" />
<glyph horiz-adv-x="183" d="M 77 754 L 106 754 L 106 -118 L 77 -118 L 77 754 Z" unicode="|" />
<glyph horiz-adv-x="262" d="M 39 754 L 47 754 C 89 754 120 744 140 724 C 160 704 171 669 171 621 L 171 407 C 171 384 175 367 185 355 C 194 343 210 336 234 336 L 238 336 L 238 308 L 234 308 C 210 307 193 301 184 289 C 175 277 171 259 171 237 L 171 16 C 171 -32 160 -67 140 -87 C 120 -107 89 -118 47 -118 L 39 -118 L 39 -90 L 46 -90 C 78 -90 102 -82 117 -67 C 132 -51 140 -24 140 16 L 140 239 C 140 262 143 280 151 293 C 158 306 170 316 188 322 C 156 333 140 361 140 405 L 140 621 C 140 660 132 687 117 703 C 102 718 78 726 46 726 L 39 726 L 39 754 Z" unicode="}" />
<glyph horiz-adv-x="382" d="M 185 321 C 172 329 160 337 150 343 C 140 349 128 353 115 353 C 100 353 88 347 80 336 C 71 325 66 310 65 291 L 37 291 C 39 319 46 341 60 357 C 74 373 92 381 116 381 C 132 381 147 377 159 370 C 171 363 185 355 199 346 C 212 336 223 329 233 324 C 242 318 253 316 266 316 C 280 316 292 321 301 332 C 309 342 314 357 316 377 L 345 377 C 343 349 335 327 321 311 C 307 295 288 288 265 288 C 249 288 236 291 224 297 C 212 303 199 311 185 321 Z" unicode="~" />
<glyph horiz-adv-x="377" d="M 189 -156 C 138 -156 99 -137 72 -99 C 44 -61 31 -11 31 52 C 31 84 34 113 42 139 C 50 165 60 187 74 205 C 88 223 104 237 124 247 C 144 257 166 262 190 262 C 237 262 275 243 303 206 C 331 168 346 117 346 52 C 346 -11 332 -61 306 -99 C 279 -137 240 -156 189 -156 Z M 190 -131 C 232 -131 263 -114 284 -82 C 305 -49 316 -4 316 52 C 316 110 304 155 282 187 C 259 219 228 236 190 236 C 150 236 118 219 95 187 C 72 155 61 110 61 52 C 61 -4 72 -49 94 -82 C 116 -114 148 -131 190 -131 Z" unicode="₀" />
<glyph horiz-adv-x="236" d="M 125 -150 L 125 187 C 117 175 105 167 87 162 C 69 157 49 155 27 155 L 27 179 C 59 179 83 185 99 196 C 115 206 125 227 129 258 L 154 258 L 154 -150 L 125 -150 Z" unicode="₁" />
<glyph horiz-adv-x="327" d="M 27 -150 C 27 -126 31 -106 39 -89 C 46 -72 56 -57 68 -44 C 80 -31 93 -19 109 -9 C 125 0 141 11 157 21 C 171 29 185 38 199 46 C 212 54 224 62 234 71 C 244 80 251 90 257 101 C 263 112 266 125 266 141 C 266 170 257 193 240 210 C 222 227 198 236 166 236 C 129 236 102 225 85 204 C 68 182 60 156 60 125 L 32 125 C 32 163 43 195 65 221 C 87 247 121 261 166 261 C 208 261 240 249 262 226 C 284 203 295 175 295 142 C 295 123 291 107 285 93 C 278 79 269 67 258 57 C 246 47 233 37 219 28 C 205 19 190 10 175 2 C 161 -6 147 -14 134 -22 C 121 -30 109 -39 99 -49 C 89 -59 80 -70 73 -82 C 66 -94 62 -109 61 -125 L 297 -125 L 297 -150 L 27 -150 Z" unicode="₂" />
<glyph horiz-adv-x="344" d="M 180 77 C 208 77 229 84 245 99 C 261 113 269 132 269 155 C 269 180 259 200 241 215 C 223 230 199 238 171 238 C 137 238 111 228 95 209 C 78 189 69 166 67 138 L 39 138 C 40 172 52 201 74 225 C 96 249 128 262 171 262 C 207 262 238 252 262 233 C 286 214 298 188 298 156 C 298 134 292 115 280 100 C 268 85 253 74 233 67 L 233 66 C 259 59 279 47 293 31 C 307 14 315 -8 315 -36 C 315 -74 301 -103 275 -124 C 248 -145 214 -156 174 -156 C 129 -156 93 -143 67 -119 C 40 -94 26 -62 25 -22 L 54 -22 C 56 -55 67 -81 88 -101 C 108 -121 137 -131 173 -131 C 207 -131 234 -122 254 -105 C 274 -88 285 -64 285 -34 C 285 -5 275 16 256 31 C 237 45 212 53 181 53 L 144 53 L 144 77 L 180 77 Z" unicode="₃" />
<glyph horiz-adv-x="352" d="M 237 -150 L 237 -43 L 25 -43 L 25 -16 L 239 260 L 265 260 L 265 -18 L 329 -18 L 329 -43 L 265 -43 L 265 -150 L 237 -150 Z M 237 214 L 236 214 L 55 -18 L 237 -18 L 237 214 Z" unicode="₄" />
<glyph horiz-adv-x="334" d="M 101 229 L 70 75 L 71 75 C 81 86 95 95 112 103 C 129 110 149 114 173 114 C 213 114 245 101 269 76 C 293 51 305 19 305 -21 C 305 -41 301 -59 294 -76 C 287 -92 277 -106 265 -118 C 253 -130 238 -139 222 -146 C 205 -152 187 -156 168 -156 C 146 -156 126 -152 109 -146 C 92 -140 78 -131 66 -121 C 54 -110 44 -98 37 -84 C 30 -70 26 -55 25 -40 L 54 -40 C 57 -64 68 -86 86 -104 C 104 -122 131 -131 167 -131 C 198 -131 224 -121 245 -101 C 265 -81 276 -54 276 -20 C 276 12 266 38 248 58 C 230 78 203 89 169 89 C 141 89 118 83 101 73 C 84 63 72 51 64 38 L 37 38 L 80 255 L 284 255 L 284 229 L 101 229 Z" unicode="₅" />
<glyph horiz-adv-x="352" d="M 60 57 C 60 51 60 46 61 42 C 61 38 62 33 63 28 C 70 52 84 73 106 90 C 128 107 154 116 186 116 C 206 116 224 112 241 106 C 257 99 272 90 284 78 C 296 66 305 51 312 35 C 319 18 323 0 323 -19 C 323 -40 319 -59 312 -76 C 304 -93 294 -107 282 -119 C 269 -131 254 -140 238 -146 C 221 -152 204 -156 186 -156 C 142 -156 107 -142 81 -114 C 62 -94 49 -70 42 -42 C 34 -13 31 19 31 55 C 31 121 45 172 73 208 C 101 243 138 261 185 261 C 222 261 251 251 272 232 C 293 212 306 188 312 158 L 283 158 C 277 182 267 201 251 215 C 235 229 213 236 186 236 C 146 236 115 220 93 190 C 71 159 60 115 60 57 Z M 70 -21 C 70 -52 80 -78 102 -99 C 124 -120 151 -131 185 -131 C 199 -131 213 -128 227 -124 C 240 -119 252 -112 262 -102 C 272 -92 280 -81 286 -67 C 292 -53 295 -38 295 -20 C 295 14 284 40 263 60 C 242 80 216 90 184 90 C 166 90 151 86 137 80 C 123 74 111 65 101 55 C 91 45 83 33 78 20 C 72 6 70 -7 70 -21 Z" unicode="₆" />
<glyph horiz-adv-x="324" d="M 96 -150 C 98 -77 114 -8 144 55 C 174 119 213 177 263 229 L 24 229 L 24 255 L 297 255 L 297 231 C 245 178 204 120 175 57 C 145 -5 129 -74 126 -150 L 96 -150 L 96 -150 Z" unicode="₇" />
<glyph horiz-adv-x="358" d="M 180 -155 C 159 -155 139 -152 121 -147 C 103 -141 87 -134 74 -124 C 60 -114 50 -101 42 -87 C 34 -72 30 -55 30 -36 C 30 -8 38 15 54 33 C 70 51 91 65 118 73 L 118 74 C 97 82 81 93 69 108 C 57 122 52 140 52 162 C 52 192 64 217 88 235 C 112 253 143 262 179 262 C 215 262 245 252 269 234 C 293 216 305 192 305 162 C 305 140 299 122 287 107 C 275 92 259 81 239 74 L 239 73 C 267 65 288 52 304 34 C 320 15 328 -8 328 -36 C 328 -55 324 -72 316 -87 C 308 -101 298 -114 285 -124 C 271 -134 256 -141 238 -147 C 220 -152 200 -155 180 -155 Z M 180 -131 C 216 -131 244 -122 266 -105 C 288 -88 299 -65 299 -36 C 299 -6 288 17 266 34 C 244 50 215 59 179 59 C 143 59 114 50 92 34 C 70 17 59 -6 59 -36 C 59 -66 70 -89 92 -106 C 114 -122 144 -131 180 -131 Z M 179 83 C 208 83 232 90 250 104 C 268 118 277 137 277 161 C 277 184 268 203 250 217 C 232 231 208 239 179 239 C 149 239 125 231 107 217 C 89 203 80 184 80 161 C 80 137 89 118 107 104 C 125 90 149 83 179 83 Z" unicode="₈" />
<glyph horiz-adv-x="353" d="M 293 45 C 293 51 292 56 292 60 C 291 64 290 68 290 74 C 282 49 267 29 247 13 C 226 -3 200 -11 170 -11 C 149 -11 130 -7 113 -1 C 96 5 81 15 69 27 C 56 39 46 53 39 69 C 32 85 29 104 29 124 C 29 144 32 163 40 180 C 47 197 57 212 70 224 C 82 236 97 245 114 251 C 130 257 148 261 168 261 C 189 261 208 257 226 250 C 243 243 258 233 271 221 C 290 201 303 177 310 149 C 317 121 321 88 321 52 C 321 -24 305 -79 275 -114 C 251 -142 217 -156 175 -156 C 136 -156 105 -146 81 -128 C 57 -110 43 -84 38 -50 L 67 -50 C 72 -75 84 -95 102 -109 C 120 -123 144 -131 174 -131 C 210 -131 237 -118 256 -94 C 269 -78 278 -58 284 -34 C 289 -10 292 16 293 45 Z M 282 126 C 282 141 279 155 273 169 C 267 182 259 194 249 204 C 239 214 227 222 213 228 C 199 234 184 237 168 237 C 153 237 139 234 126 229 C 112 224 101 217 91 207 C 81 197 73 186 67 172 C 61 158 58 143 58 125 C 58 91 68 64 90 44 C 111 24 138 15 170 15 C 188 15 203 18 217 24 C 231 30 242 38 252 48 C 262 58 269 70 274 84 C 279 97 282 111 282 126 Z" unicode="₉" />
<glyph horiz-adv-x="164" d="" unicode=" " />
<glyph horiz-adv-x="174" d="M 76 413 L 98 413 L 103 130 L 103 -127 L 70 -127 L 70 130 L 76 413 Z M 69 588 L 105 588 L 105 518 L 69 518 L 69 588 Z" unicode="¡" />
<glyph horiz-adv-x="494" d="M 472 174 C 465 122 445 80 413 46 C 380 12 333 -6 273 -10 L 273 -85 L 248 -85 L 248 -10 C 212 -8 181 0 154 14 C 126 28 103 48 84 72 C 65 96 51 124 41 156 C 31 188 26 222 26 259 C 26 295 30 329 40 361 C 50 393 64 420 83 444 C 102 468 125 487 153 501 C 181 515 212 523 248 525 L 248 591 L 273 591 L 273 525 C 325 522 368 507 403 479 C 437 451 459 413 469 364 L 439 364 C 429 408 409 441 379 463 C 349 484 313 496 273 499 L 273 17 C 321 20 360 35 390 63 C 419 91 437 128 443 174 L 472 174 Z M 57 259 C 57 224 61 192 71 163 C 80 134 93 109 110 88 C 126 66 146 49 170 37 C 193 25 219 18 248 17 L 248 499 C 219 497 193 491 170 479 C 146 467 126 450 110 429 C 93 408 80 383 71 354 C 61 325 57 293 57 259 Z" unicode="¢" />
<glyph horiz-adv-x="524" d="M 34 348 L 110 348 C 98 376 88 402 80 427 C 72 452 68 479 68 507 C 68 533 72 558 82 581 C 91 604 104 624 122 641 C 140 658 162 671 188 681 C 214 691 244 696 278 696 C 306 696 333 691 358 683 C 383 674 405 661 424 643 C 442 625 457 603 468 577 C 479 551 485 520 486 485 L 456 485 C 454 517 449 545 439 569 C 429 592 415 611 399 626 C 383 640 364 651 343 658 C 321 665 299 669 276 669 C 219 669 175 654 145 624 C 115 594 100 554 100 506 C 100 480 104 455 112 430 C 120 405 130 378 142 348 L 313 348 L 313 321 L 152 321 C 157 305 161 289 165 273 C 168 257 170 240 170 224 C 170 187 164 155 153 129 C 141 102 124 77 102 55 L 103 54 C 123 65 146 71 172 71 C 192 71 210 68 226 62 C 242 56 257 51 271 45 C 285 38 299 32 315 27 C 331 22 348 20 368 20 C 391 20 412 25 432 35 C 452 45 470 59 486 76 L 504 54 C 484 34 464 19 443 8 C 422 -2 397 -8 367 -8 C 343 -8 323 -5 307 0 C 291 5 276 11 262 18 C 248 24 233 30 219 36 C 204 42 187 45 167 45 C 145 45 126 40 108 32 C 90 24 72 12 53 -3 L 34 22 C 67 48 93 77 112 109 C 131 140 141 177 141 221 C 141 238 139 255 135 272 C 131 288 126 305 120 321 L 34 321 L 34 348 Z" unicode="£" />
<glyph horiz-adv-x="460" d="M 424 125 L 354 198 C 338 182 319 170 299 162 C 278 154 255 150 230 150 C 204 150 181 154 160 162 C 139 170 121 182 106 198 L 36 125 L 17 144 L 87 218 C 59 253 46 297 46 349 C 46 374 49 398 56 420 C 63 442 73 461 87 479 L 17 554 L 36 573 L 105 500 C 120 515 138 527 160 535 C 181 543 204 548 230 548 C 255 548 278 543 299 535 C 320 527 338 515 354 500 L 424 573 L 443 554 L 372 480 C 400 444 414 400 414 349 C 414 297 400 254 372 218 L 443 144 L 424 125 Z M 76 349 C 76 325 79 302 86 282 C 93 261 103 243 117 227 C 130 211 146 199 165 190 C 184 181 206 177 230 177 C 254 177 275 181 294 190 C 312 199 328 211 342 227 C 355 243 365 261 372 282 C 379 302 383 325 383 349 C 383 373 379 395 372 416 C 365 437 355 456 342 472 C 328 488 312 500 294 509 C 275 518 254 523 230 523 C 206 523 184 518 165 509 C 146 500 130 488 117 472 C 103 456 93 437 86 416 C 79 395 76 373 76 349 Z" unicode="¤" />
<glyph horiz-adv-x="529" d="M 472 189 L 279 189 L 279 0 L 248 0 L 248 189 L 56 189 L 56 216 L 248 216 L 248 309 L 56 309 L 56 335 L 238 335 L 11 685 L 47 685 L 263 348 L 264 348 L 483 685 L 518 685 L 289 335 L 472 335 L 472 309 L 279 309 L 279 216 L 472 216 L 472 189 Z" unicode="¥" />
<glyph horiz-adv-x="183" d="M 77 754 L 106 754 L 106 358 L 77 358 L 77 754 Z M 77 294 L 106 294 L 106 -118 L 77 -118 L 77 294 Z" unicode="¦" />
<glyph horiz-adv-x="545" d="M 517 186 C 517 150 506 121 485 99 C 464 77 437 61 403 51 C 419 35 431 20 437 6 C 443 -8 447 -25 447 -45 C 447 -85 432 -117 402 -141 C 372 -164 331 -176 281 -176 C 251 -176 225 -171 201 -163 C 177 -155 156 -143 138 -127 C 120 -111 107 -93 97 -72 C 87 -50 81 -27 79 -1 L 111 -1 C 115 -49 132 -85 163 -110 C 194 -135 233 -148 281 -148 C 321 -148 354 -139 378 -121 C 402 -103 415 -77 415 -45 C 415 -29 412 -15 407 -3 C 401 8 392 19 379 31 C 365 43 347 55 325 69 C 302 83 273 100 239 120 C 206 138 177 156 151 172 C 125 188 102 204 84 220 C 66 236 52 252 42 270 C 32 288 28 308 28 331 C 28 366 38 394 59 416 C 80 438 109 454 146 465 C 131 478 120 492 112 507 C 104 522 100 540 100 560 C 100 600 114 632 144 656 C 173 680 215 693 269 693 C 322 693 364 678 396 649 C 428 620 446 581 450 531 L 418 531 C 414 573 399 606 373 630 C 347 653 312 665 268 665 C 224 665 190 655 167 637 C 143 618 132 593 132 561 C 132 543 136 527 145 513 C 153 499 166 485 183 473 C 199 460 219 447 243 433 C 267 419 294 404 324 387 C 355 369 383 352 407 337 C 431 322 451 307 467 292 C 483 276 496 260 504 243 C 512 226 517 207 517 186 Z M 311 360 C 278 379 250 395 228 408 C 205 420 185 433 169 445 C 131 435 103 421 86 402 C 68 383 60 360 60 332 C 60 314 63 299 70 285 C 76 271 87 257 103 244 C 118 230 138 216 162 201 C 186 185 217 168 253 148 C 285 130 310 115 330 103 C 350 91 367 79 381 69 C 413 78 438 92 457 112 C 476 131 486 155 486 185 C 486 203 482 219 475 233 C 467 247 456 260 442 274 C 428 287 410 300 388 314 C 366 328 340 343 311 360 Z" unicode="§" />
<glyph horiz-adv-x="464" d="M 173 644 L 143 644 L 143 709 L 173 709 L 173 644 Z M 321 644 L 291 644 L 291 709 L 321 709 L 321 644 Z" unicode="¨" />
<glyph horiz-adv-x="805" d="M 403 -14 C 351 -14 304 -4 260 14 C 216 32 177 58 145 91 C 113 124 87 163 69 208 C 50 253 41 302 41 355 C 41 407 50 456 69 501 C 87 546 113 585 145 618 C 177 651 216 677 260 696 C 304 715 351 725 403 725 C 453 725 501 715 545 696 C 589 677 627 651 659 618 C 691 585 717 546 736 501 C 754 456 764 407 764 355 C 764 302 754 253 736 208 C 717 163 691 124 659 91 C 627 58 589 32 545 14 C 501 -4 453 -14 403 -14 Z M 403 8 C 451 8 495 16 536 34 C 577 52 613 76 643 107 C 673 138 696 175 713 217 C 730 259 739 305 739 355 C 739 404 730 450 713 493 C 696 535 673 572 643 603 C 613 634 577 658 536 676 C 495 694 451 703 403 703 C 355 703 310 694 269 676 C 228 658 193 634 163 603 C 133 572 109 535 92 493 C 75 450 67 404 67 355 C 67 305 75 259 92 217 C 109 175 133 138 163 107 C 193 76 228 52 269 34 C 310 16 355 8 403 8 Z M 552 451 C 546 481 532 507 508 529 C 484 551 451 562 409 562 C 381 562 356 556 334 546 C 312 536 294 521 280 503 C 265 485 254 463 246 438 C 238 413 235 386 235 357 C 235 326 239 298 247 273 C 255 248 266 227 281 209 C 296 191 314 177 336 167 C 357 157 381 152 407 152 C 453 152 488 164 513 190 C 538 215 553 247 557 285 L 587 285 C 585 263 581 243 573 224 C 565 205 553 189 539 175 C 523 159 505 147 483 138 C 461 129 436 125 407 125 C 377 125 350 130 325 141 C 300 152 279 168 261 188 C 243 208 228 232 218 261 C 208 289 203 321 203 357 C 203 390 207 421 217 449 C 226 477 240 502 258 523 C 276 543 297 559 323 571 C 348 583 377 589 409 589 C 434 589 457 585 477 578 C 497 571 514 561 529 549 C 543 536 555 521 564 505 C 573 488 579 470 583 451 L 552 451 Z" unicode="©" />
<glyph horiz-adv-x="460" d="M 415 232 C 394 232 379 238 370 251 C 361 263 357 279 357 299 L 357 323 L 356 323 C 343 296 323 273 295 255 C 267 237 231 228 187 228 C 143 228 108 239 80 261 C 52 283 39 313 39 353 C 39 378 43 399 53 415 C 63 431 76 444 92 454 C 108 464 127 471 149 476 C 171 480 194 484 218 487 C 244 489 265 492 283 495 C 301 498 315 502 326 507 C 337 511 345 517 350 523 C 354 529 357 538 357 548 L 357 560 C 357 597 346 625 326 645 C 306 664 275 674 234 674 C 191 674 158 664 134 646 C 110 628 96 599 93 560 L 63 560 C 64 580 68 598 76 615 C 83 632 94 647 108 660 C 122 672 139 682 160 689 C 180 696 205 700 234 700 C 284 700 322 688 348 664 C 374 640 387 605 387 557 L 387 302 C 387 284 390 273 396 267 C 402 261 410 258 421 258 C 429 258 438 260 448 264 L 450 264 L 450 240 C 446 238 442 236 436 234 C 430 232 423 232 415 232 Z M 190 254 C 214 254 237 257 258 265 C 278 273 296 283 311 296 C 325 309 337 325 345 343 C 353 361 357 380 357 401 L 357 497 C 346 489 330 482 310 477 C 289 472 260 467 223 462 C 199 459 177 456 159 452 C 140 448 124 442 111 434 C 97 426 87 415 80 402 C 73 389 70 373 70 353 C 70 335 73 319 80 307 C 87 294 96 284 108 276 C 119 268 132 262 146 259 C 160 255 175 254 190 254 Z" unicode="ª" />
<glyph horiz-adv-x="378" d="M 190 252 L 190 291 L 324 411 L 324 373 L 211 272 L 211 271 L 324 169 L 324 131 L 190 252 Z M 54 252 L 54 291 L 188 411 L 188 373 L 75 272 L 75 271 L 188 169 L 188 131 L 54 252 Z" unicode="«" />
<glyph horiz-adv-x="525" d="M 414 147 L 414 354 L 60 354 L 60 383 L 445 383 L 445 147 L 414 147 Z" unicode="¬" />
<glyph horiz-adv-x="305" d="M 36 292 L 269 292 L 269 264 L 36 264 L 36 292 Z" unicode="­" />
<glyph horiz-adv-x="522" d="M 261 247 C 228 247 197 253 169 265 C 141 277 116 293 95 315 C 73 336 56 361 44 390 C 32 419 26 451 26 486 C 26 520 32 551 44 581 C 56 610 73 635 95 657 C 116 678 141 695 169 707 C 197 719 228 725 261 725 C 293 725 324 719 352 707 C 380 695 405 678 427 657 C 448 635 465 610 477 581 C 489 551 496 520 496 486 C 496 451 489 419 477 390 C 465 361 448 336 427 315 C 405 293 380 277 352 265 C 324 253 293 247 261 247 Z M 261 268 C 291 268 318 273 344 284 C 370 295 392 310 411 330 C 430 349 445 372 456 399 C 466 425 472 454 472 486 C 472 517 466 546 456 573 C 445 599 430 622 411 642 C 392 661 370 676 344 687 C 318 698 291 704 261 704 C 231 704 204 698 178 687 C 152 676 130 661 111 642 C 92 622 77 599 67 573 C 56 546 51 517 51 486 C 51 454 56 425 67 399 C 77 372 92 349 111 330 C 130 310 152 295 178 284 C 204 273 231 268 261 268 Z M 197 360 L 171 360 L 171 619 L 280 619 C 304 619 323 612 338 600 C 353 588 361 570 361 548 C 361 514 344 493 312 485 L 312 484 C 326 480 336 473 342 463 C 348 453 351 440 353 424 C 355 402 356 386 357 378 C 358 370 360 365 364 363 L 364 360 L 339 360 C 336 362 334 367 333 376 C 331 385 330 400 329 421 C 327 442 321 456 311 463 C 300 470 285 474 267 474 L 197 474 L 197 360 Z M 197 495 L 274 495 C 294 495 310 499 320 508 C 330 517 335 530 335 546 C 335 562 329 574 319 583 C 309 592 294 597 275 597 L 197 597 L 197 495 Z" unicode="®" />
<glyph horiz-adv-x="478" d="M 125 671 L 353 671 L 353 641 L 125 641 L 125 671 Z" unicode="¯" />
<glyph horiz-adv-x="309" d="M 155 462 C 138 462 122 465 108 471 C 94 477 81 485 71 495 C 60 505 52 518 46 532 C 40 546 37 562 37 579 C 37 595 40 610 46 624 C 52 638 60 651 71 662 C 81 672 94 681 108 687 C 122 693 138 696 155 696 C 171 696 187 693 201 687 C 215 681 228 672 238 662 C 248 651 256 638 262 624 C 268 610 271 595 271 579 C 271 545 260 517 238 495 C 216 473 189 462 155 462 Z M 155 486 C 181 486 202 494 218 512 C 234 530 243 552 243 579 C 243 605 234 626 218 644 C 202 662 181 671 155 671 C 129 671 107 662 91 645 C 74 627 66 605 66 579 C 66 552 74 530 91 512 C 107 494 129 486 155 486 Z" unicode="°" />
<glyph horiz-adv-x="524" d="M 54 357 L 247 357 L 247 543 L 277 543 L 277 357 L 470 357 L 470 328 L 277 328 L 277 139 L 247 139 L 247 328 L 54 328 L 54 357 Z M 54 28 L 470 28 L 470 0 L 54 0 L 54 28 Z" unicode="±" />
<glyph horiz-adv-x="327" d="M 27 310 C 27 333 31 353 39 370 C 46 387 56 402 68 415 C 80 428 93 440 109 450 C 125 460 141 471 157 481 C 171 489 185 498 199 506 C 212 514 224 522 234 531 C 244 540 251 550 257 561 C 263 572 266 585 266 601 C 266 630 257 653 240 670 C 222 687 198 696 166 696 C 129 696 102 685 85 664 C 68 642 60 616 60 585 L 32 585 C 32 623 43 655 65 681 C 87 707 121 721 166 721 C 208 721 240 709 262 686 C 284 663 295 635 295 602 C 295 583 291 567 285 554 C 278 540 269 528 258 518 C 246 507 233 497 219 488 C 205 479 190 470 175 462 C 161 454 147 445 134 437 C 121 429 109 420 99 410 C 89 400 80 389 73 377 C 66 365 62 351 61 335 L 297 335 L 297 310 L 27 310 Z" unicode="²" />
<glyph horiz-adv-x="344" d="M 180 537 C 208 537 229 544 245 559 C 261 573 269 592 269 614 C 269 639 259 659 241 674 C 223 689 199 697 171 697 C 137 697 111 687 95 668 C 78 649 69 626 67 598 L 39 598 C 39 614 43 630 49 645 C 55 660 63 673 74 684 C 85 695 99 704 115 711 C 131 717 149 721 171 721 C 207 721 238 711 262 692 C 286 673 298 647 298 615 C 298 593 292 574 280 559 C 268 544 253 533 233 527 L 233 526 C 259 518 279 506 293 490 C 307 473 315 451 315 424 C 315 386 301 356 275 335 C 248 313 214 303 174 303 C 129 303 93 315 67 340 C 40 364 26 397 25 437 L 54 437 C 56 403 67 377 88 357 C 108 337 137 328 173 328 C 207 328 234 336 254 354 C 274 371 285 395 285 425 C 285 453 275 475 256 490 C 237 504 212 512 181 512 L 144 512 L 144 537 L 180 537 Z" unicode="³" />
<glyph horiz-adv-x="468" d="M 279 721 L 319 721 L 238 597 L 210 597 L 279 721 Z" unicode="´" />
<glyph horiz-adv-x="479" d="M 396 89 L 394 89 C 386 76 377 64 367 52 C 357 40 344 30 330 21 C 316 12 299 5 281 0 C 262 -6 241 -9 217 -9 C 184 -9 157 -2 135 9 C 113 21 95 39 83 61 L 82 61 L 82 -166 L 53 -166 L 53 517 L 83 517 L 83 150 C 83 106 95 73 120 51 C 144 29 178 18 221 18 C 247 18 270 22 292 31 C 313 39 331 51 347 65 C 363 79 375 96 383 115 C 391 133 396 153 396 173 L 396 517 L 426 517 L 426 0 L 396 0 L 396 89 Z" unicode="µ" />
<glyph horiz-adv-x="454" d="M 219 384 C 157 384 109 398 77 427 C 45 456 29 498 29 552 C 29 576 33 599 41 619 C 49 639 61 657 77 671 C 108 700 153 715 211 715 L 389 715 L 389 0 L 358 0 L 358 685 L 282 685 L 282 0 L 250 0 L 250 384 L 219 384 Z" unicode="¶" />
<glyph horiz-adv-x="122" d="M 81 279 L 44 279 L 44 345 L 81 345 L 81 279 Z" unicode="·" />
<glyph horiz-adv-x="494" d="M 282 0 L 222 -55 C 223 -53 225 -53 229 -53 C 232 -53 235 -53 239 -53 C 263 -52 283 -57 297 -68 C 311 -78 318 -93 318 -112 C 318 -135 309 -152 291 -164 C 273 -175 250 -181 223 -181 C 205 -181 189 -178 173 -174 C 157 -169 142 -163 129 -155 L 139 -138 C 163 -151 190 -158 219 -158 C 239 -158 256 -154 269 -147 C 281 -139 288 -128 288 -112 C 288 -87 270 -75 234 -75 C 224 -75 216 -76 208 -78 C 200 -80 193 -82 187 -86 L 177 -71 L 250 0 L 282 0 Z" unicode="¸" />
<glyph horiz-adv-x="228" d="M 125 309 L 125 646 C 117 634 105 626 87 621 C 69 616 49 614 27 614 L 27 638 C 59 638 83 644 99 655 C 115 665 125 686 129 717 L 154 717 L 154 309 L 125 309 Z" unicode="¹" />
<glyph horiz-adv-x="485" d="M 243 225 C 209 225 180 231 154 243 C 128 255 105 272 87 294 C 69 316 55 341 45 370 C 35 398 31 429 31 463 C 31 495 35 526 45 555 C 55 584 69 609 87 631 C 105 652 128 669 154 681 C 180 693 209 700 243 700 C 275 700 305 693 331 681 C 357 669 380 652 398 631 C 416 609 429 584 439 555 C 449 526 454 495 454 463 C 454 429 449 398 439 370 C 429 341 416 316 398 294 C 380 272 357 255 331 243 C 305 231 275 225 243 225 Z M 243 251 C 271 251 297 256 319 268 C 341 279 360 294 376 313 C 392 332 404 354 412 380 C 420 406 424 433 424 463 C 424 491 420 519 412 545 C 404 571 392 593 376 612 C 360 631 341 646 319 658 C 297 669 271 675 243 675 C 214 675 188 669 166 658 C 143 646 124 631 109 612 C 93 593 81 571 73 545 C 65 519 61 491 61 463 C 61 433 65 406 73 380 C 81 354 93 332 109 313 C 124 294 143 279 166 268 C 188 256 214 251 243 251 Z" unicode="º" />
<glyph horiz-adv-x="378" d="M 190 169 L 303 272 L 190 373 L 190 411 L 324 291 L 324 252 L 190 131 L 190 169 Z M 54 169 L 167 272 L 54 373 L 54 411 L 188 291 L 188 252 L 54 131 L 54 169 Z" unicode="»" />
<glyph horiz-adv-x="717" d="M 597 0 L 597 107 L 385 107 L 385 134 L 599 410 L 625 410 L 625 132 L 689 132 L 689 107 L 625 107 L 625 0 L 597 0 Z M 600 715 L 102 0 L 68 0 L 567 715 L 600 715 Z M 597 364 L 596 364 L 415 132 L 597 132 L 597 364 Z M 128 309 L 128 646 C 120 634 108 626 90 621 C 72 616 52 614 30 614 L 30 638 C 62 638 86 644 102 655 C 118 665 128 686 132 717 L 157 717 L 157 309 L 128 309 Z" unicode="¼" />
<glyph horiz-adv-x="746" d="M 441 0 C 441 23 445 43 453 60 C 460 77 470 92 482 105 C 494 118 507 130 523 140 C 539 150 555 161 571 171 C 585 179 599 188 613 196 C 626 204 638 212 648 221 C 658 230 665 240 671 251 C 677 262 680 275 680 291 C 680 320 671 343 654 360 C 636 377 612 386 580 386 C 543 386 516 375 499 354 C 482 332 474 306 474 275 L 446 275 C 446 313 457 345 479 371 C 501 397 535 411 580 411 C 622 411 654 399 676 376 C 698 353 709 325 709 292 C 709 273 705 257 699 243 C 692 229 683 217 672 207 C 660 197 647 187 633 178 C 619 169 604 160 589 152 C 575 144 561 135 548 127 C 535 119 523 110 513 100 C 503 90 494 79 487 67 C 480 55 476 41 475 25 L 711 25 L 711 0 L 441 0 Z M 128 309 L 128 646 C 120 634 108 626 90 621 C 72 616 52 614 30 614 L 30 638 C 62 638 86 644 102 655 C 118 665 128 686 132 717 L 157 717 L 157 309 L 128 309 Z M 589 715 L 91 0 L 57 0 L 556 715 L 589 715 Z" unicode="½" />
<glyph horiz-adv-x="799" d="M 679 0 L 679 107 L 467 107 L 467 134 L 681 410 L 707 410 L 707 132 L 771 132 L 771 107 L 707 107 L 707 0 L 679 0 Z M 183 537 C 211 537 232 544 248 559 C 264 573 272 592 272 614 C 272 639 262 659 244 674 C 226 689 202 697 174 697 C 140 697 114 687 98 668 C 81 649 72 626 70 598 L 42 598 C 42 614 46 630 52 645 C 58 660 66 673 77 684 C 88 695 102 704 118 711 C 134 717 152 721 174 721 C 210 721 241 711 265 692 C 289 673 301 647 301 615 C 301 593 295 574 283 559 C 271 544 256 533 236 527 L 236 526 C 262 518 282 506 296 490 C 310 473 318 451 318 424 C 318 386 304 356 278 335 C 251 313 217 303 177 303 C 132 303 96 315 70 340 C 43 364 29 397 28 437 L 57 437 C 59 403 70 377 91 357 C 111 337 140 328 176 328 C 210 328 237 336 257 354 C 277 371 288 395 288 425 C 288 453 278 475 259 490 C 240 504 215 512 184 512 L 147 512 L 147 537 L 183 537 Z M 691 715 L 193 0 L 159 0 L 658 715 L 691 715 Z M 679 364 L 678 364 L 497 132 L 679 132 L 679 364 Z" unicode="¾" />
<glyph horiz-adv-x="479" d="M 274 412 C 274 385 272 362 269 343 C 265 324 260 307 252 292 C 244 276 233 262 220 248 C 207 234 191 219 172 203 C 160 193 148 183 136 173 C 124 163 113 151 103 139 C 93 127 85 113 79 97 C 73 81 70 63 70 42 C 70 19 74 -1 82 -19 C 90 -37 102 -53 117 -67 C 131 -80 149 -90 169 -98 C 189 -105 212 -109 236 -109 C 266 -109 292 -104 315 -94 C 338 -84 357 -71 373 -55 C 389 -39 401 -19 409 2 C 417 24 421 49 423 75 L 454 75 C 453 47 448 20 439 -5 C 430 -30 417 -52 399 -72 C 381 -92 358 -107 331 -119 C 303 -131 271 -137 235 -137 C 205 -137 178 -132 154 -123 C 130 -114 109 -102 92 -86 C 74 -70 61 -51 52 -29 C 42 -7 38 16 38 42 C 38 66 41 86 47 104 C 53 122 62 137 73 151 C 83 165 95 177 109 189 C 123 200 137 212 152 224 C 169 238 184 252 196 264 C 208 276 217 290 224 304 C 231 318 236 333 239 350 C 242 367 244 388 244 412 L 274 412 Z M 240 588 L 277 588 L 277 518 L 240 518 L 240 588 Z" unicode="¿" />
<glyph horiz-adv-x="604" d="M 469 244 L 135 244 L 41 0 L 8 0 L 284 715 L 320 715 L 596 0 L 563 0 L 469 244 Z M 145 271 L 458 271 L 303 677 L 302 677 L 145 271 Z M 317 755 L 288 755 L 206 867 L 246 867 L 317 755 Z" unicode="À" />
<glyph horiz-adv-x="604" d="M 469 244 L 135 244 L 41 0 L 8 0 L 284 715 L 320 715 L 596 0 L 563 0 L 469 244 Z M 145 271 L 458 271 L 303 677 L 302 677 L 145 271 Z M 352 867 L 393 867 L 313 755 L 285 755 L 352 867 Z" unicode="Á" />
<glyph horiz-adv-x="604" d="M 469 244 L 135 244 L 41 0 L 8 0 L 284 715 L 320 715 L 596 0 L 563 0 L 469 244 Z M 145 271 L 458 271 L 303 677 L 302 677 L 145 271 Z M 414 755 L 378 755 L 302 838 L 301 838 L 224 755 L 189 755 L 283 858 L 320 858 L 414 755 Z" unicode="Â" />
<glyph horiz-adv-x="604" d="M 469 244 L 135 244 L 41 0 L 8 0 L 284 715 L 320 715 L 596 0 L 563 0 L 469 244 Z M 145 271 L 458 271 L 303 677 L 302 677 L 145 271 Z M 237 845 C 251 845 263 842 274 837 C 284 831 295 825 305 819 C 315 812 324 806 334 801 C 344 795 354 793 366 793 C 377 793 386 797 394 805 C 401 813 405 827 407 845 L 433 845 C 431 818 424 798 412 785 C 400 772 384 766 366 766 C 352 766 340 768 329 774 C 318 779 308 785 298 792 C 288 798 278 804 268 810 C 258 815 247 818 236 818 C 225 818 216 813 209 805 C 201 797 197 784 196 766 L 170 766 C 171 792 178 811 190 825 C 202 838 218 845 237 845 Z" unicode="Ã" />
<glyph horiz-adv-x="604" d="M 469 244 L 135 244 L 41 0 L 8 0 L 284 715 L 320 715 L 596 0 L 563 0 L 469 244 Z M 145 271 L 458 271 L 303 677 L 302 677 L 145 271 Z M 243 770 L 213 770 L 213 836 L 243 836 L 243 770 Z M 391 770 L 361 770 L 361 836 L 391 836 L 391 770 Z" unicode="Ä" />
<glyph horiz-adv-x="604" d="M 469 244 L 135 244 L 41 0 L 8 0 L 284 715 L 320 715 L 596 0 L 563 0 L 469 244 Z M 145 271 L 458 271 L 303 677 L 302 677 L 145 271 Z M 301 749 C 277 749 258 756 243 772 C 227 787 220 806 220 830 C 220 853 227 872 243 887 C 258 902 277 910 301 910 C 324 910 343 902 359 887 C 374 872 382 853 382 830 C 382 806 374 787 359 772 C 343 756 324 749 301 749 Z M 301 771 C 318 771 332 776 342 787 C 352 798 358 812 358 830 C 358 847 352 861 342 872 C 332 882 318 888 301 888 C 284 888 270 882 260 872 C 250 861 245 847 245 830 C 245 812 250 798 260 787 C 270 776 284 771 301 771 Z" unicode="Å" />
<glyph horiz-adv-x="914" d="M 477 384 L 833 384 L 833 356 L 477 356 L 477 29 L 877 29 L 877 0 L 445 0 L 445 244 L 142 244 L 44 0 L 12 0 L 297 715 L 867 715 L 867 687 L 477 687 L 477 384 Z M 152 271 L 445 271 L 445 687 L 318 687 L 152 271 Z" unicode="Æ" />
<glyph horiz-adv-x="675" d="M 601 514 C 597 538 588 562 576 584 C 563 606 546 626 526 643 C 506 659 482 673 454 683 C 426 693 395 698 361 698 C 313 698 272 689 236 672 C 200 654 169 630 145 600 C 120 569 101 533 89 492 C 76 450 70 405 70 357 C 70 307 76 262 89 220 C 102 178 121 143 145 113 C 169 83 199 59 235 43 C 271 26 312 18 358 18 C 396 18 431 24 461 37 C 491 49 516 66 538 88 C 560 110 577 135 590 164 C 602 192 611 223 615 256 L 644 256 C 640 221 632 188 620 157 C 607 126 590 99 568 75 C 546 51 520 32 490 17 C 460 2 426 -6 389 -10 L 340 -55 C 342 -53 348 -53 357 -53 C 381 -52 401 -57 415 -68 C 429 -78 436 -93 436 -112 C 436 -135 427 -152 409 -164 C 391 -175 368 -181 341 -181 C 323 -181 307 -178 291 -174 C 275 -169 260 -163 247 -155 L 257 -138 C 281 -151 308 -158 337 -158 C 357 -158 374 -154 387 -147 C 399 -139 406 -128 406 -112 C 406 -87 388 -75 352 -75 C 342 -75 334 -76 326 -78 C 318 -80 311 -82 305 -86 L 295 -71 L 356 -11 C 307 -11 263 -2 224 15 C 184 33 151 58 123 90 C 95 122 74 161 59 206 C 44 251 37 301 37 357 C 37 411 44 460 59 506 C 74 551 96 590 124 622 C 152 654 186 680 226 698 C 266 716 311 726 361 726 C 399 726 434 720 465 709 C 496 698 523 683 546 664 C 569 645 588 623 603 597 C 617 571 627 544 633 514 L 601 514 Z" unicode="Ç" />
<glyph horiz-adv-x="582" d="M 326 755 L 297 755 L 215 867 L 255 867 L 326 755 Z M 96 384 L 500 384 L 500 356 L 96 356 L 96 29 L 545 29 L 545 0 L 65 0 L 65 715 L 535 715 L 535 687 L 96 687 L 96 384 Z" unicode="È" />
<glyph horiz-adv-x="582" d="M 353 867 L 394 867 L 314 755 L 286 755 L 353 867 Z M 96 384 L 500 384 L 500 356 L 96 356 L 96 29 L 545 29 L 545 0 L 65 0 L 65 715 L 535 715 L 535 687 L 96 687 L 96 384 Z" unicode="É" />
<glyph horiz-adv-x="582" d="M 96 384 L 500 384 L 500 356 L 96 356 L 96 29 L 545 29 L 545 0 L 65 0 L 65 715 L 535 715 L 535 687 L 96 687 L 96 384 Z M 418 755 L 382 755 L 306 838 L 305 838 L 228 755 L 193 755 L 287 858 L 324 858 L 418 755 Z" unicode="Ê" />
<glyph horiz-adv-x="582" d="M 247 770 L 217 770 L 217 836 L 247 836 L 247 770 Z M 395 770 L 365 770 L 365 836 L 395 836 L 395 770 Z M 96 384 L 500 384 L 500 356 L 96 356 L 96 29 L 545 29 L 545 0 L 65 0 L 65 715 L 535 715 L 535 687 L 96 687 L 96 384 Z" unicode="Ë" />
<glyph horiz-adv-x="167" d="M 99 0 L 68 0 L 68 715 L 99 715 L 99 0 Z M 97 755 L 68 755 L -14 867 L 26 867 L 97 755 Z" unicode="Ì" />
<glyph horiz-adv-x="167" d="M 99 0 L 68 0 L 68 715 L 99 715 L 99 0 Z M 138 867 L 179 867 L 99 755 L 71 755 L 138 867 Z" unicode="Í" />
<glyph horiz-adv-x="167" d="M 99 0 L 68 0 L 68 715 L 99 715 L 99 0 Z M 196 755 L 160 755 L 84 838 L 83 838 L 6 755 L -29 755 L 65 858 L 102 858 L 196 755 Z" unicode="Î" />
<glyph horiz-adv-x="167" d="M 32 770 L 2 770 L 2 836 L 32 836 L 32 770 Z M 165 770 L 135 770 L 135 836 L 165 836 L 165 770 Z M 99 0 L 68 0 L 68 715 L 99 715 L 99 0 Z" unicode="Ï" />
<glyph horiz-adv-x="667" d="M 76 346 L 3 346 L 3 374 L 76 374 L 76 715 L 332 715 C 384 715 428 705 465 686 C 502 667 533 641 557 609 C 581 576 598 538 610 494 C 621 450 627 404 627 354 C 627 304 621 257 609 214 C 597 171 578 134 553 102 C 528 70 497 45 459 27 C 421 9 377 0 325 0 L 76 0 L 76 346 Z M 325 28 C 368 28 406 35 440 50 C 473 65 501 87 524 115 C 547 143 564 177 576 217 C 588 257 594 303 594 354 C 594 404 588 450 577 491 C 566 531 550 566 528 595 C 506 624 478 646 446 662 C 413 678 375 686 332 686 L 107 686 L 107 374 L 365 374 L 365 346 L 107 346 L 107 28 L 325 28 Z" unicode="Ð" />
<glyph horiz-adv-x="660" d="M 278 845 C 292 845 304 842 315 837 C 325 831 336 825 346 819 C 356 812 365 806 375 801 C 385 795 395 793 407 793 C 418 793 427 797 435 805 C 442 813 446 827 448 845 L 474 845 C 472 818 465 798 453 785 C 441 772 425 766 407 766 C 393 766 381 768 370 774 C 359 779 349 785 339 792 C 329 798 319 804 309 810 C 299 815 288 818 277 818 C 266 818 257 813 250 805 C 242 797 238 784 237 766 L 211 766 C 212 792 219 811 231 825 C 243 838 259 845 278 845 Z M 595 0 L 562 0 L 96 663 L 95 663 L 95 0 L 65 0 L 65 715 L 100 715 L 564 52 L 565 52 L 565 715 L 595 715 L 595 0 Z" unicode="Ñ" />
<glyph horiz-adv-x="732" d="M 386 755 L 357 755 L 275 867 L 315 867 L 386 755 Z M 365 -10 C 316 -10 272 0 232 17 C 192 35 157 61 128 94 C 99 126 77 165 61 210 C 45 254 37 303 37 357 C 37 409 45 458 61 504 C 77 549 99 588 128 621 C 157 653 192 679 232 698 C 272 716 316 726 365 726 C 413 726 458 716 498 698 C 538 679 573 653 602 621 C 631 588 654 549 670 504 C 686 458 695 409 695 357 C 695 304 686 255 670 210 C 654 165 631 126 602 94 C 573 61 538 35 498 17 C 458 0 413 -10 365 -10 Z M 365 19 C 410 19 451 27 488 45 C 524 63 555 87 581 117 C 607 147 627 183 641 224 C 655 265 662 309 662 357 C 662 404 655 448 641 490 C 627 531 607 567 581 598 C 555 628 524 652 488 670 C 451 688 410 697 365 697 C 319 697 277 688 241 670 C 205 652 174 628 149 598 C 123 567 104 531 90 490 C 76 448 70 404 70 357 C 70 309 76 265 90 224 C 104 183 123 147 149 117 C 174 87 205 63 241 45 C 277 27 319 19 365 19 Z" unicode="Ò" />
<glyph horiz-adv-x="732" d="M 405 867 L 446 867 L 366 755 L 338 755 L 405 867 Z M 365 -10 C 316 -10 272 0 232 17 C 192 35 157 61 128 94 C 99 126 77 165 61 210 C 45 254 37 303 37 357 C 37 409 45 458 61 504 C 77 549 99 588 128 621 C 157 653 192 679 232 698 C 272 716 316 726 365 726 C 413 726 458 716 498 698 C 538 679 573 653 602 621 C 631 588 654 549 670 504 C 686 458 695 409 695 357 C 695 304 686 255 670 210 C 654 165 631 126 602 94 C 573 61 538 35 498 17 C 458 0 413 -10 365 -10 Z M 365 19 C 410 19 451 27 488 45 C 524 63 555 87 581 117 C 607 147 627 183 641 224 C 655 265 662 309 662 357 C 662 404 655 448 641 490 C 627 531 607 567 581 598 C 555 628 524 652 488 670 C 451 688 410 697 365 697 C 319 697 277 688 241 670 C 205 652 174 628 149 598 C 123 567 104 531 90 490 C 76 448 70 404 70 357 C 70 309 76 265 90 224 C 104 183 123 147 149 117 C 174 87 205 63 241 45 C 277 27 319 19 365 19 Z" unicode="Ó" />
<glyph horiz-adv-x="732" d="M 365 -10 C 316 -10 272 0 232 17 C 192 35 157 61 128 94 C 99 126 77 165 61 210 C 45 254 37 303 37 357 C 37 409 45 458 61 504 C 77 549 99 588 128 621 C 157 653 192 679 232 698 C 272 716 316 726 365 726 C 413 726 458 716 498 698 C 538 679 573 653 602 621 C 631 588 654 549 670 504 C 686 458 695 409 695 357 C 695 304 686 255 670 210 C 654 165 631 126 602 94 C 573 61 538 35 498 17 C 458 0 413 -10 365 -10 Z M 365 19 C 410 19 451 27 488 45 C 524 63 555 87 581 117 C 607 147 627 183 641 224 C 655 265 662 309 662 357 C 662 404 655 448 641 490 C 627 531 607 567 581 598 C 555 628 524 652 488 670 C 451 688 410 697 365 697 C 319 697 277 688 241 670 C 205 652 174 628 149 598 C 123 567 104 531 90 490 C 76 448 70 404 70 357 C 70 309 76 265 90 224 C 104 183 123 147 149 117 C 174 87 205 63 241 45 C 277 27 319 19 365 19 Z M 477 755 L 441 755 L 365 838 L 364 838 L 287 755 L 252 755 L 346 858 L 383 858 L 477 755 Z" unicode="Ô" />
<glyph horiz-adv-x="732" d="M 304 845 C 318 845 330 842 341 837 C 351 831 362 825 372 819 C 382 812 391 806 401 801 C 411 795 421 793 433 793 C 444 793 453 797 461 805 C 468 813 472 827 474 845 L 500 845 C 498 818 491 798 479 785 C 467 772 451 766 433 766 C 419 766 407 768 396 774 C 385 779 375 785 365 792 C 355 798 345 804 335 810 C 325 815 314 818 303 818 C 292 818 283 813 276 805 C 268 797 264 784 263 766 L 237 766 C 238 792 245 811 257 825 C 269 838 285 845 304 845 Z M 365 -10 C 316 -10 272 0 232 17 C 192 35 157 61 128 94 C 99 126 77 165 61 210 C 45 254 37 303 37 357 C 37 409 45 458 61 504 C 77 549 99 588 128 621 C 157 653 192 679 232 698 C 272 716 316 726 365 726 C 413 726 458 716 498 698 C 538 679 573 653 602 621 C 631 588 654 549 670 504 C 686 458 695 409 695 357 C 695 304 686 255 670 210 C 654 165 631 126 602 94 C 573 61 538 35 498 17 C 458 0 413 -10 365 -10 Z M 365 19 C 410 19 451 27 488 45 C 524 63 555 87 581 117 C 607 147 627 183 641 224 C 655 265 662 309 662 357 C 662 404 655 448 641 490 C 627 531 607 567 581 598 C 555 628 524 652 488 670 C 451 688 410 697 365 697 C 319 697 277 688 241 670 C 205 652 174 628 149 598 C 123 567 104 531 90 490 C 76 448 70 404 70 357 C 70 309 76 265 90 224 C 104 183 123 147 149 117 C 174 87 205 63 241 45 C 277 27 319 19 365 19 Z" unicode="Õ" />
<glyph horiz-adv-x="732" d="M 307 770 L 277 770 L 277 836 L 307 836 L 307 770 Z M 455 770 L 425 770 L 425 836 L 455 836 L 455 770 Z M 365 -10 C 316 -10 272 0 232 17 C 192 35 157 61 128 94 C 99 126 77 165 61 210 C 45 254 37 303 37 357 C 37 409 45 458 61 504 C 77 549 99 588 128 621 C 157 653 192 679 232 698 C 272 716 316 726 365 726 C 413 726 458 716 498 698 C 538 679 573 653 602 621 C 631 588 654 549 670 504 C 686 458 695 409 695 357 C 695 304 686 255 670 210 C 654 165 631 126 602 94 C 573 61 538 35 498 17 C 458 0 413 -10 365 -10 Z M 365 19 C 410 19 451 27 488 45 C 524 63 555 87 581 117 C 607 147 627 183 641 224 C 655 265 662 309 662 357 C 662 404 655 448 641 490 C 627 531 607 567 581 598 C 555 628 524 652 488 670 C 451 688 410 697 365 697 C 319 697 277 688 241 670 C 205 652 174 628 149 598 C 123 567 104 531 90 490 C 76 448 70 404 70 357 C 70 309 76 265 90 224 C 104 183 123 147 149 117 C 174 87 205 63 241 45 C 277 27 319 19 365 19 Z" unicode="Ö" />
<glyph horiz-adv-x="508" d="M 432 487 L 273 325 L 432 163 L 412 143 L 254 304 L 96 143 L 76 163 L 234 325 L 75 487 L 95 507 L 254 344 L 413 507 L 432 487 Z" unicode="×" />
<glyph horiz-adv-x="732" d="M 33 7 L 120 104 C 94 136 73 174 59 217 C 44 260 37 307 37 358 C 37 410 45 459 61 504 C 77 549 99 588 128 621 C 157 654 192 680 232 698 C 272 716 316 726 365 726 C 411 726 453 717 491 701 C 529 684 563 661 593 631 L 678 726 L 697 708 L 610 612 C 636 579 657 541 672 498 C 687 454 695 408 695 358 C 695 305 686 256 670 211 C 654 166 631 127 602 95 C 573 62 538 36 498 18 C 458 0 413 -10 365 -10 C 319 -10 276 -1 238 15 C 199 31 165 55 137 85 L 51 -11 L 33 7 Z M 365 19 C 410 19 451 27 488 45 C 524 63 555 87 581 118 C 607 148 627 184 641 225 C 655 266 662 310 662 358 C 662 402 655 444 643 483 C 630 522 612 557 589 587 L 158 107 C 183 79 213 57 247 42 C 281 26 321 19 365 19 Z M 70 358 C 70 312 76 270 88 231 C 100 191 117 157 141 127 L 573 608 C 547 636 517 657 482 673 C 447 689 408 697 365 697 C 319 697 277 688 241 670 C 205 652 174 628 149 598 C 123 568 104 532 90 491 C 76 449 70 405 70 358 Z" unicode="Ø" />
<glyph horiz-adv-x="624" d="M 338 755 L 309 755 L 227 867 L 267 867 L 338 755 Z M 87 715 L 87 233 C 87 193 92 160 103 133 C 114 106 129 84 149 67 C 169 49 192 37 220 29 C 248 21 278 18 312 18 C 344 18 373 21 401 29 C 428 37 452 49 472 67 C 492 84 508 106 520 133 C 531 160 537 193 537 233 L 537 715 L 569 715 L 569 231 C 569 188 562 151 549 121 C 535 91 517 66 494 46 C 471 26 444 12 413 3 C 381 -5 347 -10 311 -10 C 273 -10 239 -5 208 4 C 176 13 149 27 127 47 C 104 66 86 91 74 122 C 61 152 55 189 55 231 L 55 715 L 87 715 Z" unicode="Ù" />
<glyph horiz-adv-x="624" d="M 351 867 L 392 867 L 312 755 L 284 755 L 351 867 Z M 87 715 L 87 233 C 87 193 92 160 103 133 C 114 106 129 84 149 67 C 169 49 192 37 220 29 C 248 21 278 18 312 18 C 344 18 373 21 401 29 C 428 37 452 49 472 67 C 492 84 508 106 520 133 C 531 160 537 193 537 233 L 537 715 L 569 715 L 569 231 C 569 188 562 151 549 121 C 535 91 517 66 494 46 C 471 26 444 12 413 3 C 381 -5 347 -10 311 -10 C 273 -10 239 -5 208 4 C 176 13 149 27 127 47 C 104 66 86 91 74 122 C 61 152 55 189 55 231 L 55 715 L 87 715 Z" unicode="Ú" />
<glyph horiz-adv-x="624" d="M 87 715 L 87 233 C 87 193 92 160 103 133 C 114 106 129 84 149 67 C 169 49 192 37 220 29 C 248 21 278 18 312 18 C 344 18 373 21 401 29 C 428 37 452 49 472 67 C 492 84 508 106 520 133 C 531 160 537 193 537 233 L 537 715 L 569 715 L 569 231 C 569 188 562 151 549 121 C 535 91 517 66 494 46 C 471 26 444 12 413 3 C 381 -5 347 -10 311 -10 C 273 -10 239 -5 208 4 C 176 13 149 27 127 47 C 104 66 86 91 74 122 C 61 152 55 189 55 231 L 55 715 L 87 715 Z M 427 755 L 391 755 L 315 838 L 314 838 L 237 755 L 202 755 L 296 858 L 333 858 L 427 755 Z" unicode="Û" />
<glyph horiz-adv-x="624" d="M 254 770 L 224 770 L 224 836 L 254 836 L 254 770 Z M 402 770 L 372 770 L 372 836 L 402 836 L 402 770 Z M 87 715 L 87 233 C 87 193 92 160 103 133 C 114 106 129 84 149 67 C 169 49 192 37 220 29 C 248 21 278 18 312 18 C 344 18 373 21 401 29 C 428 37 452 49 472 67 C 492 84 508 106 520 133 C 531 160 537 193 537 233 L 537 715 L 569 715 L 569 231 C 569 188 562 151 549 121 C 535 91 517 66 494 46 C 471 26 444 12 413 3 C 381 -5 347 -10 311 -10 C 273 -10 239 -5 208 4 C 176 13 149 27 127 47 C 104 66 86 91 74 122 C 61 152 55 189 55 231 L 55 715 L 87 715 Z" unicode="Ü" />
<glyph horiz-adv-x="576" d="M 287 350 L 288 350 L 533 715 L 568 715 L 303 320 L 303 0 L 272 0 L 272 321 L 8 715 L 43 715 L 287 350 Z M 333 867 L 374 867 L 294 755 L 266 755 L 333 867 Z" unicode="Ý" />
<glyph horiz-adv-x="558" d="M 96 573 L 313 573 C 385 573 440 557 478 525 C 496 509 510 490 520 467 C 530 443 535 415 535 382 C 535 314 515 265 477 234 C 438 202 380 187 302 187 L 96 187 L 96 0 L 65 0 L 65 715 L 96 715 L 96 573 Z M 96 544 L 96 215 L 301 215 C 371 215 423 228 455 255 C 487 282 503 324 503 381 C 503 439 486 480 452 506 C 418 531 371 544 311 544 L 96 544 Z" unicode="Þ" />
<glyph horiz-adv-x="472" d="M 189 418 L 232 418 C 253 418 272 421 289 428 C 306 435 321 445 333 458 C 345 470 354 485 361 502 C 367 518 371 537 371 557 C 371 598 358 632 333 658 C 308 684 273 697 228 697 C 178 697 141 682 118 654 C 94 625 83 586 83 538 L 83 0 L 53 0 L 53 540 C 53 594 67 638 96 672 C 124 706 168 723 228 723 C 254 723 278 718 300 710 C 321 702 339 690 354 675 C 369 660 381 643 389 623 C 397 603 402 581 402 557 C 402 520 392 489 373 463 C 354 437 328 419 294 409 L 294 408 C 339 398 376 375 404 341 C 432 306 447 262 447 210 C 447 142 428 89 390 51 C 352 13 301 -5 237 -5 C 229 -5 220 -4 210 -3 C 199 -2 189 -1 181 1 L 181 27 L 182 27 C 190 25 199 23 209 23 C 218 22 226 22 234 22 C 292 22 336 38 368 72 C 400 105 416 150 416 208 C 416 235 411 260 403 283 C 395 305 383 325 367 341 C 351 357 333 369 311 378 C 289 387 266 392 240 392 L 189 392 L 189 418 Z" unicode="ß" />
<glyph horiz-adv-x="490" d="M 449 -6 C 426 -6 410 0 401 13 C 391 26 387 43 387 65 L 387 100 L 385 100 C 379 85 370 71 358 58 C 346 44 332 33 316 23 C 299 13 280 5 259 -1 C 238 -7 215 -10 189 -10 C 139 -10 99 2 69 27 C 39 51 24 86 24 130 C 24 158 29 181 40 199 C 50 217 65 232 83 243 C 101 254 123 262 147 268 C 171 274 196 278 224 282 C 256 285 282 288 303 292 C 323 296 340 300 353 306 C 365 312 374 319 379 328 C 384 336 387 348 387 362 L 387 370 C 387 456 339 499 243 499 C 192 499 153 488 125 467 C 97 446 81 413 78 368 L 47 368 C 49 390 54 411 62 431 C 70 450 82 467 98 481 C 114 495 133 506 157 514 C 181 522 209 526 243 526 C 301 526 344 512 373 486 C 402 459 417 420 417 369 L 417 68 C 417 48 420 35 427 29 C 434 22 443 19 455 19 C 460 19 465 19 470 21 C 474 23 478 24 482 26 L 485 26 L 485 2 C 481 0 476 -1 470 -3 C 464 -5 457 -6 449 -6 Z M 191 16 C 219 16 246 20 270 29 C 294 37 315 49 332 64 C 349 79 362 97 372 118 C 382 138 387 161 387 185 L 387 301 C 374 291 356 282 333 275 C 309 268 275 262 230 257 C 202 253 178 249 156 244 C 134 239 116 232 101 223 C 86 213 74 201 66 186 C 58 171 54 152 54 129 C 54 108 58 90 66 76 C 74 62 84 50 97 41 C 110 32 125 26 141 22 C 157 18 174 16 191 16 Z M 262 597 L 233 597 L 150 721 L 190 721 L 262 597 Z" unicode="à" />
<glyph horiz-adv-x="490" d="M 449 -6 C 426 -6 410 0 401 13 C 391 26 387 43 387 65 L 387 100 L 385 100 C 379 85 370 71 358 58 C 346 44 332 33 316 23 C 299 13 280 5 259 -1 C 238 -7 215 -10 189 -10 C 139 -10 99 2 69 27 C 39 51 24 86 24 130 C 24 158 29 181 40 199 C 50 217 65 232 83 243 C 101 254 123 262 147 268 C 171 274 196 278 224 282 C 256 285 282 288 303 292 C 323 296 340 300 353 306 C 365 312 374 319 379 328 C 384 336 387 348 387 362 L 387 370 C 387 456 339 499 243 499 C 192 499 153 488 125 467 C 97 446 81 413 78 368 L 47 368 C 49 390 54 411 62 431 C 70 450 82 467 98 481 C 114 495 133 506 157 514 C 181 522 209 526 243 526 C 301 526 344 512 373 486 C 402 459 417 420 417 369 L 417 68 C 417 48 420 35 427 29 C 434 22 443 19 455 19 C 460 19 465 19 470 21 C 474 23 478 24 482 26 L 485 26 L 485 2 C 481 0 476 -1 470 -3 C 464 -5 457 -6 449 -6 Z M 191 16 C 219 16 246 20 270 29 C 294 37 315 49 332 64 C 349 79 362 97 372 118 C 382 138 387 161 387 185 L 387 301 C 374 291 356 282 333 275 C 309 268 275 262 230 257 C 202 253 178 249 156 244 C 134 239 116 232 101 223 C 86 213 74 201 66 186 C 58 171 54 152 54 129 C 54 108 58 90 66 76 C 74 62 84 50 97 41 C 110 32 125 26 141 22 C 157 18 174 16 191 16 Z M 286 721 L 326 721 L 245 597 L 217 597 L 286 721 Z" unicode="á" />
<glyph horiz-adv-x="490" d="M 449 -6 C 426 -6 410 0 401 13 C 391 26 387 43 387 65 L 387 100 L 385 100 C 379 85 370 71 358 58 C 346 44 332 33 316 23 C 299 13 280 5 259 -1 C 238 -7 215 -10 189 -10 C 139 -10 99 2 69 27 C 39 51 24 86 24 130 C 24 158 29 181 40 199 C 50 217 65 232 83 243 C 101 254 123 262 147 268 C 171 274 196 278 224 282 C 256 285 282 288 303 292 C 323 296 340 300 353 306 C 365 312 374 319 379 328 C 384 336 387 348 387 362 L 387 370 C 387 456 339 499 243 499 C 192 499 153 488 125 467 C 97 446 81 413 78 368 L 47 368 C 49 390 54 411 62 431 C 70 450 82 467 98 481 C 114 495 133 506 157 514 C 181 522 209 526 243 526 C 301 526 344 512 373 486 C 402 459 417 420 417 369 L 417 68 C 417 48 420 35 427 29 C 434 22 443 19 455 19 C 460 19 465 19 470 21 C 474 23 478 24 482 26 L 485 26 L 485 2 C 481 0 476 -1 470 -3 C 464 -5 457 -6 449 -6 Z M 191 16 C 219 16 246 20 270 29 C 294 37 315 49 332 64 C 349 79 362 97 372 118 C 382 138 387 161 387 185 L 387 301 C 374 291 356 282 333 275 C 309 268 275 262 230 257 C 202 253 178 249 156 244 C 134 239 116 232 101 223 C 86 213 74 201 66 186 C 58 171 54 152 54 129 C 54 108 58 90 66 76 C 74 62 84 50 97 41 C 110 32 125 26 141 22 C 157 18 174 16 191 16 Z M 341 599 L 306 599 L 235 683 L 234 683 L 162 599 L 129 599 L 216 704 L 253 704 L 341 599 Z" unicode="â" />
<glyph horiz-adv-x="490" d="M 449 -6 C 426 -6 410 0 401 13 C 391 26 387 43 387 65 L 387 100 L 385 100 C 379 85 370 71 358 58 C 346 44 332 33 316 23 C 299 13 280 5 259 -1 C 238 -7 215 -10 189 -10 C 139 -10 99 2 69 27 C 39 51 24 86 24 130 C 24 158 29 181 40 199 C 50 217 65 232 83 243 C 101 254 123 262 147 268 C 171 274 196 278 224 282 C 256 285 282 288 303 292 C 323 296 340 300 353 306 C 365 312 374 319 379 328 C 384 336 387 348 387 362 L 387 370 C 387 456 339 499 243 499 C 192 499 153 488 125 467 C 97 446 81 413 78 368 L 47 368 C 49 390 54 411 62 431 C 70 450 82 467 98 481 C 114 495 133 506 157 514 C 181 522 209 526 243 526 C 301 526 344 512 373 486 C 402 459 417 420 417 369 L 417 68 C 417 48 420 35 427 29 C 434 22 443 19 455 19 C 460 19 465 19 470 21 C 474 23 478 24 482 26 L 485 26 L 485 2 C 481 0 476 -1 470 -3 C 464 -5 457 -6 449 -6 Z M 191 16 C 219 16 246 20 270 29 C 294 37 315 49 332 64 C 349 79 362 97 372 118 C 382 138 387 161 387 185 L 387 301 C 374 291 356 282 333 275 C 309 268 275 262 230 257 C 202 253 178 249 156 244 C 134 239 116 232 101 223 C 86 213 74 201 66 186 C 58 171 54 152 54 129 C 54 108 58 90 66 76 C 74 62 84 50 97 41 C 110 32 125 26 141 22 C 157 18 174 16 191 16 Z M 174 686 C 188 686 200 683 211 678 C 221 672 232 666 242 660 C 252 653 261 647 271 642 C 281 636 291 634 303 634 C 314 634 323 638 331 646 C 338 654 342 668 344 686 L 370 686 C 368 659 361 639 349 626 C 337 613 321 607 303 607 C 289 607 277 609 266 615 C 255 620 245 626 235 633 C 225 639 215 645 205 651 C 195 656 184 659 173 659 C 162 659 153 654 146 646 C 138 638 134 625 133 607 L 107 607 C 108 633 115 652 127 666 C 139 679 155 686 174 686 Z" unicode="ã" />
<glyph horiz-adv-x="490" d="M 449 -6 C 426 -6 410 0 401 13 C 391 26 387 43 387 65 L 387 100 L 385 100 C 379 85 370 71 358 58 C 346 44 332 33 316 23 C 299 13 280 5 259 -1 C 238 -7 215 -10 189 -10 C 139 -10 99 2 69 27 C 39 51 24 86 24 130 C 24 158 29 181 40 199 C 50 217 65 232 83 243 C 101 254 123 262 147 268 C 171 274 196 278 224 282 C 256 285 282 288 303 292 C 323 296 340 300 353 306 C 365 312 374 319 379 328 C 384 336 387 348 387 362 L 387 370 C 387 456 339 499 243 499 C 192 499 153 488 125 467 C 97 446 81 413 78 368 L 47 368 C 49 390 54 411 62 431 C 70 450 82 467 98 481 C 114 495 133 506 157 514 C 181 522 209 526 243 526 C 301 526 344 512 373 486 C 402 459 417 420 417 369 L 417 68 C 417 48 420 35 427 29 C 434 22 443 19 455 19 C 460 19 465 19 470 21 C 474 23 478 24 482 26 L 485 26 L 485 2 C 481 0 476 -1 470 -3 C 464 -5 457 -6 449 -6 Z M 191 16 C 219 16 246 20 270 29 C 294 37 315 49 332 64 C 349 79 362 97 372 118 C 382 138 387 161 387 185 L 387 301 C 374 291 356 282 333 275 C 309 268 275 262 230 257 C 202 253 178 249 156 244 C 134 239 116 232 101 223 C 86 213 74 201 66 186 C 58 171 54 152 54 129 C 54 108 58 90 66 76 C 74 62 84 50 97 41 C 110 32 125 26 141 22 C 157 18 174 16 191 16 Z M 182 644 L 152 644 L 152 709 L 182 709 L 182 644 Z M 330 644 L 300 644 L 300 709 L 330 709 L 330 644 Z" unicode="ä" />
<glyph horiz-adv-x="490" d="M 449 -6 C 426 -6 410 0 401 13 C 391 26 387 43 387 65 L 387 100 L 385 100 C 379 85 370 71 358 58 C 346 44 332 33 316 23 C 299 13 280 5 259 -1 C 238 -7 215 -10 189 -10 C 139 -10 99 2 69 27 C 39 51 24 86 24 130 C 24 158 29 181 40 199 C 50 217 65 232 83 243 C 101 254 123 262 147 268 C 171 274 196 278 224 282 C 256 285 282 288 303 292 C 323 296 340 300 353 306 C 365 312 374 319 379 328 C 384 336 387 348 387 362 L 387 370 C 387 456 339 499 243 499 C 192 499 153 488 125 467 C 97 446 81 413 78 368 L 47 368 C 49 390 54 411 62 431 C 70 450 82 467 98 481 C 114 495 133 506 157 514 C 181 522 209 526 243 526 C 301 526 344 512 373 486 C 402 459 417 420 417 369 L 417 68 C 417 48 420 35 427 29 C 434 22 443 19 455 19 C 460 19 465 19 470 21 C 474 23 478 24 482 26 L 485 26 L 485 2 C 481 0 476 -1 470 -3 C 464 -5 457 -6 449 -6 Z M 191 16 C 219 16 246 20 270 29 C 294 37 315 49 332 64 C 349 79 362 97 372 118 C 382 138 387 161 387 185 L 387 301 C 374 291 356 282 333 275 C 309 268 275 262 230 257 C 202 253 178 249 156 244 C 134 239 116 232 101 223 C 86 213 74 201 66 186 C 58 171 54 152 54 129 C 54 108 58 90 66 76 C 74 62 84 50 97 41 C 110 32 125 26 141 22 C 157 18 174 16 191 16 Z M 240 571 C 216 571 197 578 182 594 C 166 609 159 628 159 652 C 159 675 166 694 182 709 C 197 724 216 732 240 732 C 263 732 282 724 298 709 C 313 694 321 675 321 652 C 321 628 313 609 298 594 C 282 578 263 571 240 571 Z M 240 593 C 257 593 271 598 281 609 C 291 620 296 634 296 652 C 296 668 291 682 281 693 C 271 704 257 710 240 710 C 222 710 209 704 199 693 C 189 682 184 668 184 652 C 184 634 189 620 199 609 C 209 598 222 593 240 593 Z" unicode="å" />
<glyph horiz-adv-x="844" d="M 417 259 C 417 224 421 192 429 162 C 437 132 449 107 465 85 C 481 63 502 46 527 34 C 551 22 580 16 614 16 C 660 16 697 27 725 51 C 752 75 772 108 784 151 L 813 151 C 807 128 800 107 790 87 C 780 67 766 50 750 36 C 734 21 714 9 692 1 C 669 -6 643 -11 614 -11 C 558 -11 514 2 480 30 C 446 58 421 94 406 140 C 399 112 389 89 375 70 C 361 51 345 36 327 24 C 308 12 287 3 265 -2 C 242 -8 219 -11 195 -11 C 144 -11 103 1 71 26 C 39 51 24 86 24 130 C 24 158 29 181 40 199 C 50 217 65 232 83 243 C 101 254 122 262 146 268 C 170 274 196 278 224 282 C 256 285 282 288 303 292 C 323 296 340 300 353 306 C 365 312 374 319 379 328 C 384 336 387 348 387 362 L 387 368 C 387 410 375 442 351 465 C 327 487 292 499 244 499 C 144 499 89 455 81 368 L 51 368 C 53 390 58 411 66 431 C 74 450 86 467 102 481 C 118 495 137 506 161 514 C 184 522 212 526 244 526 C 296 526 336 514 364 490 C 392 466 408 432 413 388 C 428 428 452 461 485 487 C 517 513 559 526 609 526 C 636 526 660 522 682 514 C 703 506 722 495 739 481 C 767 457 787 426 799 389 C 811 351 817 308 819 259 L 417 259 Z M 387 302 C 374 291 356 282 333 275 C 310 268 276 262 230 257 C 202 253 178 249 156 244 C 134 239 116 232 101 223 C 86 213 74 201 66 186 C 58 171 54 152 54 129 C 54 108 58 90 66 76 C 74 62 85 50 99 41 C 112 32 127 26 144 22 C 161 18 178 16 196 16 C 224 16 250 20 274 28 C 297 36 317 48 334 64 C 350 80 363 98 373 120 C 382 142 387 166 387 194 L 387 302 Z M 788 285 C 784 353 767 406 736 443 C 705 480 663 499 609 499 C 581 499 555 493 532 483 C 509 473 489 458 473 440 C 457 421 444 398 435 372 C 425 346 420 317 418 285 L 788 285 Z" unicode="æ" />
<glyph horiz-adv-x="491" d="M 472 174 C 466 124 447 82 416 49 C 384 15 341 -3 285 -9 L 235 -55 C 237 -53 243 -53 252 -53 C 276 -52 296 -57 310 -68 C 324 -78 331 -93 331 -112 C 331 -135 322 -152 304 -164 C 286 -175 263 -181 236 -181 C 218 -181 202 -178 186 -174 C 170 -169 155 -163 142 -155 L 152 -138 C 176 -151 203 -158 232 -158 C 252 -158 269 -154 282 -147 C 294 -139 301 -128 301 -112 C 301 -87 283 -75 247 -75 C 237 -75 229 -76 221 -78 C 213 -80 206 -82 200 -86 L 190 -71 L 253 -10 C 217 -9 184 -1 156 12 C 128 26 104 46 85 70 C 65 94 51 123 41 155 C 31 187 26 222 26 259 C 26 296 31 331 41 363 C 51 395 66 424 86 448 C 106 472 130 491 159 505 C 187 519 220 526 258 526 C 314 526 361 512 398 484 C 435 456 458 416 468 364 L 438 364 C 427 412 405 446 373 467 C 340 488 302 499 258 499 C 227 499 199 493 175 481 C 150 469 129 453 111 432 C 93 411 80 386 70 357 C 60 327 56 295 56 259 C 56 223 60 190 70 160 C 80 130 93 105 111 84 C 129 62 150 46 175 34 C 199 22 227 17 258 17 C 311 17 353 31 385 59 C 417 87 436 126 443 174 L 472 174 Z" unicode="ç" />
<glyph horiz-adv-x="499" d="M 56 260 C 56 224 60 192 69 162 C 78 132 91 107 108 86 C 125 64 146 47 172 35 C 198 23 227 17 261 17 C 308 17 346 28 376 52 C 406 76 427 109 439 152 L 469 152 C 463 129 455 108 444 88 C 433 68 419 51 402 37 C 384 22 364 10 340 2 C 316 -5 290 -10 261 -10 C 223 -10 189 -3 160 10 C 130 24 106 43 86 67 C 66 91 51 119 41 153 C 31 186 26 222 26 262 C 26 299 31 334 42 366 C 52 398 67 426 87 450 C 107 474 131 492 160 506 C 188 519 221 526 257 526 C 284 526 309 522 331 514 C 353 506 372 494 390 480 C 418 456 439 425 453 388 C 466 350 473 308 475 260 L 56 260 Z M 444 285 C 440 354 421 407 387 444 C 353 480 310 499 257 499 C 229 499 203 494 179 484 C 155 474 134 459 117 441 C 99 422 85 399 75 373 C 65 347 59 317 57 285 L 444 285 Z M 275 597 L 246 597 L 163 721 L 203 721 L 275 597 Z" unicode="è" />
<glyph horiz-adv-x="499" d="M 296 721 L 336 721 L 255 597 L 227 597 L 296 721 Z M 56 260 C 56 224 60 192 69 162 C 78 132 91 107 108 86 C 125 64 146 47 172 35 C 198 23 227 17 261 17 C 308 17 346 28 376 52 C 406 76 427 109 439 152 L 469 152 C 463 129 455 108 444 88 C 433 68 419 51 402 37 C 384 22 364 10 340 2 C 316 -5 290 -10 261 -10 C 223 -10 189 -3 160 10 C 130 24 106 43 86 67 C 66 91 51 119 41 153 C 31 186 26 222 26 262 C 26 299 31 334 42 366 C 52 398 67 426 87 450 C 107 474 131 492 160 506 C 188 519 221 526 257 526 C 284 526 309 522 331 514 C 353 506 372 494 390 480 C 418 456 439 425 453 388 C 466 350 473 308 475 260 L 56 260 Z M 444 285 C 440 354 421 407 387 444 C 353 480 310 499 257 499 C 229 499 203 494 179 484 C 155 474 134 459 117 441 C 99 422 85 399 75 373 C 65 347 59 317 57 285 L 444 285 Z" unicode="é" />
<glyph horiz-adv-x="499" d="M 362 599 L 327 599 L 256 683 L 255 683 L 183 599 L 150 599 L 237 704 L 274 704 L 362 599 Z M 56 260 C 56 224 60 192 69 162 C 78 132 91 107 108 86 C 125 64 146 47 172 35 C 198 23 227 17 261 17 C 308 17 346 28 376 52 C 406 76 427 109 439 152 L 469 152 C 463 129 455 108 444 88 C 433 68 419 51 402 37 C 384 22 364 10 340 2 C 316 -5 290 -10 261 -10 C 223 -10 189 -3 160 10 C 130 24 106 43 86 67 C 66 91 51 119 41 153 C 31 186 26 222 26 262 C 26 299 31 334 42 366 C 52 398 67 426 87 450 C 107 474 131 492 160 506 C 188 519 221 526 257 526 C 284 526 309 522 331 514 C 353 506 372 494 390 480 C 418 456 439 425 453 388 C 466 350 473 308 475 260 L 56 260 Z M 444 285 C 440 354 421 407 387 444 C 353 480 310 499 257 499 C 229 499 203 494 179 484 C 155 474 134 459 117 441 C 99 422 85 399 75 373 C 65 347 59 317 57 285 L 444 285 Z" unicode="ê" />
<glyph horiz-adv-x="499" d="M 196 644 L 166 644 L 166 709 L 196 709 L 196 644 Z M 344 644 L 314 644 L 314 709 L 344 709 L 344 644 Z M 56 260 C 56 224 60 192 69 162 C 78 132 91 107 108 86 C 125 64 146 47 172 35 C 198 23 227 17 261 17 C 308 17 346 28 376 52 C 406 76 427 109 439 152 L 469 152 C 463 129 455 108 444 88 C 433 68 419 51 402 37 C 384 22 364 10 340 2 C 316 -5 290 -10 261 -10 C 223 -10 189 -3 160 10 C 130 24 106 43 86 67 C 66 91 51 119 41 153 C 31 186 26 222 26 262 C 26 299 31 334 42 366 C 52 398 67 426 87 450 C 107 474 131 492 160 506 C 188 519 221 526 257 526 C 284 526 309 522 331 514 C 353 506 372 494 390 480 C 418 456 439 425 453 388 C 466 350 473 308 475 260 L 56 260 Z M 444 285 C 440 354 421 407 387 444 C 353 480 310 499 257 499 C 229 499 203 494 179 484 C 155 474 134 459 117 441 C 99 422 85 399 75 373 C 65 347 59 317 57 285 L 444 285 Z" unicode="ë" />
<glyph horiz-adv-x="138" d="M 84 0 L 54 0 L 54 517 L 84 517 L 84 0 Z M 83 597 L 55 597 L -21 721 L 17 721 L 83 597 Z" unicode="ì" />
<glyph horiz-adv-x="138" d="M 84 0 L 54 0 L 54 517 L 84 517 L 84 0 Z M 125 721 L 164 721 L 86 597 L 58 597 L 125 721 Z" unicode="í" />
<glyph horiz-adv-x="138" d="M 84 0 L 54 0 L 54 517 L 84 517 L 84 0 Z M 161 599 L 128 599 L 68 683 L 67 683 L 7 599 L -24 599 L 50 704 L 87 704 L 161 599 Z" unicode="î" />
<glyph horiz-adv-x="139" d="M 33 644 L 2 644 L 2 709 L 33 709 L 33 644 Z M 137 644 L 106 644 L 106 709 L 137 709 L 137 644 Z M 85 0 L 54 0 L 54 517 L 85 517 L 85 0 Z" unicode="ï" />
<glyph horiz-adv-x="521" d="M 161 591 L 301 642 C 285 656 270 669 255 681 C 240 693 225 704 210 715 L 253 715 C 264 706 276 697 290 687 C 304 677 317 665 331 653 L 430 689 L 438 668 L 349 635 C 367 615 386 594 404 570 C 422 546 437 519 451 489 C 464 459 475 425 483 389 C 491 353 496 313 496 270 C 496 230 490 192 480 158 C 470 124 455 94 435 69 C 415 44 390 25 361 11 C 332 -3 299 -10 262 -10 C 226 -10 193 -3 164 11 C 135 25 110 44 90 68 C 69 92 53 120 42 153 C 31 185 26 220 26 258 C 26 295 31 330 42 362 C 52 394 68 423 88 447 C 108 471 132 490 160 504 C 188 518 220 525 256 525 C 296 525 332 515 366 497 C 399 478 425 452 445 418 C 431 460 414 498 392 532 C 370 566 345 596 319 624 L 169 570 L 161 591 Z M 465 265 C 465 298 460 329 450 357 C 440 385 427 410 409 431 C 391 452 369 469 343 481 C 317 493 288 499 256 499 C 224 499 195 492 171 480 C 146 467 125 450 108 428 C 91 406 78 380 69 351 C 60 321 56 290 56 258 C 56 224 60 193 70 164 C 79 134 93 109 111 87 C 129 65 150 47 176 35 C 201 22 230 16 262 16 C 295 16 324 22 350 35 C 375 48 396 66 413 88 C 430 110 443 137 452 167 C 460 197 465 230 465 265 Z" unicode="ð" />
<glyph horiz-adv-x="482" d="M 83 424 L 85 424 C 92 436 101 449 113 461 C 124 473 137 484 152 494 C 167 503 184 510 204 516 C 224 522 246 525 271 525 C 322 525 362 510 390 482 C 418 453 432 416 432 370 L 432 0 L 402 0 L 402 367 C 402 411 389 443 365 465 C 341 487 308 498 266 498 C 239 498 214 493 192 485 C 170 477 150 466 134 452 C 118 438 105 421 96 403 C 87 385 83 366 83 347 L 83 0 L 53 0 L 53 517 L 83 517 L 83 424 Z M 179 686 C 193 686 205 683 216 678 C 226 672 237 666 247 660 C 257 653 266 647 276 642 C 286 636 296 634 308 634 C 319 634 328 638 336 646 C 343 654 347 668 349 686 L 375 686 C 373 659 366 639 354 626 C 342 613 326 607 308 607 C 294 607 282 609 271 615 C 260 620 250 626 240 633 C 230 639 220 645 210 651 C 200 656 189 659 178 659 C 167 659 158 654 151 646 C 143 638 139 625 138 607 L 112 607 C 113 633 120 652 132 666 C 144 679 160 686 179 686 Z" unicode="ñ" />
<glyph horiz-adv-x="522" d="M 261 -10 C 224 -10 191 -3 162 11 C 133 25 108 44 88 68 C 68 92 52 121 42 154 C 31 186 26 221 26 259 C 26 295 31 330 42 363 C 52 395 68 424 88 448 C 108 472 133 491 162 505 C 191 519 224 526 261 526 C 297 526 330 519 360 505 C 389 491 414 472 434 448 C 454 424 469 395 480 363 C 490 331 496 296 496 259 C 496 221 490 186 480 154 C 469 121 454 92 434 68 C 414 44 389 25 360 11 C 330 -3 297 -10 261 -10 Z M 261 16 C 291 16 318 21 343 33 C 368 45 390 61 408 83 C 426 104 440 130 450 160 C 460 190 465 223 465 259 C 465 295 460 327 450 357 C 440 387 426 412 408 433 C 390 454 368 470 343 482 C 318 494 291 500 261 500 C 231 500 203 494 178 482 C 153 470 132 454 114 433 C 96 412 81 387 71 357 C 61 327 56 295 56 259 C 56 223 61 190 71 160 C 81 130 96 104 114 83 C 132 61 153 45 178 33 C 203 21 231 16 261 16 Z M 278 597 L 249 597 L 166 721 L 206 721 L 278 597 Z" unicode="ò" />
<glyph horiz-adv-x="522" d="M 300 721 L 340 721 L 259 597 L 231 597 L 300 721 Z M 261 -10 C 224 -10 191 -3 162 11 C 133 25 108 44 88 68 C 68 92 52 121 42 154 C 31 186 26 221 26 259 C 26 295 31 330 42 363 C 52 395 68 424 88 448 C 108 472 133 491 162 505 C 191 519 224 526 261 526 C 297 526 330 519 360 505 C 389 491 414 472 434 448 C 454 424 469 395 480 363 C 490 331 496 296 496 259 C 496 221 490 186 480 154 C 469 121 454 92 434 68 C 414 44 389 25 360 11 C 330 -3 297 -10 261 -10 Z M 261 16 C 291 16 318 21 343 33 C 368 45 390 61 408 83 C 426 104 440 130 450 160 C 460 190 465 223 465 259 C 465 295 460 327 450 357 C 440 387 426 412 408 433 C 390 454 368 470 343 482 C 318 494 291 500 261 500 C 231 500 203 494 178 482 C 153 470 132 454 114 433 C 96 412 81 387 71 357 C 61 327 56 295 56 259 C 56 223 61 190 71 160 C 81 130 96 104 114 83 C 132 61 153 45 178 33 C 203 21 231 16 261 16 Z" unicode="ó" />
<glyph horiz-adv-x="522" d="M 368 599 L 333 599 L 262 683 L 261 683 L 189 599 L 156 599 L 243 704 L 280 704 L 368 599 Z M 261 -10 C 224 -10 191 -3 162 11 C 133 25 108 44 88 68 C 68 92 52 121 42 154 C 31 186 26 221 26 259 C 26 295 31 330 42 363 C 52 395 68 424 88 448 C 108 472 133 491 162 505 C 191 519 224 526 261 526 C 297 526 330 519 360 505 C 389 491 414 472 434 448 C 454 424 469 395 480 363 C 490 331 496 296 496 259 C 496 221 490 186 480 154 C 469 121 454 92 434 68 C 414 44 389 25 360 11 C 330 -3 297 -10 261 -10 Z M 261 16 C 291 16 318 21 343 33 C 368 45 390 61 408 83 C 426 104 440 130 450 160 C 460 190 465 223 465 259 C 465 295 460 327 450 357 C 440 387 426 412 408 433 C 390 454 368 470 343 482 C 318 494 291 500 261 500 C 231 500 203 494 178 482 C 153 470 132 454 114 433 C 96 412 81 387 71 357 C 61 327 56 295 56 259 C 56 223 61 190 71 160 C 81 130 96 104 114 83 C 132 61 153 45 178 33 C 203 21 231 16 261 16 Z" unicode="ô" />
<glyph horiz-adv-x="522" d="M 261 -10 C 224 -10 191 -3 162 11 C 133 25 108 44 88 68 C 68 92 52 121 42 154 C 31 186 26 221 26 259 C 26 295 31 330 42 363 C 52 395 68 424 88 448 C 108 472 133 491 162 505 C 191 519 224 526 261 526 C 297 526 330 519 360 505 C 389 491 414 472 434 448 C 454 424 469 395 480 363 C 490 331 496 296 496 259 C 496 221 490 186 480 154 C 469 121 454 92 434 68 C 414 44 389 25 360 11 C 330 -3 297 -10 261 -10 Z M 261 16 C 291 16 318 21 343 33 C 368 45 390 61 408 83 C 426 104 440 130 450 160 C 460 190 465 223 465 259 C 465 295 460 327 450 357 C 440 387 426 412 408 433 C 390 454 368 470 343 482 C 318 494 291 500 261 500 C 231 500 203 494 178 482 C 153 470 132 454 114 433 C 96 412 81 387 71 357 C 61 327 56 295 56 259 C 56 223 61 190 71 160 C 81 130 96 104 114 83 C 132 61 153 45 178 33 C 203 21 231 16 261 16 Z M 198 686 C 212 686 224 683 235 678 C 245 672 256 666 266 660 C 276 653 285 647 295 642 C 305 636 315 634 327 634 C 338 634 347 638 355 646 C 362 654 366 668 368 686 L 394 686 C 392 659 385 639 373 626 C 361 613 345 607 327 607 C 313 607 301 609 290 615 C 279 620 269 626 259 633 C 249 639 239 645 229 651 C 219 656 208 659 197 659 C 186 659 177 654 170 646 C 162 638 158 625 157 607 L 131 607 C 132 633 139 652 151 666 C 163 679 179 686 198 686 Z" unicode="õ" />
<glyph horiz-adv-x="522" d="M 201 644 L 171 644 L 171 709 L 201 709 L 201 644 Z M 349 644 L 319 644 L 319 709 L 349 709 L 349 644 Z M 261 -10 C 224 -10 191 -3 162 11 C 133 25 108 44 88 68 C 68 92 52 121 42 154 C 31 186 26 221 26 259 C 26 295 31 330 42 363 C 52 395 68 424 88 448 C 108 472 133 491 162 505 C 191 519 224 526 261 526 C 297 526 330 519 360 505 C 389 491 414 472 434 448 C 454 424 469 395 480 363 C 490 331 496 296 496 259 C 496 221 490 186 480 154 C 469 121 454 92 434 68 C 414 44 389 25 360 11 C 330 -3 297 -10 261 -10 Z M 261 16 C 291 16 318 21 343 33 C 368 45 390 61 408 83 C 426 104 440 130 450 160 C 460 190 465 223 465 259 C 465 295 460 327 450 357 C 440 387 426 412 408 433 C 390 454 368 470 343 482 C 318 494 291 500 261 500 C 231 500 203 494 178 482 C 153 470 132 454 114 433 C 96 412 81 387 71 357 C 61 327 56 295 56 259 C 56 223 61 190 71 160 C 81 130 96 104 114 83 C 132 61 153 45 178 33 C 203 21 231 16 261 16 Z" unicode="ö" />
<glyph horiz-adv-x="524" d="M 54 341 L 470 341 L 470 312 L 54 312 L 54 341 Z M 281 454 L 244 454 L 244 516 L 281 516 L 281 454 Z M 281 136 L 244 136 L 244 199 L 281 199 L 281 136 Z" unicode="÷" />
<glyph horiz-adv-x="522" d="M 262 -10 C 228 -10 197 -4 170 7 C 142 18 119 34 99 56 L 41 -11 L 24 5 L 85 74 C 65 98 51 125 41 157 C 31 189 26 223 26 259 C 26 295 31 330 42 363 C 52 395 68 424 88 448 C 108 472 133 491 163 505 C 192 519 225 526 262 526 C 296 526 326 520 353 508 C 380 496 404 480 424 459 L 482 526 L 499 510 L 439 441 C 458 417 472 390 482 359 C 491 328 496 295 496 259 C 496 221 490 186 480 154 C 469 121 454 92 434 68 C 414 44 389 25 360 11 C 331 -3 298 -10 262 -10 Z M 57 259 C 57 225 61 195 69 168 C 77 141 88 117 104 97 L 405 438 C 387 457 365 472 341 483 C 316 494 290 500 262 500 C 232 500 204 494 179 482 C 154 470 133 454 115 433 C 97 412 82 387 72 357 C 62 327 57 295 57 259 Z M 262 16 C 292 16 319 21 344 33 C 368 45 389 61 407 83 C 425 104 439 130 449 160 C 459 190 464 223 464 259 C 464 324 449 377 419 419 L 118 78 C 156 36 204 16 262 16 Z" unicode="ø" />
<glyph horiz-adv-x="476" d="M 393 89 L 391 89 C 383 76 374 64 364 52 C 353 40 340 30 326 21 C 312 12 295 5 277 0 C 258 -6 237 -9 213 -9 C 160 -9 119 5 91 34 C 63 62 49 100 49 147 L 49 517 L 80 517 L 80 150 C 80 105 92 72 116 50 C 140 28 174 17 218 17 C 244 17 267 21 289 30 C 310 38 328 50 344 64 C 359 78 371 95 380 114 C 388 133 393 153 393 173 L 393 517 L 423 517 L 423 0 L 393 0 L 393 89 Z M 259 597 L 230 597 L 147 721 L 187 721 L 259 597 Z" unicode="ù" />
<glyph horiz-adv-x="476" d="M 279 721 L 319 721 L 238 597 L 210 597 L 279 721 Z M 393 89 L 391 89 C 383 76 374 64 364 52 C 353 40 340 30 326 21 C 312 12 295 5 277 0 C 258 -6 237 -9 213 -9 C 160 -9 119 5 91 34 C 63 62 49 100 49 147 L 49 517 L 80 517 L 80 150 C 80 105 92 72 116 50 C 140 28 174 17 218 17 C 244 17 267 21 289 30 C 310 38 328 50 344 64 C 359 78 371 95 380 114 C 388 133 393 153 393 173 L 393 517 L 423 517 L 423 0 L 393 0 L 393 89 Z" unicode="ú" />
<glyph horiz-adv-x="476" d="M 344 599 L 309 599 L 238 683 L 237 683 L 165 599 L 132 599 L 219 704 L 256 704 L 344 599 Z M 393 89 L 391 89 C 383 76 374 64 364 52 C 353 40 340 30 326 21 C 312 12 295 5 277 0 C 258 -6 237 -9 213 -9 C 160 -9 119 5 91 34 C 63 62 49 100 49 147 L 49 517 L 80 517 L 80 150 C 80 105 92 72 116 50 C 140 28 174 17 218 17 C 244 17 267 21 289 30 C 310 38 328 50 344 64 C 359 78 371 95 380 114 C 388 133 393 153 393 173 L 393 517 L 423 517 L 423 0 L 393 0 L 393 89 Z" unicode="û" />
<glyph horiz-adv-x="476" d="M 176 644 L 146 644 L 146 709 L 176 709 L 176 644 Z M 324 644 L 294 644 L 294 709 L 324 709 L 324 644 Z M 393 89 L 391 89 C 383 76 374 64 364 52 C 353 40 340 30 326 21 C 312 12 295 5 277 0 C 258 -6 237 -9 213 -9 C 160 -9 119 5 91 34 C 63 62 49 100 49 147 L 49 517 L 80 517 L 80 150 C 80 105 92 72 116 50 C 140 28 174 17 218 17 C 244 17 267 21 289 30 C 310 38 328 50 344 64 C 359 78 371 95 380 114 C 388 133 393 153 393 173 L 393 517 L 423 517 L 423 0 L 393 0 L 393 89 Z" unicode="ü" />
<glyph horiz-adv-x="440" d="M 216 -53 C 206 -77 197 -96 188 -111 C 179 -126 170 -138 160 -146 C 150 -154 139 -160 127 -164 C 115 -167 101 -169 86 -169 C 75 -169 66 -168 59 -167 C 52 -165 46 -164 41 -162 L 41 -134 L 42 -134 C 53 -138 68 -141 87 -141 C 98 -141 108 -139 117 -137 C 126 -135 134 -130 142 -123 C 150 -116 157 -106 165 -94 C 172 -81 180 -64 188 -44 L 208 7 L 5 517 L 37 517 L 223 46 L 224 46 L 403 517 L 435 517 L 216 -53 Z M 264 721 L 304 721 L 223 597 L 195 597 L 264 721 Z" unicode="ý" />
<glyph horiz-adv-x="523" d="M 53 715 L 83 715 L 83 390 L 85 390 C 103 434 129 467 163 491 C 197 514 236 526 282 526 C 311 526 339 520 365 509 C 391 497 413 480 433 458 C 453 436 468 408 480 375 C 492 341 498 303 498 259 C 498 219 492 183 482 150 C 471 117 456 89 437 65 C 417 41 394 23 368 10 C 341 -2 311 -9 279 -9 C 231 -9 191 2 158 26 C 124 50 100 81 85 120 L 83 120 L 83 -166 L 53 -166 L 53 715 Z M 278 17 C 306 17 332 23 355 35 C 378 47 398 63 415 85 C 431 106 444 131 453 161 C 462 190 467 222 467 258 C 467 298 462 333 452 363 C 442 393 429 418 412 438 C 395 458 375 473 352 483 C 328 493 303 499 277 499 C 247 499 220 493 196 481 C 172 469 151 453 134 431 C 117 409 104 384 95 354 C 85 324 81 292 81 256 C 81 219 85 186 95 157 C 104 127 117 102 134 82 C 151 61 172 45 196 34 C 220 22 248 17 278 17 Z" unicode="þ" />
<glyph horiz-adv-x="440" d="M 216 -53 C 206 -77 197 -96 188 -111 C 179 -126 170 -138 160 -146 C 150 -154 139 -160 127 -164 C 115 -167 101 -169 86 -169 C 75 -169 66 -168 59 -167 C 52 -165 46 -164 41 -162 L 41 -134 L 42 -134 C 53 -138 68 -141 87 -141 C 98 -141 108 -139 117 -137 C 126 -135 134 -130 142 -123 C 150 -116 157 -106 165 -94 C 172 -81 180 -64 188 -44 L 208 7 L 5 517 L 37 517 L 223 46 L 224 46 L 403 517 L 435 517 L 216 -53 Z M 164 644 L 134 644 L 134 709 L 164 709 L 164 644 Z M 312 644 L 282 644 L 282 709 L 312 709 L 312 644 Z" unicode="ÿ" />
<glyph horiz-adv-x="604" d="M 469 244 L 135 244 L 41 0 L 8 0 L 284 715 L 320 715 L 596 0 L 563 0 L 469 244 Z M 145 271 L 458 271 L 303 677 L 302 677 L 145 271 Z M 188 805 L 416 805 L 416 776 L 188 776 L 188 805 Z" unicode="Ā" />
<glyph horiz-adv-x="490" d="M 449 -6 C 426 -6 410 0 401 13 C 391 26 387 43 387 65 L 387 100 L 385 100 C 379 85 370 71 358 58 C 346 44 332 33 316 23 C 299 13 280 5 259 -1 C 238 -7 215 -10 189 -10 C 139 -10 99 2 69 27 C 39 51 24 86 24 130 C 24 158 29 181 40 199 C 50 217 65 232 83 243 C 101 254 123 262 147 268 C 171 274 196 278 224 282 C 256 285 282 288 303 292 C 323 296 340 300 353 306 C 365 312 374 319 379 328 C 384 336 387 348 387 362 L 387 370 C 387 456 339 499 243 499 C 192 499 153 488 125 467 C 97 446 81 413 78 368 L 47 368 C 49 390 54 411 62 431 C 70 450 82 467 98 481 C 114 495 133 506 157 514 C 181 522 209 526 243 526 C 301 526 344 512 373 486 C 402 459 417 420 417 369 L 417 68 C 417 48 420 35 427 29 C 434 22 443 19 455 19 C 460 19 465 19 470 21 C 474 23 478 24 482 26 L 485 26 L 485 2 C 481 0 476 -1 470 -3 C 464 -5 457 -6 449 -6 Z M 191 16 C 219 16 246 20 270 29 C 294 37 315 49 332 64 C 349 79 362 97 372 118 C 382 138 387 161 387 185 L 387 301 C 374 291 356 282 333 275 C 309 268 275 262 230 257 C 202 253 178 249 156 244 C 134 239 116 232 101 223 C 86 213 74 201 66 186 C 58 171 54 152 54 129 C 54 108 58 90 66 76 C 74 62 84 50 97 41 C 110 32 125 26 141 22 C 157 18 174 16 191 16 Z M 128 671 L 356 671 L 356 641 L 128 641 L 128 671 Z" unicode="ā" />
<glyph horiz-adv-x="604" d="M 469 244 L 135 244 L 41 0 L 8 0 L 284 715 L 320 715 L 596 0 L 563 0 L 469 244 Z M 145 271 L 458 271 L 303 677 L 302 677 L 145 271 Z M 301 763 C 266 763 238 771 218 789 C 198 807 187 830 185 858 L 213 858 C 216 838 225 822 239 810 C 253 797 274 791 301 791 C 328 791 349 797 363 810 C 377 822 386 838 390 858 L 418 858 C 416 830 404 807 384 789 C 364 771 336 763 301 763 Z" unicode="Ă" />
<glyph horiz-adv-x="490" d="M 449 -6 C 426 -6 410 0 401 13 C 391 26 387 43 387 65 L 387 100 L 385 100 C 379 85 370 71 358 58 C 346 44 332 33 316 23 C 299 13 280 5 259 -1 C 238 -7 215 -10 189 -10 C 139 -10 99 2 69 27 C 39 51 24 86 24 130 C 24 158 29 181 40 199 C 50 217 65 232 83 243 C 101 254 123 262 147 268 C 171 274 196 278 224 282 C 256 285 282 288 303 292 C 323 296 340 300 353 306 C 365 312 374 319 379 328 C 384 336 387 348 387 362 L 387 370 C 387 456 339 499 243 499 C 192 499 153 488 125 467 C 97 446 81 413 78 368 L 47 368 C 49 390 54 411 62 431 C 70 450 82 467 98 481 C 114 495 133 506 157 514 C 181 522 209 526 243 526 C 301 526 344 512 373 486 C 402 459 417 420 417 369 L 417 68 C 417 48 420 35 427 29 C 434 22 443 19 455 19 C 460 19 465 19 470 21 C 474 23 478 24 482 26 L 485 26 L 485 2 C 481 0 476 -1 470 -3 C 464 -5 457 -6 449 -6 Z M 191 16 C 219 16 246 20 270 29 C 294 37 315 49 332 64 C 349 79 362 97 372 118 C 382 138 387 161 387 185 L 387 301 C 374 291 356 282 333 275 C 309 268 275 262 230 257 C 202 253 178 249 156 244 C 134 239 116 232 101 223 C 86 213 74 201 66 186 C 58 171 54 152 54 129 C 54 108 58 90 66 76 C 74 62 84 50 97 41 C 110 32 125 26 141 22 C 157 18 174 16 191 16 Z M 242 604 C 207 604 179 613 159 631 C 139 649 128 673 126 701 L 154 701 C 157 681 166 665 180 652 C 194 639 215 633 242 633 C 269 633 290 639 304 652 C 318 665 327 681 331 701 L 359 701 C 357 673 345 649 325 631 C 305 613 277 604 242 604 Z" unicode="ă" />
<glyph horiz-adv-x="604" d="M 595 3 C 567 -15 545 -32 531 -49 C 516 -65 509 -83 509 -102 C 509 -117 514 -128 524 -136 C 534 -144 547 -148 563 -148 C 574 -148 584 -147 592 -145 C 600 -143 608 -140 614 -137 L 617 -137 L 617 -160 C 611 -163 603 -166 593 -169 C 583 -171 572 -173 561 -173 C 536 -173 516 -167 501 -155 C 485 -143 478 -125 478 -103 C 478 -81 485 -62 501 -44 C 517 -26 537 -9 561 6 L 469 244 L 135 244 L 41 0 L 8 0 L 284 715 L 320 715 L 595 3 Z M 301 681 C 295 664 289 649 284 635 C 279 623 275 611 271 600 C 267 588 264 580 262 575 L 145 271 L 458 271 L 342 575 C 340 579 336 587 332 599 C 328 611 323 623 319 635 C 313 649 308 664 302 681 L 301 681 Z" unicode="Ą" />
<glyph horiz-adv-x="490" d="M 387 301 C 374 291 356 282 333 275 C 309 268 275 262 230 257 C 202 253 178 249 156 244 C 134 239 116 232 101 223 C 86 213 74 201 66 186 C 58 170 54 151 54 128 C 54 107 58 89 66 75 C 74 61 84 49 97 40 C 110 31 125 25 141 21 C 157 17 174 15 191 15 C 219 15 246 19 270 28 C 294 36 315 48 332 63 C 349 78 362 96 372 117 C 382 138 387 161 387 185 L 387 301 Z M 417 68 C 417 48 420 35 427 29 C 434 22 443 19 455 19 C 460 19 465 19 470 21 C 474 23 478 24 482 26 L 485 26 L 485 2 C 453 -12 429 -28 411 -44 C 393 -60 385 -78 385 -98 C 385 -113 390 -125 400 -135 C 410 -144 425 -149 446 -149 C 455 -149 463 -148 471 -146 C 479 -144 486 -142 494 -139 L 497 -139 L 497 -162 C 491 -165 483 -168 475 -170 C 467 -172 456 -173 444 -173 C 414 -173 391 -166 376 -152 C 361 -138 354 -121 354 -100 C 354 -78 361 -60 377 -44 C 392 -28 410 -14 432 -4 C 414 -1 402 6 396 19 C 390 32 387 47 387 65 L 387 99 L 385 99 C 379 84 370 70 358 57 C 346 43 332 32 316 22 C 299 12 280 4 259 -2 C 238 -8 215 -11 189 -11 C 139 -11 99 1 69 26 C 39 50 24 85 24 129 C 24 157 29 180 40 198 C 50 216 65 231 83 243 C 101 254 122 262 146 268 C 170 274 196 278 224 282 C 256 286 282 289 303 293 C 323 297 340 301 353 307 C 365 312 374 319 379 328 C 384 336 387 348 387 362 L 387 370 C 387 456 339 499 243 499 C 192 499 153 488 125 467 C 97 446 81 413 78 368 L 47 368 C 49 390 54 411 62 431 C 70 450 82 467 98 481 C 114 495 133 506 157 514 C 181 522 209 526 243 526 C 359 526 417 473 417 369 L 417 68 Z" unicode="ą" />
<glyph horiz-adv-x="675" d="M 601 514 C 597 538 588 562 576 584 C 563 606 546 626 526 643 C 506 659 482 673 454 683 C 426 693 395 698 361 698 C 313 698 272 689 236 672 C 200 654 169 630 145 600 C 120 569 101 533 89 492 C 76 450 70 405 70 357 C 70 307 76 262 89 220 C 102 178 121 143 145 113 C 169 83 199 59 235 43 C 271 26 312 18 358 18 C 396 18 431 24 461 37 C 491 49 516 66 538 88 C 560 110 577 135 590 164 C 602 192 611 223 615 256 L 644 256 C 640 221 632 188 620 157 C 607 126 590 99 568 75 C 544 48 514 27 478 12 C 442 -3 402 -11 358 -11 C 308 -11 264 -2 225 15 C 185 33 152 58 124 90 C 96 122 74 160 59 206 C 44 251 37 301 37 357 C 37 411 44 460 59 506 C 74 551 96 590 124 622 C 152 654 186 680 226 698 C 266 716 311 726 361 726 C 399 726 434 720 465 709 C 496 698 523 683 546 664 C 569 645 588 623 603 597 C 617 571 627 544 633 514 L 601 514 Z M 408 867 L 449 867 L 369 755 L 341 755 L 408 867 Z" unicode="Ć" />
<glyph horiz-adv-x="491" d="M 296 721 L 336 721 L 255 597 L 227 597 L 296 721 Z M 472 174 C 468 147 461 122 451 100 C 440 77 426 57 408 41 C 390 25 369 12 344 3 C 318 -5 290 -10 258 -10 C 220 -10 187 -3 159 11 C 130 25 106 44 86 68 C 66 92 51 121 41 154 C 31 186 26 221 26 259 C 26 296 31 331 41 363 C 51 395 66 424 86 448 C 106 472 130 491 159 505 C 187 519 220 526 258 526 C 314 526 361 512 398 484 C 435 456 458 416 468 364 L 438 364 C 427 412 405 446 373 467 C 340 488 302 499 258 499 C 227 499 199 493 175 481 C 150 469 129 453 111 432 C 93 411 80 386 70 357 C 60 327 56 295 56 259 C 56 223 60 190 70 160 C 80 130 93 105 111 84 C 129 62 150 46 175 34 C 199 22 227 17 258 17 C 311 17 353 31 385 59 C 417 87 436 126 443 174 L 472 174 Z" unicode="ć" />
<glyph horiz-adv-x="675" d="M 601 514 C 597 538 588 562 576 584 C 563 606 546 626 526 643 C 506 659 482 673 454 683 C 426 693 395 698 361 698 C 313 698 272 689 236 672 C 200 654 169 630 145 600 C 120 569 101 533 89 492 C 76 450 70 405 70 357 C 70 307 76 262 89 220 C 102 178 121 143 145 113 C 169 83 199 59 235 43 C 271 26 312 18 358 18 C 396 18 431 24 461 37 C 491 49 516 66 538 88 C 560 110 577 135 590 164 C 602 192 611 223 615 256 L 644 256 C 640 221 632 188 620 157 C 607 126 590 99 568 75 C 544 48 514 27 478 12 C 442 -3 402 -11 358 -11 C 308 -11 264 -2 225 15 C 185 33 152 58 124 90 C 96 122 74 160 59 206 C 44 251 37 301 37 357 C 37 411 44 460 59 506 C 74 551 96 590 124 622 C 152 654 186 680 226 698 C 266 716 311 726 361 726 C 399 726 434 720 465 709 C 496 698 523 683 546 664 C 569 645 588 623 603 597 C 617 571 627 544 633 514 L 601 514 Z M 472 755 L 436 755 L 360 838 L 359 838 L 282 755 L 247 755 L 341 858 L 378 858 L 472 755 Z" unicode="Ĉ" />
<glyph horiz-adv-x="491" d="M 363 599 L 328 599 L 257 683 L 256 683 L 184 599 L 151 599 L 238 704 L 275 704 L 363 599 Z M 472 174 C 468 147 461 122 451 100 C 440 77 426 57 408 41 C 390 25 369 12 344 3 C 318 -5 290 -10 258 -10 C 220 -10 187 -3 159 11 C 130 25 106 44 86 68 C 66 92 51 121 41 154 C 31 186 26 221 26 259 C 26 296 31 331 41 363 C 51 395 66 424 86 448 C 106 472 130 491 159 505 C 187 519 220 526 258 526 C 314 526 361 512 398 484 C 435 456 458 416 468 364 L 438 364 C 427 412 405 446 373 467 C 340 488 302 499 258 499 C 227 499 199 493 175 481 C 150 469 129 453 111 432 C 93 411 80 386 70 357 C 60 327 56 295 56 259 C 56 223 60 190 70 160 C 80 130 93 105 111 84 C 129 62 150 46 175 34 C 199 22 227 17 258 17 C 311 17 353 31 385 59 C 417 87 436 126 443 174 L 472 174 Z" unicode="ĉ" />
<glyph horiz-adv-x="675" d="M 369 770 L 338 770 L 338 835 L 369 835 L 369 770 Z M 601 514 C 597 538 588 562 576 584 C 563 606 546 626 526 643 C 506 659 482 673 454 683 C 426 693 395 698 361 698 C 313 698 272 689 236 672 C 200 654 169 630 145 600 C 120 569 101 533 89 492 C 76 450 70 405 70 357 C 70 307 76 262 89 220 C 102 178 121 143 145 113 C 169 83 199 59 235 43 C 271 26 312 18 358 18 C 396 18 431 24 461 37 C 491 49 516 66 538 88 C 560 110 577 135 590 164 C 602 192 611 223 615 256 L 644 256 C 640 221 632 188 620 157 C 607 126 590 99 568 75 C 544 48 514 27 478 12 C 442 -3 402 -11 358 -11 C 308 -11 264 -2 225 15 C 185 33 152 58 124 90 C 96 122 74 160 59 206 C 44 251 37 301 37 357 C 37 411 44 460 59 506 C 74 551 96 590 124 622 C 152 654 186 680 226 698 C 266 716 311 726 361 726 C 399 726 434 720 465 709 C 496 698 523 683 546 664 C 569 645 588 623 603 597 C 617 571 627 544 633 514 L 601 514 Z" unicode="Ċ" />
<glyph horiz-adv-x="491" d="M 472 174 C 468 147 461 122 451 100 C 440 77 426 57 408 41 C 390 25 369 12 344 3 C 318 -5 290 -10 258 -10 C 220 -10 187 -3 159 11 C 130 25 106 44 86 68 C 66 92 51 121 41 154 C 31 186 26 221 26 259 C 26 296 31 331 41 363 C 51 395 66 424 86 448 C 106 472 130 491 159 505 C 187 519 220 526 258 526 C 314 526 361 512 398 484 C 435 456 458 416 468 364 L 438 364 C 427 412 405 446 373 467 C 340 488 302 499 258 499 C 227 499 199 493 175 481 C 150 469 129 453 111 432 C 93 411 80 386 70 357 C 60 327 56 295 56 259 C 56 223 60 190 70 160 C 80 130 93 105 111 84 C 129 62 150 46 175 34 C 199 22 227 17 258 17 C 311 17 353 31 385 59 C 417 87 436 126 443 174 L 472 174 Z M 271 638 L 240 638 L 240 704 L 271 704 L 271 638 Z" unicode="ċ" />
<glyph horiz-adv-x="675" d="M 601 514 C 597 538 588 562 576 584 C 563 606 546 626 526 643 C 506 659 482 673 454 683 C 426 693 395 698 361 698 C 313 698 272 689 236 672 C 200 654 169 630 145 600 C 120 569 101 533 89 492 C 76 450 70 405 70 357 C 70 307 76 262 89 220 C 102 178 121 143 145 113 C 169 83 199 59 235 43 C 271 26 312 18 358 18 C 396 18 431 24 461 37 C 491 49 516 66 538 88 C 560 110 577 135 590 164 C 602 192 611 223 615 256 L 644 256 C 640 221 632 188 620 157 C 607 126 590 99 568 75 C 544 48 514 27 478 12 C 442 -3 402 -11 358 -11 C 308 -11 264 -2 225 15 C 185 33 152 58 124 90 C 96 122 74 160 59 206 C 44 251 37 301 37 357 C 37 411 44 460 59 506 C 74 551 96 590 124 622 C 152 654 186 680 226 698 C 266 716 311 726 361 726 C 399 726 434 720 465 709 C 496 698 523 683 546 664 C 569 645 588 623 603 597 C 617 571 627 544 633 514 L 601 514 Z M 378 755 L 341 755 L 247 858 L 283 858 L 360 775 L 361 775 L 438 858 L 472 858 L 378 755 Z" unicode="Č" />
<glyph horiz-adv-x="491" d="M 274 598 L 237 598 L 150 702 L 185 702 L 256 618 L 257 618 L 328 702 L 362 702 L 274 598 Z M 472 174 C 468 147 461 122 451 100 C 440 77 426 57 408 41 C 390 25 369 12 344 3 C 318 -5 290 -10 258 -10 C 220 -10 187 -3 159 11 C 130 25 106 44 86 68 C 66 92 51 121 41 154 C 31 186 26 221 26 259 C 26 296 31 331 41 363 C 51 395 66 424 86 448 C 106 472 130 491 159 505 C 187 519 220 526 258 526 C 314 526 361 512 398 484 C 435 456 458 416 468 364 L 438 364 C 427 412 405 446 373 467 C 340 488 302 499 258 499 C 227 499 199 493 175 481 C 150 469 129 453 111 432 C 93 411 80 386 70 357 C 60 327 56 295 56 259 C 56 223 60 190 70 160 C 80 130 93 105 111 84 C 129 62 150 46 175 34 C 199 22 227 17 258 17 C 311 17 353 31 385 59 C 417 87 436 126 443 174 L 472 174 Z" unicode="č" />
<glyph horiz-adv-x="653" d="M 319 755 L 282 755 L 188 858 L 224 858 L 301 775 L 302 775 L 379 858 L 413 858 L 319 755 Z M 65 715 L 321 715 C 373 715 417 705 454 686 C 491 667 522 641 546 609 C 570 576 587 538 599 494 C 610 450 616 404 616 354 C 616 304 610 257 598 214 C 586 171 567 134 542 102 C 517 70 486 45 448 27 C 410 9 366 0 314 0 L 65 0 L 65 715 Z M 313 28 C 356 28 394 35 428 50 C 461 65 489 87 512 115 C 535 143 553 177 565 217 C 577 257 583 303 583 354 C 583 404 577 450 566 491 C 554 531 538 566 516 595 C 494 624 466 646 434 662 C 401 678 363 686 320 686 L 96 686 L 96 28 L 313 28 Z" unicode="Ď" />
<glyph horiz-adv-x="524" d="M 509 587 C 514 593 518 602 520 613 C 522 623 524 638 524 658 L 524 660 L 512 660 L 512 715 L 547 715 L 547 660 C 547 634 544 614 539 599 C 534 583 524 572 509 565 L 509 587 Z M 248 16 C 277 16 304 21 328 32 C 352 43 372 59 389 80 C 406 100 419 125 429 155 C 438 185 443 218 443 256 C 443 292 438 325 429 355 C 420 385 407 410 390 432 C 373 453 353 469 329 481 C 305 493 278 499 249 499 C 221 499 196 493 173 483 C 149 473 129 457 112 437 C 94 417 81 392 71 362 C 61 332 56 297 56 257 C 56 221 60 189 69 159 C 78 129 91 104 108 83 C 124 61 144 45 168 33 C 192 21 218 16 248 16 Z M 441 125 L 440 125 C 424 82 400 49 366 25 C 332 1 292 -10 246 -10 C 212 -10 182 -3 155 9 C 128 22 105 40 86 64 C 67 88 52 116 42 149 C 31 182 26 218 26 258 C 26 302 32 340 44 374 C 56 408 72 436 92 458 C 112 480 135 497 161 509 C 187 520 215 526 245 526 C 289 526 328 514 363 491 C 398 468 424 433 440 387 L 441 387 L 441 715 L 471 715 L 471 0 L 441 0 L 441 125 Z" unicode="ď" />
<glyph horiz-adv-x="667" d="M 76 346 L 3 346 L 3 374 L 76 374 L 76 715 L 332 715 C 384 715 428 705 465 686 C 502 667 533 641 557 609 C 581 576 598 538 610 494 C 621 450 627 404 627 354 C 627 304 621 257 609 214 C 597 171 578 134 553 102 C 528 70 497 45 459 27 C 421 9 377 0 325 0 L 76 0 L 76 346 Z M 325 28 C 368 28 406 35 440 50 C 473 65 501 87 524 115 C 547 143 564 177 576 217 C 588 257 594 303 594 354 C 594 404 588 450 577 491 C 566 531 550 566 528 595 C 506 624 478 646 446 662 C 413 678 375 686 332 686 L 107 686 L 107 374 L 365 374 L 365 346 L 107 346 L 107 28 L 325 28 Z" unicode="Đ" />
<glyph horiz-adv-x="524" d="M 441 623 L 441 715 L 471 715 L 471 623 L 534 623 L 534 597 L 471 597 L 471 0 L 441 0 L 441 120 L 439 120 C 422 79 397 47 365 24 C 332 1 292 -10 246 -10 C 212 -10 182 -3 155 9 C 128 22 105 40 86 64 C 67 88 52 116 42 149 C 31 182 26 218 26 258 C 26 302 32 340 44 374 C 56 408 72 436 92 458 C 112 480 135 497 161 509 C 187 520 215 526 245 526 C 289 526 328 515 362 493 C 396 471 421 437 439 393 L 441 393 L 441 597 L 300 597 L 300 623 L 441 623 Z M 248 16 C 277 16 304 21 328 32 C 352 43 372 59 389 80 C 406 100 419 125 429 155 C 438 185 443 218 443 256 C 443 292 438 325 429 355 C 420 385 407 410 390 432 C 373 453 353 469 329 481 C 305 493 278 499 249 499 C 221 499 196 493 173 483 C 149 473 129 457 112 437 C 94 417 81 392 71 362 C 61 332 56 297 56 257 C 56 221 60 189 69 159 C 78 129 91 104 108 83 C 124 61 144 45 168 33 C 192 21 218 16 248 16 Z" unicode="đ" />
<glyph horiz-adv-x="582" d="M 197 805 L 425 805 L 425 776 L 197 776 L 197 805 Z M 96 384 L 500 384 L 500 356 L 96 356 L 96 29 L 545 29 L 545 0 L 65 0 L 65 715 L 535 715 L 535 687 L 96 687 L 96 384 Z" unicode="Ē" />
<glyph horiz-adv-x="499" d="M 56 260 C 56 224 60 192 69 162 C 78 132 91 107 108 86 C 125 64 146 47 172 35 C 198 23 227 17 261 17 C 308 17 346 28 376 52 C 406 76 427 109 439 152 L 469 152 C 463 129 455 108 444 88 C 433 68 419 51 402 37 C 384 22 364 10 340 2 C 316 -5 290 -10 261 -10 C 223 -10 189 -3 160 10 C 130 24 106 43 86 67 C 66 91 51 119 41 153 C 31 186 26 222 26 262 C 26 299 31 334 42 366 C 52 398 67 426 87 450 C 107 474 131 492 160 506 C 188 519 221 526 257 526 C 284 526 309 522 331 514 C 353 506 372 494 390 480 C 418 456 439 425 453 388 C 466 350 473 308 475 260 L 56 260 Z M 444 285 C 440 354 421 407 387 444 C 353 480 310 499 257 499 C 229 499 203 494 179 484 C 155 474 134 459 117 441 C 99 422 85 399 75 373 C 65 347 59 317 57 285 L 444 285 Z M 138 671 L 366 671 L 366 641 L 138 641 L 138 671 Z" unicode="ē" />
<glyph horiz-adv-x="582" d="M 305 763 C 270 763 242 771 222 789 C 202 807 191 830 189 858 L 217 858 C 220 838 229 822 243 810 C 257 797 278 791 305 791 C 332 791 353 797 367 810 C 381 822 390 838 394 858 L 422 858 C 420 830 408 807 388 789 C 368 771 340 763 305 763 Z M 96 384 L 500 384 L 500 356 L 96 356 L 96 29 L 545 29 L 545 0 L 65 0 L 65 715 L 535 715 L 535 687 L 96 687 L 96 384 Z" unicode="Ĕ" />
<glyph horiz-adv-x="499" d="M 56 260 C 56 224 60 192 69 162 C 78 132 91 107 108 86 C 125 64 146 47 172 35 C 198 23 227 17 261 17 C 308 17 346 28 376 52 C 406 76 427 109 439 152 L 469 152 C 463 129 455 108 444 88 C 433 68 419 51 402 37 C 384 22 364 10 340 2 C 316 -5 290 -10 261 -10 C 223 -10 189 -3 160 10 C 130 24 106 43 86 67 C 66 91 51 119 41 153 C 31 186 26 222 26 262 C 26 299 31 334 42 366 C 52 398 67 426 87 450 C 107 474 131 492 160 506 C 188 519 221 526 257 526 C 284 526 309 522 331 514 C 353 506 372 494 390 480 C 418 456 439 425 453 388 C 466 350 473 308 475 260 L 56 260 Z M 444 285 C 440 354 421 407 387 444 C 353 480 310 499 257 499 C 229 499 203 494 179 484 C 155 474 134 459 117 441 C 99 422 85 399 75 373 C 65 347 59 317 57 285 L 444 285 Z M 256 604 C 221 604 193 613 173 631 C 153 649 142 673 140 701 L 168 701 C 171 681 180 665 194 652 C 208 639 229 633 256 633 C 283 633 304 639 318 652 C 332 665 341 681 345 701 L 373 701 C 371 673 359 649 339 631 C 319 613 291 604 256 604 Z" unicode="ĕ" />
<glyph horiz-adv-x="582" d="M 324 770 L 293 770 L 293 835 L 324 835 L 324 770 Z M 96 384 L 500 384 L 500 356 L 96 356 L 96 29 L 545 29 L 545 0 L 65 0 L 65 715 L 535 715 L 535 687 L 96 687 L 96 384 Z" unicode="Ė" />
<glyph horiz-adv-x="499" d="M 56 260 C 56 224 60 192 69 162 C 78 132 91 107 108 86 C 125 64 146 47 172 35 C 198 23 227 17 261 17 C 308 17 346 28 376 52 C 406 76 427 109 439 152 L 469 152 C 463 129 455 108 444 88 C 433 68 419 51 402 37 C 384 22 364 10 340 2 C 316 -5 290 -10 261 -10 C 223 -10 189 -3 160 10 C 130 24 106 43 86 67 C 66 91 51 119 41 153 C 31 186 26 222 26 262 C 26 299 31 334 42 366 C 52 398 67 426 87 450 C 107 474 131 492 160 506 C 188 519 221 526 257 526 C 284 526 309 522 331 514 C 353 506 372 494 390 480 C 418 456 439 425 453 388 C 466 350 473 308 475 260 L 56 260 Z M 444 285 C 440 354 421 407 387 444 C 353 480 310 499 257 499 C 229 499 203 494 179 484 C 155 474 134 459 117 441 C 99 422 85 399 75 373 C 65 347 59 317 57 285 L 444 285 Z M 269 638 L 238 638 L 238 704 L 269 704 L 269 638 Z" unicode="ė" />
<glyph horiz-adv-x="582" d="M 96 384 L 500 384 L 500 356 L 96 356 L 96 29 L 545 29 L 545 0 L 487 0 C 461 -17 442 -34 428 -50 C 414 -66 408 -83 408 -102 C 408 -117 413 -128 423 -136 C 433 -144 446 -148 462 -148 C 472 -148 482 -147 490 -145 C 498 -143 506 -140 513 -137 L 515 -137 L 515 -160 C 509 -163 502 -166 492 -169 C 482 -171 471 -173 459 -173 C 434 -173 414 -167 399 -155 C 384 -143 377 -125 377 -103 C 377 -83 383 -64 396 -48 C 409 -31 427 -15 450 0 L 65 0 L 65 715 L 535 715 L 535 687 L 96 687 L 96 384 Z" unicode="Ę" />
<glyph horiz-adv-x="499" d="M 56 259 C 56 224 60 192 69 162 C 78 132 91 107 108 85 C 125 63 146 46 172 34 C 198 22 227 16 261 16 C 308 16 346 27 376 51 C 406 75 427 108 439 151 L 469 151 C 462 121 451 96 435 74 C 419 52 402 34 382 19 C 364 5 348 -6 336 -16 C 323 -26 312 -36 304 -45 C 296 -54 290 -63 286 -71 C 282 -79 281 -89 281 -99 C 281 -113 286 -125 296 -135 C 306 -144 321 -149 343 -149 C 352 -149 360 -148 368 -146 C 376 -144 383 -141 391 -138 L 394 -138 L 394 -162 C 388 -165 380 -168 372 -170 C 363 -172 352 -173 340 -173 C 310 -173 287 -166 272 -152 C 257 -138 250 -120 250 -99 C 250 -81 256 -64 268 -49 C 280 -33 296 -19 316 -5 C 308 -6 299 -7 289 -9 C 279 -10 270 -11 261 -11 C 223 -11 189 -4 160 9 C 130 23 106 42 86 66 C 66 90 51 119 41 153 C 31 186 26 222 26 262 C 26 299 31 334 42 366 C 52 398 67 425 87 449 C 107 473 131 491 160 505 C 188 519 221 526 257 526 C 309 526 352 511 388 481 C 417 457 438 426 452 389 C 466 351 473 308 475 259 L 56 259 Z M 444 285 C 440 353 421 406 387 443 C 353 480 310 499 257 499 C 229 499 203 493 179 483 C 155 473 134 458 117 440 C 99 421 85 398 75 372 C 65 346 59 317 57 285 L 444 285 Z" unicode="ę" />
<glyph horiz-adv-x="582" d="M 324 755 L 287 755 L 193 858 L 229 858 L 306 775 L 307 775 L 384 858 L 418 858 L 324 755 Z M 96 384 L 500 384 L 500 356 L 96 356 L 96 29 L 545 29 L 545 0 L 65 0 L 65 715 L 535 715 L 535 687 L 96 687 L 96 384 Z" unicode="Ě" />
<glyph horiz-adv-x="499" d="M 273 598 L 236 598 L 149 702 L 184 702 L 255 618 L 256 618 L 327 702 L 361 702 L 273 598 Z M 56 260 C 56 224 60 192 69 162 C 78 132 91 107 108 86 C 125 64 146 47 172 35 C 198 23 227 17 261 17 C 308 17 346 28 376 52 C 406 76 427 109 439 152 L 469 152 C 463 129 455 108 444 88 C 433 68 419 51 402 37 C 384 22 364 10 340 2 C 316 -5 290 -10 261 -10 C 223 -10 189 -3 160 10 C 130 24 106 43 86 67 C 66 91 51 119 41 153 C 31 186 26 222 26 262 C 26 299 31 334 42 366 C 52 398 67 426 87 450 C 107 474 131 492 160 506 C 188 519 221 526 257 526 C 284 526 309 522 331 514 C 353 506 372 494 390 480 C 418 456 439 425 453 388 C 466 350 473 308 475 260 L 56 260 Z M 444 285 C 440 354 421 407 387 444 C 353 480 310 499 257 499 C 229 499 203 494 179 484 C 155 474 134 459 117 441 C 99 422 85 399 75 373 C 65 347 59 317 57 285 L 444 285 Z" unicode="ě" />
<glyph horiz-adv-x="715" d="M 379 326 L 379 354 L 659 354 L 659 0 L 633 0 L 630 169 L 628 169 C 622 147 612 125 598 103 C 584 81 567 62 545 45 C 523 28 498 14 469 4 C 439 -5 406 -11 369 -11 C 315 -11 267 -1 226 17 C 184 35 150 61 122 94 C 94 127 72 166 58 211 C 44 255 37 304 37 356 C 37 406 44 454 58 499 C 72 544 94 583 122 617 C 150 651 185 677 227 697 C 268 716 316 726 370 726 C 445 726 507 706 556 668 C 604 630 635 577 648 511 L 617 511 C 611 539 602 564 588 587 C 574 610 556 630 535 646 C 513 662 489 675 461 684 C 433 693 403 698 370 698 C 320 698 276 688 238 670 C 200 652 169 627 144 596 C 119 564 100 528 88 487 C 76 445 70 402 70 356 C 70 308 76 264 88 223 C 100 182 119 146 144 116 C 169 86 200 62 238 44 C 275 26 319 18 369 18 C 409 18 446 24 478 38 C 510 52 537 71 559 95 C 581 119 598 147 610 181 C 622 214 628 250 628 290 L 628 326 L 379 326 Z M 477 755 L 441 755 L 365 838 L 364 838 L 287 755 L 252 755 L 346 858 L 383 858 L 477 755 Z" unicode="Ĝ" />
<glyph horiz-adv-x="521" d="M 358 599 L 323 599 L 252 683 L 251 683 L 179 599 L 146 599 L 233 704 L 270 704 L 358 599 Z M 438 517 L 468 517 L 468 19 C 468 -42 448 -90 410 -126 C 392 -142 370 -155 344 -164 C 318 -172 289 -177 255 -177 C 192 -177 143 -165 109 -142 C 75 -119 55 -89 50 -51 L 81 -51 C 87 -84 105 -109 135 -126 C 165 -142 204 -151 254 -151 C 286 -151 313 -146 336 -138 C 359 -129 378 -117 393 -102 C 408 -87 419 -69 427 -49 C 434 -28 438 -5 438 19 L 438 137 L 436 137 C 420 95 396 62 364 39 C 332 16 292 5 246 5 C 212 5 182 11 155 23 C 128 35 105 53 86 76 C 67 99 52 126 42 158 C 31 190 26 225 26 265 C 26 308 32 346 44 379 C 56 411 72 438 92 460 C 112 482 135 498 162 509 C 188 520 216 526 246 526 C 270 526 293 522 313 515 C 333 508 352 498 368 486 C 384 474 397 459 409 443 C 420 426 429 408 436 388 L 438 388 L 438 517 Z M 248 31 C 276 31 302 36 326 47 C 350 57 370 73 387 93 C 404 113 417 137 426 166 C 435 194 440 226 440 262 C 440 297 435 329 426 358 C 417 387 404 412 388 433 C 372 454 352 470 328 482 C 304 493 278 499 249 499 C 221 499 196 493 173 483 C 149 473 129 458 112 438 C 94 418 81 394 71 365 C 61 335 56 302 56 264 C 56 229 60 197 69 169 C 78 140 91 115 108 95 C 124 75 144 59 168 48 C 192 36 218 31 248 31 Z" unicode="ĝ" />
<glyph horiz-adv-x="715" d="M 362 763 C 327 763 299 771 279 789 C 259 807 248 830 246 858 L 274 858 C 277 838 286 822 300 810 C 314 797 335 791 362 791 C 389 791 410 797 424 810 C 438 822 447 838 451 858 L 479 858 C 477 830 465 807 445 789 C 425 771 397 763 362 763 Z M 379 326 L 379 354 L 659 354 L 659 0 L 633 0 L 630 169 L 628 169 C 622 147 612 125 598 103 C 584 81 567 62 545 45 C 523 28 498 14 469 4 C 439 -5 406 -11 369 -11 C 315 -11 267 -1 226 17 C 184 35 150 61 122 94 C 94 127 72 166 58 211 C 44 255 37 304 37 356 C 37 406 44 454 58 499 C 72 544 94 583 122 617 C 150 651 185 677 227 697 C 268 716 316 726 370 726 C 445 726 507 706 556 668 C 604 630 635 577 648 511 L 617 511 C 611 539 602 564 588 587 C 574 610 556 630 535 646 C 513 662 489 675 461 684 C 433 693 403 698 370 698 C 320 698 276 688 238 670 C 200 652 169 627 144 596 C 119 564 100 528 88 487 C 76 445 70 402 70 356 C 70 308 76 264 88 223 C 100 182 119 146 144 116 C 169 86 200 62 238 44 C 275 26 319 18 369 18 C 409 18 446 24 478 38 C 510 52 537 71 559 95 C 581 119 598 147 610 181 C 622 214 628 250 628 290 L 628 326 L 379 326 Z" unicode="Ğ" />
<glyph horiz-adv-x="521" d="M 438 517 L 468 517 L 468 19 C 468 -42 448 -90 410 -126 C 392 -142 370 -155 344 -164 C 318 -172 289 -177 255 -177 C 192 -177 143 -165 109 -142 C 75 -119 55 -89 50 -51 L 81 -51 C 87 -84 105 -109 135 -126 C 165 -142 204 -151 254 -151 C 286 -151 313 -146 336 -138 C 359 -129 378 -117 393 -102 C 408 -87 419 -69 427 -49 C 434 -28 438 -5 438 19 L 438 137 L 436 137 C 420 95 396 62 364 39 C 332 16 292 5 246 5 C 212 5 182 11 155 23 C 128 35 105 53 86 76 C 67 99 52 126 42 158 C 31 190 26 225 26 265 C 26 308 32 346 44 379 C 56 411 72 438 92 460 C 112 482 135 498 162 509 C 188 520 216 526 246 526 C 270 526 293 522 313 515 C 333 508 352 498 368 486 C 384 474 397 459 409 443 C 420 426 429 408 436 388 L 438 388 L 438 517 Z M 248 31 C 276 31 302 36 326 47 C 350 57 370 73 387 93 C 404 113 417 137 426 166 C 435 194 440 226 440 262 C 440 297 435 329 426 358 C 417 387 404 412 388 433 C 372 454 352 470 328 482 C 304 493 278 499 249 499 C 221 499 196 493 173 483 C 149 473 129 458 112 438 C 94 418 81 394 71 365 C 61 335 56 302 56 264 C 56 229 60 197 69 169 C 78 140 91 115 108 95 C 124 75 144 59 168 48 C 192 36 218 31 248 31 Z M 252 604 C 217 604 189 613 169 631 C 149 649 138 673 136 701 L 164 701 C 167 681 176 665 190 652 C 204 639 225 633 252 633 C 279 633 300 639 314 652 C 328 665 337 681 341 701 L 369 701 C 367 673 355 649 335 631 C 315 613 287 604 252 604 Z" unicode="ğ" />
<glyph horiz-adv-x="715" d="M 381 770 L 350 770 L 350 835 L 381 835 L 381 770 Z M 379 326 L 379 354 L 659 354 L 659 0 L 633 0 L 630 169 L 628 169 C 622 147 612 125 598 103 C 584 81 567 62 545 45 C 523 28 498 14 469 4 C 439 -5 406 -11 369 -11 C 315 -11 267 -1 226 17 C 184 35 150 61 122 94 C 94 127 72 166 58 211 C 44 255 37 304 37 356 C 37 406 44 454 58 499 C 72 544 94 583 122 617 C 150 651 185 677 227 697 C 268 716 316 726 370 726 C 445 726 507 706 556 668 C 604 630 635 577 648 511 L 617 511 C 611 539 602 564 588 587 C 574 610 556 630 535 646 C 513 662 489 675 461 684 C 433 693 403 698 370 698 C 320 698 276 688 238 670 C 200 652 169 627 144 596 C 119 564 100 528 88 487 C 76 445 70 402 70 356 C 70 308 76 264 88 223 C 100 182 119 146 144 116 C 169 86 200 62 238 44 C 275 26 319 18 369 18 C 409 18 446 24 478 38 C 510 52 537 71 559 95 C 581 119 598 147 610 181 C 622 214 628 250 628 290 L 628 326 L 379 326 Z" unicode="Ġ" />
<glyph horiz-adv-x="521" d="M 438 517 L 468 517 L 468 19 C 468 -42 448 -90 410 -126 C 392 -142 370 -155 344 -164 C 318 -172 289 -177 255 -177 C 192 -177 143 -165 109 -142 C 75 -119 55 -89 50 -51 L 81 -51 C 87 -84 105 -109 135 -126 C 165 -142 204 -151 254 -151 C 286 -151 313 -146 336 -138 C 359 -129 378 -117 393 -102 C 408 -87 419 -69 427 -49 C 434 -28 438 -5 438 19 L 438 137 L 436 137 C 420 95 396 62 364 39 C 332 16 292 5 246 5 C 212 5 182 11 155 23 C 128 35 105 53 86 76 C 67 99 52 126 42 158 C 31 190 26 225 26 265 C 26 308 32 346 44 379 C 56 411 72 438 92 460 C 112 482 135 498 162 509 C 188 520 216 526 246 526 C 270 526 293 522 313 515 C 333 508 352 498 368 486 C 384 474 397 459 409 443 C 420 426 429 408 436 388 L 438 388 L 438 517 Z M 248 31 C 276 31 302 36 326 47 C 350 57 370 73 387 93 C 404 113 417 137 426 166 C 435 194 440 226 440 262 C 440 297 435 329 426 358 C 417 387 404 412 388 433 C 372 454 352 470 328 482 C 304 493 278 499 249 499 C 221 499 196 493 173 483 C 149 473 129 458 112 438 C 94 418 81 394 71 365 C 61 335 56 302 56 264 C 56 229 60 197 69 169 C 78 140 91 115 108 95 C 124 75 144 59 168 48 C 192 36 218 31 248 31 Z M 267 638 L 236 638 L 236 704 L 267 704 L 267 638 Z" unicode="ġ" />
<glyph horiz-adv-x="715" d="M 337 -182 C 349 -174 357 -164 361 -151 C 365 -137 368 -122 368 -105 L 368 -104 L 355 -104 L 355 -51 L 391 -51 L 391 -104 C 391 -126 387 -145 380 -163 C 372 -181 358 -194 337 -204 L 337 -182 Z M 379 326 L 379 354 L 659 354 L 659 0 L 633 0 L 630 169 L 628 169 C 622 147 612 125 598 103 C 584 81 567 62 545 45 C 523 28 498 14 469 4 C 439 -5 406 -11 369 -11 C 315 -11 267 -1 226 17 C 184 35 150 61 122 94 C 94 127 72 166 58 211 C 44 255 37 304 37 356 C 37 406 44 454 58 499 C 72 544 94 583 122 617 C 150 651 185 677 227 697 C 268 716 316 726 370 726 C 445 726 507 706 556 668 C 604 630 635 577 648 511 L 617 511 C 611 539 602 564 588 587 C 574 610 556 630 535 646 C 513 662 489 675 461 684 C 433 693 403 698 370 698 C 320 698 276 688 238 670 C 200 652 169 627 144 596 C 119 564 100 528 88 487 C 76 445 70 402 70 356 C 70 308 76 264 88 223 C 100 182 119 146 144 116 C 169 86 200 62 238 44 C 275 26 319 18 369 18 C 409 18 446 24 478 38 C 510 52 537 71 559 95 C 581 119 598 147 610 181 C 622 214 628 250 628 290 L 628 326 L 379 326 Z" unicode="Ģ" />
<glyph horiz-adv-x="521" d="M 278 736 C 266 728 257 718 253 705 C 249 691 247 676 247 659 L 247 658 L 260 658 L 260 605 L 224 605 L 224 658 C 224 680 227 699 235 717 C 242 735 256 748 278 758 L 278 736 Z M 438 517 L 468 517 L 468 19 C 468 -42 448 -90 410 -126 C 392 -142 370 -155 344 -164 C 318 -172 289 -177 255 -177 C 192 -177 143 -165 109 -142 C 75 -119 55 -89 50 -51 L 81 -51 C 87 -84 105 -109 135 -126 C 165 -142 204 -151 254 -151 C 286 -151 313 -146 336 -138 C 359 -129 378 -117 393 -102 C 408 -87 419 -69 427 -49 C 434 -28 438 -5 438 19 L 438 137 L 436 137 C 420 95 396 62 364 39 C 332 16 292 5 246 5 C 212 5 182 11 155 23 C 128 35 105 53 86 76 C 67 99 52 126 42 158 C 31 190 26 225 26 265 C 26 308 32 346 44 379 C 56 411 72 438 92 460 C 112 482 135 498 162 509 C 188 520 216 526 246 526 C 270 526 293 522 313 515 C 333 508 352 498 368 486 C 384 474 397 459 409 443 C 420 426 429 408 436 388 L 438 388 L 438 517 Z M 248 31 C 276 31 302 36 326 47 C 350 57 370 73 387 93 C 404 113 417 137 426 166 C 435 194 440 226 440 262 C 440 297 435 329 426 358 C 417 387 404 412 388 433 C 372 454 352 470 328 482 C 304 493 278 499 249 499 C 221 499 196 493 173 483 C 149 473 129 458 112 438 C 94 418 81 394 71 365 C 61 335 56 302 56 264 C 56 229 60 197 69 169 C 78 140 91 115 108 95 C 124 75 144 59 168 48 C 192 36 218 31 248 31 Z" unicode="ģ" />
<glyph horiz-adv-x="651" d="M 65 715 L 96 715 L 96 394 L 555 394 L 555 715 L 586 715 L 586 0 L 555 0 L 555 367 L 96 367 L 96 0 L 65 0 L 65 715 Z M 439 755 L 403 755 L 327 838 L 326 838 L 249 755 L 214 755 L 308 858 L 345 858 L 439 755 Z" unicode="Ĥ" />
<glyph horiz-adv-x="484" d="M 85 424 L 87 424 C 94 436 103 449 115 461 C 126 473 139 484 154 494 C 169 503 186 510 206 516 C 226 522 248 525 273 525 C 325 525 365 510 393 482 C 421 453 435 416 435 370 L 435 0 L 404 0 L 404 367 C 404 411 391 443 367 465 C 343 487 310 498 268 498 C 242 498 217 493 195 485 C 173 477 153 466 137 452 C 121 438 108 421 99 403 C 89 385 85 366 85 347 L 85 0 L 55 0 L 55 715 L 85 715 L 85 424 Z M 350 755 L 314 755 L 238 838 L 237 838 L 160 755 L 125 755 L 219 858 L 256 858 L 350 755 Z" unicode="ĥ" />
<glyph horiz-adv-x="651" d="M 657 529 L 586 529 L 586 0 L 555 0 L 555 367 L 96 367 L 96 0 L 65 0 L 65 529 L -5 529 L -5 557 L 65 557 L 65 715 L 96 715 L 96 557 L 555 557 L 555 715 L 586 715 L 586 557 L 657 557 L 657 529 Z M 555 394 L 555 529 L 96 529 L 96 394 L 555 394 Z" unicode="Ħ" />
<glyph horiz-adv-x="484" d="M 55 623 L 55 715 L 85 715 L 85 623 L 221 623 L 221 597 L 85 597 L 85 424 L 87 424 C 94 436 103 449 115 461 C 126 473 139 484 154 494 C 169 503 186 510 206 516 C 226 522 248 525 273 525 C 325 525 365 510 393 482 C 421 453 435 416 435 370 L 435 0 L 404 0 L 404 367 C 404 411 391 443 367 465 C 343 487 310 498 268 498 C 242 498 217 493 195 485 C 173 477 153 466 137 452 C 121 438 108 421 99 403 C 89 385 85 366 85 347 L 85 0 L 55 0 L 55 597 L -6 597 L -6 623 L 55 623 Z" unicode="ħ" />
<glyph horiz-adv-x="167" d="M 99 0 L 68 0 L 68 715 L 99 715 L 99 0 Z M 20 845 C 34 845 46 842 57 837 C 67 831 78 825 88 819 C 98 812 107 806 117 801 C 127 795 137 793 149 793 C 160 793 169 797 177 805 C 184 813 188 827 190 845 L 216 845 C 214 818 207 798 195 785 C 183 772 167 766 149 766 C 135 766 123 768 112 774 C 101 779 91 785 81 792 C 71 798 61 804 51 810 C 41 815 30 818 19 818 C 8 818 0 813 -8 805 C -15 797 -19 784 -21 766 L -47 766 C -45 792 -38 811 -26 825 C -14 838 1 845 20 845 Z" unicode="Ĩ" />
<glyph horiz-adv-x="139" d="M 124 608 C 112 608 101 610 91 615 C 81 620 72 626 64 632 C 56 638 48 643 40 648 C 32 653 23 656 15 656 C -4 656 -15 640 -17 609 L -43 609 C -42 634 -36 653 -26 665 C -16 677 -2 683 15 683 C 27 683 37 680 47 675 C 56 670 65 665 73 659 C 81 653 89 647 97 642 C 105 637 113 635 123 635 C 143 635 154 650 155 682 L 182 682 C 181 657 175 638 165 626 C 155 614 141 608 124 608 Z M 85 0 L 54 0 L 54 517 L 85 517 L 85 0 Z" unicode="ĩ" />
<glyph horiz-adv-x="167" d="M 99 0 L 68 0 L 68 715 L 99 715 L 99 0 Z M 159 777 L 8 777 L 8 804 L 159 804 L 159 777 Z" unicode="Ī" />
<glyph horiz-adv-x="138" d="M 84 0 L 54 0 L 54 517 L 84 517 L 84 0 Z M -6 671 L 143 671 L 143 641 L -6 641 L -6 671 Z" unicode="ī" />
<glyph horiz-adv-x="167" d="M 99 0 L 68 0 L 68 715 L 99 715 L 99 0 Z M 83 763 C 48 763 20 771 0 789 C -19 807 -31 830 -33 858 L -5 858 C -1 838 7 822 21 810 C 35 797 56 791 83 791 C 110 791 131 797 145 810 C 159 822 168 838 172 858 L 200 858 C 198 830 186 807 166 789 C 146 771 118 763 83 763 Z" unicode="Ĭ" />
<glyph horiz-adv-x="138" d="M 84 0 L 54 0 L 54 517 L 84 517 L 84 0 Z M 69 604 C 34 604 6 613 -13 631 C -33 649 -45 673 -47 701 L -19 701 C -15 681 -6 665 7 652 C 21 639 42 633 69 633 C 96 633 117 639 131 652 C 145 665 154 681 158 701 L 186 701 C 184 673 172 649 152 631 C 132 613 104 604 69 604 Z" unicode="ĭ" />
<glyph horiz-adv-x="167" d="M 99 2 C 74 -15 55 -32 42 -49 C 28 -65 22 -83 22 -102 C 22 -117 27 -128 37 -136 C 47 -144 60 -148 76 -148 C 86 -148 96 -147 104 -145 C 112 -143 119 -140 126 -137 L 128 -137 L 128 -160 C 122 -163 115 -166 105 -169 C 95 -171 84 -173 73 -173 C 49 -173 29 -167 14 -155 C -1 -143 -9 -126 -9 -103 C -9 -81 -2 -62 12 -45 C 26 -27 44 -11 68 4 L 68 715 L 99 715 L 99 2 Z" unicode="Į" />
<glyph horiz-adv-x="138" d="M 84 -1 C 60 -18 42 -34 29 -49 C 15 -64 9 -81 9 -101 C 9 -115 13 -127 23 -136 C 33 -144 47 -149 67 -149 C 76 -149 84 -148 92 -146 C 100 -144 107 -141 114 -138 L 117 -138 L 117 -161 C 111 -164 104 -167 95 -169 C 86 -171 76 -173 64 -173 C 36 -173 14 -166 0 -153 C -13 -140 -21 -123 -21 -102 C -21 -78 -13 -58 3 -40 C 19 -22 36 -8 54 3 L 54 517 L 84 517 L 84 -1 Z M 84 643 L 54 643 L 54 710 L 84 710 L 84 643 Z" unicode="į" />
<glyph horiz-adv-x="167" d="M 99 0 L 68 0 L 68 715 L 99 715 L 99 0 Z M 100 770 L 69 770 L 69 835 L 100 835 L 100 770 Z" unicode="İ" />
<glyph horiz-adv-x="138" d="M 84 0 L 54 0 L 54 517 L 84 517 L 84 0 Z" unicode="ı" />
<glyph horiz-adv-x="592" d="M 191 211 L 191 186 C 191 129 205 87 233 59 C 261 31 301 17 353 17 C 403 17 440 31 465 59 C 489 87 502 127 502 180 L 502 715 L 533 715 L 533 178 C 533 150 529 124 522 101 C 515 77 504 57 489 41 C 474 24 455 11 433 2 C 410 -7 383 -12 353 -12 C 292 -12 245 4 211 38 C 177 71 160 120 160 185 L 160 211 L 191 211 Z M 99 0 L 68 0 L 68 715 L 99 715 L 99 0 Z" unicode="Ĳ" />
<glyph horiz-adv-x="289" d="M 234 517 L 234 -62 C 234 -94 227 -118 213 -133 C 199 -148 177 -156 145 -156 C 141 -156 136 -155 130 -155 C 124 -154 119 -153 116 -152 L 116 -125 C 124 -127 133 -129 144 -129 C 167 -129 183 -123 191 -112 C 199 -101 204 -84 204 -62 L 204 517 L 234 517 Z M 84 0 L 54 0 L 54 517 L 84 517 L 84 0 Z M 234 643 L 204 643 L 204 710 L 234 710 L 234 643 Z M 84 643 L 54 643 L 54 710 L 84 710 L 84 643 Z" unicode="ĳ" />
<glyph horiz-adv-x="454" d="M 53 211 L 53 186 C 53 129 67 87 95 59 C 123 31 163 17 215 17 C 265 17 302 31 327 59 C 351 87 364 127 364 180 L 364 715 L 395 715 L 395 178 C 395 150 391 124 384 101 C 377 77 366 57 351 41 C 336 24 317 11 295 2 C 272 -7 245 -12 215 -12 C 154 -12 107 4 73 38 C 39 71 22 120 22 185 L 22 211 L 53 211 Z M 491 755 L 455 755 L 379 838 L 378 838 L 301 755 L 266 755 L 360 858 L 397 858 L 491 755 Z" unicode="Ĵ" />
<glyph horiz-adv-x="151" d="M 96 517 L 96 -62 C 96 -94 89 -118 75 -133 C 61 -148 39 -156 7 -156 C 3 -156 -2 -155 -8 -155 C -14 -154 -18 -153 -22 -152 L -22 -125 C -14 -127 -4 -129 6 -129 C 29 -129 45 -123 53 -112 C 61 -101 66 -84 66 -62 L 66 517 L 96 517 Z M 173 599 L 140 599 L 81 683 L 80 683 L 20 599 L -11 599 L 63 704 L 99 704 L 173 599 Z" unicode="ĵ" />
<glyph horiz-adv-x="607" d="M 265 -182 C 277 -174 285 -164 289 -151 C 293 -137 296 -122 296 -105 L 296 -104 L 283 -104 L 283 -51 L 319 -51 L 319 -104 C 319 -126 315 -145 308 -163 C 300 -181 286 -194 265 -204 L 265 -182 Z M 267 421 L 605 0 L 567 0 L 244 399 L 96 258 L 96 0 L 65 0 L 65 715 L 96 715 L 96 297 L 532 715 L 574 715 L 267 421 Z" unicode="Ķ" />
<glyph horiz-adv-x="450" d="M 194 -182 C 206 -174 214 -164 218 -151 C 222 -137 225 -122 225 -105 L 225 -104 L 212 -104 L 212 -51 L 248 -51 L 248 -104 C 248 -126 244 -145 237 -163 C 229 -181 215 -194 194 -204 L 194 -182 Z M 191 297 L 83 192 L 83 0 L 53 0 L 53 715 L 83 715 L 83 228 L 379 517 L 418 517 L 212 317 L 449 0 L 414 0 L 191 297 Z" unicode="ķ" />
<glyph horiz-adv-x="450" d="M 191 297 L 83 192 L 83 0 L 53 0 L 53 517 L 83 517 L 83 228 L 379 517 L 418 517 L 212 317 L 449 0 L 414 0 L 191 297 Z" unicode="ĸ" />
<glyph horiz-adv-x="530" d="M 138 867 L 179 867 L 99 755 L 71 755 L 138 867 Z M 96 29 L 507 29 L 507 0 L 65 0 L 65 715 L 96 715 L 96 29 Z" unicode="Ĺ" />
<glyph horiz-adv-x="142" d="M 125 867 L 166 867 L 86 755 L 58 755 L 125 867 Z M 86 0 L 56 0 L 56 715 L 86 715 L 86 0 Z" unicode="ĺ" />
<glyph horiz-adv-x="530" d="M 251 -182 C 263 -174 271 -164 275 -151 C 279 -137 282 -122 282 -105 L 282 -104 L 269 -104 L 269 -51 L 305 -51 L 305 -104 C 305 -126 301 -145 294 -163 C 286 -181 272 -194 251 -204 L 251 -182 Z M 96 29 L 507 29 L 507 0 L 65 0 L 65 715 L 96 715 L 96 29 Z" unicode="Ļ" />
<glyph horiz-adv-x="142" d="M 36 -182 C 48 -174 56 -164 60 -151 C 64 -137 67 -122 67 -105 L 67 -104 L 54 -104 L 54 -51 L 90 -51 L 90 -104 C 90 -126 86 -145 79 -163 C 71 -181 57 -194 36 -204 L 36 -182 Z M 86 0 L 56 0 L 56 715 L 86 715 L 86 0 Z" unicode="ļ" />
<glyph horiz-adv-x="530" d="M 302 587 C 307 593 311 602 313 613 C 315 623 317 638 317 658 L 317 660 L 305 660 L 305 715 L 340 715 L 340 660 C 340 634 337 614 332 599 C 327 583 317 572 302 565 L 302 587 Z M 96 29 L 507 29 L 507 0 L 65 0 L 65 715 L 96 715 L 96 29 Z" unicode="Ľ" />
<glyph horiz-adv-x="142" d="M 124 587 C 129 593 133 602 135 613 C 137 623 139 638 139 658 L 139 660 L 127 660 L 127 715 L 162 715 L 162 660 C 162 634 159 614 154 599 C 149 583 139 572 124 565 L 124 587 Z M 86 0 L 56 0 L 56 715 L 86 715 L 86 0 Z" unicode="ľ" />
<glyph horiz-adv-x="530" d="M 96 29 L 507 29 L 507 0 L 65 0 L 65 715 L 96 715 L 96 29 Z M 390 295 L 353 295 L 353 361 L 390 361 L 390 295 Z" unicode="Ŀ" />
<glyph horiz-adv-x="188" d="M 86 0 L 56 0 L 56 715 L 86 715 L 86 0 Z M 181 295 L 144 295 L 144 361 L 181 361 L 181 295 Z" unicode="ŀ" />
<glyph horiz-adv-x="539" d="M 394 439 L 105 278 L 105 29 L 516 29 L 516 0 L 74 0 L 74 261 L -5 217 L -5 247 L 74 290 L 74 715 L 105 715 L 105 308 L 394 469 L 394 439 Z" unicode="Ł" />
<glyph horiz-adv-x="174" d="M 178 438 L 104 376 L 104 0 L 74 0 L 74 350 L 5 292 L 5 326 L 74 384 L 74 715 L 104 715 L 104 410 L 178 473 L 178 438 Z" unicode="ł" />
<glyph horiz-adv-x="660" d="M 382 867 L 423 867 L 343 755 L 315 755 L 382 867 Z M 595 0 L 562 0 L 96 663 L 95 663 L 95 0 L 65 0 L 65 715 L 100 715 L 564 52 L 565 52 L 565 715 L 595 715 L 595 0 Z" unicode="Ń" />
<glyph horiz-adv-x="482" d="M 291 721 L 331 721 L 250 597 L 222 597 L 291 721 Z M 83 424 L 85 424 C 92 436 101 449 113 461 C 124 473 137 484 152 494 C 167 503 184 510 204 516 C 224 522 246 525 271 525 C 322 525 362 510 390 482 C 418 453 432 416 432 370 L 432 0 L 402 0 L 402 367 C 402 411 389 443 365 465 C 341 487 308 498 266 498 C 239 498 214 493 192 485 C 170 477 150 466 134 452 C 118 438 105 421 96 403 C 87 385 83 366 83 347 L 83 0 L 53 0 L 53 517 L 83 517 L 83 424 Z" unicode="ń" />
<glyph horiz-adv-x="660" d="M 293 -182 C 305 -174 313 -164 317 -151 C 321 -137 324 -122 324 -105 L 324 -104 L 311 -104 L 311 -51 L 347 -51 L 347 -104 C 347 -126 343 -145 336 -163 C 328 -181 314 -194 293 -204 L 293 -182 Z M 595 0 L 562 0 L 96 663 L 95 663 L 95 0 L 65 0 L 65 715 L 100 715 L 564 52 L 565 52 L 565 715 L 595 715 L 595 0 Z" unicode="Ņ" />
<glyph horiz-adv-x="482" d="M 210 -182 C 222 -174 230 -164 234 -151 C 238 -137 241 -122 241 -105 L 241 -104 L 228 -104 L 228 -51 L 264 -51 L 264 -104 C 264 -126 260 -145 253 -163 C 245 -181 231 -194 210 -204 L 210 -182 Z M 83 424 L 85 424 C 92 436 101 449 113 461 C 124 473 137 484 152 494 C 167 503 184 510 204 516 C 224 522 246 525 271 525 C 322 525 362 510 390 482 C 418 453 432 416 432 370 L 432 0 L 402 0 L 402 367 C 402 411 389 443 365 465 C 341 487 308 498 266 498 C 239 498 214 493 192 485 C 170 477 150 466 134 452 C 118 438 105 421 96 403 C 87 385 83 366 83 347 L 83 0 L 53 0 L 53 517 L 83 517 L 83 424 Z" unicode="ņ" />
<glyph horiz-adv-x="660" d="M 361 755 L 324 755 L 230 858 L 266 858 L 343 775 L 344 775 L 421 858 L 455 858 L 361 755 Z M 595 0 L 562 0 L 96 663 L 95 663 L 95 0 L 65 0 L 65 715 L 100 715 L 564 52 L 565 52 L 565 715 L 595 715 L 595 0 Z" unicode="Ň" />
<glyph horiz-adv-x="482" d="M 264 598 L 227 598 L 140 702 L 175 702 L 246 618 L 247 618 L 318 702 L 352 702 L 264 598 Z M 83 424 L 85 424 C 92 436 101 449 113 461 C 124 473 137 484 152 494 C 167 503 184 510 204 516 C 224 522 246 525 271 525 C 322 525 362 510 390 482 C 418 453 432 416 432 370 L 432 0 L 402 0 L 402 367 C 402 411 389 443 365 465 C 341 487 308 498 266 498 C 239 498 214 493 192 485 C 170 477 150 466 134 452 C 118 438 105 421 96 403 C 87 385 83 366 83 347 L 83 0 L 53 0 L 53 517 L 83 517 L 83 424 Z" unicode="ň" />
<glyph horiz-adv-x="469" d="M -2 587 C 7 594 13 603 17 613 C 20 623 22 638 22 658 L 22 660 L 11 660 L 11 715 L 45 715 L 45 660 C 45 634 41 614 35 599 C 29 583 16 572 -2 565 L -2 587 Z M 70 424 L 72 424 C 79 436 88 449 100 461 C 111 473 124 484 139 494 C 154 503 171 510 191 516 C 211 522 233 525 258 525 C 310 525 350 510 378 482 C 406 453 420 416 420 370 L 420 0 L 389 0 L 389 367 C 389 411 376 443 352 465 C 328 487 295 498 253 498 C 227 498 202 493 180 485 C 158 477 138 466 122 452 C 106 438 93 421 84 403 C 74 385 70 366 70 347 L 70 0 L 40 0 L 40 517 L 70 517 L 70 424 Z" unicode="ŉ" />
<glyph horiz-adv-x="660" d="M 409 -177 C 401 -177 392 -176 383 -176 C 374 -175 366 -174 360 -173 L 360 -144 C 367 -145 375 -146 384 -147 C 393 -147 401 -148 409 -148 C 455 -148 492 -135 518 -110 C 544 -85 559 -49 563 -2 L 96 663 L 95 663 L 95 0 L 65 0 L 65 715 L 100 715 L 564 52 L 565 52 L 565 715 L 595 715 L 595 13 C 595 -15 591 -40 584 -64 C 576 -87 565 -107 550 -124 C 534 -140 515 -153 492 -163 C 468 -172 441 -177 409 -177 Z" unicode="Ŋ" />
<glyph horiz-adv-x="482" d="M 402 367 C 402 411 389 443 365 465 C 341 487 308 498 266 498 C 239 498 214 493 192 485 C 170 477 150 466 134 452 C 118 438 105 421 96 403 C 87 385 83 366 83 347 L 83 0 L 53 0 L 53 517 L 83 517 L 83 424 L 85 424 C 92 436 101 449 113 461 C 124 473 137 484 152 494 C 167 503 184 510 204 516 C 224 522 246 525 271 525 C 322 525 362 510 390 482 C 418 453 432 416 432 370 L 432 -62 C 432 -94 425 -118 411 -133 C 397 -148 375 -156 343 -156 C 339 -156 334 -155 328 -155 C 322 -154 317 -153 314 -152 L 314 -125 C 322 -127 331 -129 342 -129 C 365 -129 381 -123 389 -112 C 397 -101 402 -84 402 -62 L 402 367 Z" unicode="ŋ" />
<glyph horiz-adv-x="732" d="M 251 805 L 479 805 L 479 776 L 251 776 L 251 805 Z M 365 -10 C 316 -10 272 0 232 17 C 192 35 157 61 128 94 C 99 126 77 165 61 210 C 45 254 37 303 37 357 C 37 409 45 458 61 504 C 77 549 99 588 128 621 C 157 653 192 679 232 698 C 272 716 316 726 365 726 C 413 726 458 716 498 698 C 538 679 573 653 602 621 C 631 588 654 549 670 504 C 686 458 695 409 695 357 C 695 304 686 255 670 210 C 654 165 631 126 602 94 C 573 61 538 35 498 17 C 458 0 413 -10 365 -10 Z M 365 19 C 410 19 451 27 488 45 C 524 63 555 87 581 117 C 607 147 627 183 641 224 C 655 265 662 309 662 357 C 662 404 655 448 641 490 C 627 531 607 567 581 598 C 555 628 524 652 488 670 C 451 688 410 697 365 697 C 319 697 277 688 241 670 C 205 652 174 628 149 598 C 123 567 104 531 90 490 C 76 448 70 404 70 357 C 70 309 76 265 90 224 C 104 183 123 147 149 117 C 174 87 205 63 241 45 C 277 27 319 19 365 19 Z" unicode="Ō" />
<glyph horiz-adv-x="522" d="M 146 671 L 374 671 L 374 641 L 146 641 L 146 671 Z M 261 -10 C 224 -10 191 -3 162 11 C 133 25 108 44 88 68 C 68 92 52 121 42 154 C 31 186 26 221 26 259 C 26 295 31 330 42 363 C 52 395 68 424 88 448 C 108 472 133 491 162 505 C 191 519 224 526 261 526 C 297 526 330 519 360 505 C 389 491 414 472 434 448 C 454 424 469 395 480 363 C 490 331 496 296 496 259 C 496 221 490 186 480 154 C 469 121 454 92 434 68 C 414 44 389 25 360 11 C 330 -3 297 -10 261 -10 Z M 261 16 C 291 16 318 21 343 33 C 368 45 390 61 408 83 C 426 104 440 130 450 160 C 460 190 465 223 465 259 C 465 295 460 327 450 357 C 440 387 426 412 408 433 C 390 454 368 470 343 482 C 318 494 291 500 261 500 C 231 500 203 494 178 482 C 153 470 132 454 114 433 C 96 412 81 387 71 357 C 61 327 56 295 56 259 C 56 223 61 190 71 160 C 81 130 96 104 114 83 C 132 61 153 45 178 33 C 203 21 231 16 261 16 Z" unicode="ō" />
<glyph horiz-adv-x="732" d="M 365 763 C 330 763 302 771 282 789 C 262 807 251 830 249 858 L 277 858 C 280 838 289 822 303 810 C 317 797 338 791 365 791 C 392 791 413 797 427 810 C 441 822 450 838 454 858 L 482 858 C 480 830 468 807 448 789 C 428 771 400 763 365 763 Z M 365 -10 C 316 -10 272 0 232 17 C 192 35 157 61 128 94 C 99 126 77 165 61 210 C 45 254 37 303 37 357 C 37 409 45 458 61 504 C 77 549 99 588 128 621 C 157 653 192 679 232 698 C 272 716 316 726 365 726 C 413 726 458 716 498 698 C 538 679 573 653 602 621 C 631 588 654 549 670 504 C 686 458 695 409 695 357 C 695 304 686 255 670 210 C 654 165 631 126 602 94 C 573 61 538 35 498 17 C 458 0 413 -10 365 -10 Z M 365 19 C 410 19 451 27 488 45 C 524 63 555 87 581 117 C 607 147 627 183 641 224 C 655 265 662 309 662 357 C 662 404 655 448 641 490 C 627 531 607 567 581 598 C 555 628 524 652 488 670 C 451 688 410 697 365 697 C 319 697 277 688 241 670 C 205 652 174 628 149 598 C 123 567 104 531 90 490 C 76 448 70 404 70 357 C 70 309 76 265 90 224 C 104 183 123 147 149 117 C 174 87 205 63 241 45 C 277 27 319 19 365 19 Z" unicode="Ŏ" />
<glyph horiz-adv-x="522" d="M 261 -10 C 224 -10 191 -3 162 11 C 133 25 108 44 88 68 C 68 92 52 121 42 154 C 31 186 26 221 26 259 C 26 295 31 330 42 363 C 52 395 68 424 88 448 C 108 472 133 491 162 505 C 191 519 224 526 261 526 C 297 526 330 519 360 505 C 389 491 414 472 434 448 C 454 424 469 395 480 363 C 490 331 496 296 496 259 C 496 221 490 186 480 154 C 469 121 454 92 434 68 C 414 44 389 25 360 11 C 330 -3 297 -10 261 -10 Z M 261 16 C 291 16 318 21 343 33 C 368 45 390 61 408 83 C 426 104 440 130 450 160 C 460 190 465 223 465 259 C 465 295 460 327 450 357 C 440 387 426 412 408 433 C 390 454 368 470 343 482 C 318 494 291 500 261 500 C 231 500 203 494 178 482 C 153 470 132 454 114 433 C 96 412 81 387 71 357 C 61 327 56 295 56 259 C 56 223 61 190 71 160 C 81 130 96 104 114 83 C 132 61 153 45 178 33 C 203 21 231 16 261 16 Z M 260 604 C 225 604 197 613 177 631 C 157 649 146 673 144 701 L 172 701 C 175 681 184 665 198 652 C 212 639 233 633 260 633 C 287 633 308 639 322 652 C 336 665 345 681 349 701 L 377 701 C 375 673 363 649 343 631 C 323 613 295 604 260 604 Z" unicode="ŏ" />
<glyph horiz-adv-x="732" d="M 365 -10 C 316 -10 272 0 232 17 C 192 35 157 61 128 94 C 99 126 77 165 61 210 C 45 254 37 303 37 357 C 37 409 45 458 61 504 C 77 549 99 588 128 621 C 157 653 192 679 232 698 C 272 716 316 726 365 726 C 413 726 458 716 498 698 C 538 679 573 653 602 621 C 631 588 654 549 670 504 C 686 458 695 409 695 357 C 695 304 686 255 670 210 C 654 165 631 126 602 94 C 573 61 538 35 498 17 C 458 0 413 -10 365 -10 Z M 365 19 C 410 19 451 27 488 45 C 524 63 555 87 581 117 C 607 147 627 183 641 224 C 655 265 662 309 662 357 C 662 404 655 448 641 490 C 627 531 607 567 581 598 C 555 628 524 652 488 670 C 451 688 410 697 365 697 C 319 697 277 688 241 670 C 205 652 174 628 149 598 C 123 567 104 531 90 490 C 76 448 70 404 70 357 C 70 309 76 265 90 224 C 104 183 123 147 149 117 C 174 87 205 63 241 45 C 277 27 319 19 365 19 Z M 337 871 L 373 871 L 316 755 L 289 755 L 337 871 Z M 463 871 L 498 871 L 441 755 L 414 755 L 463 871 Z" unicode="Ő" />
<glyph horiz-adv-x="522" d="M 236 721 L 272 721 L 215 597 L 188 597 L 236 721 Z M 362 721 L 397 721 L 340 597 L 313 597 L 362 721 Z M 261 -10 C 224 -10 191 -3 162 11 C 133 25 108 44 88 68 C 68 92 52 121 42 154 C 31 186 26 221 26 259 C 26 295 31 330 42 363 C 52 395 68 424 88 448 C 108 472 133 491 162 505 C 191 519 224 526 261 526 C 297 526 330 519 360 505 C 389 491 414 472 434 448 C 454 424 469 395 480 363 C 490 331 496 296 496 259 C 496 221 490 186 480 154 C 469 121 454 92 434 68 C 414 44 389 25 360 11 C 330 -3 297 -10 261 -10 Z M 261 16 C 291 16 318 21 343 33 C 368 45 390 61 408 83 C 426 104 440 130 450 160 C 460 190 465 223 465 259 C 465 295 460 327 450 357 C 440 387 426 412 408 433 C 390 454 368 470 343 482 C 318 494 291 500 261 500 C 231 500 203 494 178 482 C 153 470 132 454 114 433 C 96 412 81 387 71 357 C 61 327 56 295 56 259 C 56 223 61 190 71 160 C 81 130 96 104 114 83 C 132 61 153 45 178 33 C 203 21 231 16 261 16 Z" unicode="ő" />
<glyph horiz-adv-x="1056" d="M 610 384 L 979 384 L 979 356 L 610 356 L 610 29 L 1019 29 L 1019 0 L 578 0 L 578 103 C 570 87 559 73 546 59 C 533 45 518 33 500 23 C 482 13 461 5 438 -1 C 414 -7 388 -10 360 -10 C 312 -10 269 0 229 17 C 189 35 155 61 127 94 C 99 126 77 165 61 210 C 45 255 37 304 37 358 C 37 411 45 460 61 505 C 77 550 99 589 127 622 C 155 654 189 680 229 698 C 269 716 312 726 360 726 C 389 726 416 722 440 716 C 464 709 485 700 503 689 C 521 678 536 666 548 652 C 560 638 570 624 578 610 L 578 715 L 1009 715 L 1009 687 L 610 687 L 610 384 Z M 360 19 C 393 19 423 23 450 33 C 477 43 500 56 519 72 C 538 88 553 107 563 129 C 573 150 578 172 578 196 L 578 518 C 577 543 571 567 560 589 C 549 611 534 630 514 646 C 494 662 471 674 445 683 C 419 692 390 697 360 697 C 315 697 275 688 239 670 C 203 652 173 628 148 598 C 123 568 104 532 90 491 C 76 449 70 405 70 358 C 70 310 76 266 90 225 C 104 183 123 147 148 117 C 173 87 203 63 239 45 C 275 27 315 19 360 19 Z" unicode="Œ" />
<glyph horiz-adv-x="896" d="M 247 -11 C 210 -11 178 -4 150 10 C 122 24 99 43 81 67 C 63 91 49 120 40 153 C 30 185 26 220 26 258 C 26 295 30 330 40 363 C 49 395 63 424 81 448 C 99 472 122 491 150 505 C 178 519 210 526 247 526 C 275 526 300 521 323 513 C 345 505 365 493 383 478 C 400 463 414 445 426 425 C 438 404 447 381 454 357 C 460 381 470 404 482 425 C 494 445 508 463 526 478 C 544 493 564 505 586 513 C 608 521 634 526 662 526 C 695 526 724 520 748 508 C 772 496 793 480 811 459 C 832 435 847 406 857 372 C 866 338 871 301 872 259 L 470 259 C 470 223 474 191 482 161 C 490 131 503 105 519 84 C 535 62 555 46 579 34 C 603 22 632 16 666 16 C 713 16 750 27 778 51 C 805 75 824 108 836 151 L 865 151 C 860 128 852 107 842 87 C 832 67 818 50 802 36 C 786 21 766 9 744 1 C 721 -6 695 -11 666 -11 C 608 -11 561 4 526 36 C 491 67 467 108 455 160 C 441 110 417 69 383 37 C 349 5 303 -11 247 -11 Z M 247 15 C 277 15 303 20 327 32 C 351 44 371 60 387 82 C 403 104 416 130 425 160 C 434 190 439 223 439 259 C 439 295 434 327 425 357 C 416 387 403 412 387 433 C 371 454 351 470 327 482 C 303 494 277 500 247 500 C 217 500 190 494 167 482 C 143 470 123 454 107 433 C 90 412 77 387 69 357 C 60 327 56 294 56 258 C 56 222 60 189 69 159 C 77 129 90 103 107 82 C 123 60 143 44 167 32 C 190 20 217 15 247 15 Z M 841 285 C 837 353 819 406 788 443 C 757 480 715 499 662 499 C 634 499 608 493 585 483 C 562 473 542 458 526 440 C 509 421 496 398 487 372 C 477 346 472 317 470 285 L 841 285 Z" unicode="œ" />
<glyph horiz-adv-x="595" d="M 96 0 L 65 0 L 65 715 L 334 715 C 370 715 401 710 427 701 C 453 692 476 679 496 662 C 514 646 527 626 537 603 C 547 580 552 553 552 522 C 552 468 538 425 510 393 C 482 361 440 341 384 334 L 575 0 L 541 0 L 352 329 L 96 329 L 96 0 Z M 96 358 L 327 358 C 395 358 444 372 474 401 C 504 430 520 470 520 522 C 520 574 503 615 470 644 C 437 672 391 687 332 687 L 96 687 L 96 358 Z M 322 867 L 363 867 L 283 755 L 255 755 L 322 867 Z" unicode="Ŕ" />
<glyph horiz-adv-x="294" d="M 211 721 L 251 721 L 170 597 L 142 597 L 211 721 Z M 277 489 C 267 490 258 490 248 490 C 238 490 229 489 220 487 C 199 483 180 476 164 466 C 147 456 133 443 121 428 C 109 412 99 396 93 378 C 86 360 83 342 83 324 L 83 0 L 53 0 L 53 517 L 83 517 L 83 412 L 85 412 C 98 440 116 463 138 480 C 160 496 184 507 210 511 C 221 515 232 517 244 518 C 256 519 267 519 277 518 L 277 489 Z" unicode="ŕ" />
<glyph horiz-adv-x="595" d="M 96 0 L 65 0 L 65 715 L 334 715 C 370 715 401 710 427 701 C 453 692 476 679 496 662 C 514 646 527 626 537 603 C 547 580 552 553 552 522 C 552 468 538 425 510 393 C 482 361 440 341 384 334 L 575 0 L 541 0 L 352 329 L 96 329 L 96 0 Z M 96 358 L 327 358 C 395 358 444 372 474 401 C 504 430 520 470 520 522 C 520 574 503 615 470 644 C 437 672 391 687 332 687 L 96 687 L 96 358 Z M 252 -182 C 264 -174 272 -164 276 -151 C 280 -137 283 -122 283 -105 L 283 -104 L 270 -104 L 270 -51 L 306 -51 L 306 -104 C 306 -126 302 -145 295 -163 C 287 -181 273 -194 252 -204 L 252 -182 Z" unicode="Ŗ" />
<glyph horiz-adv-x="294" d="M 32 -182 C 44 -174 52 -164 56 -151 C 60 -137 63 -122 63 -105 L 63 -104 L 50 -104 L 50 -51 L 86 -51 L 86 -104 C 86 -126 82 -145 75 -163 C 67 -181 53 -194 32 -204 L 32 -182 Z M 277 489 C 267 490 258 490 248 490 C 238 490 229 489 220 487 C 199 483 180 476 164 466 C 147 456 133 443 121 428 C 109 412 99 396 93 378 C 86 360 83 342 83 324 L 83 0 L 53 0 L 53 517 L 83 517 L 83 412 L 85 412 C 98 440 116 463 138 480 C 160 496 184 507 210 511 C 221 515 232 517 244 518 C 256 519 267 519 277 518 L 277 489 Z" unicode="ŗ" />
<glyph horiz-adv-x="595" d="M 96 0 L 65 0 L 65 715 L 334 715 C 370 715 401 710 427 701 C 453 692 476 679 496 662 C 514 646 527 626 537 603 C 547 580 552 553 552 522 C 552 468 538 425 510 393 C 482 361 440 341 384 334 L 575 0 L 541 0 L 352 329 L 96 329 L 96 0 Z M 96 358 L 327 358 C 395 358 444 372 474 401 C 504 430 520 470 520 522 C 520 574 503 615 470 644 C 437 672 391 687 332 687 L 96 687 L 96 358 Z M 288 755 L 251 755 L 157 858 L 193 858 L 270 775 L 271 775 L 348 858 L 382 858 L 288 755 Z" unicode="Ř" />
<glyph horiz-adv-x="294" d="M 184 598 L 147 598 L 60 702 L 95 702 L 166 618 L 167 618 L 238 702 L 272 702 L 184 598 Z M 277 489 C 267 490 258 490 248 490 C 238 490 229 489 220 487 C 199 483 180 476 164 466 C 147 456 133 443 121 428 C 109 412 99 396 93 378 C 86 360 83 342 83 324 L 83 0 L 53 0 L 53 517 L 83 517 L 83 412 L 85 412 C 98 440 116 463 138 480 C 160 496 184 507 210 511 C 221 515 232 517 244 518 C 256 519 267 519 277 518 L 277 489 Z" unicode="ř" />
<glyph horiz-adv-x="585" d="M 55 227 C 58 163 81 113 123 75 C 165 37 225 18 304 18 C 336 18 366 22 392 30 C 418 38 441 49 460 64 C 478 78 493 96 503 117 C 513 138 518 162 518 188 C 518 216 513 239 504 258 C 494 277 480 293 461 306 C 441 319 417 330 387 339 C 357 348 321 356 280 364 C 243 370 210 378 182 388 C 154 397 130 409 110 423 C 90 437 76 455 66 475 C 56 495 51 520 51 548 C 51 574 56 599 67 621 C 78 643 94 661 114 677 C 134 693 159 705 187 713 C 215 721 247 726 282 726 C 354 726 411 707 453 670 C 494 633 518 585 526 525 L 494 525 C 486 579 464 622 428 652 C 391 682 343 697 283 697 C 220 697 171 683 136 656 C 100 629 83 593 83 549 C 83 525 87 504 95 488 C 103 471 116 457 134 445 C 152 433 174 422 201 414 C 227 406 259 398 295 392 C 333 384 368 376 400 367 C 431 358 458 346 480 331 C 502 316 520 297 532 275 C 544 252 550 224 550 190 C 550 160 544 132 533 108 C 521 83 505 62 484 44 C 463 26 437 13 407 3 C 377 -6 343 -11 305 -11 C 259 -11 218 -5 184 7 C 150 19 121 35 98 57 C 74 78 56 103 44 132 C 31 161 24 193 22 227 L 55 227 Z M 328 867 L 369 867 L 289 755 L 261 755 L 328 867 Z" unicode="Ś" />
<glyph horiz-adv-x="444" d="M 262 721 L 302 721 L 221 597 L 193 597 L 262 721 Z M 50 159 C 54 113 71 77 101 53 C 131 28 173 16 229 16 C 281 16 321 26 349 48 C 377 70 391 99 391 135 C 391 152 388 167 383 180 C 377 193 368 204 355 214 C 342 223 325 231 304 238 C 283 245 257 252 225 258 C 162 268 115 284 85 304 C 55 324 40 355 40 395 C 40 433 55 465 85 489 C 115 513 158 526 214 526 C 244 526 271 522 293 514 C 315 506 333 496 348 483 C 363 469 375 454 383 436 C 391 418 397 398 401 377 L 371 377 C 365 414 350 444 326 466 C 301 488 264 499 214 499 C 163 499 126 489 104 469 C 81 449 70 425 70 395 C 70 379 72 366 78 355 C 84 343 93 333 106 325 C 119 316 136 308 157 302 C 178 296 204 290 235 285 C 266 279 293 273 317 265 C 340 257 359 248 375 236 C 390 224 401 210 409 194 C 417 178 421 158 421 135 C 421 90 403 55 369 29 C 334 3 287 -10 229 -10 C 195 -10 165 -5 140 3 C 114 11 93 23 76 38 C 58 53 45 71 36 92 C 26 112 21 135 20 159 L 50 159 Z" unicode="ś" />
<glyph horiz-adv-x="585" d="M 55 227 C 58 163 81 113 123 75 C 165 37 225 18 304 18 C 336 18 366 22 392 30 C 418 38 441 49 460 64 C 478 78 493 96 503 117 C 513 138 518 162 518 188 C 518 216 513 239 504 258 C 494 277 480 293 461 306 C 441 319 417 330 387 339 C 357 348 321 356 280 364 C 243 370 210 378 182 388 C 154 397 130 409 110 423 C 90 437 76 455 66 475 C 56 495 51 520 51 548 C 51 574 56 599 67 621 C 78 643 94 661 114 677 C 134 693 159 705 187 713 C 215 721 247 726 282 726 C 354 726 411 707 453 670 C 494 633 518 585 526 525 L 494 525 C 486 579 464 622 428 652 C 391 682 343 697 283 697 C 220 697 171 683 136 656 C 100 629 83 593 83 549 C 83 525 87 504 95 488 C 103 471 116 457 134 445 C 152 433 174 422 201 414 C 227 406 259 398 295 392 C 333 384 368 376 400 367 C 431 358 458 346 480 331 C 502 316 520 297 532 275 C 544 252 550 224 550 190 C 550 160 544 132 533 108 C 521 83 505 62 484 44 C 463 26 437 13 407 3 C 377 -6 343 -11 305 -11 C 259 -11 218 -5 184 7 C 150 19 121 35 98 57 C 74 78 56 103 44 132 C 31 161 24 193 22 227 L 55 227 Z M 399 755 L 363 755 L 287 838 L 286 838 L 209 755 L 174 755 L 268 858 L 305 858 L 399 755 Z" unicode="Ŝ" />
<glyph horiz-adv-x="444" d="M 325 599 L 290 599 L 219 683 L 218 683 L 146 599 L 113 599 L 200 704 L 237 704 L 325 599 Z M 50 159 C 54 113 71 77 101 53 C 131 28 173 16 229 16 C 281 16 321 26 349 48 C 377 70 391 99 391 135 C 391 152 388 167 383 180 C 377 193 368 204 355 214 C 342 223 325 231 304 238 C 283 245 257 252 225 258 C 162 268 115 284 85 304 C 55 324 40 355 40 395 C 40 433 55 465 85 489 C 115 513 158 526 214 526 C 244 526 271 522 293 514 C 315 506 333 496 348 483 C 363 469 375 454 383 436 C 391 418 397 398 401 377 L 371 377 C 365 414 350 444 326 466 C 301 488 264 499 214 499 C 163 499 126 489 104 469 C 81 449 70 425 70 395 C 70 379 72 366 78 355 C 84 343 93 333 106 325 C 119 316 136 308 157 302 C 178 296 204 290 235 285 C 266 279 293 273 317 265 C 340 257 359 248 375 236 C 390 224 401 210 409 194 C 417 178 421 158 421 135 C 421 90 403 55 369 29 C 334 3 287 -10 229 -10 C 195 -10 165 -5 140 3 C 114 11 93 23 76 38 C 58 53 45 71 36 92 C 26 112 21 135 20 159 L 50 159 Z" unicode="ŝ" />
<glyph horiz-adv-x="585" d="M 55 227 C 58 163 81 113 123 75 C 165 37 225 18 304 18 C 336 18 366 22 392 30 C 418 38 441 49 460 64 C 478 78 493 96 503 117 C 513 138 518 162 518 188 C 518 216 513 239 504 258 C 494 277 480 293 461 306 C 441 319 417 330 387 339 C 357 348 321 356 280 364 C 243 370 210 378 182 388 C 154 397 130 409 110 423 C 90 437 76 455 66 475 C 56 495 51 520 51 548 C 51 574 56 599 67 621 C 78 643 94 661 114 677 C 134 693 159 705 187 713 C 215 721 247 726 282 726 C 354 726 411 707 453 670 C 494 633 518 585 526 525 L 494 525 C 486 579 464 622 428 652 C 391 682 343 697 283 697 C 220 697 171 683 136 656 C 100 629 83 593 83 549 C 83 525 87 504 95 488 C 103 471 116 457 134 445 C 152 433 174 422 201 414 C 227 406 259 398 295 392 C 333 384 368 376 400 367 C 431 358 458 346 480 331 C 502 316 520 297 532 275 C 544 252 550 224 550 190 C 550 160 544 134 534 110 C 523 86 508 65 488 47 C 468 29 443 15 414 5 C 385 -4 353 -10 317 -11 L 269 -55 C 271 -53 277 -53 286 -53 C 310 -52 330 -57 344 -68 C 358 -78 365 -93 365 -112 C 365 -135 356 -152 338 -164 C 320 -175 297 -181 270 -181 C 252 -181 236 -178 220 -174 C 204 -169 189 -163 176 -155 L 186 -138 C 210 -151 237 -158 266 -158 C 286 -158 303 -154 316 -147 C 328 -139 335 -128 335 -112 C 335 -87 317 -75 281 -75 C 271 -75 263 -76 255 -78 C 247 -80 240 -82 234 -86 L 224 -71 L 286 -11 C 243 -9 206 -1 174 11 C 142 23 115 40 93 61 C 71 82 54 107 42 135 C 30 163 24 194 22 227 L 55 227 Z" unicode="Ş" />
<glyph horiz-adv-x="444" d="M 50 159 C 54 113 71 77 101 53 C 131 28 173 16 229 16 C 281 16 321 26 349 48 C 377 70 391 99 391 135 C 391 152 388 167 383 180 C 377 193 368 204 355 214 C 342 223 325 231 304 238 C 283 245 257 252 225 258 C 162 268 115 284 85 304 C 55 324 40 355 40 395 C 40 433 55 465 85 489 C 115 513 158 526 214 526 C 244 526 271 522 293 514 C 315 506 333 496 348 483 C 363 469 375 454 383 436 C 391 418 397 398 401 377 L 371 377 C 365 414 350 444 326 466 C 301 488 264 499 214 499 C 163 499 126 489 104 469 C 81 449 70 425 70 395 C 70 379 72 366 78 355 C 84 343 93 333 106 325 C 119 316 136 308 157 302 C 178 296 204 290 235 285 C 266 279 293 273 317 265 C 340 257 359 248 375 236 C 390 224 401 210 409 194 C 417 178 421 158 421 135 C 421 93 406 59 376 34 C 346 9 305 -5 254 -9 L 204 -55 C 206 -53 212 -53 221 -53 C 245 -52 265 -57 279 -68 C 293 -78 300 -93 300 -112 C 300 -135 291 -152 273 -164 C 255 -175 232 -181 205 -181 C 187 -181 171 -178 155 -174 C 139 -169 124 -163 111 -155 L 121 -138 C 145 -151 172 -158 201 -158 C 221 -158 238 -154 251 -147 C 263 -139 270 -128 270 -112 C 270 -87 252 -75 216 -75 C 206 -75 198 -76 190 -78 C 182 -80 175 -82 169 -86 L 159 -71 L 221 -10 C 188 -9 159 -4 135 4 C 110 12 89 24 73 39 C 57 54 44 72 35 92 C 26 112 21 135 20 159 L 50 159 Z" unicode="ş" />
<glyph horiz-adv-x="585" d="M 55 227 C 58 163 81 113 123 75 C 165 37 225 18 304 18 C 336 18 366 22 392 30 C 418 38 441 49 460 64 C 478 78 493 96 503 117 C 513 138 518 162 518 188 C 518 216 513 239 504 258 C 494 277 480 293 461 306 C 441 319 417 330 387 339 C 357 348 321 356 280 364 C 243 370 210 378 182 388 C 154 397 130 409 110 423 C 90 437 76 455 66 475 C 56 495 51 520 51 548 C 51 574 56 599 67 621 C 78 643 94 661 114 677 C 134 693 159 705 187 713 C 215 721 247 726 282 726 C 354 726 411 707 453 670 C 494 633 518 585 526 525 L 494 525 C 486 579 464 622 428 652 C 391 682 343 697 283 697 C 220 697 171 683 136 656 C 100 629 83 593 83 549 C 83 525 87 504 95 488 C 103 471 116 457 134 445 C 152 433 174 422 201 414 C 227 406 259 398 295 392 C 333 384 368 376 400 367 C 431 358 458 346 480 331 C 502 316 520 297 532 275 C 544 252 550 224 550 190 C 550 160 544 132 533 108 C 521 83 505 62 484 44 C 463 26 437 13 407 3 C 377 -6 343 -11 305 -11 C 259 -11 218 -5 184 7 C 150 19 121 35 98 57 C 74 78 56 103 44 132 C 31 161 24 193 22 227 L 55 227 Z M 302 755 L 265 755 L 171 858 L 207 858 L 284 775 L 285 775 L 362 858 L 396 858 L 302 755 Z" unicode="Š" />
<glyph horiz-adv-x="444" d="M 238 598 L 201 598 L 114 702 L 149 702 L 220 618 L 221 618 L 292 702 L 326 702 L 238 598 Z M 50 159 C 54 113 71 77 101 53 C 131 28 173 16 229 16 C 281 16 321 26 349 48 C 377 70 391 99 391 135 C 391 152 388 167 383 180 C 377 193 368 204 355 214 C 342 223 325 231 304 238 C 283 245 257 252 225 258 C 162 268 115 284 85 304 C 55 324 40 355 40 395 C 40 433 55 465 85 489 C 115 513 158 526 214 526 C 244 526 271 522 293 514 C 315 506 333 496 348 483 C 363 469 375 454 383 436 C 391 418 397 398 401 377 L 371 377 C 365 414 350 444 326 466 C 301 488 264 499 214 499 C 163 499 126 489 104 469 C 81 449 70 425 70 395 C 70 379 72 366 78 355 C 84 343 93 333 106 325 C 119 316 136 308 157 302 C 178 296 204 290 235 285 C 266 279 293 273 317 265 C 340 257 359 248 375 236 C 390 224 401 210 409 194 C 417 178 421 158 421 135 C 421 90 403 55 369 29 C 334 3 287 -10 229 -10 C 195 -10 165 -5 140 3 C 114 11 93 23 76 38 C 58 53 45 71 36 92 C 26 112 21 135 20 159 L 50 159 Z" unicode="š" />
<glyph horiz-adv-x="582" d="M 255 -182 C 267 -174 275 -164 279 -151 C 283 -137 286 -122 286 -105 L 286 -104 L 273 -104 L 273 -51 L 309 -51 L 309 -104 C 309 -126 305 -145 298 -163 C 290 -181 276 -194 255 -204 L 255 -182 Z M 275 0 L 275 686 L 20 686 L 20 715 L 562 715 L 562 686 L 307 686 L 307 0 L 275 0 Z" unicode="Ţ" />
<glyph horiz-adv-x="265" d="M 127 -182 C 139 -174 147 -164 151 -151 C 155 -137 158 -122 158 -105 L 158 -104 L 145 -104 L 145 -51 L 181 -51 L 181 -104 C 181 -126 177 -145 170 -163 C 162 -181 148 -194 127 -204 L 127 -182 Z M 18 517 L 93 517 L 93 677 L 123 677 L 123 517 L 236 517 L 236 491 L 123 491 L 123 82 C 123 60 127 45 137 35 C 146 25 162 21 186 21 C 203 21 219 23 233 29 L 235 29 L 235 3 C 227 0 219 -1 209 -3 C 199 -4 190 -5 181 -5 C 122 -5 93 23 93 80 L 93 491 L 18 491 L 18 517 Z" unicode="ţ" />
<glyph horiz-adv-x="582" d="M 309 755 L 272 755 L 178 858 L 214 858 L 291 775 L 292 775 L 369 858 L 403 858 L 309 755 Z M 275 0 L 275 686 L 20 686 L 20 715 L 562 715 L 562 686 L 307 686 L 307 0 L 275 0 Z" unicode="Ť" />
<glyph horiz-adv-x="265" d="M 18 517 L 93 517 L 93 677 L 123 677 L 123 517 L 236 517 L 236 491 L 123 491 L 123 82 C 123 60 127 45 137 35 C 146 25 162 21 186 21 C 203 21 219 23 233 29 L 235 29 L 235 3 C 227 0 219 -1 209 -3 C 199 -4 190 -5 181 -5 C 122 -5 93 23 93 80 L 93 491 L 18 491 L 18 517 Z M 181 587 C 186 593 190 602 192 613 C 194 623 196 638 196 658 L 196 660 L 184 660 L 184 715 L 219 715 L 219 660 C 219 634 216 614 211 599 C 206 583 196 572 181 565 L 181 587 Z" unicode="ť" />
<glyph horiz-adv-x="582" d="M 275 0 L 275 369 L 116 369 L 116 396 L 275 396 L 275 686 L 20 686 L 20 715 L 563 715 L 563 686 L 307 686 L 307 396 L 467 396 L 467 369 L 307 369 L 307 0 L 275 0 Z" unicode="Ŧ" />
<glyph horiz-adv-x="265" d="M 19 517 L 93 517 L 93 677 L 123 677 L 123 517 L 236 517 L 236 491 L 123 491 L 123 345 L 230 345 L 230 319 L 123 319 L 124 82 C 124 60 128 45 137 35 C 146 25 162 21 185 21 C 193 21 201 21 210 23 C 218 24 226 26 233 29 L 235 29 L 235 3 C 219 -2 201 -5 182 -5 C 122 -5 93 23 93 80 L 93 319 L 13 319 L 13 345 L 93 345 L 93 491 L 19 491 L 19 517 Z" unicode="ŧ" />
<glyph horiz-adv-x="624" d="M 247 845 C 261 845 273 842 284 837 C 294 831 305 825 315 819 C 325 812 334 806 344 801 C 354 795 364 793 376 793 C 387 793 396 797 404 805 C 411 813 415 827 417 845 L 443 845 C 441 818 434 798 422 785 C 410 772 394 766 376 766 C 362 766 350 768 339 774 C 328 779 318 785 308 792 C 298 798 288 804 278 810 C 268 815 257 818 246 818 C 235 818 226 813 219 805 C 211 797 207 784 206 766 L 180 766 C 181 792 188 811 200 825 C 212 838 228 845 247 845 Z M 87 715 L 87 233 C 87 193 92 160 103 133 C 114 106 129 84 149 67 C 169 49 192 37 220 29 C 248 21 278 18 312 18 C 344 18 373 21 401 29 C 428 37 452 49 472 67 C 492 84 508 106 520 133 C 531 160 537 193 537 233 L 537 715 L 569 715 L 569 231 C 569 188 562 151 549 121 C 535 91 517 66 494 46 C 471 26 444 12 413 3 C 381 -5 347 -10 311 -10 C 273 -10 239 -5 208 4 C 176 13 149 27 127 47 C 104 66 86 91 74 122 C 61 152 55 189 55 231 L 55 715 L 87 715 Z" unicode="Ũ" />
<glyph horiz-adv-x="476" d="M 393 89 L 391 89 C 383 76 374 64 364 52 C 353 40 340 30 326 21 C 312 12 295 5 277 0 C 258 -6 237 -9 213 -9 C 160 -9 119 5 91 34 C 63 62 49 100 49 147 L 49 517 L 80 517 L 80 150 C 80 105 92 72 116 50 C 140 28 174 17 218 17 C 244 17 267 21 289 30 C 310 38 328 50 344 64 C 359 78 371 95 380 114 C 388 133 393 153 393 173 L 393 517 L 423 517 L 423 0 L 393 0 L 393 89 Z M 173 686 C 187 686 199 683 210 678 C 220 672 231 666 241 660 C 251 653 260 647 270 642 C 280 636 290 634 302 634 C 313 634 322 638 330 646 C 337 654 341 668 343 686 L 369 686 C 367 659 360 639 348 626 C 336 613 320 607 302 607 C 288 607 276 609 265 615 C 254 620 244 626 234 633 C 224 639 214 645 204 651 C 194 656 183 659 172 659 C 161 659 152 654 145 646 C 137 638 133 625 132 607 L 106 607 C 107 633 114 652 126 666 C 138 679 154 686 173 686 Z" unicode="ũ" />
<glyph horiz-adv-x="624" d="M 199 805 L 427 805 L 427 776 L 199 776 L 199 805 Z M 87 715 L 87 233 C 87 193 92 160 103 133 C 114 106 129 84 149 67 C 169 49 192 37 220 29 C 248 21 278 18 312 18 C 344 18 373 21 401 29 C 428 37 452 49 472 67 C 492 84 508 106 520 133 C 531 160 537 193 537 233 L 537 715 L 569 715 L 569 231 C 569 188 562 151 549 121 C 535 91 517 66 494 46 C 471 26 444 12 413 3 C 381 -5 347 -10 311 -10 C 273 -10 239 -5 208 4 C 176 13 149 27 127 47 C 104 66 86 91 74 122 C 61 152 55 189 55 231 L 55 715 L 87 715 Z" unicode="Ū" />
<glyph horiz-adv-x="476" d="M 393 89 L 391 89 C 383 76 374 64 364 52 C 353 40 340 30 326 21 C 312 12 295 5 277 0 C 258 -6 237 -9 213 -9 C 160 -9 119 5 91 34 C 63 62 49 100 49 147 L 49 517 L 80 517 L 80 150 C 80 105 92 72 116 50 C 140 28 174 17 218 17 C 244 17 267 21 289 30 C 310 38 328 50 344 64 C 359 78 371 95 380 114 C 388 133 393 153 393 173 L 393 517 L 423 517 L 423 0 L 393 0 L 393 89 Z M 123 671 L 351 671 L 351 641 L 123 641 L 123 671 Z" unicode="ū" />
<glyph horiz-adv-x="624" d="M 311 763 C 276 763 248 771 228 789 C 208 807 197 830 195 858 L 223 858 C 226 838 235 822 249 810 C 263 797 284 791 311 791 C 338 791 359 797 373 810 C 387 822 396 838 400 858 L 428 858 C 426 830 414 807 394 789 C 374 771 346 763 311 763 Z M 87 715 L 87 233 C 87 193 92 160 103 133 C 114 106 129 84 149 67 C 169 49 192 37 220 29 C 248 21 278 18 312 18 C 344 18 373 21 401 29 C 428 37 452 49 472 67 C 492 84 508 106 520 133 C 531 160 537 193 537 233 L 537 715 L 569 715 L 569 231 C 569 188 562 151 549 121 C 535 91 517 66 494 46 C 471 26 444 12 413 3 C 381 -5 347 -10 311 -10 C 273 -10 239 -5 208 4 C 176 13 149 27 127 47 C 104 66 86 91 74 122 C 61 152 55 189 55 231 L 55 715 L 87 715 Z" unicode="Ŭ" />
<glyph horiz-adv-x="476" d="M 393 89 L 391 89 C 383 76 374 64 364 52 C 353 40 340 30 326 21 C 312 12 295 5 277 0 C 258 -6 237 -9 213 -9 C 160 -9 119 5 91 34 C 63 62 49 100 49 147 L 49 517 L 80 517 L 80 150 C 80 105 92 72 116 50 C 140 28 174 17 218 17 C 244 17 267 21 289 30 C 310 38 328 50 344 64 C 359 78 371 95 380 114 C 388 133 393 153 393 173 L 393 517 L 423 517 L 423 0 L 393 0 L 393 89 Z M 236 604 C 201 604 173 613 153 631 C 133 649 122 673 120 701 L 148 701 C 151 681 160 665 174 652 C 188 639 209 633 236 633 C 263 633 284 639 298 652 C 312 665 321 681 325 701 L 353 701 C 351 673 339 649 319 631 C 299 613 271 604 236 604 Z" unicode="ŭ" />
<glyph horiz-adv-x="624" d="M 87 715 L 87 233 C 87 193 92 160 103 133 C 114 106 129 84 149 67 C 169 49 192 37 220 29 C 248 21 278 18 312 18 C 344 18 373 21 401 29 C 428 37 452 49 472 67 C 492 84 508 106 520 133 C 531 160 537 193 537 233 L 537 715 L 569 715 L 569 231 C 569 188 562 151 549 121 C 535 91 517 66 494 46 C 471 26 444 12 413 3 C 381 -5 347 -10 311 -10 C 273 -10 239 -5 208 4 C 176 13 149 27 127 47 C 104 66 86 91 74 122 C 61 152 55 189 55 231 L 55 715 L 87 715 Z M 312 744 C 288 744 269 751 254 767 C 238 782 231 801 231 825 C 231 848 238 867 254 882 C 269 897 288 905 312 905 C 335 905 354 897 370 882 C 385 867 393 848 393 825 C 393 801 385 782 370 767 C 354 751 335 744 312 744 Z M 312 766 C 329 766 343 771 353 782 C 363 793 369 807 369 825 C 369 842 363 856 353 867 C 343 877 329 883 312 883 C 295 883 281 877 271 867 C 261 856 256 842 256 825 C 256 807 261 793 271 782 C 281 771 295 766 312 766 Z" unicode="Ů" />
<glyph horiz-adv-x="476" d="M 235 571 C 211 571 192 578 177 594 C 161 609 154 628 154 652 C 154 675 161 694 177 709 C 192 724 211 732 235 732 C 258 732 277 724 293 709 C 308 694 316 675 316 652 C 316 628 308 609 293 594 C 277 578 258 571 235 571 Z M 235 593 C 252 593 266 598 276 609 C 286 620 291 634 291 652 C 291 668 286 682 276 693 C 266 704 252 710 235 710 C 217 710 204 704 194 693 C 184 682 179 668 179 652 C 179 634 184 620 194 609 C 204 598 217 593 235 593 Z M 393 89 L 391 89 C 383 76 374 64 364 52 C 353 40 340 30 326 21 C 312 12 295 5 277 0 C 258 -6 237 -9 213 -9 C 160 -9 119 5 91 34 C 63 62 49 100 49 147 L 49 517 L 80 517 L 80 150 C 80 105 92 72 116 50 C 140 28 174 17 218 17 C 244 17 267 21 289 30 C 310 38 328 50 344 64 C 359 78 371 95 380 114 C 388 133 393 153 393 173 L 393 517 L 423 517 L 423 0 L 393 0 L 393 89 Z" unicode="ů" />
<glyph horiz-adv-x="624" d="M 87 715 L 87 233 C 87 193 92 160 103 133 C 114 106 129 84 149 67 C 169 49 192 37 220 29 C 248 21 278 18 312 18 C 344 18 373 21 401 29 C 428 37 452 49 472 67 C 492 84 508 106 520 133 C 531 160 537 193 537 233 L 537 715 L 569 715 L 569 231 C 569 188 562 151 549 121 C 535 91 517 66 494 46 C 471 26 444 12 413 3 C 381 -5 347 -10 311 -10 C 273 -10 239 -5 208 4 C 176 13 149 27 127 47 C 104 66 86 91 74 122 C 61 152 55 189 55 231 L 55 715 L 87 715 Z M 274 871 L 310 871 L 253 755 L 226 755 L 274 871 Z M 400 871 L 435 871 L 378 755 L 351 755 L 400 871 Z" unicode="Ű" />
<glyph horiz-adv-x="476" d="M 393 89 L 391 89 C 383 76 374 64 364 52 C 353 40 340 30 326 21 C 312 12 295 5 277 0 C 258 -6 237 -9 213 -9 C 160 -9 119 5 91 34 C 63 62 49 100 49 147 L 49 517 L 80 517 L 80 150 C 80 105 92 72 116 50 C 140 28 174 17 218 17 C 244 17 267 21 289 30 C 310 38 328 50 344 64 C 359 78 371 95 380 114 C 388 133 393 153 393 173 L 393 517 L 423 517 L 423 0 L 393 0 L 393 89 Z M 199 721 L 235 721 L 178 597 L 151 597 L 199 721 Z M 325 721 L 360 721 L 303 597 L 276 597 L 325 721 Z" unicode="ű" />
<glyph horiz-adv-x="624" d="M 87 715 L 87 233 C 87 193 92 160 103 133 C 114 106 129 84 149 67 C 169 49 192 37 220 29 C 248 21 278 18 312 18 C 344 18 373 21 401 29 C 428 37 452 49 472 67 C 492 84 508 106 520 133 C 531 160 537 193 537 233 L 537 715 L 569 715 L 569 231 C 569 198 565 169 557 145 C 549 120 539 98 525 80 C 511 62 495 46 476 34 C 456 21 435 10 411 2 C 395 -4 381 -10 369 -16 C 357 -22 346 -29 336 -39 C 313 -58 302 -79 302 -101 C 302 -115 307 -127 317 -135 C 327 -143 341 -148 361 -148 C 371 -148 381 -146 391 -143 C 401 -140 409 -138 413 -137 L 414 -137 L 414 -161 C 408 -164 400 -167 391 -169 C 381 -171 370 -173 358 -173 C 329 -173 307 -166 293 -153 C 278 -140 271 -123 271 -102 C 271 -83 277 -65 290 -49 C 303 -32 321 -18 344 -8 C 340 -8 335 -9 327 -9 C 319 -9 314 -10 311 -10 C 273 -10 239 -5 208 4 C 176 13 149 27 127 47 C 104 66 86 91 74 122 C 61 152 55 189 55 231 L 55 715 L 87 715 Z" unicode="Ų" />
<glyph horiz-adv-x="476" d="M 393 89 L 391 89 C 383 76 374 64 364 52 C 353 40 340 30 326 21 C 312 12 295 5 277 0 C 258 -6 237 -9 213 -9 C 160 -9 119 5 91 34 C 63 63 49 101 49 147 L 49 517 L 80 517 L 80 150 C 80 106 92 73 116 51 C 140 29 174 18 218 18 C 244 18 267 22 289 31 C 310 39 328 51 344 65 C 359 79 371 96 380 115 C 388 133 393 153 393 173 L 393 517 L 423 517 L 423 0 C 397 -17 377 -33 362 -49 C 347 -64 340 -81 340 -101 C 340 -115 344 -127 354 -136 C 364 -144 378 -149 398 -149 C 408 -149 416 -148 424 -146 C 432 -144 439 -141 446 -138 L 448 -138 L 448 -161 C 442 -164 435 -167 427 -169 C 418 -171 407 -173 395 -173 C 366 -173 344 -166 330 -153 C 316 -140 309 -123 309 -102 C 309 -90 311 -79 316 -69 C 321 -59 328 -49 336 -40 C 344 -31 353 -23 363 -16 C 373 -8 383 -2 393 4 L 393 89 Z" unicode="ų" />
<glyph horiz-adv-x="868" d="M 452 715 L 635 51 L 636 51 L 824 715 L 855 715 L 652 0 L 618 0 L 435 664 L 434 664 L 253 0 L 218 0 L 13 715 L 45 715 L 235 52 L 236 52 L 418 715 L 452 715 Z M 545 755 L 509 755 L 433 838 L 432 838 L 355 755 L 320 755 L 414 858 L 451 858 L 545 755 Z" unicode="Ŵ" />
<glyph horiz-adv-x="694" d="M 188 40 L 189 40 L 329 517 L 363 517 L 499 39 L 655 517 L 686 517 L 516 0 L 481 0 L 346 471 L 345 471 L 207 0 L 170 0 L 8 517 L 40 517 L 188 40 Z M 452 599 L 417 599 L 346 683 L 345 683 L 273 599 L 240 599 L 327 704 L 364 704 L 452 599 Z" unicode="ŵ" />
<glyph horiz-adv-x="576" d="M 287 350 L 288 350 L 533 715 L 568 715 L 303 320 L 303 0 L 272 0 L 272 321 L 8 715 L 43 715 L 287 350 Z M 401 755 L 365 755 L 289 838 L 288 838 L 211 755 L 176 755 L 270 858 L 307 858 L 401 755 Z" unicode="Ŷ" />
<glyph horiz-adv-x="440" d="M 216 -53 C 206 -77 197 -96 188 -111 C 179 -126 170 -138 160 -146 C 150 -154 139 -160 127 -164 C 115 -167 101 -169 86 -169 C 75 -169 66 -168 59 -167 C 52 -165 46 -164 41 -162 L 41 -134 L 42 -134 C 53 -138 68 -141 87 -141 C 98 -141 108 -139 117 -137 C 126 -135 134 -130 142 -123 C 150 -116 157 -106 165 -94 C 172 -81 180 -64 188 -44 L 208 7 L 5 517 L 37 517 L 223 46 L 224 46 L 403 517 L 435 517 L 216 -53 Z M 329 599 L 294 599 L 223 683 L 222 683 L 150 599 L 117 599 L 204 704 L 241 704 L 329 599 Z" unicode="ŷ" />
<glyph horiz-adv-x="576" d="M 287 350 L 288 350 L 533 715 L 568 715 L 303 320 L 303 0 L 272 0 L 272 321 L 8 715 L 43 715 L 287 350 Z M 228 770 L 198 770 L 198 836 L 228 836 L 228 770 Z M 376 770 L 346 770 L 346 836 L 376 836 L 376 770 Z" unicode="Ÿ" />
<glyph horiz-adv-x="588" d="M 53 715 L 535 715 L 535 686 L 64 30 L 64 28 L 555 28 L 555 0 L 27 0 L 27 31 L 497 686 L 497 687 L 53 687 L 53 715 Z M 338 867 L 379 867 L 299 755 L 271 755 L 338 867 Z" unicode="Ź" />
<glyph horiz-adv-x="441" d="M 273 721 L 313 721 L 232 597 L 204 597 L 273 721 Z M 66 28 L 66 27 L 416 27 L 416 0 L 30 0 L 30 28 L 366 489 L 366 490 L 48 490 L 48 517 L 405 517 L 405 491 L 66 28 Z" unicode="ź" />
<glyph horiz-adv-x="588" d="M 311 770 L 280 770 L 280 835 L 311 835 L 311 770 Z M 53 715 L 535 715 L 535 686 L 64 30 L 64 28 L 555 28 L 555 0 L 27 0 L 27 31 L 497 686 L 497 687 L 53 687 L 53 715 Z" unicode="Ż" />
<glyph horiz-adv-x="441" d="M 66 28 L 66 27 L 416 27 L 416 0 L 30 0 L 30 28 L 366 489 L 366 490 L 48 490 L 48 517 L 405 517 L 405 491 L 66 28 Z M 246 638 L 215 638 L 215 704 L 246 704 L 246 638 Z" unicode="ż" />
<glyph horiz-adv-x="588" d="M 314 755 L 277 755 L 183 858 L 219 858 L 296 775 L 297 775 L 374 858 L 408 858 L 314 755 Z M 53 715 L 535 715 L 535 686 L 64 30 L 64 28 L 555 28 L 555 0 L 27 0 L 27 31 L 497 686 L 497 687 L 53 687 L 53 715 Z" unicode="Ž" />
<glyph horiz-adv-x="441" d="M 248 598 L 211 598 L 124 702 L 159 702 L 230 618 L 231 618 L 302 702 L 336 702 L 248 598 Z M 66 28 L 66 27 L 416 27 L 416 0 L 30 0 L 30 28 L 366 489 L 366 490 L 48 490 L 48 517 L 405 517 L 405 491 L 66 28 Z" unicode="ž" />
<glyph horiz-adv-x="332" d="M 271 362 L 168 362 L 111 -36 C 105 -78 95 -107 79 -124 C 63 -141 39 -150 7 -150 C 3 -150 -1 -150 -7 -150 C -12 -150 -17 -149 -21 -149 L -21 -122 C -17 -122 -12 -123 -6 -123 C 0 -123 3 -123 7 -123 C 29 -123 46 -116 57 -103 C 68 -89 76 -66 82 -34 L 138 362 L 55 362 L 55 388 L 141 388 L 168 575 C 174 615 185 644 201 662 C 217 680 242 689 275 689 C 280 689 288 688 298 688 C 308 688 314 687 318 687 L 318 660 C 314 660 307 661 297 661 C 287 661 279 662 275 662 C 249 662 231 655 220 641 C 209 627 202 604 198 572 L 172 388 L 271 388 L 271 362 Z" unicode="ƒ" />
<glyph horiz-adv-x="168" d="M 350 715 L -148 0 L -182 0 L 317 715 L 350 715 Z" unicode="⁄" />
<glyph horiz-adv-x="770" d="M 128 309 L 128 646 C 120 634 108 626 90 621 C 72 616 52 614 30 614 L 30 638 C 62 638 86 644 102 655 C 118 665 128 686 132 717 L 157 717 L 157 309 L 128 309 Z M 592 715 L 94 0 L 60 0 L 559 715 L 592 715 Z M 588 -5 C 567 -5 547 -2 529 3 C 511 8 495 16 482 26 C 468 36 458 48 450 63 C 442 77 438 94 438 114 C 438 142 446 165 462 183 C 478 201 499 215 526 223 L 526 224 C 505 232 489 243 477 258 C 465 272 460 290 460 312 C 460 342 472 367 496 385 C 520 403 551 412 587 412 C 623 412 653 402 677 384 C 701 366 713 342 713 312 C 713 290 707 272 695 257 C 683 242 667 231 647 224 L 647 223 C 675 215 696 202 712 184 C 728 165 736 142 736 114 C 736 94 732 77 724 63 C 716 48 706 36 693 26 C 679 16 664 8 646 3 C 628 -2 608 -5 588 -5 Z M 588 19 C 624 19 652 27 674 44 C 696 61 707 84 707 114 C 707 144 696 167 674 184 C 652 200 623 209 587 209 C 551 209 522 200 500 184 C 478 167 467 144 467 114 C 467 84 478 60 500 44 C 522 27 552 19 588 19 Z M 587 233 C 616 233 640 240 658 254 C 676 268 685 287 685 311 C 685 334 676 353 658 367 C 640 381 616 389 587 389 C 557 389 533 381 515 367 C 497 353 488 334 488 311 C 488 287 497 268 515 254 C 533 240 557 233 587 233 Z" unicode="⅛" />
<glyph horiz-adv-x="851" d="M 183 537 C 211 537 232 544 248 559 C 264 573 272 592 272 614 C 272 639 262 659 244 674 C 226 689 202 697 174 697 C 140 697 114 687 98 668 C 81 649 72 626 70 598 L 42 598 C 42 614 46 630 52 645 C 58 660 66 673 77 684 C 88 695 102 704 118 711 C 134 717 152 721 174 721 C 210 721 241 711 265 692 C 289 673 301 647 301 615 C 301 593 295 574 283 559 C 271 544 256 533 236 527 L 236 526 C 262 518 282 506 296 490 C 310 473 318 451 318 424 C 318 386 304 356 278 335 C 251 313 217 303 177 303 C 132 303 96 315 70 340 C 43 364 29 397 28 437 L 57 437 C 59 403 70 377 91 357 C 111 337 140 328 176 328 C 210 328 237 336 257 354 C 277 371 288 395 288 425 C 288 453 278 475 259 490 C 240 504 215 512 184 512 L 147 512 L 147 537 L 183 537 Z M 684 715 L 186 0 L 152 0 L 651 715 L 684 715 Z M 669 -5 C 648 -5 628 -2 610 3 C 592 8 576 16 563 26 C 549 36 539 48 531 63 C 523 77 519 94 519 114 C 519 142 527 165 543 183 C 559 201 580 215 607 223 L 607 224 C 586 232 570 243 558 258 C 546 272 541 290 541 312 C 541 342 553 367 577 385 C 601 403 632 412 668 412 C 704 412 734 402 758 384 C 782 366 794 342 794 312 C 794 290 788 272 776 257 C 764 242 748 231 728 224 L 728 223 C 756 215 777 202 793 184 C 809 165 817 142 817 114 C 817 94 813 77 805 63 C 797 48 787 36 774 26 C 760 16 745 8 727 3 C 709 -2 689 -5 669 -5 Z M 669 19 C 705 19 733 27 755 44 C 777 61 788 84 788 114 C 788 144 777 167 755 184 C 733 200 704 209 668 209 C 632 209 603 200 581 184 C 559 167 548 144 548 114 C 548 84 559 60 581 44 C 603 27 633 19 669 19 Z M 668 233 C 697 233 721 240 739 254 C 757 268 766 287 766 311 C 766 334 757 353 739 367 C 721 381 697 389 668 389 C 638 389 614 381 596 367 C 578 353 569 334 569 311 C 569 287 578 268 596 254 C 614 240 638 233 668 233 Z" unicode="⅜" />
<glyph horiz-adv-x="839" d="M 104 689 L 73 535 L 74 535 C 84 546 98 555 115 563 C 132 570 152 574 176 574 C 216 574 248 561 272 536 C 296 511 308 479 308 439 C 308 419 304 400 297 384 C 290 367 280 353 268 341 C 256 329 241 319 225 313 C 208 306 190 303 171 303 C 149 303 129 306 112 312 C 95 318 81 327 69 338 C 57 348 47 361 40 375 C 33 389 29 404 28 420 L 57 420 C 60 395 71 374 89 356 C 107 338 134 329 170 329 C 201 329 227 339 248 359 C 268 379 279 405 279 439 C 279 471 269 497 251 518 C 233 538 206 549 172 549 C 144 549 121 543 104 533 C 87 523 75 511 67 498 L 40 498 L 83 715 L 287 715 L 287 689 L 104 689 Z M 681 715 L 183 0 L 149 0 L 648 715 L 681 715 Z M 657 -5 C 636 -5 616 -2 598 3 C 580 8 564 16 551 26 C 537 36 527 48 519 63 C 511 77 507 94 507 114 C 507 142 515 165 531 183 C 547 201 568 215 595 223 L 595 224 C 574 232 558 243 546 258 C 534 272 529 290 529 312 C 529 342 541 367 565 385 C 589 403 620 412 656 412 C 692 412 722 402 746 384 C 770 366 782 342 782 312 C 782 290 776 272 764 257 C 752 242 736 231 716 224 L 716 223 C 744 215 765 202 781 184 C 797 165 805 142 805 114 C 805 94 801 77 793 63 C 785 48 775 36 762 26 C 748 16 733 8 715 3 C 697 -2 677 -5 657 -5 Z M 657 19 C 693 19 721 27 743 44 C 765 61 776 84 776 114 C 776 144 765 167 743 184 C 721 200 692 209 656 209 C 620 209 591 200 569 184 C 547 167 536 144 536 114 C 536 84 547 60 569 44 C 591 27 621 19 657 19 Z M 656 233 C 685 233 709 240 727 254 C 745 268 754 287 754 311 C 754 334 745 353 727 367 C 709 381 685 389 656 389 C 626 389 602 381 584 367 C 566 353 557 334 557 311 C 557 287 566 268 584 254 C 602 240 626 233 656 233 Z" unicode="⅝" />
<glyph horiz-adv-x="914" d="M 600 867 L 641 867 L 561 755 L 533 755 L 600 867 Z M 477 384 L 833 384 L 833 356 L 477 356 L 477 29 L 877 29 L 877 0 L 445 0 L 445 244 L 142 244 L 44 0 L 12 0 L 297 715 L 867 715 L 867 687 L 477 687 L 477 384 Z M 152 271 L 445 271 L 445 687 L 318 687 L 152 271 Z" unicode="Ǽ" />
</font>
</defs>
</svg>
