<?xml version="1.0" encoding="utf-8"?>
<!-- Generator: Adobe Illustrator 18.0.0, SVG Export Plug-In . SVG Version: 6.00 Build 0)  -->
<!DOCTYPE svg PUBLIC "-//W3C//DTD SVG 1.1//EN" "http://www.w3.org/Graphics/SVG/1.1/DTD/svg11.dtd">
<svg version="1.1" id="Layer_1" xmlns="http://www.w3.org/2000/svg" xmlns:xlink="http://www.w3.org/1999/xlink" x="0px" y="0px"
	 width="120" height="30" viewBox="0 0 120 30" enable-background="new 0 0 120 30" xml:space="preserve">
<g>
	<path fill="#535453" d="M30.6,30c-0.1,0-0.2,0-0.4-0.1C30,29.8,30,29.6,30,29.4c0-0.1,0-0.2,0.1-0.4l13.6-14L30.1,1
		C30,0.8,30,0.7,30,0.5c0-0.1,0-0.2,0.1-0.4C30.2,0,30.4,0,30.6,0c0.1,0,0.2,0,0.4,0.1l13.9,14.5C45,14.8,45,14.9,45,15
		s0,0.2-0.1,0.4L31,29.9C30.8,30,30.7,30,30.6,30z"/>
</g>
<g>
	<path fill="#535453" d="M89.4,0c0.1,0,0.2,0,0.4,0.1C90,0.2,90,0.4,90,0.6c0,0.1,0,0.2-0.1,0.4L76.3,15l13.6,14
		c0.1,0.1,0.1,0.2,0.1,0.5c0,0.1,0,0.2-0.1,0.4C89.8,30,89.6,30,89.4,30c-0.1,0-0.2,0-0.4-0.1L75.1,15.4C75,15.2,75,15.1,75,15
		c0-0.1,0-0.2,0.1-0.4L89,0.1C89.2,0,89.3,0,89.4,0z"/>
</g>
</svg>
