<?xml version="1.0" encoding="utf-8"?>
<!-- Generator: Adobe Illustrator 18.1.0, SVG Export Plug-In . SVG Version: 6.00 Build 0)  -->
<!DOCTYPE svg PUBLIC "-//W3C//DTD SVG 1.1//EN" "http://www.w3.org/Graphics/SVG/1.1/DTD/svg11.dtd">
<svg version="1.1" id="Layer_1" xmlns="http://www.w3.org/2000/svg" xmlns:xlink="http://www.w3.org/1999/xlink" x="0px" y="0px"
	 width="180px" height="473px" viewBox="0.00024 0 180 473" enable-background="new 0.00024 0 180 473" xml:space="preserve">
<g id="Layer_3">
	
		<rect x="-31.10037" y="98" display="none" fill="#170C0A" stroke="#FFFFFF" stroke-miterlimit="10" width="130.7002" height="908.7002"/>
</g>
<g id="Videos" display="none">
	<path display="inline" fill="#FFFFFF" d="M1.50024,649.2998h1.79981l3,9c0.20019,0.2998,0.29979,0.7998,0.29979,1.2002
		c0.20021,0.5,0.2998,0.7998,0.2998,1.2002c0.2002,0.5,0.3008,0.89941,0.5,1.39941l0,0c0.2002-0.5,0.3008-0.89941,0.5-1.39941
		c0.2002-0.2998,0.3008-0.7998,0.5-1.2002c0.2002-0.5,0.3008-0.7998,0.5-1.2002l3.2002-9h1.7998l-5.09959,14.2998h-2
		L1.50024,649.2998z"/>
	<path display="inline" fill="#FFFFFF" d="M15.30005,643.90039h1.70019v2.39941h-1.70019V643.90039z M15.30005,649.2998h1.70019
		v14.2998h-1.70019V649.2998z"/>
	<path display="inline" fill="#FFFFFF" d="M25.39964,664c-0.8994,0-1.7998-0.2002-2.59959-0.59961
		c-0.79981-0.30078-1.40041-0.90039-2-1.5c-0.5-0.60059-0.90041-1.5-1.20021-2.40039c-0.29979-0.90039-0.5-2-0.5-3
		c0-1.2002,0.20021-2.2998,0.5-3.2002c0.2998-0.89941,0.7998-1.7002,1.4004-2.39941c0.5996-0.60059,1.2002-1.2002,2-1.5
		c0.79981-0.30078,1.5-0.5,2.3994-0.5c1.1006,0,2.1006,0.2998,2.90041,0.7998c0.79979,0.5,1.40039,1.2002,1.79979,2l0,0v-7.7998
		h1.70021v19.69922h-1.79981V661.5l0,0c-0.6006,0.7998-1.20019,1.5-2,1.7998C27.30005,663.7002,26.39964,664,25.39964,664z
		 M25.39964,662.5c0.8008,0,1.5-0.2002,2.1006-0.5c0.5996-0.2998,1.0996-0.7998,1.5-1.2002c0.5-0.5,0.79981-1.2002,0.8994-2
		c0.2002-0.7998,0.3008-1.5,0.3008-2.39941c0-0.90039-0.2002-1.7002-0.3008-2.40039c-0.1992-0.7998-0.5-1.40039-0.8994-2
		c-0.5-0.59961-0.9004-0.90039-1.5-1.2002c-0.6006-0.2998-1.4004-0.5-2.1006-0.5c-0.6992,0-1.3994,0.2002-1.7998,0.5
		c-0.5996,0.2998-1.0996,0.7998-1.3994,1.2002c-0.5,0.59961-0.6006,1.2002-0.90039,2c-0.20021,0.7998-0.29981,1.5-0.29981,2.40039
		c0,0.7998,0.2002,1.69922,0.29981,2.39941c0.20019,0.7998,0.5,1.40039,0.79979,2c0.2998,0.60059,0.7998,0.90039,1.4004,1.40039
		C24.00024,662.40039,24.59984,662.5,25.39964,662.5z"/>
	<path display="inline" fill="#FFFFFF" d="M40.59984,663.90039c-1.0996,0-2-0.2002-2.8994-0.60059
		c-0.8008-0.2998-1.5-0.89941-2.1006-1.5c-0.5996-0.59961-1.0996-1.5-1.3994-2.39941c-0.3008-0.90039-0.5-2-0.5-3
		c0-1.10059,0.1992-2.10059,0.5-3c0.2998-0.90039,0.7998-1.7002,1.3994-2.40039c0.6006-0.59961,1.20021-1.2002,2.1006-1.5
		c0.7998-0.5,1.6992-0.59961,2.6992-0.59961c1.2002,0,2.1006,0.19922,2.90041,0.59961c0.79979,0.40039,1.40039,1.09961,2,1.7998
		c0.5,0.7998,0.90039,1.5,1.09959,2.60059c0.2002,0.89941,0.3008,2,0.3008,2.89941h-11c0,0.7998,0.1992,1.5,0.2998,2.2998
		c0.2002,0.80078,0.5,1.40039,0.8994,1.80078c0.5,0.5,0.90041,0.89941,1.5,1.19922c0.6006,0.30078,1.40041,0.5,2.1006,0.5
		c1.2002,0,2.0996-0.2998,2.7002-0.89941c0.59961-0.60059,1.09961-1.40039,1.3994-2.2998h1.70021
		c-0.29981,1.39941-0.90041,2.59961-2,3.5C43.39964,663.59961,42.09984,663.90039,40.59984,663.90039z M44.59984,655.5
		c0-0.7998-0.2002-1.40039-0.29979-2c-0.20021-0.59961-0.5-1.2002-0.79981-1.7002c-0.2998-0.5-0.7998-0.7998-1.4004-1.09961
		c-0.5996-0.2998-1.2002-0.5-2-0.5c-0.79979,0-1.3994,0.2002-2,0.5c-0.5996,0.2998-1.0996,0.59961-1.3994,1.09961
		c-0.5,0.5-0.8008,1.10059-0.90039,1.7002c-0.29981,0.59961-0.5,1.2002-0.5,2H44.59984L44.59984,655.5z"/>
	<path display="inline" fill="#FFFFFF" d="M54.39964,663.90039c-1.09959,0-2-0.2002-2.6992-0.60059
		c-0.8008-0.2998-1.5-0.89941-2.1006-1.5c-0.5996-0.59961-1.0996-1.5-1.3994-2.39941c-0.3008-0.90039-0.5-2-0.5-3
		c0-1.10059,0.1992-2.10059,0.5-3c0.2998-0.90039,0.7998-1.7002,1.3994-2.40039c0.6006-0.59961,1.20021-1.2002,2.1006-1.5
		c0.7998-0.5,1.7998-0.59961,2.6992-0.59961c1.1006,0,2,0.19922,2.7002,0.59961c0.70021,0.40039,1.5,0.90039,2.1006,1.5
		c0.59961,0.59961,1.09961,1.5,1.3994,2.40039c0.2998,0.89941,0.5,2,0.5,3c0,1.09961-0.2002,2.09961-0.5,3
		c-0.29979,0.89941-0.79979,1.69922-1.3994,2.39941c-0.6006,0.60059-1.2002,1.2002-2.1006,1.5
		C56.30005,663.7002,55.39964,663.90039,54.39964,663.90039z M54.39964,662.5c0.8008,0,1.5-0.2002,2.1006-0.5
		c0.5996-0.2998,1.0996-0.7998,1.5-1.40039c0.5-0.59961,0.79981-1.19922,0.8994-2c0.2002-0.7998,0.3008-1.5,0.3008-2.39941
		c0-0.7998-0.2002-1.7002-0.3008-2.40039c-0.1992-0.7998-0.5-1.39941-0.8994-2c-0.5-0.59961-0.9004-1.09961-1.5-1.39941
		c-0.6006-0.30078-1.4004-0.5-2.1006-0.5c-0.6992,0-1.5,0.19922-2.09959,0.5c-0.59961,0.2998-1.09961,0.7998-1.5,1.39941
		c-0.5,0.60059-0.79981,1.2002-0.90041,2c-0.1992,0.7998-0.2998,1.5-0.2998,2.40039c0,0.7998,0.20021,1.7002,0.2998,2.39941
		c0.2002,0.80078,0.5,1.40039,0.90041,2c0.5,0.60059,0.90039,1.10059,1.5,1.40039C52.89964,662.40039,53.59984,662.5,54.39964,662.5
		z"/>
	<path display="inline" fill="#FFFFFF" d="M68.00024,664c-0.9004,0-1.7998-0.2002-2.6006-0.2998
		c-0.7998-0.2998-1.3994-0.60059-1.7998-1.10059c-0.5-0.5-0.8994-0.89941-1.2002-1.5c-0.2998-0.59961-0.5-1.19922-0.5-2h1.8008
		c0.1992,1.2002,0.59961,2.10059,1.3994,2.60059c0.7998,0.5,1.70021,0.7998,2.9004,0.7998c1.2002,0,2.0996-0.2998,2.7002-0.7998
		c0.59961-0.5,0.8994-1.2002,0.8994-2c0-0.5,0-0.7998-0.2002-1.10059c-0.1992-0.2998-0.2998-0.5-0.59959-0.7998
		c-0.29981-0.2002-0.79981-0.5-1.20021-0.59961c-0.5-0.2002-1.0996-0.2998-1.79979-0.5c-0.79981-0.2002-1.40041-0.2998-2-0.60059
		c-0.59961-0.19922-1.20021-0.5-1.70021-0.7998s-0.8994-0.59961-1.0996-1.09961c-0.2998-0.5-0.5-1.09961-0.5-1.7002
		c0-0.59961,0.2002-1.09961,0.29981-1.7002c0.29979-0.5,0.59959-0.89941,1.09959-1.2002c0.5-0.2998,0.90041-0.59961,1.5-0.7998
		c0.6006-0.2002,1.2002-0.2998,2-0.2998c0.90041,0,1.5,0.2002,2.3008,0.2998c0.59961,0.2002,1.1992,0.5,1.6992,0.90039
		c0.5,0.5,0.8008,0.7998,1.1006,1.40039c0.29981,0.5,0.5,1.09961,0.5,1.69922h-1.70019
		c-0.20021-0.89941-0.5-1.69922-1.09961-2.09961c-0.6006-0.5-1.5-0.7998-2.6006-0.7998c-1.0996,0-2,0.2998-2.3994,0.7998
		c-0.6006,0.5-0.8008,1.09961-0.8008,1.7002c0,0.5,0.2002,0.7998,0.3008,1.09961c0.1992,0.2998,0.5,0.5,0.7998,0.7998
		c0.29981,0.2002,0.79981,0.30078,1.3994,0.5c0.5,0.2002,1.1006,0.30078,1.8008,0.5c0.7998,0.2002,1.3994,0.30078,2,0.5
		c0.59961,0.2002,1.09961,0.5,1.5,0.80078c0.5,0.2998,0.7998,0.7998,1.09961,1.19922
		c0.29979,0.40039,0.29979,1.10059,0.29979,1.80078c0,1.19922-0.5,2.2998-1.5,3C71.00024,663.59961,69.70044,664,68.00024,664z"/>
</g>
<g id="MSNBCtv" transform="translate(0 164)" display="none">
	<g id="icon-large-1-logo-msnbctv" display="inline">
		<path d="M-0.79956,359.09961h3.59961v2.10059h0.20019c0.5-0.7998,0.8994-1.40039,1.7002-1.7998
			c0.59961-0.30078,1.3994-0.60059,2.2998-0.60059c1.79981,0,2.8994,0.7998,3.5,2.40039l0,0c0.5-0.90039,1.0996-1.40039,1.79981-2
			c0.59959-0.2998,1.40039-0.60059,2.29979-0.60059c1.4004,0,2.6006,0.5,3.20021,1.2002c0.79979,0.7998,1.09959,2.10059,1.09959,3.5
			v8.2998h-3.5v-7.7998c0-0.59961-0.1992-1.2002-0.5-1.7002c-0.2998-0.2998-0.7998-0.59961-1.3994-0.59961
			c-0.6006,0-1.20019,0.2998-1.70019,0.7998c-0.29981,0.5-0.59961,1.10059-0.59961,2.10059v7.19922h-4.2002v-7.7998
			c0-0.59961-0.20019-1.2002-0.5-1.7002c-0.2998-0.2998-0.7998-0.59961-1.4004-0.59961c-0.5996,0-1.2002,0.2998-1.7002,0.7998
			c-0.2998,0.5-0.59959,1.10059-0.59959,2.10059v7.19922h-3.79981v-12.5H-0.79956z"/>
		<path d="M26.20044,372.09961c-0.90039,0-1.8008-0.19922-2.6006-0.2998c-0.79979-0.09961-1.3994-0.5-2-0.89941
			c-0.5-0.5-0.8994-0.80078-1.2002-1.40039c-0.2998-0.5-0.5-1.09961-0.5-1.7998h3.5c0.2002,0.59961,0.3008,1.09961,0.8008,1.39941
			c0.5,0.30078,1.09961,0.5,1.7998,0.5c0.5996,0,1.0996-0.19922,1.7002-0.2998c0.5-0.2002,0.59961-0.59961,0.59961-1.09961
			c0-0.2998-0.20021-0.5-0.29981-0.60059c-0.20019-0.19922-0.5-0.2998-0.7998-0.5c-0.3008-0.19922-0.6006-0.19922-1.1006-0.2998
			c-0.29979-0.2002-0.79979-0.2002-1.2002-0.2002c-0.59959-0.19922-1.09959-0.2998-1.7998-0.2998
			c-0.5-0.2002-1.0996-0.2998-1.3994-0.59961c-0.3008-0.2998-0.8008-0.60059-1.1006-1.10059c-0.29979-0.5-0.29979-1.09961-0.29979-2
			c0-0.59961,0.20019-1.19922,0.5-1.7998c0.29979-0.5,0.59959-0.89941,1.09959-1.2002c0.5-0.2998,1.1006-0.59961,1.8008-0.7998
			c0.59961-0.2002,1.3994-0.2998,2.09961-0.2998c1.79979,0,3.20019,0.2998,4.09959,1.09961
			c0.90041,0.80078,1.40041,1.7002,1.7002,2.7002h-3.5c-0.29979-0.89941-0.8994-1.39941-2.29979-1.39941
			c-0.59961,0-1.09961,0.19922-1.40041,0.2998c-0.2998,0.09961-0.5,0.5-0.5,0.89941c0,0.30078,0.2002,0.5,0.3008,0.60059
			c0.1992,0.2002,0.2998,0.2998,0.59961,0.2998c0.29979,0.2002,0.59959,0.2002,0.90039,0.2998c0.2998,0,0.7998,0.2002,1.1992,0.2002
			c0.6006,0.2002,1.1006,0.2002,1.8008,0.2998c0.59961,0.2002,1.09961,0.2998,1.6992,0.60059
			c0.5,0.2998,0.8008,0.59961,1.1006,1.19922c0.29981,0.60059,0.5,1.10059,0.5,2c0,0.60059-0.20019,1.2002-0.5,2
			c-0.2998,0.60059-0.6006,0.90039-1.20019,1.2002c-0.5,0.2998-1.09961,0.60059-2,0.7998
			C27.70044,371.90039,26.89964,372.09961,26.20044,372.09961L26.20044,372.09961z"/>
		<path d="M37.00024,360.90039L37.00024,360.90039c0.5-0.80078,0.8994-1.40039,1.79981-1.80078
			c0.59959-0.2998,1.40039-0.59961,2.40039-0.59961c1.3994,0,2.59961,0.5,3.2998,1.2002c0.7002,0.7002,1.0996,2.09961,1.0996,3.5
			V371.5h-3.79979v-7.7002c0-0.59961-0.20021-1.2002-0.5-1.7998c-0.29981-0.5-0.90041-0.59961-1.70021-0.59961
			c-0.79979,0-1.2002,0.2998-1.79979,0.7998c-0.5,0.5-0.59961,1.2002-0.59961,2.09961V371.5h-3.6006v-12.59961h3.6006
			C37.00024,359.09961,37.00024,360.90039,37.00024,360.90039z"/>
		<path d="M55.30005,372.09961c-0.90041,0-1.70021-0.19922-2.40041-0.59961c-0.59959-0.2998-1.1992-0.90039-1.6992-1.7998l0,0v2
			h-3.6006V354h3.7998v3.90039c0,0.5,0,1.09961,0,1.69922c0,0.5,0,0.90039-0.1992,1.40039h0.1992
			c0.5-0.59961,0.90041-1.09961,1.7002-1.7002c0.6006-0.2998,1.4004-0.59961,2.2998-0.59961c0.90041,0,1.7002,0.2002,2.3008,0.5
			c0.59961,0.2998,1.1992,0.7998,1.7998,1.39941c0.5,0.60059,0.79981,1.2002,1.0996,2.30078
			c0.2998,0.7998,0.2998,1.7998,0.2998,2.69922c0,1.10059-0.1992,2.10059-0.2998,2.90039
			c-0.29979,0.7998-0.5996,1.7002-1.0996,2.2998c-0.5,0.60059-1.1006,1.10059-1.7998,1.40039
			C57.00024,371.90039,56.09984,372.09961,55.30005,372.09961L55.30005,372.09961z M54.30005,369.09961
			c0.90039,0,1.70019-0.2998,2-1.09961c0.5-0.59961,0.59959-1.7002,0.59959-2.7002c0-1.09961-0.1992-2.09961-0.59959-2.89941
			c-0.5-0.60059-1.09961-1.10059-2.09961-1.10059c-0.5,0-0.90039,0.2002-1.2002,0.2998c-0.2998,0.2002-0.6006,0.5-0.9004,0.80078
			c-0.29979,0.2998-0.5,0.7998-0.5,1.19922c0,0.5-0.2002,0.90039-0.2002,1.7002c0,1.10059,0.3008,2.10059,0.8008,2.7002
			C52.59984,368.7998,53.39964,369.09961,54.30005,369.09961L54.30005,369.09961z"/>
		<path d="M68.70044,372.09961c-0.90039,0-2-0.19922-2.90039-0.5c-0.79981-0.2998-1.70021-0.7998-2.09961-1.39941
			c-0.6006-0.60059-1.1006-1.2002-1.40039-2.2998c-0.29981-0.80078-0.5-1.80078-0.5-2.7002c0-0.90039,0.20019-2,0.5-2.7002
			c0.29979-0.7998,0.79979-1.7002,1.20019-2.2998c0.5996-0.60059,1.2002-1.10059,2.0996-1.40039
			c0.7998-0.2998,1.7998-0.5,2.70021-0.5c0.79979,0,1.70019,0.2002,2.40039,0.2998c0.59961,0.2002,1.1992,0.60059,1.7998,0.90039
			c0.5,0.2998,0.8994,0.90039,1.2002,1.40039c0.2998,0.59961,0.5,1.19922,0.59961,2h-3.5
			c-0.20021-0.60059-0.29981-1.10059-0.79981-1.40039c-0.2998-0.2998-0.9004-0.5-1.70019-0.5
			c-0.90041,0-1.79981,0.2998-2.29981,1.09961c-0.5,0.80078-0.6006,1.80078-0.6006,2.90039s0.2002,2.09961,0.6006,2.90039
			c0.5,0.7998,1.0996,1.09961,2.29981,1.09961c0.59959,0,1.20019-0.2002,1.79979-0.59961c0.5-0.30078,0.6006-0.90039,0.7998-1.80078
			h3.6006c0,0.80078-0.20019,1.40039-0.5,2.10059c-0.2998,0.59961-0.6006,1.09961-1.20019,1.7002
			c-0.59961,0.5-1.09961,0.7998-2,1.09961C70.30005,371.90039,69.59984,372.09961,68.70044,372.09961L68.70044,372.09961z"/>
		<path d="M73.20044,348.2998v-1.2002h18.8994v1.2002h-8.7002v23.2998h-1.6992v-23.2998H73.20044z"/>
		<path d="M100.39964,370.40039L100.39964,370.40039l8.6006-23.30078h1.7002l-9.2002,24.60059h-1.7998l-9.3008-24.60059h1.6006
			L100.39964,370.40039L100.39964,370.40039z"/>
	</g>
</g>
<g id="Original_Shift" display="none">
	<path display="inline" d="M107.89964,785.40039c0-3.90039,3.2002-6.60059,6.6006-6.60059c2.3994,0,3.8994,0.90039,5.0996,2.2998
		c-0.5996,0.80078-1.3994,1.5-2,2.30078c-0.8994-0.90039-1.7002-1.7002-3.2002-1.7002c-1.7998,0-3.2998,1.7002-3.2998,3.7998
		s1.5,3.7998,3.5,3.7998c1.4004,0,2.2998-0.7998,3.20021-1.7002c0.59959,0.60059,1.40039,1.40039,2,2
		c-1.20021,1.40039-2.70021,2.60059-5.29981,2.60059C110.89964,791.7998,107.89964,789.2998,107.89964,785.40039z"/>
	<path display="inline" d="M106.80005,785.2002c0,4.2002-2.90041,6.59961-5.90041,6.59961c-2.09959,0-3.2998-1.09961-3.8994-1.7998
		c0,0.5,0,1.09961,0,1.5c-1.1006,0-2.1006,0-3.20019,0c0-5.7002,0-11.59961,0-17.2998c1.09959,0,2.09959,0,3.20019,0
		c0,2.09961,0,4.2002,0,6.2998c0.5996-0.7998,1.79981-2,3.8994-2C104.00024,778.7998,106.80005,781.2002,106.80005,785.2002z
		 M100.20044,789.2998c2,0,3.5-1.7002,3.5-3.89941c0-2.2002-1.5-3.90039-3.5-3.90039s-3.6006,1.7002-3.6006,3.90039
		C96.59984,787.5,98.09984,789.2998,100.20044,789.2998z"/>
	<path display="inline" d="M87.89964,778.7998c-2.2998,0-3.2998,1.40039-3.59959,1.7002c0-0.5,0-1.09961,0-1.5
		c-1.09961,0-2.09961,0-3.20021,0c0,4.2002,0,8.40039,0,12.59961c1.1006,0,2.1006,0,3.20021,0c0-2.39941,0-5,0-7.09961
		c0-2.2998,1.5-2.90039,2.59959-2.90039c1.1006,0,2.40041,0.60059,2.40041,2.7002c0,2.2998,0,4.7002,0,7.2002
		c1.09959,0,2.09959,0,3.20019,0c0-2.2998,0-4.5,0-8C92.39964,780.09961,90.20044,778.7998,87.89964,778.7998z"/>
	<path display="inline" d="M70.80005,782.7002c0-2.90039,2.40039-3.90039,4.5-3.90039c2.29979,0,3.20019,0.60059,4.79979,1.5
		c-0.5,0.7998-0.8994,1.5-1.3994,2.40039c-1.1006-0.60059-2.3008-1.2002-3.5-1.2002c-1.2002,0-1.5,0.59961-1.5,1.09961
		c0,0.90039,1.6992,1.2002,3.2998,1.80078c1.7002,0.59961,3.29981,1.5,3.29981,3.59961c0,3-2.29981,4.09961-4.79981,4.09961
		c-2.4004,0-4.1006-0.89941-5.4004-2c0.5-0.7998,1.1006-1.5,1.5-2.2998c1.4004,1.10059,2.70021,1.7002,4.1006,1.7002
		c1.3994,0,1.6992-0.7998,1.6992-1.2002c0-1.09961-1.6992-1.2002-3.2998-1.7998
		C72.50024,785.90039,70.80005,784.90039,70.80005,782.7002z"/>
	<path display="inline" d="M64.80005,778.7998c-2.29981,0-3.5,1.2002-4.09961,2c-0.6006-0.89941-1.8008-2-3.6006-2
		c-2,0-3,1.2002-3.5,1.7002c0-0.5,0-0.90039,0-1.5c-1.0996,0-2.0996,0-3.2002,0c0,4.2002,0,8.40039,0,12.59961
		c1.1006,0,2.1006,0,3.2002,0c0-2.39941,0-5,0-7.09961s1.4004-2.90039,2.4004-2.90039c1.0996,0,2.29981,0.60059,2.29981,2.7002
		c0,2.10059,0,4.7002,0,7.2002c1.09959,0,2.09959,0,3.20019,0c0-2.40039,0-4.7998,0-7.09961
		c0-2.30078,1.3994-2.90039,2.3994-2.90039c1.1006,0,2.3008,0.59961,2.3008,2.7002c0,2.2998,0,4.7002,0,7.2002
		c1.09961,0,2.09961,0,3.1992,0c0-2.30078,0-4.5,0-8C69.30005,780.09961,67.20044,778.7998,64.80005,778.7998z"/>
	<g display="inline">
		<path d="M5.59984,792c-0.8994,0-1.7002-0.2002-2.29979-0.2998c-0.59961-0.2002-1.20021-0.5-1.70021-0.90039
			c-0.5-0.5-0.79979-0.89941-1.0996-1.39941c-0.2998-0.5-0.2998-1.10059-0.5-1.7002h1.5c0.2002,1.09961,0.5,1.7998,1.2002,2.2998
			c0.59961,0.5,1.5,0.7998,2.59961,0.7998c1.09959,0,1.79979-0.2002,2.40039-0.59961c0.59961-0.5,0.7998-1.10059,0.7998-1.7998
			c0-0.30078,0-0.60059-0.20019-0.90039c-0.20021-0.2998-0.29981-0.5-0.59961-0.59961c-0.3008-0.2002-0.6006-0.30078-1.1006-0.5
			c-0.5-0.2002-1.0996-0.30078-1.7002-0.5c-0.59959-0.2002-1.1992-0.30078-1.7998-0.5c-0.5996-0.2002-1.0996-0.5-1.5-0.60059
			c-0.5-0.2998-0.79979-0.59961-1.0996-1.09961c-0.2998-0.5-0.2998-0.90039-0.2998-1.5c0-0.5,0.1992-1.10059,0.2998-1.40039
			c0.2002-0.5,0.5-0.7998,0.8994-1.09961c0.5-0.2998,0.90041-0.5,1.40041-0.7998c0.59959-0.2002,1.20019-0.30078,1.79979-0.30078
			c0.7998,0,1.4004,0.2002,2,0.30078c0.6006,0.19922,1.1006,0.5,1.4004,0.7998c0.5,0.2998,0.79981,0.7998,0.8994,1.2002
			c0.2002,0.5,0.3008,0.89941,0.5,1.5h-1.3994c-0.20019-0.90039-0.5-1.5-0.9004-2c-0.5996-0.5-1.3994-0.60059-2.29979-0.60059
			c-1.09961,0-1.70021,0.2002-2.29981,0.60059c-0.5,0.5-0.7998,0.89941-0.7998,1.5c0,0.2998,0,0.59961,0.1992,0.89941
			c0.2002,0.2998,0.3008,0.5,0.8008,0.60059c0.2998,0.19922,0.7998,0.2998,1.1992,0.5c0.5,0.19922,1.1006,0.2998,1.7002,0.5
			c0.6006,0.19922,1.20021,0.2998,1.7998,0.5c0.6006,0.19922,1.1006,0.5,1.40041,0.59961
			c0.5,0.2998,0.79979,0.59961,0.90039,1.09961c0.1992,0.5,0.2998,0.90039,0.2998,1.7002c0,1.2002-0.5,2.10059-1.4004,2.7002
			C8.30005,791.7002,7.09984,792,5.59984,792z"/>
		<path d="M12.39964,774.09961h1.5v6.80078l0,0c0.5-0.60059,1.1006-1.2002,1.7002-1.7002c0.7998-0.5,1.5-0.60059,2.6006-0.60059
			c1.1992,0,2.09961,0.30078,2.8994,1.10059c0.7998,0.7998,1.20021,1.7002,1.20021,3v9h-1.5v-8.90039
			c0-0.89941-0.29981-1.7002-0.79981-2.09961c-0.5-0.5-1.20019-0.60059-2.1006-0.60059c-0.59959,0-1.09959,0.2002-1.5,0.30078
			c-0.5,0.19922-0.8994,0.5-1.1992,0.7998c-0.3008,0.2998-0.6006,0.7998-0.90039,1.2002c-0.20021,0.5-0.29981,0.89941-0.29981,1.5
			V792h-1.5v-17.90039H12.39964z"/>
		<path d="M24.70044,774.09961h1.5v2.10059h-1.5V774.09961z M24.70044,778.90039h1.5v12.7998h-1.5V778.90039z"/>
		<path d="M29.80005,780.09961h-1.79981v-1.19922h1.79981v-2.30078c0-0.89941,0.29979-1.69922,0.79979-2.09961
			c0.5-0.5,1.20021-0.59961,2.2998-0.59961c0.2002,0,0.3008,0,0.5,0c0.2002,0,0.3008,0,0.5,0v1.39941h-0.59959
			c-0.59961,0-1.09961,0.2002-1.40041,0.2998c-0.2998,0.30078-0.2998,0.60059-0.2998,1.10059V779h2.4004v1.2002h-2.4004v11.39941
			h-1.5L29.80005,780.09961L29.80005,780.09961z"/>
		<path d="M38.70044,791.7002c-0.8008,0-1.40039-0.2002-1.8008-0.60059c-0.5-0.2998-0.59959-0.89941-0.59959-1.7998V780h-2v-1.2002
			h2v-3.89941h1.5v3.89941h2.40039V780h-2.40039v9c0,0.5,0.20019,0.7998,0.29979,0.90039c0.20021,0.19922,0.5,0.2998,0.9004,0.2998
			c0.2002,0,0.29981,0,0.5996,0c0.20021,0,0.2998-0.2002,0.5-0.2002l0,0v1.40039
			C39.59984,791.7002,39.09984,791.7002,38.70044,791.7002z"/>
		<path d="M48.09984,774.09961h1.70021l-6.90041,17.60059h-1.6992L48.09984,774.09961z"/>
	</g>
</g>
<g id="s_x2F_" display="none">
	<path display="inline" d="M6.39964,279.5c-1.1992,0-2.2998-0.2002-3.1992-0.5c-0.90039-0.29977-1.7002-0.79977-2.3008-1.2002
		c-0.59959-0.59958-1.09959-1.19971-1.3994-2c-0.2998-0.7998-0.6006-1.5-0.6006-2.3999h2.3008
		c0.1992,1.5,0.7998,2.6001,1.6992,3.30032c0.90041,0.59958,2.1006,0.89987,3.6006,0.89987s2.7002-0.30029,3.5-0.89987
		c0.79981-0.60013,1.2002-1.5,1.2002-2.60013c0-0.5-0.2002-0.89987-0.3008-1.2002c-0.1992-0.2998-0.5-0.6001-0.7998-0.8999
		c-0.29979-0.29977-0.8994-0.5-1.5-0.79977c-0.5996-0.20023-1.3994-0.5-2.29979-0.60013
		c-0.90041-0.1001-1.79981-0.5-2.59961-0.80029c-0.8008-0.2998-1.5-0.59958-2.1006-0.8999
		c-0.5996-0.2998-1.0996-0.8999-1.3994-1.3999c-0.3008-0.6001-0.5-1.3999-0.5-2.1001c0-0.7998,0.1992-1.3999,0.5-2
		c0.2998-0.6001,0.7998-1.1001,1.3994-1.5c0.6006-0.5,1.20021-0.7998,2-0.8999c0.7998-0.29977,1.70021-0.29977,2.6006-0.29977
		c1.09961,0,2,0.19968,2.8994,0.5c0.7998,0.29977,1.5,0.59958,2,1.09958c0.6006,0.5,0.9004,1.1001,1.20021,1.7002
		c0.29979,0.6001,0.5,1.3999,0.59959,2.1001h-2.09959c-0.20021-1.2002-0.59961-2.1001-1.40041-2.7002
		c-0.7998-0.6001-1.7998-0.8999-3.1992-0.8999c-1.40039,0-2.40039,0.2998-3.2002,0.8999c-0.5,0.80032-1,1.6001-1,2.30032
		c0,0.5,0.2002,0.89987,0.29981,1.19968c0.20019,0.30032,0.59959,0.6001,0.90039,0.8999c0.5,0.30029,0.8994,0.5,1.6992,0.6001
		c0.6006,0.2002,1.40041,0.30032,2.3008,0.6001c0.8994,0.20023,1.7998,0.5,2.59961,0.6001c0.79979,0.2998,1.40039,0.60013,2,0.8999
		c0.59959,0.5,0.90039,0.8999,1.40039,1.5c0.2998,0.6001,0.5,1.3999,0.5,2.2998c0,1.7002-0.6006,2.90042-1.8008,3.90042
		C10.09984,279.1001,8.50024,279.5,6.39964,279.5z"/>
	<path display="inline" d="M22.30005,254.2998h2.29979l-9.8994,24.80029h-2.3008L22.30005,254.2998z"/>
</g>
<path fill="#FFFFFF" d="M0.00024,13.51562v1.4063h5.7187v15.5625h1.5934v-15.5625h6.3101l5.5033,15.5625h1.6874l6.1871-16.9688
	h-1.5943l-4.4052,12.4689c-0.0944,0.2811-0.1876,0.6563-0.2819,0.93748c-0.0936,0.28112-0.1869,0.65632-0.2812,0.93752
	c-0.0932,0.3752-0.18759,0.6563-0.2812,1.0307h-0.0932c-0.0943-0.3744-0.1876-0.6555-0.282-1.0307
	c-0.0935-0.2812-0.1868-0.6564-0.2811-0.93752c-0.0932-0.37558-0.1877-0.65638-0.2812-0.93748l-4.4064-12.4689"/>
<g>
	<path fill="#FFFFFF" d="M8.62484,75.94441c-2.08279,0-3.6997-0.45319-4.8497-1.3583c-1.1505-0.9057-1.7795-2.0923-1.8882-3.5597
		h3.31511c0.14469,0.86971,0.52459,1.4991,1.14089,1.88859c0.61511,0.38982,1.3857,0.58421,2.3093,0.58421
		c0.9597,0,1.6665-0.1857,2.11981-0.5569c0.452-0.3711,0.67889-0.84669,0.67889-1.4268c0-0.3617-0.0908-0.6564-0.2717-0.8828
		c-0.18119-0.22649-0.4346-0.41679-0.761-0.57072c-0.3256-0.15388-0.72019-0.28078-1.1819-0.38028
		c-0.4615-0.0992-0.9735-0.2039-1.5351-0.3125c-0.6881-0.12622-1.3491-0.2808-1.9833-0.4621
		c-0.6345-0.1808-1.1953-0.43021-1.6847-0.74712c-0.489-0.31649-0.8831-0.73328-1.1818-1.24959
		c-0.2986-0.516-0.4485-1.1822-0.4485-1.9972c0-0.6881,0.1404-1.2996,0.4216-1.8338c0.2803-0.5338,0.6694-0.9871,1.1679-1.3583
		c0.4981-0.3712,1.1009-0.6528,1.8068-0.8427c0.7067-0.19,1.4852-0.2852,2.337-0.2852c1.9382,0,3.4004,0.39378,4.38781,1.18179
		c0.98709,0.788,1.57129,1.81641,1.75289,3.08392h-3.288c-0.2538-1.2861-1.214-1.929-2.88-1.929
		c-0.815,0-1.4265,0.1626-1.8338,0.4889c-0.4077,0.3265-0.6115,0.7429-0.6115,1.2501c0,0.326,0.09041,0.5885,0.2717,0.7876
		c0.1812,0.19949,0.435,0.3672,0.7606,0.50291c0.326,0.1355,0.7154,0.249,1.1683,0.33939c0.4529,0.09081,0.9514,0.19,1.4943,0.2991
		c0.68851,0.1268,1.3583,0.2763,2.0107,0.448c0.6523,0.1726,1.2365,0.4264,1.7524,0.7612
		c0.51641,0.33511,0.9281,0.7788,1.2366,1.3308c0.30781,0.5529,0.4616,1.27309,0.4616,2.1606c0,0.7602-0.15379,1.4309-0.4616,2.0103
		c-0.3085,0.5801-0.7384,1.0644-1.2909,1.4538c-0.5524,0.3895-1.2087,0.6837-1.9698,0.88319
		C10.33694,75.84492,9.51244,75.94441,8.62484,75.94441z"/>
	<path fill="#FFFFFF" d="M23.34784,56.05561h1.7657l-7.7167,19.4268h-1.76479L23.34784,56.05561z"/>
</g>
<path fill="#FFFFFF" d="M6.97025,102.37911h1.946l3.2722,9.6698c0.1182,0.3736,0.2507,0.7813,0.3982,1.22309
	c0.1475,0.44251,0.28041,0.86061,0.3978,1.25321c0.1371,0.4711,0.2851,0.9343,0.4425,1.3864h0.0583
	c0.1376-0.4521,0.28481-0.9153,0.443-1.3864c0.1369-0.3926,0.2749-0.8107,0.412-1.25321
	c0.1377-0.44179,0.2753-0.84949,0.4133-1.22309l3.4193-9.6698h1.8576l-5.5125,15.24181h-2.1522L6.97025,102.37911z"/>
<g id="Layer_3_1_">
	<g enable-background="new    ">
		<path fill="#FFFFFF" d="M25.14994,152.74881c0,5.0623-5.2106,9.15831-11.6495,9.15831c-0.8193,0-1.6156-0.06831-2.3779-0.1936
			c-2.4116,2.68489-6.7803,2.68489-6.7803,2.68489c1.6723-1.5015,2.3434-2.93509,2.5369-4.11809
			c-3.0378-1.64981-5.0286-4.4028-5.0286-7.53151c0-5.0513,5.2106-9.1472,11.6499-9.1472
			C19.93934,143.60161,25.14994,147.69751,25.14994,152.74881z M24.31954,152.74881c0-4.5965-4.8462-8.31659-10.8191-8.31659
			s-10.8195,3.72009-10.8195,8.31659c0,2.94661,1.9912,5.5177,4.983,6.99651c-0.0341,1.10368-0.3751,2.44609-1.4673,3.7202
			c0,0,2.9577-0.3981,4.5849-2.67329c0.876,0.18199,1.7746,0.28439,2.7189,0.28439
			C19.47334,161.07661,24.31954,157.34482,24.31954,152.74881z"/>
	</g>
</g>
<g>
	<g>
		<path fill="#FFFFFF" d="M93.81254,338.8197c0-2.5827,2.15251-4.42648,4.3661-4.42648c1.59841,0,2.58221,0.55338,3.4429,1.59839
			c-0.4916,0.49152-0.9219,1.04559-1.4142,1.414c-0.5534-0.55331-1.2298-1.10681-2.1517-1.10681
			c-1.2918,0-2.21359,1.10681-2.21359,2.39792c0,1.41479,1.10679,2.52161,2.33659,2.52161c0.922,0,1.4753-0.49222,2.1518-1.10681
			c0.4924,0.49149,0.92262,0.86011,1.4141,1.41418c-0.7376,0.92252-1.7832,1.66022-3.5047,1.66022
			C95.84205,343.18591,93.81254,341.40262,93.81254,338.8197z"/>
		<path fill="#FFFFFF" d="M93.07484,338.75861c0,2.76709-1.845,4.36539-3.9969,4.36539c-1.4147,0-2.21288-0.67578-2.58199-1.22919
			c0,0.3692,0,0.67651,0,1.04501c-0.7377,0-1.41489,0-2.21301,0c0-3.8739,0-7.74701,0-11.62161c0.737,0,1.41351,0,2.21301,0
			c0,1.41479,0,2.7677,0,4.24289c0.49139-0.49149,1.2299-1.29028,2.58199-1.29028
			C91.22984,334.39322,93.07484,335.92972,93.07484,338.75861z M88.64834,341.40262c1.4141,0,2.3359-1.10681,2.3359-2.58292
			c0-1.47519-1.0456-2.5827-2.3359-2.5827c-1.4148,0-2.3374,1.10751-2.3374,2.5827
			C86.24974,340.29581,87.35594,341.40262,88.64834,341.40262z"/>
		<path fill="#FFFFFF" d="M80.34714,334.39322c-1.476,0-2.2135,0.92178-2.3978,1.2291c0-0.3685,0-0.67572,0-1.04422
			c-0.73829,0-1.4141,0-2.2136,0c0,2.88953,0,5.6557,0,8.48471c0.73831,0,1.4141,0,2.2136,0c0-1.66019,0-3.25861,0-4.79568
			c0-1.41483,1.0449-1.84512,1.66019-1.84512c0.7376,0,1.5984,0.49213,1.5984,1.84512c0,1.3522,0,3.1355,0,4.79568
			c0.7383,0,1.41411,0,2.2136,0c0-1.47598,0-2.95129,0-5.34918C83.48273,335.315,81.82254,334.39322,80.34714,334.39322z"/>
		<path fill="#FFFFFF" d="M68.84944,337.0372c0-1.96759,1.5983-2.7052,3.07361-2.7052c1.476,0,2.15249,0.49161,3.25859,1.04492
			c-0.3074,0.49158-0.5535,1.1062-0.922,1.59839c-0.6757-0.49219-1.5983-0.86069-2.33659-0.86069
			c-0.86071,0-1.045,0.49149-1.045,0.67648c0,0.55341,1.10619,0.73831,2.21368,1.2298c1.1067,0.49161,2.2135,1.04501,2.2135,2.39801
			c0,1.96729-1.4759,2.767-3.2584,2.767c-1.5991,0-2.7671-0.67651-3.6897-1.41409c0.3691-0.49231,0.6765-1.04572,1.04491-1.47601
			c0.8615,0.67581,1.78329,1.10681,2.70589,1.10681s1.1068-0.49222,1.1068-0.7384c0-0.67581-1.1068-0.86002-2.2135-1.2291
			C69.95544,339.12772,68.84944,338.5744,68.84944,337.0372z"/>
		<path fill="#FFFFFF" d="M64.97554,334.39322c-1.476,0-2.3367,0.8606-2.7664,1.41409
			c-0.4922-0.67651-1.2306-1.41409-2.3993-1.41409c-1.2904,0-2.0279,0.73758-2.3353,1.2291c0-0.3685,0-0.67572,0-1.04422
			c-0.7383,0-1.4147,0-2.2143,0c0,2.88953,0,5.6557,0,8.48471c0.7376,0,1.41481,0,2.2143,0c0-1.66019,0-3.25861,0-4.79568
			c0-1.41483,0.9219-1.96832,1.5984-1.96832c0.6757,0,1.4754,0.49231,1.4754,1.84521c0,1.353,0,3.1355,0,4.79581
			c0.7382,0,1.41471,0,2.2136,0c0-1.5983,0-3.25861,0-4.79581c0-1.5379,0.9218-1.84521,1.5983-1.84521
			c0.6771,0,1.4759,0.3692,1.4759,1.84521c0,1.47531,0,3.25861,0,4.79581c0.7384,0,1.4141,0,2.2136,0c0-1.47601,0-3.0744,0-5.3493
			C67.92684,335.315,66.45084,334.39322,64.97554,334.39322z"/>
	</g>
	<path fill="#FFFFFF" d="M100.20734,327.81412v1.29111h5.165l-0.062,13.95758h1.4142v-13.95758h5.66499l5.40251,13.95758h1.41479
		l5.53339-15.24869h-1.4134l-3.99689,11.19c-0.1231,0.30789-0.1843,0.55408-0.3074,0.8613
		c-0.123,0.30719-0.1842,0.5535-0.3072,0.86069c-0.1238,0.3685-0.18501,0.55341-0.308,0.92252h-0.1231
		c-0.123-0.36911-0.18419-0.55402-0.30801-0.92252c-0.1223-0.30719-0.18419-0.5535-0.3073-0.86069
		c-0.1224-0.36841-0.1841-0.55341-0.3073-0.8613l-3.9962-11.19"/>
</g>
<g>
	<path fill="#FFFFFF" d="M51.63164,396.8555c-1.2775,0-2.2678-0.2774-2.9734-0.83298c-0.7056-0.5549-1.09119-1.2818-1.158-2.1817
		h2.033c0.0882,0.5329,0.3215,0.9191,0.6985,1.15738c0.37831,0.23972,0.8507,0.35852,1.4169,0.35852
		c0.5876,0,1.0215-0.1138,1.2989-0.34152c0.2774-0.2276,0.4168-0.5192,0.4168-0.87421c0-0.22189-0.0568-0.40259-0.16629-0.54117
		c-0.11241-0.1394-0.26761-0.25552-0.46681-0.3493c-0.2006-0.0954-0.4409-0.17361-0.7241-0.2341
		c-0.2844-0.06042-0.5974-0.12512-0.9418-0.19211c-0.4225-0.07669-0.8279-0.1713-1.21629-0.28241
		c-0.38841-0.11148-0.73271-0.26379-1.03291-0.4588c-0.2987-0.19339-0.5406-0.4494-0.72409-0.76529
		c-0.18361-0.3165-0.27451-0.72482-0.27451-1.22421c0-0.42328,0.0853-0.7966,0.25751-1.12448
		c0.17209-0.32791,0.41109-0.60541,0.71689-0.8338c0.3045-0.22681,0.6743-0.3989,1.1069-0.51572
		c0.4339-0.11661,0.9104-0.1749,1.4326-0.1749c1.1893,0,2.0855,0.24179,2.6902,0.72479c0.6061,0.483,0.9632,1.11322,1.0741,1.89001
		h-2.0145c-0.1564-0.78741-0.7455-1.18219-1.7655-1.18219c-0.50069,0-0.8749,0.09949-1.1253,0.29938
		c-0.2489,0.19992-0.3742,0.4552-0.3742,0.76682c0,0.19919,0.0556,0.36069,0.1665,0.483c0.111,0.1217,0.266,0.22479,0.4666,0.30798
		c0.1992,0.08322,0.4383,0.15231,0.7156,0.2077c0.2775,0.05621,0.5833,0.1174,0.9163,0.1835
		c0.4224,0.07761,0.8336,0.1694,1.2333,0.2753c0.3998,0.10532,0.7569,0.26111,1.0741,0.466
		c0.3159,0.2063,0.5692,0.4772,0.7583,0.81659c0.1879,0.33862,0.2832,0.7796,0.2832,1.32452
		c0,0.46588-0.0953,0.87698-0.2832,1.23187c-0.1891,0.35501-0.4538,0.65231-0.7923,0.89142
		c-0.3387,0.23819-0.7413,0.41888-1.208,0.5412C52.68154,396.79431,52.17505,396.8555,51.63164,396.8555z"/>
	<path fill="#FFFFFF" d="M58.68644,388.13531c-0.007,0.29449-0.0156,0.5705-0.0255,0.8251h0.0497
		c0.3002-0.4772,0.67441-0.85001,1.124-1.116c0.4495-0.26602,0.9915-0.39972,1.6246-0.39972c0.9659,0,1.7185,0.27451,2.2563,0.8244
		c0.5392,0.5498,0.8081,1.3074,0.8081,2.27411v6.02991h-2.1155v-5.6806c0-0.5321-0.1465-0.94901-0.441-1.24921
		c-0.2945-0.30011-0.71409-0.44949-1.2576-0.44949c-0.3001,0-0.5719,0.05258-0.8166,0.1579
		c-0.2447,0.10529-0.4552,0.2561-0.6332,0.4502c-0.1763,0.19351-0.31569,0.42401-0.4153,0.6908
		c-0.101,0.26682-0.1508,0.55481-0.1508,0.86639v5.21402h-2.1155v-12.3927h2.1155v3.33109
		C58.69364,387.63321,58.69084,387.84152,58.68644,388.13531z"/>
	<path fill="#FFFFFF" d="M66.02314,384.18042h2.1652v2.04788h-2.1652V384.18042z M66.05584,387.67801h2.1154v8.89511h-2.1154
		V387.67801z"/>
	<path fill="#FFFFFF" d="M69.20414,387.67801h1.3657v-0.98309c0-0.87701,0.2277-1.52081,0.6829-1.93201
		c0.2547-0.2218,0.5804-0.3833,0.9745-0.48361c0.3941-0.09888,0.8465-0.1445,1.3572-0.133c0.30019,0,0.616,0.017,0.95039,0.04971
		v1.58209c-0.35579-0.01001-0.6502-0.0072-0.8835,0.00922c-0.23329,0.017-0.4225,0.06119-0.5662,0.13367
		c-0.14509,0.07181-0.2475,0.18002-0.3073,0.32431c-0.0626,0.1452-0.0924,0.33871-0.0924,0.5834v0.8493h1.8323v1.46609h-1.8323
		v7.42902h-2.1156v-7.42902h-1.3657V387.67801z"/>
	<path fill="#FFFFFF" d="M75.03414,387.67801h1.3658v-2.83191h2.08279v2.83191h1.78111v1.44958h-1.78111v4.9794
		c0,0.32211,0.08241,0.54199,0.2488,0.6579c0.16651,0.1174,0.3999,0.17502,0.7,0.17502c0.11089,0,0.23051-0.00571,0.3586-0.01639
		c0.1265-0.01071,0.2346-0.02713,0.3243-0.0498h0.09949v1.6489c-0.1777,0.03268-0.3826,0.06409-0.61589,0.091
		c-0.23331,0.0278-0.49361,0.04279-0.78241,0.04279c-0.3557,0-0.6829-0.03711-0.9832-0.10889
		c-0.30009-0.0719-0.5562-0.18851-0.7668-0.35001c-0.2104-0.16-0.3741-0.37491-0.4907-0.6409
		c-0.1167-0.26669-0.175-0.59399-0.175-0.9823v-5.44672h-1.3658V387.67801z"/>
	<path fill="#FFFFFF" d="M86.44374,384.6626h1.0827l-4.73038,11.91052h-1.08261L86.44374,384.6626z"/>
	<path fill="#FFFFFF" d="M87.74264,387.9603h1.0329v1.29971h0.0342c0.2759-0.43259,0.62731-0.78741,1.04831-1.06631
		c0.42259-0.2767,0.94329-0.41608,1.56609-0.41608c0.5335,0,1.0058,0.13089,1.4155,0.39188
		c0.4112,0.26031,0.7057,0.65231,0.8835,1.17371h0.0327c0.2888-0.49939,0.6686-0.88559,1.1409-1.15671
		c0.4724-0.2724,1.013-0.40887,1.62331-0.40887c0.36848,0,0.70988,0.05908,1.02579,0.1749
		c0.3157,0.11749,0.5918,0.28949,0.8237,0.51639c0.2332,0.22702,0.4168,0.5079,0.5491,0.84082
		c0.1338,0.33359,0.2006,0.71707,0.2006,1.1496v6.1138h-1.0157v-6.02991c0-0.64441-0.1694-1.1189-0.5079-1.4241
		c-0.3401-0.30582-0.7754-0.4581-1.3074-0.4581c-0.3215,0-0.6217,0.05609-0.9006,0.16641
		c-0.27599,0.11029-0.52499,0.26898-0.7398,0.47449c-0.2176,0.2056-0.38699,0.4617-0.5093,0.76608
		c-0.1224,0.30521-0.1821,0.64731-0.1821,1.02512v5.48001h-1.03419v-6.02991c0-0.64441-0.1636-1.1189-0.4894-1.4241
		c-0.3287-0.30582-0.7413-0.4581-1.2421-0.4581c-0.3111,0-0.61,0.06049-0.89869,0.1828
		c-0.2887,0.12241-0.54771,0.29099-0.77531,0.5079c-0.2276,0.21689-0.4069,0.47449-0.5406,0.7746
		c-0.1338,0.3002-0.2006,0.6225-0.2006,0.9668v5.48001h-1.0329V387.9603z"/>
	<path fill="#FFFFFF" d="M103.81673,396.8056c-0.5775,0-1.0825-0.07529-1.5151-0.2247
		c-0.4339-0.15009-0.7967-0.35278-1.09109-0.60818c-0.29449-0.25461-0.52361-0.56039-0.6828-0.91541
		c-0.1608-0.35571-0.2533-0.74411-0.2761-1.1666h1.05c0.0782,0.7326,0.3442,1.2547,0.79942,1.56628
		c0.45528,0.31082,1.03288,0.46671,1.73279,0.46671c0.7214,0,1.2648-0.15298,1.63321-0.4588
		c0.36569-0.30521,0.54769-0.70792,0.54769-1.20792c0-0.23328-0.0355-0.43237-0.10661-0.59888
		c-0.074-0.1665-0.1978-0.31381-0.3756-0.4418c-0.1779-0.12732-0.414-0.23901-0.707-0.33289
		c-0.2946-0.09451-0.6644-0.19131-1.1097-0.29233c-0.4325-0.09958-0.8394-0.20767-1.2235-0.3244
		c-0.38271-0.116-0.7169-0.26389-0.9987-0.44098c-0.2831-0.17792-0.5094-0.40262-0.6743-0.67502
		c-0.1665-0.27179-0.2518-0.6189-0.2518-1.04138c0-0.35571,0.0738-0.67722,0.21761-0.96521
		c0.1451-0.28958,0.3485-0.5343,0.61739-0.7327c0.26611-0.20059,0.582-0.3558,0.94752-0.46671
		c0.36709-0.1109,0.77248-0.16708,1.21638-0.16708c0.5121,0,0.956,0.06119,1.333,0.18268
		c0.377,0.12311,0.6971,0.29742,0.9574,0.52502c0.2618,0.2283,0.46381,0.49799,0.609,0.80807
		c0.1436,0.31161,0.24321,0.65582,0.3001,1.03351h-1.0328c-0.057-0.56689-0.269-0.99149-0.6417-1.2746
		c-0.3741-0.28381-0.8806-0.42471-1.525-0.42471c-0.6659,0-1.15939,0.13861-1.48239,0.4162
		c-0.32151,0.2774-0.48371,0.61661-0.48371,1.01572c0,0.24469,0.0513,0.44821,0.1508,0.60818
		c0.101,0.1615,0.2532,0.29941,0.4581,0.41611c0.2063,0.11661,0.46381,0.21771,0.7739,0.3009
		c0.3115,0.08249,0.67291,0.17502,1.0841,0.27451c0.4324,0.0889,0.8322,0.19061,1.1992,0.30811
		c0.3671,0.11578,0.67999,0.2688,0.9418,0.4581c0.2603,0.18909,0.4653,0.4274,0.616,0.71558
		c0.14941,0.28952,0.2235,0.65573,0.2235,1.09973c0,0.76599-0.2875,1.38559-0.865,1.85779
		C105.60505,396.56961,104.81705,396.8056,103.81673,396.8056z"/>
	<path fill="#FFFFFF" d="M108.31384,387.9603h1.0314v1.31741h0.0341c0.2888-0.4339,0.6702-0.79239,1.1424-1.0755
		c0.4709-0.28241,1.0499-0.42459,1.7399-0.42459c0.7995,0,1.4568,0.2312,1.9746,0.69128c0.515,0.461,0.774,1.12469,0.774,1.99042
		v6.1138h-1.0314v-6.01422c0-0.65448-0.1765-1.13458-0.5265-1.43979c-0.3498-0.30582-0.8307-0.4581-1.441-0.4581
		c-0.3656,0-0.71,0.06049-1.0315,0.1828c-0.3215,0.12241-0.6074,0.29099-0.8507,0.5079
		c-0.2434,0.21689-0.43539,0.47449-0.5748,0.7746c-0.138,0.3002-0.2091,0.62738-0.2091,0.98239v5.46442h-1.0314V387.9603z"/>
	<path fill="#FFFFFF" d="M120.58984,396.8056c-0.66579,0-1.2249-0.1272-1.673-0.3826c-0.4511-0.2554-0.8423-0.6387-1.1752-1.15021
		h-0.0327v1.30032h-1.0342V384.6626h1.0342v4.78091h0.0327c0.3002-0.50009,0.6887-0.90121,1.1667-1.20709
		c0.47649-0.30591,1.0584-0.4588,1.7484-0.4588c0.50931,0,0.9844,0.09949,1.424,0.30008
		c0.4382,0.19992,0.8138,0.49442,1.1239,0.88272c0.3115,0.3884,0.5548,0.86368,0.7327,1.4241
		c0.1792,0.56119,0.2674,1.19647,0.2674,1.9079c0,0.66498-0.0824,1.27328-0.2489,1.82309
		c-0.16789,0.5491-0.404,1.02499-0.7085,1.42471c-0.3059,0.39978-0.68429,0.71127-1.1338,0.93176
		C121.66405,396.6947,121.15605,396.8056,120.58984,396.8056z M120.54144,395.94c0.4438,0,0.828-0.0939,1.15662-0.28391
		c0.32729-0.18848,0.599-0.44589,0.81519-0.7738c0.2176-0.32797,0.3784-0.71417,0.4837-1.15878
		c0.1067-0.44312,0.1579-0.91479,0.1579-1.41479c0-0.53351-0.0554-1.02499-0.1664-1.47391
		c-0.11089-0.45029-0.27738-0.83939-0.49938-1.16721c-0.22182-0.3273-0.49792-0.5799-0.825-0.7569
		c-0.32741-0.17709-0.70711-0.26678-1.141-0.26678c-0.47811,0-0.89641,0.09457-1.25771,0.2825
		c-0.3599,0.18979-0.6629,0.4502-0.9076,0.78378c-0.24329,0.33359-0.4283,0.72131-0.54919,1.1651
		c-0.1223,0.4447-0.18349,0.9227-0.18349,1.43341c0,0.53281,0.0612,1.02499,0.18349,1.47388
		c0.1209,0.44952,0.3059,0.83221,0.54919,1.1488c0.24471,0.31711,0.55061,0.56403,0.91621,0.74121
		C119.64094,395.8511,120.06344,395.94,120.54144,395.94z"/>
	<path fill="#FFFFFF" d="M128.96783,396.7886c-0.6317,0-1.19079-0.1138-1.6745-0.3407
		c-0.48228-0.22769-0.8891-0.54489-1.2221-0.95041c-0.33419-0.40469-0.5861-0.88269-0.7597-1.43109
		c-0.1721-0.5506-0.2574-1.1474-0.2574-1.79041c0-0.6445,0.0882-1.242,0.266-1.7912c0.1778-0.5498,0.43391-1.0278,0.7667-1.4325
		c0.333-0.40549,0.7441-0.72198,1.2321-0.95041c0.4894-0.2269,1.0442-0.34079,1.66589-0.34079
		c0.9547,0,1.7357,0.24481,2.3403,0.7327c0.606,0.4895,0.98021,1.17651,1.12392,2.06509h-1.03142
		c-0.12239-0.64301-0.39119-1.1268-0.80949-1.4483c-0.41541-0.3215-0.95601-0.483-1.62331-0.483
		c-0.4993,0-0.93039,0.0968-1.2903,0.29163c-0.3613,0.19418-0.6586,0.45529-0.89059,0.7825
		c-0.2347,0.32797-0.40689,0.71417-0.5178,1.15808c-0.111,0.44382-0.1664,0.91541-0.1664,1.4162
		c0,0.4993,0.0582,0.96811,0.175,1.40701c0.118,0.43808,0.2916,0.82449,0.5248,1.15659
		c0.23341,0.33362,0.52641,0.5947,0.88351,0.78391c0.35419,0.18851,0.77679,0.28241,1.26479,0.28241
		c0.7327,0,1.3188-0.20779,1.7583-0.6239c0.4397-0.41681,0.70291-0.97382,0.79111-1.6745h0.983
		c-0.10101,0.97739-0.45531,1.75281-1.067,2.32388C130.82294,396.50342,130.00073,396.7886,128.96783,396.7886z"/>
</g>
<g>
	<path fill="#FFFFFF" d="M68.53105,442.75992h1.08619l1.8259,5.39838c0.0663,0.20831,0.1395,0.43521,0.2227,0.6828
		c0.08179,0.24612,0.1565,0.4794,0.2227,0.69852c0.0761,0.26459,0.15851,0.52139,0.2467,0.7739h0.0329
		c0.07681-0.2525,0.1578-0.50931,0.246-0.7739c0.0768-0.21912,0.1544-0.45239,0.2312-0.69852
		c0.0761-0.24759,0.1529-0.47449,0.2305-0.6828l1.9084-5.39838h1.0379l-3.0779,8.50818h-1.2014L68.53105,442.75992z"/>
	<path fill="#FFFFFF" d="M76.72984,439.5014h1.02v1.44901h-1.02V439.5014z M76.72984,442.75992h1.02v8.50818h-1.02V442.75992z"/>
	<path fill="#FFFFFF" d="M82.70344,451.4986c-0.5705,0-1.0833-0.10959-1.5379-0.33008
		c-0.45589-0.21832-0.83929-0.5256-1.1523-0.92041c-0.313-0.39481-0.5549-0.86429-0.7248-1.40701
		c-0.16939-0.5434-0.2547-1.1445-0.2547-1.80249c0-0.70139,0.0932-1.33011,0.28031-1.88419
		c0.18559-0.5542,0.44459-1.02292,0.77319-1.4071c0.32861-0.38351,0.71561-0.67441,1.1601-0.8721
		c0.4439-0.19769,0.9191-0.29669,1.4241-0.29669c0.658,0,1.22,0.1431,1.68661,0.42758
		c0.46589,0.28589,0.83579,0.67441,1.11029,1.16861h0.03271v-4.67331h1.02079v11.76669h-1.02079v-1.26758h-0.03271
		c-0.3171,0.49438-0.69629,0.86789-1.13529,1.11969C83.89424,451.3728,83.35154,451.4986,82.70344,451.4986z M82.73684,450.64291
		c0.461,0,0.8693-0.08749,1.2256-0.26321c0.3564-0.17578,0.6553-0.4205,0.89709-0.7334
		c0.2411-0.31149,0.4226-0.69141,0.54351-1.13519c0.12009-0.44312,0.18129-0.92902,0.18129-1.45541
		c0-0.5271-0.064-1.0087-0.1899-1.44897c-0.1259-0.4375-0.3081-0.81943-0.5435-1.14313
		c-0.2355-0.32428-0.5321-0.57617-0.8885-0.75748c-0.3563-0.18091-0.7646-0.27191-1.2256-0.27191
		c-0.4175,0-0.7895,0.08829-1.1196,0.2634c-0.3293,0.1756-0.606,0.42599-0.8308,0.7489
		c-0.2248,0.32431-0.3976,0.70792-0.5192,1.1524c-0.1196,0.44461-0.18,0.92969-0.18,1.45679
		c0,0.49362,0.0547,0.95963,0.16421,1.39911c0.1103,0.43829,0.2747,0.81949,0.4938,1.1424
		c0.2197,0.3251,0.4944,0.5798,0.8229,0.76611C81.89754,450.54901,82.28734,450.64291,82.73684,450.64291z"/>
	<path fill="#FFFFFF" d="M91.65264,451.4816c-0.6359,0-1.2021-0.11169-1.69511-0.33728
		c-0.4944-0.2247-0.9076-0.53772-1.24339-0.9389c-0.3336-0.39902-0.58891-0.87061-0.7654-1.41342
		c-0.1736-0.5434-0.2625-1.13248-0.2625-1.76978c0-0.63593,0.0925-1.22562,0.2803-1.76901
		c0.1857-0.54361,0.44751-1.0144,0.7818-1.41479c0.3336-0.40121,0.7398-0.7128,1.2163-0.9397
		c0.478-0.224,1.0122-0.3364,1.6062-0.3364c0.68,0,1.2519,0.12869,1.72,0.3876c0.4645,0.25677,0.8443,0.60239,1.1345,1.03638
		c0.2909,0.4332,0.4965,0.92902,0.6168,1.4888c0.12091,0.55981,0.1813,1.13611,0.1813,1.72711h-6.4836
		c0.0113,0.48441,0.0796,0.93109,0.2055,1.3429c0.1258,0.40979,0.30721,0.77042,0.5428,1.077
		c0.2361,0.30722,0.5356,0.5498,0.89771,0.72488c0.3613,0.17563,0.7838,0.26251,1.2668,0.26251
		c0.7127,0,1.2641-0.17288,1.6539-0.51788c0.3883-0.34641,0.6664-0.80881,0.8321-1.39062h0.986
		c-0.1864,0.84442-0.5705,1.51941-1.1517,2.02362C93.39114,451.22971,92.61714,451.4816,91.65264,451.4816z M94.15364,446.39621
		c-0.01141-0.41611-0.0718-0.80789-0.1807-1.17651c-0.1102-0.367-0.2688-0.685-0.47789-0.95389
		c-0.20771-0.26959-0.47091-0.4801-0.79031-0.63382c-0.3174-0.15347-0.69569-0.23038-1.1339-0.23038
		c-0.4282,0-0.8095,0.0769-1.1445,0.23038c-0.335,0.15372-0.6167,0.36423-0.8472,0.63382
		c-0.2312,0.26889-0.414,0.58411-0.5519,0.94681c-0.1374,0.36209-0.2277,0.7569-0.2718,1.18359H94.15364z"/>
	<path fill="#FFFFFF" d="M100.09894,451.4816c-0.6146,0-1.1673-0.11169-1.6546-0.33728
		c-0.4886-0.2247-0.90269-0.53772-1.2427-0.9389c-0.34-0.39902-0.6003-0.87061-0.7809-1.41342
		c-0.1815-0.5434-0.2711-1.13248-0.2711-1.76978c0-0.63593,0.0896-1.22562,0.2711-1.76901
		c0.1806-0.54361,0.4409-1.0144,0.7809-1.41479c0.34-0.40121,0.7541-0.7128,1.2427-0.9397c0.4873-0.224,1.04-0.3364,1.6546-0.3364
		c0.61311,0,1.1629,0.1124,1.6453,0.3364c0.4823,0.2269,0.89339,0.53848,1.2341,0.9397c0.34,0.40039,0.5982,0.87119,0.7725,1.41479
		c0.1764,0.5434,0.2646,1.13309,0.2646,1.76901c0,0.6373-0.0882,1.22638-0.2646,1.76978
		c-0.1743,0.54282-0.4325,1.0144-0.7725,1.41342c-0.34071,0.40118-0.7518,0.7142-1.2341,0.9389
		C101.26184,451.3699,100.71205,451.4816,100.09894,451.4816z M100.09894,450.62662c0.4708,0,0.8884-0.09402,1.2498-0.27963
		c0.3627-0.18707,0.66431-0.44458,0.9054-0.77386c0.2412-0.32941,0.4226-0.7135,0.5428-1.1517
		c0.121-0.4389,0.1814-0.90622,0.1814-1.3992c0-0.49362-0.0604-0.96021-0.1814-1.39923
		c-0.1202-0.43808-0.3016-0.82227-0.5428-1.15149c-0.24109-0.33008-0.54269-0.58688-0.9054-0.7739
		c-0.3614-0.18579-0.779-0.2789-1.2498-0.2789c-0.4837,0-0.9028,0.09311-1.2591,0.2789
		c-0.3564,0.18701-0.6579,0.44382-0.90549,0.7739c-0.2468,0.32922-0.43029,0.71341-0.55129,1.15149
		c-0.12091,0.43903-0.18141,0.90561-0.18141,1.39923c0,0.49298,0.0605,0.9603,0.18141,1.3992
		c0.121,0.4382,0.30449,0.8223,0.55129,1.1517c0.2476,0.32928,0.5491,0.58679,0.90549,0.77386
		C99.19614,450.53259,99.61523,450.62662,100.09894,450.62662z"/>
	<path fill="#FFFFFF" d="M108.27843,451.4986c-0.572,0-1.0712-0.07458-1.49939-0.2226
		c-0.4277-0.14801-0.78611-0.3472-1.07631-0.5997c-0.29169-0.25259-0.51649-0.5549-0.6758-0.90558
		c-0.1593-0.35062-0.24889-0.73541-0.2718-1.15231h1.0372c0.07681,0.72488,0.34,1.2399,0.7896,1.54651
		c0.4495,0.30728,1.0207,0.4617,1.71211,0.4617c0.71278,0,1.24979-0.1517,1.61259-0.45331
		c0.3606-0.30081,0.5427-0.69852,0.5427-1.19202c0-0.2312-0.037-0.42899-0.1067-0.59409
		c-0.0711-0.1636-0.1949-0.30951-0.3712-0.43451c-0.17509-0.12671-0.4077-0.237-0.6986-0.33008
		c-0.2902-0.0925-0.6544-0.18851-1.0947-0.28812c-0.4276-0.09821-0.83009-0.2056-1.2092-0.32001
		c-0.37789-0.1153-0.70789-0.26108-0.9874-0.43619c-0.2788-0.1756-0.5014-0.39761-0.66649-0.6665
		c-0.16431-0.2688-0.24611-0.6124-0.24611-1.02921c0-0.35059,0.0712-0.6687,0.2127-0.95459
		c0.1437-0.28461,0.34641-0.5264,0.6103-0.72339c0.2624-0.19852,0.5755-0.35211,0.9382-0.46021
		c0.36069-0.11032,0.76191-0.16589,1.2-0.16589c0.5043,0,0.9446,0.06119,1.3167,0.1814
		c0.3734,0.12167,0.6893,0.29388,0.9468,0.51859c0.2567,0.22409,0.4573,0.48999,0.6003,0.7988
		c0.14311,0.30661,0.2419,0.64661,0.2967,1.02011h-1.0209c-0.0554-0.56061-0.2659-0.97949-0.6323-1.259
		c-0.3698-0.2796-0.8721-0.41971-1.5073-0.41971c-0.6573,0-1.1467,0.13712-1.4646,0.41101
		c-0.3172,0.2746-0.4766,0.60818-0.4766,1.00449c0,0.24042,0.0484,0.44171,0.1473,0.60031
		c0.0996,0.15939,0.2504,0.29599,0.4531,0.41199c0.202,0.1138,0.4573,0.21262,0.7646,0.2951
		c0.30811,0.08319,0.6644,0.17349,1.06989,0.2717c0.42822,0.0882,0.82301,0.1893,1.1843,0.30521
		c0.3636,0.11441,0.6722,0.26541,0.9318,0.4516c0.2562,0.1871,0.4596,0.42252,0.6083,0.70789
		c0.1479,0.28522,0.2212,0.64731,0.2212,1.08542c0,0.7583-0.2853,1.36929-0.8557,1.836
		C110.04324,451.26599,109.26353,451.4986,108.27843,451.4986z"/>
</g>
<g>
	<g>
		<path fill="#FFFFFF" d="M68.55254,201.31972c0-2.58272,2.15251-4.4265,4.3661-4.4265c1.5983,0,2.5821,0.5535,3.44279,1.5983
			c-0.49149,0.49149-0.9218,1.04559-1.41399,1.41409c-0.5535-0.55339-1.2299-1.1068-2.1518-1.1068
			c-1.2918,0-2.21359,1.1068-2.21359,2.3978c0,1.4149,1.10679,2.5217,2.33659,2.5217c0.922,0,1.4753-0.49231,2.1518-1.1068
			c0.49229,0.49161,0.92261,0.86011,1.41409,1.4142c-0.73759,0.92241-1.7832,1.6601-3.5047,1.6601
			C70.58205,205.68581,68.55254,203.90251,68.55254,201.31972z"/>
		<path fill="#FFFFFF" d="M67.81494,201.25861c0,2.76711-1.8452,4.36539-3.997,4.36539c-1.4147,0-2.2128-0.67587-2.582-1.22919
			c0,0.3692,0,0.67651,0,1.04491c-0.7377,0-1.41489,0-2.213,0c0-3.87379,0-7.74699,0-11.6216c0.737,0,1.4135,0,2.213,0
			c0,1.41479,0,2.7677,0,4.243c0.4915-0.4915,1.2299-1.2903,2.582-1.2903C65.96974,196.89322,67.81494,198.42972,67.81494,201.25861
			z M63.38834,203.90251c1.4141,0,2.336-1.1068,2.336-2.58279c0-1.4752-1.0456-2.58272-2.336-2.58272
			c-1.4148,0-2.3374,1.10751-2.3374,2.58272C60.98974,202.79572,62.09594,203.90251,63.38834,203.90251z"/>
		<path fill="#FFFFFF" d="M55.08724,196.89322c-1.476,0-2.2136,0.92169-2.3979,1.2291c0-0.36861,0-0.6756,0-1.0442
			c-0.73829,0-1.4141,0-2.2137,0c0,2.8894,0,5.6557,0,8.4847c0.73841,0,1.4142,0,2.2137,0c0-1.66029,0-3.25859,0-4.7957
			c0-1.41489,1.0449-1.8452,1.6602-1.8452c0.7377,0,1.5984,0.4922,1.5984,1.8452c0,1.3522,0,3.13541,0,4.7957
			c0.7383,0,1.41411,0,2.2137,0c0-1.47589,0-2.95129,0-5.34929C58.22274,197.81491,56.56254,196.89322,55.08724,196.89322z"/>
		<path fill="#FFFFFF" d="M43.58944,199.53711c0-1.9675,1.5983-2.70511,3.07361-2.70511c1.476,0,2.15249,0.49152,3.25859,1.04491
			c-0.3074,0.49161-0.5534,1.10609-0.922,1.5984c-0.67559-0.49231-1.5983-0.8607-2.33659-0.8607
			c-0.86081,0-1.045,0.49139-1.045,0.67639c0,0.55351,1.10619,0.73842,2.21369,1.22992c1.1068,0.49159,2.2136,1.045,2.2136,2.39789
			c0,1.96741-1.476,2.767-3.2585,2.767c-1.5991,0-2.7671-0.6765-3.6897-1.41409c0.3691-0.4922,0.6765-1.04572,1.04491-1.476
			c0.86149,0.6759,1.78339,1.1068,2.706,1.1068c0.92249,0,1.10679-0.4921,1.10679-0.7383c0-0.6759-1.10679-0.86-2.2137-1.2291
			C44.69544,201.62772,43.58944,201.07431,43.58944,199.53711z"/>
		<path fill="#FFFFFF" d="M39.71554,196.89322c-1.476,0-2.3368,0.86049-2.7664,1.41409
			c-0.4922-0.6765-1.2305-1.41409-2.3993-1.41409c-1.2904,0-2.028,0.73759-2.3352,1.2291c0-0.36861,0-0.6756,0-1.0442
			c-0.7384,0-1.4149,0-2.2144,0c0,2.8894,0,5.6557,0,8.4847c0.7376,0,1.41481,0,2.2144,0c0-1.66029,0-3.25859,0-4.7957
			c0-1.41489,0.9219-1.96829,1.5983-1.96829c0.6757,0,1.4753,0.49219,1.4753,1.84509c0,1.35301,0,3.1356,0,4.79581
			c0.7383,0,1.41481,0,2.2136,0c0-1.5983,0-3.2585,0-4.79581c0-1.5379,0.9219-1.84509,1.5984-1.84509
			c0.6771,0,1.4759,0.36909,1.4759,1.84509c0,1.4754,0,3.25861,0,4.79581c0.7385,0,1.4141,0,2.2137,0c0-1.476,0-3.0743,0-5.3492
			C42.66684,197.81491,41.19084,196.89322,39.71554,196.89322z"/>
	</g>
	<path fill="#FFFFFF" d="M74.94744,190.31421v1.29091h5.16489l-0.062,13.95769h1.4142v-13.95769h5.6651l5.4023,13.95769h1.4149
		l5.5334-15.2486h-1.4134l-3.9969,11.18979c-0.1231,0.30792-0.1843,0.55411-0.3074,0.86142
		c-0.12299,0.3073-0.1841,0.55339-0.3072,0.86058c-0.1238,0.36862-0.185,0.55351-0.308,0.92271h-0.1231
		c-0.123-0.3692-0.18419-0.55409-0.308-0.92271c-0.1223-0.30719-0.1843-0.55328-0.3073-0.86058
		c-0.1224-0.3685-0.1842-0.5535-0.3073-0.86142l-3.9961-11.18979"/>
</g>
<g>
	<path fill="#FFFFFF" d="M30.00024,283.25992h1.0862l1.8259,5.39841c0.0662,0.20828,0.1394,0.43518,0.22271,0.6828
		c0.08179,0.24609,0.15649,0.47937,0.22269,0.69849c0.0761,0.26459,0.1585,0.52139,0.2467,0.77399h0.0329
		c0.07671-0.25259,0.1578-0.5094,0.246-0.77399c0.0768-0.21912,0.1544-0.45239,0.2312-0.69849
		c0.0761-0.24762,0.1529-0.47452,0.23051-0.6828l1.90839-5.39841h1.0379l-3.0779,8.50818h-1.20139L30.00024,283.25992z"/>
	<path fill="#FFFFFF" d="M38.19905,280.0014h1.01989v1.44901h-1.01989V280.0014z M38.19905,283.25992h1.01989v8.50818h-1.01989
		V283.25992z"/>
	<path fill="#FFFFFF" d="M44.17264,291.9986c-0.5705,0-1.0833-0.10959-1.5379-0.33008c-0.4559-0.21832-0.8393-0.5256-1.1523-0.92041
		c-0.313-0.39481-0.5549-0.86429-0.7248-1.40698c-0.1694-0.54343-0.2547-1.1445-0.2547-1.80252
		c0-0.70139,0.0932-1.33011,0.2803-1.88419c0.1856-0.5542,0.4446-1.02292,0.7732-1.4071
		c0.32861-0.38351,0.71561-0.67441,1.1601-0.8721c0.4439-0.19769,0.9191-0.2966,1.4241-0.2966c0.658,0,1.22,0.14301,1.6866,0.42749
		c0.4659,0.28589,0.83581,0.67441,1.1103,1.16861h0.0328v-4.67331h1.02071v11.76669h-1.02071v-1.26758h-0.0328
		c-0.3172,0.49438-0.6963,0.86789-1.1353,1.11969C45.36344,291.8728,44.82074,291.9986,44.17264,291.9986z M44.20605,291.14291
		c0.461,0,0.86929-0.08749,1.22559-0.26321c0.35641-0.17578,0.6552-0.4205,0.8971-0.7334
		c0.2411-0.31149,0.4225-0.69138,0.5434-1.13519c0.1202-0.44312,0.1813-0.92899,0.1813-1.45538
		c0-0.5271-0.0639-1.00873-0.1898-1.44901c-0.1259-0.4375-0.308-0.8194-0.5435-1.1431
		c-0.2354-0.32431-0.53209-0.5762-0.8885-0.75751c-0.3563-0.18091-0.76459-0.27191-1.22559-0.27191
		c-0.41751,0-0.78951,0.08832-1.11961,0.2634c-0.3293,0.1756-0.606,0.42599-0.8308,0.7489
		c-0.2248,0.32431-0.39759,0.70792-0.5192,1.1524c-0.1196,0.44461-0.18,0.92972-0.18,1.45682
		c0,0.49368,0.0547,0.95959,0.1642,1.39908c0.1103,0.43829,0.2747,0.81952,0.4938,1.1424
		c0.2197,0.3251,0.4944,0.5798,0.8229,0.76611C43.36674,291.04901,43.75654,291.14291,44.20605,291.14291z"/>
	<path fill="#FFFFFF" d="M53.12184,291.9816c-0.6359,0-1.2021-0.11169-1.6951-0.33728c-0.4944-0.2247-0.90769-0.53772-1.2433-0.9389
		c-0.3337-0.39902-0.5891-0.87061-0.7655-1.41342c-0.1736-0.5434-0.2625-1.13248-0.2625-1.76978
		c0-0.63589,0.0925-1.22549,0.2803-1.76901c0.1857-0.54358,0.4475-1.0144,0.7818-1.41479
		c0.3336-0.40118,0.7398-0.7128,1.2163-0.9397c0.478-0.224,1.0123-0.3364,1.60621-0.3364c0.68,0,1.25189,0.12869,1.72,0.38748
		c0.46449,0.2569,0.84429,0.60251,1.13449,1.0365c0.2909,0.43323,0.49651,0.92902,0.6168,1.4888
		c0.1209,0.55981,0.1814,1.13611,0.1814,1.72711h-6.4838c0.0114,0.48441,0.0796,0.93109,0.2057,1.3429
		c0.1258,0.40982,0.3071,0.77042,0.5427,1.077c0.2361,0.30731,0.5356,0.5498,0.8976,0.72488
		c0.3613,0.17572,0.7839,0.26251,1.2669,0.26251c0.7127,0,1.2641-0.17288,1.6539-0.51788
		c0.38831-0.34641,0.6664-0.80881,0.8321-1.39062h0.986c-0.1864,0.84442-0.5705,1.51941-1.1517,2.02362
		C54.86034,291.72971,54.08634,291.9816,53.12184,291.9816z M55.62284,286.89621c-0.0113-0.41611-0.07179-0.80789-0.1807-1.17651
		c-0.1103-0.36697-0.2688-0.685-0.4779-0.95389c-0.2077-0.26959-0.4709-0.4801-0.7903-0.63382
		c-0.3174-0.15347-0.6957-0.23038-1.13389-0.23038c-0.42821,0-0.80951,0.0769-1.14451,0.23038
		c-0.335,0.15372-0.6167,0.36423-0.8472,0.63382c-0.2312,0.26889-0.414,0.58411-0.5519,0.94681
		c-0.13739,0.36209-0.2277,0.7569-0.2718,1.18359H55.62284z"/>
	<path fill="#FFFFFF" d="M61.56805,291.9816c-0.61451,0-1.16721-0.11169-1.65451-0.33728
		c-0.4886-0.2247-0.9027-0.53772-1.2427-0.9389c-0.34-0.39902-0.6003-0.87061-0.7809-1.41342
		c-0.1815-0.5434-0.2711-1.13248-0.2711-1.76978c0-0.63589,0.0896-1.22549,0.2711-1.76901
		c0.1806-0.54358,0.4409-1.0144,0.7809-1.41479c0.34-0.40118,0.7541-0.7128,1.2427-0.9397c0.4873-0.224,1.04-0.3364,1.65451-0.3364
		c0.61319,0,1.16309,0.1124,1.64539,0.3364c0.4823,0.2269,0.8934,0.53851,1.2341,0.9397
		c0.34,0.40039,0.5982,0.87122,0.77251,1.41479c0.17629,0.54352,0.2646,1.13312,0.2646,1.76901
		c0,0.6373-0.0883,1.22638-0.2646,1.76978c-0.17431,0.54282-0.43251,1.0144-0.77251,1.41342
		c-0.3407,0.40118-0.7518,0.7142-1.2341,0.9389C62.73114,291.8699,62.18124,291.9816,61.56805,291.9816z M61.56805,291.12662
		c0.47089,0,0.88849-0.09399,1.24989-0.27963c0.3627-0.18707,0.6643-0.44458,0.9054-0.77386
		c0.2412-0.32941,0.4226-0.7135,0.5429-1.15161c0.1209-0.439,0.1813-0.90631,0.1813-1.39929
		c0-0.49359-0.0604-0.96021-0.1813-1.39923c-0.1203-0.43808-0.3017-0.82227-0.5429-1.15149
		c-0.2411-0.33008-0.5427-0.58688-0.9054-0.7739c-0.3614-0.1857-0.779-0.2789-1.24989-0.2789
		c-0.48361,0-0.90271,0.0932-1.259,0.2789c-0.35641,0.18701-0.658,0.44382-0.90551,0.7739
		c-0.2468,0.32922-0.4303,0.71341-0.5513,1.15149c-0.1209,0.43903-0.1814,0.90564-0.1814,1.39923
		c0,0.49298,0.0605,0.9603,0.1814,1.39929c0.121,0.43811,0.3045,0.8222,0.5513,1.15161
		c0.24751,0.32928,0.5491,0.58679,0.90551,0.77386C60.66534,291.03262,61.08444,291.12662,61.56805,291.12662z"/>
	<path fill="#FFFFFF" d="M69.74763,291.9986c-0.572,0-1.0712-0.07458-1.4995-0.2226c-0.4276-0.14801-0.7859-0.3472-1.0762-0.5997
		c-0.29169-0.25259-0.51649-0.55478-0.6758-0.90558c-0.1593-0.35062-0.2489-0.73541-0.2718-1.15231h1.03729
		c0.07671,0.72491,0.34,1.2399,0.78951,1.54651c0.4494,0.30728,1.0207,0.4617,1.7121,0.4617
		c0.71281,0,1.24981-0.1517,1.6126-0.45331c0.3606-0.30081,0.5427-0.69849,0.5427-1.19199c0-0.2312-0.037-0.42902-0.1067-0.59412
		c-0.0711-0.1636-0.19479-0.30951-0.3712-0.43451c-0.17509-0.12671-0.4077-0.237-0.69859-0.3302
		c-0.29021-0.09238-0.65441-0.18839-1.09471-0.28799c-0.4276-0.09821-0.8301-0.2056-1.2092-0.32001
		c-0.3779-0.1153-0.7079-0.26108-0.9874-0.43619c-0.2788-0.1756-0.5014-0.39758-0.6665-0.6665
		c-0.1643-0.2688-0.2461-0.6124-0.2461-1.02921c0-0.35059,0.0712-0.66861,0.2127-0.95459
		c0.1437-0.28461,0.3464-0.5264,0.6103-0.72339c0.2624-0.19852,0.5755-0.35211,0.9382-0.46021
		c0.3606-0.11029,0.7618-0.1658,1.2-0.1658c0.5044,0,0.94471,0.0611,1.31671,0.1813c0.37339,0.1217,0.68919,0.29388,0.94669,0.51859
		c0.2568,0.22412,0.4574,0.49011,0.6004,0.7988c0.1431,0.3067,0.24191,0.6467,0.2966,1.02011h-1.0208
		c-0.0554-0.56061-0.266-0.97949-0.6322-1.259c-0.3699-0.2796-0.8721-0.41971-1.5074-0.41971
		c-0.65729,0-1.1467,0.13712-1.4646,0.41101c-0.3173,0.2746-0.4766,0.60818-0.4766,1.00449c0,0.24042,0.0483,0.44171,0.1473,0.60031
		c0.0995,0.15939,0.2504,0.29599,0.453,0.41199c0.2021,0.1138,0.4574,0.21262,0.7647,0.2951
		c0.3081,0.08322,0.6644,0.17361,1.06991,0.2717c0.42819,0.0882,0.823,0.1893,1.18429,0.30521
		c0.3636,0.11441,0.6722,0.26541,0.9318,0.4516c0.2562,0.1871,0.4595,0.42252,0.6083,0.70789
		c0.1479,0.28522,0.2212,0.64731,0.2212,1.08542c0,0.7583-0.2853,1.36929-0.8557,1.836
		C71.51244,291.76599,70.73274,291.9986,69.74763,291.9986z"/>
</g>
<g>
	<path fill="#FFFFFF" d="M34.13164,248.35551c-1.2775,0-2.2678-0.2774-2.9734-0.83301c-0.7056-0.5549-1.09119-1.2818-1.158-2.1817
		h2.033c0.0882,0.53291,0.3215,0.91911,0.6985,1.15741c0.3784,0.2397,0.8507,0.35849,1.4169,0.35849
		c0.5876,0,1.0215-0.1138,1.2989-0.34149c0.27751-0.2276,0.4169-0.51921,0.4169-0.87421c0-0.22189-0.0569-0.40259-0.16639-0.5412
		c-0.11241-0.13939-0.26761-0.25549-0.46681-0.34929c-0.2006-0.09541-0.4409-0.17361-0.7241-0.2341
		c-0.2844-0.06042-0.5974-0.12511-0.9418-0.19211c-0.4225-0.07671-0.8279-0.17131-1.21629-0.2823
		c-0.38841-0.1116-0.73271-0.2639-1.03291-0.45889c-0.2987-0.19341-0.5406-0.4494-0.72409-0.7653
		c-0.18361-0.3165-0.27451-0.72481-0.27451-1.2242c0-0.42329,0.0853-0.79662,0.25751-1.1245
		c0.17209-0.32791,0.41109-0.60541,0.717-0.8338c0.30439-0.22681,0.67429-0.39891,1.10679-0.5157
		c0.4339-0.11661,0.9105-0.1749,1.4327-0.1749c1.1892,0,2.08551,0.24179,2.6901,0.72479c0.6061,0.483,0.9632,1.1132,1.0741,1.89
		h-2.0145c-0.1564-0.7874-0.7453-1.18221-1.7654-1.18221c-0.50079,0-0.875,0.0995-1.1253,0.29941
		c-0.249,0.19991-0.3742,0.4552-0.3742,0.7668c0,0.1992,0.0555,0.3607,0.1664,0.483c0.111,0.1217,0.266,0.22479,0.4667,0.308
		c0.1991,0.08321,0.4382,0.1523,0.7155,0.2077c0.2775,0.0562,0.5833,0.1174,0.9163,0.1835
		c0.4224,0.07759,0.8336,0.16939,1.2333,0.27528c0.3998,0.10532,0.757,0.26111,1.0741,0.466
		c0.3159,0.20631,0.5692,0.4772,0.7583,0.8166c0.1879,0.33861,0.2832,0.7796,0.2832,1.32451c0,0.46588-0.0953,0.877-0.2832,1.23189
		c-0.1891,0.355-0.4538,0.65231-0.7923,0.8914c-0.3387,0.2382-0.7413,0.4189-1.2079,0.5412
		C35.18154,248.29431,34.67514,248.35551,34.13164,248.35551z"/>
	<path fill="#FFFFFF" d="M41.18644,239.63531c-0.007,0.29449-0.0156,0.5705-0.0255,0.8251h0.0497
		c0.3002-0.4772,0.67441-0.85001,1.124-1.11601c0.4495-0.26599,0.9915-0.39969,1.6246-0.39969
		c0.9659,0,1.7185,0.27449,2.2564,0.8244c0.5391,0.54979,0.808,1.30739,0.808,2.27409v6.02989h-2.1155v-5.68059
		c0-0.5321-0.1465-0.94901-0.441-1.24921c-0.2945-0.30009-0.71409-0.44949-1.2576-0.44949c-0.3001,0-0.5719,0.0526-0.8166,0.1579
		c-0.2447,0.10529-0.4552,0.2561-0.6331,0.4502c-0.1764,0.1935-0.31579,0.424-0.4154,0.6908
		c-0.101,0.2668-0.1508,0.55481-0.1508,0.86641v5.21399h-2.1155v-12.3927h2.1155v3.3311
		C41.19364,239.13321,41.19084,239.34151,41.18644,239.63531z"/>
	<path fill="#FFFFFF" d="M48.52314,235.6804h2.1653v2.04791h-2.1653V235.6804z M48.55584,239.17799h2.1155v8.89511h-2.1155
		V239.17799z"/>
	<path fill="#FFFFFF" d="M51.70414,239.17799h1.3657v-0.98308c0-0.877,0.2277-1.5208,0.6829-1.93201
		c0.2547-0.2218,0.5805-0.3833,0.9745-0.4836c0.3941-0.09891,0.8465-0.1445,1.3572-0.133c0.3002,0,0.616,0.01709,0.9504,0.04968
		v1.58211c-0.3557-0.00999-0.6502-0.0072-0.8835,0.0092c-0.23329,0.017-0.4224,0.0612-0.5662,0.1337
		c-0.14509,0.07181-0.2475,0.17999-0.3073,0.32431c-0.0625,0.1452-0.0924,0.33868-0.0924,0.58339v0.84929h1.8323v1.46613h-1.8323
		v7.42899h-2.1156v-7.42899h-1.3657V239.17799z"/>
	<path fill="#FFFFFF" d="M57.53424,239.17799h1.3657v-2.83188h2.0828v2.83188h1.7811v1.44962h-1.7811v4.97939
		c0,0.32211,0.0825,0.54201,0.2488,0.65791c0.16651,0.1174,0.3999,0.175,0.7,0.175c0.1109,0,0.23051-0.00571,0.3586-0.0164
		c0.1266-0.0107,0.2346-0.0271,0.3243-0.04979h0.0995v1.6489c-0.1777,0.0327-0.3826,0.0641-0.61589,0.091
		c-0.23331,0.0278-0.49361,0.0428-0.78241,0.0428c-0.3557,0-0.6829-0.03711-0.9831-0.1089
		c-0.3002-0.0719-0.5563-0.18852-0.7668-0.35001c-0.2105-0.16-0.3742-0.37489-0.4908-0.6409
		c-0.1167-0.26669-0.175-0.59399-0.175-0.9823v-5.4467h-1.3657V239.17799z"/>
	<path fill="#FFFFFF" d="M68.94374,236.16261h1.0827l-4.73038,11.91049h-1.08251L68.94374,236.16261z"/>
	<path fill="#FFFFFF" d="M70.24264,239.46031h1.0329v1.29968h0.0342c0.2759-0.43259,0.62731-0.78738,1.04831-1.06628
		c0.42259-0.2767,0.94329-0.41609,1.56609-0.41609c0.5336,0,1.0058,0.13089,1.4155,0.39189
		c0.4112,0.2603,0.7057,0.6523,0.8835,1.17371h0.0327c0.2888-0.4993,0.6687-0.8856,1.1409-1.15671
		c0.4724-0.2724,1.013-0.40889,1.62331-0.40889c0.36848,0,0.70988,0.0591,1.02579,0.1749
		c0.3157,0.11749,0.5918,0.2896,0.8237,0.5164c0.2332,0.22699,0.4168,0.50789,0.5491,0.84079
		c0.1338,0.3336,0.2006,0.7171,0.2006,1.1496v6.1138h-1.0157v-6.02989c0-0.64439-0.1694-1.1189-0.5079-1.4241
		c-0.3401-0.3058-0.77541-0.45811-1.3074-0.45811c-0.3215,0-0.6218,0.05612-0.9006,0.16641
		c-0.276,0.11031-0.525,0.269-0.73981,0.4745c-0.2176,0.2056-0.38689,0.4617-0.50929,0.76608
		c-0.12241,0.30522-0.18211,0.64732-0.18211,1.02512v5.48h-1.03419v-6.02989c0-0.64439-0.1636-1.1189-0.4894-1.4241
		c-0.3287-0.3058-0.7413-0.45811-1.2421-0.45811c-0.3111,0-0.60989,0.06052-0.89869,0.18292
		c-0.2887,0.1223-0.54761,0.29089-0.77531,0.5078c-0.2276,0.2169-0.4069,0.4745-0.5406,0.7746
		c-0.1337,0.3002-0.2006,0.6225-0.2006,0.9668v5.48h-1.0329V239.46031z"/>
	<path fill="#FFFFFF" d="M86.31684,248.30562c-0.57761,0-1.0826-0.0753-1.51521-0.2247
		c-0.4339-0.1501-0.79659-0.3528-1.09109-0.6082c-0.29449-0.25461-0.52361-0.56041-0.6828-0.91541
		c-0.1608-0.3557-0.2533-0.74409-0.2761-1.1666h1.05c0.0782,0.73259,0.3442,1.2547,0.79942,1.56628
		c0.45528,0.31081,1.03289,0.46671,1.73289,0.46671c0.7213,0,1.2648-0.153,1.63311-0.4588
		c0.36569-0.30519,0.54769-0.7079,0.54769-1.2079c0-0.23329-0.0354-0.43239-0.10661-0.59889
		c-0.074-0.1665-0.1978-0.3138-0.3756-0.4418c-0.1779-0.1273-0.414-0.239-0.707-0.3329c-0.29449-0.0945-0.6644-0.1913-1.1098-0.2923
		c-0.4324-0.09959-0.83929-0.2077-1.2234-0.3244c-0.38271-0.116-0.717-0.2639-0.9987-0.44099
		c-0.2831-0.1779-0.5094-0.4026-0.6743-0.675c-0.1665-0.2718-0.2518-0.6189-0.2518-1.0414c0-0.3557,0.07391-0.6772,0.21761-0.96519
		c0.1452-0.28961,0.3485-0.5343,0.61739-0.73271c0.26611-0.20059,0.582-0.35579,0.94752-0.46669
		c0.36709-0.1109,0.77248-0.1671,1.21638-0.1671c0.5121,0,0.9561,0.06119,1.333,0.18269
		c0.377,0.12309,0.6971,0.29739,0.9575,0.52499c0.2618,0.2283,0.4637,0.498,0.60889,0.80811
		c0.1436,0.31158,0.24321,0.65581,0.3001,1.03349h-1.0328c-0.057-0.56691-0.2689-0.99149-0.6417-1.2746
		c-0.3741-0.2838-0.8806-0.4247-1.525-0.4247c-0.6658,0-1.1595,0.1386-1.48239,0.4162c-0.32151,0.2774-0.4837,0.61661-0.4837,1.0157
		c0,0.24471,0.0513,0.4482,0.15079,0.6082c0.101,0.1615,0.2532,0.29941,0.4581,0.4162c0.2063,0.1165,0.46381,0.21761,0.7739,0.3009
		c0.3115,0.0824,0.67291,0.1749,1.0841,0.2744c0.4324,0.0889,0.8322,0.1906,1.1992,0.30811c0.3671,0.1158,0.68,0.2688,0.9418,0.4581
		c0.2603,0.1891,0.4653,0.4274,0.6161,0.71559c0.1493,0.28951,0.2233,0.6557,0.2233,1.0997c0,0.76601-0.2874,1.3856-0.8649,1.858
		C88.10505,248.06961,87.31705,248.30562,86.31684,248.30562z"/>
	<path fill="#FFFFFF" d="M90.81384,239.46031h1.0315v1.3174h0.0341c0.2887-0.43379,0.6701-0.7924,1.1424-1.07539
		c0.4709-0.2825,1.0498-0.4247,1.7398-0.4247c0.7995,0,1.4568,0.23119,1.9747,0.6913c0.515,0.461,0.7739,1.12469,0.7739,1.99039
		v6.1138h-1.0314v-6.01419c0-0.6545-0.1765-1.1346-0.5265-1.4398c-0.3498-0.3058-0.8307-0.45811-1.441-0.45811
		c-0.3656,0-0.71,0.06052-1.0315,0.18292c-0.3215,0.1223-0.6074,0.29089-0.8507,0.5078c-0.24329,0.2169-0.4353,0.4745-0.5747,0.7746
		c-0.1381,0.3002-0.2091,0.6274-0.2091,0.98241v5.46439h-1.0315V239.46031z"/>
	<path fill="#FFFFFF" d="M103.08984,248.30562c-0.66579,0-1.2249-0.12721-1.673-0.38261
		c-0.451-0.25539-0.8423-0.63869-1.1751-1.15019h-0.0328v1.30029h-1.0342v-11.91049h1.0342v4.7809h0.0328
		c0.3001-0.50011,0.6886-0.9012,1.1666-1.20711c0.47649-0.30589,1.05849-0.45879,1.7484-0.45879
		c0.50931,0,0.9844,0.09949,1.424,0.30009c0.4382,0.19991,0.8138,0.4944,1.1239,0.88271
		c0.3115,0.3884,0.5548,0.86369,0.7327,1.42409c0.1793,0.5612,0.2674,1.19649,0.2674,1.9079c0,0.66501-0.0824,1.2733-0.24889,1.8231
		c-0.1679,0.5491-0.40401,1.02501-0.7085,1.4247c-0.3059,0.3998-0.68429,0.7113-1.1338,0.93179
		C104.16394,248.19472,103.65605,248.30562,103.08984,248.30562z M103.04153,247.44c0.4438,0,0.828-0.09389,1.15652-0.28389
		c0.32719-0.18851,0.599-0.44591,0.81519-0.7738c0.2176-0.328,0.3784-0.7142,0.4837-1.1588
		c0.1067-0.4431,0.1579-0.91479,0.1579-1.41479c0-0.53351-0.0554-1.02501-0.1664-1.47391
		c-0.1109-0.4503-0.27739-0.8394-0.49939-1.16719c-0.22182-0.3273-0.49792-0.57991-0.82511-0.75691
		c-0.3273-0.17709-0.707-0.2668-1.14089-0.2668c-0.47811,0-0.89641,0.0946-1.25771,0.2825
		c-0.35989,0.1898-0.66299,0.45021-0.9076,0.7838c-0.24329,0.3336-0.4283,0.72131-0.54919,1.1651
		c-0.1223,0.4447-0.18349,0.9227-0.18349,1.43341c0,0.53279,0.0612,1.02499,0.18349,1.47389
		c0.1209,0.44951,0.3059,0.8322,0.54919,1.1488c0.24461,0.31709,0.55061,0.564,0.91621,0.7412
		C102.14094,247.3511,102.56344,247.44,103.04153,247.44z"/>
	<path fill="#FFFFFF" d="M111.46783,248.2886c-0.6317,0-1.19079-0.1138-1.6745-0.3407
		c-0.4822-0.22769-0.8891-0.54491-1.2221-0.95039c-0.33419-0.40471-0.586-0.88271-0.7597-1.43111
		c-0.1721-0.5506-0.2574-1.1474-0.2574-1.79041c0-0.64449,0.0882-1.242,0.2661-1.79118
		c0.1777-0.54982,0.43382-1.02782,0.7667-1.43251c0.3329-0.4055,0.744-0.722,1.232-0.95039
		c0.4894-0.22691,1.0443-0.3407,1.6659-0.3407c0.9547,0,1.73569,0.24469,2.34029,0.73259
		c0.606,0.4895,0.9801,1.17651,1.12392,2.06511h-1.03141c-0.12241-0.64301-0.3912-1.1268-0.8095-1.4483
		c-0.41541-0.3215-0.956-0.483-1.6233-0.483c-0.49921,0-0.9304,0.0968-1.29031,0.2916
		c-0.3613,0.19421-0.6586,0.45531-0.89059,0.7825c-0.2348,0.328-0.40689,0.7142-0.5178,1.15811
		c-0.111,0.44379-0.1664,0.91539-0.1664,1.41618c0,0.49931,0.0582,0.96811,0.175,1.407c0.118,0.43811,0.2916,0.82451,0.5249,1.15662
		c0.2333,0.3336,0.5263,0.5947,0.88341,0.78389c0.35429,0.18849,0.77679,0.28241,1.26479,0.28241
		c0.7326,0,1.3188-0.20781,1.7584-0.62392c0.43961-0.41678,0.70281-0.97379,0.791-1.67448h0.983
		c-0.101,0.9774-0.4553,1.75279-1.0669,2.3239C113.32294,248.00342,112.50074,248.2886,111.46783,248.2886z"/>
</g>
</svg>
