<?xml version="1.0" encoding="UTF-8" standalone="no"?>
<!-- Generator: Adobe Illustrator 18.0.0, SVG Export Plug-In . SVG Version: 6.00 Build 0)  -->

<svg
   xmlns:dc="http://purl.org/dc/elements/1.1/"
   xmlns:cc="http://creativecommons.org/ns#"
   xmlns:rdf="http://www.w3.org/1999/02/22-rdf-syntax-ns#"
   xmlns:svg="http://www.w3.org/2000/svg"
   xmlns="http://www.w3.org/2000/svg"
   xmlns:sodipodi="http://sodipodi.sourceforge.net/DTD/sodipodi-0.dtd"
   xmlns:inkscape="http://www.inkscape.org/namespaces/inkscape"
   version="1.1"
   id="Layer_1"
   x="0px"
   y="0px"
   width="57"
   height="29"
   viewBox="0 0 57 29"
   enable-background="new 0 0 798.9 401.8"
   xml:space="preserve"
   inkscape:version="0.48.4 r9939"
   sodipodi:docname="icon_key.svg"><metadata
     id="metadata11"><rdf:RDF><cc:Work
         rdf:about=""><dc:format>image/svg+xml</dc:format><dc:type
           rdf:resource="http://purl.org/dc/dcmitype/StillImage" /></cc:Work></rdf:RDF></metadata><defs
     id="defs9" /><sodipodi:namedview
     pagecolor="#ffffff"
     bordercolor="#666666"
     borderopacity="1"
     objecttolerance="10"
     gridtolerance="10"
     guidetolerance="10"
     inkscape:pageopacity="0"
     inkscape:pageshadow="2"
     inkscape:window-width="640"
     inkscape:window-height="480"
     id="namedview7"
     showgrid="false"
     inkscape:zoom="4.1351895"
     inkscape:cx="42.393506"
     inkscape:cy="36.759648"
     inkscape:window-x="739"
     inkscape:window-y="381"
     inkscape:window-maximized="0"
     inkscape:current-layer="Layer_1" /><g
     id="g3"
     transform="matrix(0.07149152,0,0,0.07149152,-1.7416622e-6,0.18184542)"><path
       d="m 796.4,209.9 -78.9,78.9 c -1.8,1.8 -5.4,3.6 -7.2,3.6 -3.6,0 -5.4,-1.8 -9,-3.6 l -39.5,-39.5 -39.5,39.5 c -1.8,1.8 -5.4,3.6 -7.2,3.6 -3.6,0 -5.4,-1.8 -7.2,-3.6 l -39.5,-39.5 -39.5,39.5 c -1.8,1.8 -1.8,1.8 -3.6,1.8 l 0,0 c -1.8,0 -3.6,0 -3.6,0 h -136 c -9,17.9 -21.5,35.9 -37.7,52 -19.7,19.7 -41.3,34.1 -66.4,44.8 -25.1,10.8 -50.2,14.3 -75.3,14.3 -25.1,0 -50.2,-5.4 -75.3,-14.3 C 105.9,376.6 84.4,362.3 64.6,342.6 44.9,322.9 30.5,301.3 19.8,276.2 9.1,251.1 0,227.8 0,202.7 0,175.8 5.4,150.7 14.3,125.6 25.1,100.5 39.4,79 59.1,59.2 78.8,39.4 100.4,25.1 125.5,14.4 150.6,3.7 175.8,0 202.7,0 c 25.1,0 50.2,5.4 75.3,14.3 25.1,10.8 46.6,25.1 66.4,44.8 16.1,16.1 28.7,32.3 37.7,52 h 326.5 c 1.8,0 1.8,0 3.6,0 1.8,0 3.6,1.8 3.6,1.8 l 78.9,78.9 c 1.8,1.8 3.6,5.4 3.6,7.2 1.7,5.5 -0.1,9.1 -1.9,10.9 z m -87.9,55.6 62.8,-62.8 -68.2,-68.2 H 376.7 c -3.6,0 -7.2,0 -9,-3.6 -1.8,-1.8 -1.8,-1.8 -1.8,-3.6 l 0,0 C 356.9,107.6 344.4,91.4 330,75.3 304.9,52 278,35.8 247.5,28.7 c -30.5,-9 -61,-9 -91.5,0 C 125.6,35.9 98.7,52 75.3,75.3 51.9,98.6 35.8,125.5 28.7,156 c -9,30.5 -9,61 0,91.5 9,30.5 23.3,57.4 46.6,80.7 23.3,23.3 50.2,37.7 80.7,46.6 30.5,9 61,9 91.5,0 30.5,-9 57.4,-23.3 80.7,-46.6 14.3,-14.3 26.9,-32.3 35.9,-52 l 0,0 c 0,-1.8 1.8,-3.6 1.8,-3.6 1.8,-1.8 5.4,-3.6 9,-3.6 l 0,0 H 513 l 44.8,-44.8 c 1.8,-1.8 5.4,-3.6 7.2,-3.6 3.6,0 5.4,1.8 7.2,3.6 l 39.5,39.5 39.5,-39.5 c 1.8,-1.8 5.4,-3.6 7.2,-3.6 3.6,0 5.4,1.8 7.2,3.6 l 42.9,41.3 z M 71.7,202.7 c 0,-17.9 7.2,-34.1 19.7,-48.4 12.6,-12.6 28.7,-19.7 48.4,-19.7 17.9,0 34.1,7.2 48.4,19.7 12.6,12.6 19.7,28.7 19.7,46.6 0,17.9 -7.2,34.1 -19.7,46.6 C 172.1,261.8 157.7,269 138,269 120.1,269 103.9,261.8 91.4,249.3 77.1,236.8 71.7,220.6 71.7,202.7 z m 66.4,44.8 c 12.6,0 23.3,-3.6 32.3,-12.6 9,-9 12.6,-19.7 12.6,-32.3 0,-12.6 -3.6,-23.3 -12.6,-32.3 -9,-9 -19.7,-12.6 -32.3,-12.6 -12.6,0 -23.3,3.6 -30.5,12.6 -9,9 -12.6,19.7 -12.6,32.3 0,12.6 3.6,21.5 12.6,30.5 7.2,9.1 18,14.4 30.5,14.4 z"
       id="path5"
       inkscape:connector-curvature="0"
       style="fill:#ffffff" /></g></svg>
