<?xml version="1.0" encoding="utf-8"?>
<!-- Generator: Adobe Illustrator 16.0.0, SVG Export Plug-In . SVG Version: 6.00 Build 0)  -->
<!DOCTYPE svg PUBLIC "-//W3C//DTD SVG 1.1//EN" "http://www.w3.org/Graphics/SVG/1.1/DTD/svg11.dtd">
<svg version="1.1" id="Layer_1" xmlns="http://www.w3.org/2000/svg" xmlns:xlink="http://www.w3.org/1999/xlink" x="0px" y="0px"
	 width="21" height="20" viewBox="0 0 21 20" enable-background="new 0 0 21 20" xml:space="preserve">
<g>
	<path fill="#FFFFFF" d="M17.926,2.53C19.975,4.218,21,6.263,21,8.665c0,2.405-1.025,4.45-3.074,6.135
		c-2.051,1.688-4.525,2.531-7.426,2.531c-0.567,0-1.159-0.041-1.774-0.123c-1.832,1.861-3.719,2.791-5.663,2.791
		c-0.195,0-0.332-0.091-0.414-0.271c-0.065-0.197-0.033-0.362,0.098-0.494c0.097-0.1,0.223-0.246,0.376-0.443
		s0.372-0.602,0.657-1.211c0.283-0.607,0.465-1.242,0.547-1.9c-1.346-0.807-2.402-1.822-3.172-3.049
		c-0.771-1.228-1.155-2.547-1.155-3.963c0-2.402,1.024-4.447,3.075-6.136c2.05-1.688,4.523-2.53,7.425-2.53
		C13.4-0.001,15.875,0.843,17.926,2.53z"/>
</g>
</svg>
