<?xml version="1.0" encoding="utf-8"?>
<!-- Generated by IcoMoon.io -->
<!DOCTYPE svg PUBLIC "-//W3C//DTD SVG 1.1//EN" "http://www.w3.org/Graphics/SVG/1.1/DTD/svg11.dtd">

<svg version="1.1" xmlns="http://www.w3.org/2000/svg" xmlns:xlink="http://www.w3.org/1999/xlink" width="22" height="80" viewBox="0 0 22 80">
<defs>
<g id="icon-untitled">
	<path class="path1" d="M21.424 11.879q0.17 0 0.282 0.117t0.112 0.277-0.112 0.272-0.282 0.112h-21.030q-0.17 0-0.282-0.112t-0.112-0.272 0.112-0.277 0.282-0.117h21.030z"></path>
</g>
<g id="icon-untitled2">
	<path class="path1" d="M10.909 1.364q2.227 0 4.245 0.863t3.478 2.322 2.322 3.478 0.863 4.245q0 2.216-0.863 4.235t-2.322 3.484-3.484 2.328-4.24 0.863-4.24-0.863-3.484-2.328-2.322-3.484-0.863-4.235q0-2.227 0.863-4.245t2.322-3.478 3.478-2.322 4.245-0.863zM10.909 22.404q2.056 0 3.936-0.804t3.233-2.157 2.157-3.233 0.804-3.936-0.804-3.936-2.157-3.233-3.233-2.157-3.936-0.804-3.936 0.804-3.233 2.157-2.157 3.233-0.804 3.936 0.804 3.936 2.157 3.233 3.233 2.157 3.936 0.804zM10.824 9.609q-0.479 0-0.826-0.346t-0.346-0.847 0.346-0.852 0.826-0.352 0.826 0.357 0.346 0.847-0.346 0.842-0.826 0.352zM11.953 16.065q0 0.373 0.218 0.549t0.687 0.25v0.469h-3.75v-0.469q0.49-0.043 0.698-0.181t0.208-0.533v-3.814q0-0.788-1.055-0.916v-0.479l2.908-0.17 0.085 0.096v5.199z"></path>
</g>
</defs>

<g fill="#ffffff">
	<use xlink:href="#icon-untitled" transform="translate(0 0)"></use>
	<use xlink:href="#icon-untitled2" transform="translate(0 50)"></use>
</g>

</svg>
