<?xml version="1.0" encoding="utf-8"?>
<!-- Generator: Adobe Illustrator 18.1.0, SVG Export Plug-In . SVG Version: 6.00 Build 0)  -->
<!DOCTYPE svg PUBLIC "-//W3C//DTD SVG 1.1//EN" "http://www.w3.org/Graphics/SVG/1.1/DTD/svg11.dtd">
<svg version="1.1" id="Layer_1" xmlns="http://www.w3.org/2000/svg" xmlns:xlink="http://www.w3.org/1999/xlink" x="0px" y="0px"
	 width="70px" height="130px" viewBox="-144 -2 70 130" enable-background="new -144 -2 70 130" xml:space="preserve">
<g>
	<path fill="#FFFFFF" d="M-118.8,8c0.2,0,0.4,0.1,0.5,0.2c0.1,0.1,0.3,0.3,0.3,0.6v14.6c0,0.2-0.1,0.4-0.2,0.5
		c-0.1,0.2-0.3,0.3-0.5,0.3h-15.4c-0.2,0-0.4-0.1-0.5-0.2c-0.3-0.2-0.4-0.3-0.4-0.5V8.8c0-0.2,0.1-0.4,0.2-0.5
		c0.2-0.1,0.3-0.2,0.6-0.2h5.3c0.1,0,0.2,0,0.3,0.1c0,0.1,0,0.2,0,0.3s0,0.2-0.1,0.3c-0.1,0-0.2,0-0.3,0h-5.1v14.6h15.4V8.8h-5.3
		c-0.1,0-0.2,0-0.3-0.1c0,0,0-0.1,0-0.2c0-0.1,0-0.2,0.1-0.3c0-0.1,0.1-0.1,0.2-0.1L-118.8,8L-118.8,8z M-129.7,5.6
		c-0.1,0-0.2,0-0.3-0.1s-0.1-0.2-0.1-0.3c0-0.1,0-0.2,0.1-0.3l3.2-3.2c0.1-0.2,0.2-0.2,0.4-0.2s0.2,0,0.2,0.1l3.2,3.3
		c0.1,0.1,0.1,0.2,0.1,0.3c0,0.1,0,0.2-0.1,0.3s-0.1,0.1-0.2,0.1s-0.2,0-0.3-0.1l-2.5-2.6v12.8c0,0.1,0,0.2-0.1,0.3
		c-0.1,0.1-0.2,0.1-0.3,0.1s-0.2,0-0.3-0.1s-0.1-0.2-0.1-0.3V2.9l-2.6,2.5C-129.5,5.5-129.6,5.6-129.7,5.6z"/>
</g>
<g>
	<path fill="#FFFFFF" d="M-119.5,53.9l-7-5.1l-7,5.1V34.2h14V53.9z M-126.5,47.6l6,4.5V35.2h-12V52L-126.5,47.6z"/>
</g>
<polygon fill="#FFFFFF" points="-119.9,93.9 -119,94.8 -125.5,101.4 -119,108 -120,108.9 -126.5,102.4 -133.1,108.9 -134,108 
	-127.5,101.4 -134,94.9 -133.1,93.9 -126.5,100.5 "/>
<g>
	<path fill="#FFFFFF" d="M-126.1,61.7l8.9,8.9c0.2,0.2,0.2,0.6,0,0.8c-0.2,0.2-0.6,0.2-0.8,0l-8-7.9v19.4c0,0.2-0.1,0.3-0.2,0.4
		c-0.2,0.2-0.6,0.2-0.8,0c-0.1-0.1-0.2-0.3-0.2-0.4V63.5l-7.8,7.8c-0.2,0.2-0.6,0.2-0.8,0s-0.2-0.6,0-0.8l8.8-8.8
		C-126.7,61.4-126.4,61.4-126.1,61.7z"/>
</g>
<g>
	<path fill="#999999" d="M-84.5,53.9l-7-5.1l-7,5.1V34.2h14V53.9z"/>
</g>
<g>
	<path fill="#0066CC" d="M-91.1,61.7l8.9,8.9c0.2,0.2,0.2,0.6,0,0.8c-0.2,0.2-0.6,0.2-0.8,0l-8-7.9v19.4c0,0.2-0.1,0.3-0.2,0.4
		c-0.2,0.2-0.6,0.2-0.8,0c-0.1-0.1-0.2-0.3-0.2-0.4V63.5l-7.8,7.8c-0.2,0.2-0.6,0.2-0.8,0c-0.2-0.2-0.2-0.6,0-0.8l8.8-8.8
		C-91.7,61.4-91.4,61.4-91.1,61.7z"/>
</g>
</svg>
