<?xml version="1.0" encoding="utf-8"?>
<!-- Generator: Adobe Illustrator 18.1.0, SVG Export Plug-In . SVG Version: 6.00 Build 0)  -->
<!DOCTYPE svg PUBLIC "-//W3C//DTD SVG 1.1//EN" "http://www.w3.org/Graphics/SVG/1.1/DTD/svg11.dtd">
<svg version="1.1" id="Layer_1" xmlns="http://www.w3.org/2000/svg" xmlns:xlink="http://www.w3.org/1999/xlink" x="0px" y="0px"
	 width="72px" height="310.7px" viewBox="-413 73 72 310.7" enable-background="new -413 73 72 310.7" xml:space="preserve">
<g id="icon-icon_key" class="icon-key">
	<path fill="#666666" d="M-355.8,88.2l-5.7,5.7c-0.1,0.1-0.4,0.3-0.5,0.3c-0.3,0-0.4-0.1-0.6-0.3l-2.8-2.8l-2.8,2.8
		c-0.1,0.1-0.4,0.3-0.5,0.3c-0.3,0-0.4-0.1-0.5-0.3l-2.8-2.8l-2.8,2.8c-0.1,0.1-0.1,0.1-0.3,0.1l0,0c-0.1,0-0.3,0-0.3,0h-9.8
		c-0.6,1.3-1.5,2.6-2.7,3.7c-1.4,1.4-3,2.4-4.8,3.2s-3.6,1-5.4,1c-1.8,0-3.6-0.4-5.4-1c-1.8-0.8-3.4-1.8-4.8-3.2s-2.4-3-3.2-4.8
		c-0.8-1.8-1.4-3.5-1.4-5.3c0-1.9,0.4-3.7,1-5.5c0.8-1.8,1.8-3.4,3.2-4.8s3-2.4,4.8-3.2c1.8-0.8,3.6-1,5.5-1c1.8,0,3.6,0.4,5.4,1
		c1.8,0.8,3.4,1.8,4.8,3.2c1.2,1.2,2.1,2.3,2.7,3.7h23.5c0.1,0,0.1,0,0.3,0s0.3,0.1,0.3,0.1l5.7,5.7c0.1,0.1,0.3,0.4,0.3,0.5
		C-355.5,87.8-355.7,88-355.8,88.2L-355.8,88.2z M-362.1,92.2l4.5-4.5l-4.9-4.9H-386c-0.3,0-0.5,0-0.6-0.3c-0.1-0.1-0.1-0.1-0.1-0.3
		l0,0c-0.6-1.4-1.5-2.6-2.6-3.7c-1.8-1.7-3.7-2.8-5.9-3.4c-2.2-0.6-4.4-0.6-6.6,0c-2.2,0.5-4.1,1.7-5.8,3.4
		c-1.7,1.7-2.8,3.6-3.4,5.8c-0.6,2.2-0.6,4.4,0,6.6c0.6,2.2,1.7,4.1,3.4,5.8c1.7,1.7,3.6,2.7,5.8,3.4c2.2,0.6,4.4,0.6,6.6,0
		c2.2-0.6,4.1-1.7,5.8-3.4c1-1,1.9-2.3,2.6-3.7l0,0c0-0.1,0.1-0.3,0.1-0.3c0.1-0.1,0.4-0.3,0.6-0.3l0,0h9.9l3.2-3.2
		c0.1-0.1,0.4-0.3,0.5-0.3c0.3,0,0.4,0.1,0.5,0.3l2.8,2.8l2.8-2.8c0.1-0.1,0.4-0.3,0.5-0.3c0.3,0,0.4,0.1,0.5,0.3L-362.1,92.2
		L-362.1,92.2z M-407.9,87.6c0-1.3,0.5-2.4,1.4-3.5c0.9-0.9,2.1-1.4,3.5-1.4c1.3,0,2.4,0.5,3.5,1.4c0.9,0.9,1.4,2.1,1.4,3.4
		s-0.5,2.4-1.4,3.4c-1.2,1-2.2,1.5-3.6,1.5c-1.3,0-2.4-0.5-3.4-1.4C-407.5,90.1-407.9,88.9-407.9,87.6z M-403.1,90.9
		c0.9,0,1.7-0.3,2.3-0.9c0.6-0.6,0.9-1.4,0.9-2.3c0-0.9-0.3-1.7-0.9-2.3c-0.6-0.6-1.4-0.9-2.3-0.9s-1.7,0.3-2.2,0.9
		c-0.6,0.6-0.9,1.4-0.9,2.3c0,0.9,0.3,1.5,0.9,2.2C-404.8,90.5-404,90.9-403.1,90.9z"/>
</g>
<g id="icon-untitled"  class="icon-info">
	<path fill="#666666" d="M-402,132.5c1.4,0,2.8,0.3,4.1,0.8c1.3,0.6,2.4,1.3,3.4,2.2c0.9,0.9,1.7,2.1,2.2,3.4
		c0.6,1.3,0.8,2.7,0.8,4.1c0,1.4-0.3,2.8-0.8,4.1c-0.6,1.3-1.3,2.4-2.2,3.4c-0.9,0.9-2.1,1.7-3.4,2.2c-1.3,0.6-2.7,0.8-4.1,0.8
		s-2.8-0.3-4.1-0.8c-1.3-0.6-2.4-1.3-3.4-2.2c-0.9-0.9-1.7-2.1-2.2-3.4c-0.6-1.3-0.8-2.7-0.8-4.1c0-1.4,0.3-2.8,0.8-4.1
		s1.3-2.4,2.2-3.4c0.9-0.9,2.1-1.7,3.4-2.2C-404.8,132.7-403.4,132.5-402,132.5C-402,132.5-402,132.5-402,132.5z M-402,152.8
		c1.3,0,2.6-0.3,3.8-0.8c1.2-0.5,2.3-1.2,3.1-2.1c0.9-0.9,1.6-1.9,2.1-3.1c0.5-1.2,0.8-2.5,0.8-3.8c0-1.3-0.3-2.6-0.8-3.8
		s-1.2-2.3-2.1-3.1c-0.9-0.9-1.9-1.6-3.1-2.1s-2.5-0.8-3.8-0.8s-2.6,0.3-3.8,0.8c-1.2,0.5-2.3,1.2-3.1,2.1c-0.9,0.9-1.6,1.9-2.1,3.1
		c-0.5,1.2-0.8,2.5-0.8,3.8c0,1.3,0.3,2.6,0.8,3.8c0.5,1.2,1.2,2.3,2.1,3.1c0.9,0.9,1.9,1.6,3.1,2.1
		C-404.6,152.5-403.3,152.8-402,152.8z M-402.1,140.4c-0.3,0-0.6-0.1-0.8-0.3c-0.2-0.2-0.3-0.5-0.3-0.8s0.1-0.6,0.3-0.8
		c0.2-0.2,0.5-0.3,0.8-0.3c0.3,0,0.6,0.1,0.8,0.3c0.2,0.2,0.3,0.5,0.3,0.8c0,0.3-0.1,0.6-0.3,0.8
		C-401.5,140.3-401.8,140.4-402.1,140.4z M-401,146.7c0,0.2,0.1,0.4,0.2,0.5c0.1,0.1,0.4,0.2,0.7,0.2v0.5h-3.6v-0.5
		c0.3,0,0.5-0.1,0.7-0.2c0.1-0.1,0.2-0.3,0.2-0.5v-3.7c0-0.5-0.3-0.8-1-0.9v-0.5l2.8-0.2l0.1,0.1L-401,146.7L-401,146.7z"/>
</g>
<g id="icon-icon_bookmark" class="icon-bookmark">
	<path fill="#666666" d="M-397.5,213.5l-7.4-5.5l-7.5,5.5v-21h15C-397.5,192.5-397.5,213.5-397.5,213.5z M-405.1,206.8l6.4,4.8v-18
		h-12.8v17.9L-405.1,206.8L-405.1,206.8z"/>
</g>
<g id="icon-icon_bookmark_1_" class="icon-bookmark-filled">
	<path fill="#666666" d="M-355.5,213.5l-7.4-5.5l-7.5,5.5v-21h15C-355.5,192.5-355.5,213.5-355.5,213.5z"/>
</g>
<g class="icon-comment">
	<path fill="#666666" d="M-402,264.4c1.8,0,3.4-0.3,4.9-1c1.5-0.7,2.7-1.6,3.6-2.7c0.9-1.2,1.3-2.4,1.3-3.8c0-1.4-0.4-2.6-1.3-3.8
		c-0.9-1.2-2.1-2.1-3.6-2.7s-3.1-1-4.9-1s-3.4,0.3-4.9,1s-2.7,1.6-3.6,2.7c-0.9,1.2-1.3,2.4-1.3,3.8c0,1.3,0.4,2.5,1.2,3.6
		c0.8,1.1,1.9,2,3.3,2.7c0,1.3-0.5,2.4-1.3,3.4c0.1,0,0.2,0,0.3-0.1c0.1,0,0.4-0.1,0.7-0.2c0.4-0.1,0.7-0.2,1-0.4
		c0.3-0.2,0.7-0.4,1.1-0.7c0.4-0.3,0.7-0.7,1-1C-403.6,264.3-402.8,264.4-402,264.4L-402,264.4z M-402,248.6c1.4,0,2.8,0.2,4.1,0.7
		c1.3,0.4,2.4,1,3.4,1.8c0.9,0.7,1.7,1.6,2.2,2.6c0.6,1,0.8,2.1,0.8,3.2c0,0.9-0.2,1.8-0.5,2.6c-0.4,0.8-0.9,1.6-1.5,2.3
		c-0.7,0.7-1.4,1.3-2.3,1.8c-0.9,0.5-1.8,0.9-2.9,1.2s-2.2,0.4-3.3,0.4c-0.7,0-1.4-0.1-2.2-0.2c-0.4,0.5-0.9,0.8-1.5,1.2
		c-0.6,0.3-1.1,0.6-1.6,0.7s-1,0.3-1.5,0.4c-0.5,0.1-0.8,0.1-1.1,0.1l-0.4,0c1.3-1.2,2.1-2.4,2.3-3.7c-1.4-0.8-2.5-1.7-3.3-2.9
		c-0.8-1.2-1.2-2.5-1.2-3.9c0-1.1,0.3-2.2,0.8-3.2c0.6-1,1.3-1.9,2.2-2.6c0.9-0.7,2.1-1.3,3.4-1.8
		C-404.8,248.8-403.4,248.6-402,248.6L-402,248.6L-402,248.6z"/>
</g>
<g class="icon-share">
	<path fill="#666666" d="M-396.8,367.5c0.2,0,0.4,0.1,0.5,0.2s0.3,0.3,0.3,0.6v14.6c0,0.2-0.1,0.4-0.2,0.5c-0.1,0.2-0.3,0.3-0.5,0.3
		h-15.4c-0.2,0-0.4-0.1-0.5-0.2c-0.3-0.2-0.4-0.3-0.4-0.5v-14.7c0-0.2,0.1-0.4,0.2-0.5c0.2-0.1,0.3-0.2,0.6-0.2h5.3
		c0.1,0,0.2,0,0.3,0.1c0,0.1,0,0.2,0,0.3s0,0.2-0.1,0.3c-0.1,0-0.2,0-0.3,0h-5.1v14.6h15.4v-14.6h-5.3c-0.1,0-0.2,0-0.3-0.1
		c0,0,0-0.1,0-0.2s0-0.2,0.1-0.3c0-0.1,0.1-0.1,0.2-0.1L-396.8,367.5L-396.8,367.5z M-407.7,365.1c-0.1,0-0.2,0-0.3-0.1
		s-0.1-0.2-0.1-0.3s0-0.2,0.1-0.3l3.2-3.2c0.1-0.2,0.2-0.2,0.4-0.2s0.2,0,0.2,0.1l3.2,3.3c0.1,0.1,0.1,0.2,0.1,0.3s0,0.2-0.1,0.3
		s-0.1,0.1-0.2,0.1c-0.1,0-0.2,0-0.3-0.1l-2.5-2.6v12.8c0,0.1,0,0.2-0.1,0.3c-0.1,0.1-0.2,0.1-0.3,0.1s-0.2,0-0.3-0.1
		s-0.1-0.2-0.1-0.3v-12.8l-2.6,2.5C-407.5,365-407.6,365.1-407.7,365.1z"/>
</g>
<g class="icon-like">
	<path fill="#666666" d="M-403.1,304.2l8.9,8.9c0.2,0.2,0.2,0.6,0,0.8c-0.2,0.2-0.6,0.2-0.8,0l-8-7.9v19.4c0,0.2-0.1,0.3-0.2,0.4
		c-0.2,0.2-0.6,0.2-0.8,0c-0.1-0.1-0.2-0.3-0.2-0.4V306l-7.8,7.8c-0.2,0.2-0.6,0.2-0.8,0c-0.2-0.2-0.2-0.6,0-0.8l8.8-8.8
		C-403.8,303.9-403.5,303.9-403.1,304.2z"/>
</g>
<g class="icon-like-active">
	<path fill="#cc66cc" d="M-368.1,304.2l8.9,8.9c0.2,0.2,0.2,0.6,0,0.8c-0.2,0.2-0.6,0.2-0.8,0l-8-7.9v19.4c0,0.2-0.1,0.3-0.2,0.4
		c-0.2,0.2-0.6,0.2-0.8,0c-0.1-0.1-0.2-0.3-0.2-0.4V306l-7.8,7.8c-0.2,0.2-0.6,0.2-0.8,0c-0.2-0.2-0.2-0.6,0-0.8l8.8-8.8
		C-368.8,303.9-368.5,303.9-368.1,304.2z"/>
</g>
</svg>
