<?xml version="1.0" encoding="utf-8"?>
<!-- Generator: Adobe Illustrator 16.0.0, SVG Export Plug-In . SVG Version: 6.00 Build 0)  -->
<!DOCTYPE svg PUBLIC "-//W3C//DTD SVG 1.1//EN" "http://www.w3.org/Graphics/SVG/1.1/DTD/svg11.dtd">
<svg version="1.1" id="Layer_1" xmlns="http://www.w3.org/2000/svg" xmlns:xlink="http://www.w3.org/1999/xlink" x="0px" y="0px"
	 width="72px" height="196px" viewBox="0 0 72 196" enable-background="new 0 0 72 196" xml:space="preserve">
<g id="icon-icon_key">
	<path fill="#666666" d="M57.204,15.155l-5.67,5.671c-0.13,0.129-0.388,0.258-0.517,0.258c-0.258,0-0.388-0.129-0.644-0.258
		l-2.836-2.836l-2.836,2.836c-0.129,0.129-0.388,0.258-0.517,0.258c-0.258,0-0.388-0.129-0.517-0.258l-2.836-2.836l-2.836,2.836
		c-0.129,0.129-0.129,0.129-0.258,0.129l0,0c-0.129,0-0.258,0-0.258,0h-9.796c-0.644,1.289-1.547,2.578-2.707,3.738
		c-1.418,1.418-2.964,2.449-4.769,3.222c-1.805,0.773-3.609,1.031-5.413,1.031c-1.804,0-3.609-0.387-5.413-1.031
		c-1.804-0.772-3.351-1.804-4.769-3.222s-2.449-2.964-3.222-4.769c-0.773-1.806-1.418-3.48-1.418-5.284
		c0-1.934,0.387-3.738,1.031-5.542c0.773-1.805,1.804-3.352,3.222-4.77s2.964-2.448,4.769-3.222s3.609-1.031,5.542-1.031
		c1.804,0,3.609,0.388,5.413,1.031c1.804,0.773,3.351,1.804,4.769,3.222c1.16,1.16,2.062,2.32,2.707,3.738h23.458
		c0.129,0,0.129,0,0.258,0s0.258,0.129,0.258,0.129l5.672,5.671c0.129,0.129,0.258,0.388,0.258,0.517
		c0.129,0.387,0,0.644-0.129,0.772L57.204,15.155z M50.888,19.151l4.511-4.511L50.5,9.742H27.043c-0.258,0-0.516,0-0.644-0.258
		C26.27,9.355,26.27,9.355,26.27,9.227l0,0c-0.644-1.418-1.547-2.578-2.578-3.738c-1.804-1.676-3.738-2.836-5.929-3.351
		c-2.191-0.645-4.382-0.645-6.573,0c-2.191,0.516-4.124,1.676-5.8,3.351c-1.676,1.675-2.836,3.609-3.351,5.8
		c-0.644,2.191-0.644,4.382,0,6.573s1.676,4.124,3.351,5.8c1.676,1.677,3.609,2.707,5.8,3.352c2.191,0.644,4.382,0.644,6.573,0
		c2.191-0.645,4.124-1.677,5.8-3.352c1.031-1.03,1.933-2.319,2.578-3.737l0,0c0-0.13,0.129-0.259,0.129-0.259
		c0.129-0.129,0.387-0.258,0.644-0.258l0,0h9.924l3.222-3.222c0.129-0.129,0.388-0.258,0.517-0.258c0.258,0,0.387,0.129,0.516,0.258
		l2.836,2.836l2.836-2.836c0.129-0.129,0.387-0.258,0.516-0.258c0.258,0,0.387,0.129,0.516,0.258l3.094,2.964L50.888,19.151z
		 M5.133,14.64c0-1.289,0.516-2.449,1.418-3.48c0.902-0.901,2.062-1.418,3.48-1.418c1.289,0,2.449,0.517,3.48,1.418
		c0.902,0.902,1.418,2.062,1.418,3.352s-0.516,2.448-1.418,3.351c-1.16,1.031-2.191,1.547-3.609,1.547
		c-1.289,0-2.449-0.516-3.351-1.418C5.52,17.089,5.133,15.929,5.133,14.64z M9.901,17.862c0.902,0,1.676-0.258,2.32-0.902
		c0.644-0.644,0.902-1.418,0.902-2.319c0-0.902-0.258-1.676-0.902-2.32c-0.644-0.644-1.418-0.902-2.32-0.902
		c-0.902,0-1.676,0.259-2.191,0.902c-0.644,0.645-0.902,1.418-0.902,2.32c0,0.901,0.258,1.547,0.902,2.19
		C8.226,17.476,8.999,17.862,9.901,17.862z"/>
</g>
<g id="icon-untitled">
	<path fill="#666666" d="M11.001,59.454c1.435,0,2.803,0.278,4.104,0.834c1.301,0.557,2.422,1.305,3.362,2.245
		c0.94,0.941,1.688,2.062,2.245,3.362s0.835,2.669,0.834,4.104c0,1.429-0.278,2.793-0.834,4.095
		c-0.556,1.301-1.304,2.424-2.245,3.368c-0.941,0.943-2.063,1.693-3.368,2.25c-1.305,0.556-2.671,0.834-4.099,0.834
		c-1.428,0-2.794-0.278-4.099-0.834c-1.305-0.557-2.427-1.307-3.368-2.25c-0.941-0.944-1.689-2.067-2.245-3.368
		c-0.556-1.302-0.834-2.666-0.834-4.095c0-1.435,0.278-2.802,0.834-4.104s1.304-2.422,2.245-3.362
		c0.94-0.939,2.061-1.688,3.362-2.245s2.669-0.834,4.104-0.834H11.001z M11.001,79.794c1.325,0,2.594-0.26,3.805-0.778
		s2.253-1.214,3.126-2.085s1.567-1.913,2.085-3.126c0.517-1.213,0.777-2.481,0.778-3.806c0.001-1.323-0.258-2.592-0.778-3.805
		s-1.215-2.255-2.085-3.126s-1.912-1.566-3.126-2.085s-2.482-0.778-3.805-0.778s-2.591,0.26-3.805,0.778
		c-1.214,0.519-2.256,1.214-3.126,2.085c-0.87,0.871-1.565,1.913-2.085,3.126s-0.779,2.481-0.778,3.805
		c0.001,1.324,0.261,2.593,0.778,3.806c0.518,1.213,1.212,2.255,2.085,3.126c0.873,0.871,1.915,1.566,3.126,2.085
		C8.407,79.534,9.676,79.794,11.001,79.794z M10.919,67.426c-0.309,0-0.575-0.112-0.798-0.335c-0.223-0.224-0.335-0.497-0.335-0.819
		s0.112-0.598,0.335-0.824s0.489-0.34,0.798-0.34s0.575,0.115,0.798,0.345c0.223,0.23,0.335,0.503,0.335,0.819
		s-0.112,0.587-0.335,0.814C11.494,67.312,11.228,67.426,10.919,67.426z M12.011,73.667c0,0.239,0.07,0.416,0.211,0.529
		s0.362,0.194,0.664,0.242v0.453H9.261v-0.453c0.316-0.027,0.541-0.086,0.675-0.175c0.134-0.09,0.201-0.261,0.201-0.516v-3.687
		c0-0.508-0.34-0.804-1.02-0.886v-0.463l2.811-0.165l0.082,0.093L12.011,73.667L12.011,73.667z"/>
</g>
<g id="icon-icon_bookmark">
	<path fill="#666666" d="M15.492,140.5l-7.441-5.504L0.508,140.5v-21h14.984V140.5z M7.949,133.772l6.423,4.792v-18.043H1.527
		v17.941L7.949,133.772L7.949,133.772z"/>
</g>
<g id="icon-icon_bookmark_1_">
	<path fill="#666666" d="M57.492,140.5l-7.441-5.504l-7.543,5.504v-21h14.984V140.5z"/>
</g>
<g id="icon-untitled2">
	<path fill="#666666" d="M10.999,191.406c1.771,0,3.409-0.337,4.912-1.01c1.503-0.672,2.693-1.587,3.568-2.744
		c0.875-1.156,1.313-2.418,1.313-3.785c0-1.366-0.438-2.626-1.313-3.778c-0.875-1.153-2.064-2.065-3.568-2.739
		s-3.141-1.01-4.912-1.009s-3.409,0.337-4.912,1.009c-1.503,0.672-2.692,1.585-3.568,2.739c-0.875,1.153-1.313,2.413-1.313,3.778
		c0,1.312,0.407,2.525,1.22,3.641c0.813,1.115,1.91,2.013,3.29,2.693c-0.042,1.256-0.484,2.379-1.328,3.367
		c0.075-0.006,0.175-0.023,0.299-0.051s0.366-0.098,0.726-0.211s0.705-0.25,1.035-0.412c0.33-0.161,0.692-0.396,1.086-0.705
		s0.729-0.655,1.004-1.039C9.362,191.321,10.183,191.406,10.999,191.406L10.999,191.406z M10.999,175.588
		c1.428,0,2.794,0.218,4.099,0.654c1.305,0.436,2.427,1.024,3.368,1.766c0.94,0.741,1.689,1.622,2.245,2.643
		c0.556,1.02,0.834,2.092,0.834,3.217c0,0.9-0.176,1.771-0.53,2.617c-0.354,0.844-0.856,1.605-1.509,2.285
		c-0.652,0.68-1.41,1.275-2.271,1.787s-1.829,0.906-2.904,1.184s-2.185,0.417-3.331,0.418c-0.721,0-1.438-0.059-2.152-0.176
		c-0.405,0.453-0.895,0.847-1.468,1.18c-0.573,0.332-1.123,0.576-1.648,0.73s-1.02,0.275-1.483,0.36s-0.835,0.132-1.117,0.139
		l-0.422,0.021c1.318-1.18,2.084-2.423,2.297-3.728c-1.401-0.762-2.51-1.74-3.326-2.935c-0.817-1.195-1.226-2.488-1.226-3.883
		c0-1.125,0.278-2.198,0.834-3.217c0.556-1.02,1.304-1.9,2.245-2.643c0.94-0.742,2.063-1.33,3.368-1.766
		c1.305-0.436,2.671-0.654,4.099-0.654H10.999z"/>
</g>
</svg>
