<?xml version="1.0" encoding="utf-8"?>
<!-- Generator: Adobe Illustrator 16.0.0, SVG Export Plug-In . SVG Version: 6.00 Build 0)  -->
<!DOCTYPE svg PUBLIC "-//W3C//DTD SVG 1.1//EN" "http://www.w3.org/Graphics/SVG/1.1/DTD/svg11.dtd">
<svg version="1.1" id="Layer_1" xmlns="http://www.w3.org/2000/svg" xmlns:xlink="http://www.w3.org/1999/xlink" x="0px" y="0px"
	 width="70px" height="100px" viewBox="0 0 70 100" enable-background="new 0 0 70 100" xml:space="preserve">
<g>
	<path fill="#FFFFFF" d="M25.2,10.5c0.2,0,0.399,0.1,0.5,0.2c0.1,0.1,0.3,0.3,0.3,0.6v14.6c0,0.2-0.1,0.4-0.2,0.5
		c-0.1,0.2-0.3,0.3-0.5,0.3H9.9c-0.2,0-0.4-0.1-0.5-0.2C9.1,26.3,9,26.2,9,26V11.3c0-0.2,0.1-0.4,0.2-0.5c0.2-0.1,0.3-0.2,0.6-0.2
		h5.3c0.1,0,0.2,0,0.3,0.1c0,0.1,0,0.2,0,0.3s0,0.2-0.1,0.3c-0.1,0-0.2,0-0.3,0H9.9v14.6h15.4V11.3H20c-0.1,0-0.2,0-0.3-0.1
		c0,0,0-0.1,0-0.2s0-0.2,0.1-0.3c0-0.1,0.101-0.1,0.2-0.1h5.2V10.5z M14.3,8.1c-0.1,0-0.2,0-0.3-0.1s-0.1-0.2-0.1-0.3
		c0-0.1,0-0.2,0.1-0.3l3.2-3.2C17.3,4,17.4,4,17.6,4c0.2,0,0.2,0,0.2,0.1L21,7.4c0.1,0.1,0.1,0.2,0.1,0.3c0,0.1,0,0.2-0.1,0.3
		s-0.1,0.1-0.2,0.1c-0.1,0-0.2,0-0.3-0.1L18,5.4v12.8c0,0.1,0,0.2-0.1,0.3s-0.2,0.1-0.3,0.1s-0.2,0-0.3-0.1
		c-0.1-0.1-0.1-0.2-0.1-0.3V5.4l-2.6,2.5C14.5,8,14.4,8.1,14.3,8.1z"/>
</g>
<g>
	<path fill="#999999" d="M24,56.4L17,51.3L10,56.4V36.7h14V56.4z M17,50.1l6,4.5V37.7H11v16.8L17,50.1z"/>
</g>
<g>
	<path fill="#999999" d="M59,56.4L52,51.3L45,56.4V36.7h14V56.4z"/>
</g>
<polygon fill="#999999" points="24.1,66.4 25,67.3 18.5,73.9 25,80.5 24,81.4 17.5,74.9 10.9,81.4 10,80.5 16.5,73.9 10,67.4 
	10.9,66.4 17.5,73 "/>
</svg>
