<?xml version="1.0" encoding="utf-8"?>
<!-- Generator: Adobe Illustrator 18.1.0, SVG Export Plug-In . SVG Version: 6.00 Build 0)  -->
<!DOCTYPE svg PUBLIC "-//W3C//DTD SVG 1.1//EN" "http://www.w3.org/Graphics/SVG/1.1/DTD/svg11.dtd">
<svg version="1.1" id="Layer_1" xmlns="http://www.w3.org/2000/svg" xmlns:xlink="http://www.w3.org/1999/xlink" x="0px" y="0px"
	 width="15px" height="120px" viewBox="-164 -57 15 120" enable-background="new -164 -57 15 120" xml:space="preserve">
<g>
	<path fill="#FFFFFF" d="M-149-39.8c0,0,0,0.1-0.1,0.2s-0.1,0.1-0.2,0.1c-0.1,0-0.1,0-0.2,0l-7-6.8l-7,6.8c-0.1,0-0.1,0-0.2,0
		c-0.1,0-0.1,0-0.2,0c-0.1,0-0.1-0.2-0.1-0.2c0,0,0-0.1,0.1-0.2l7.2-7c0.1,0,0.1,0,0.2,0s0.1,0,0.2,0l7.2,7
		C-149-39.9-149-39.8-149-39.8z"/>
</g>
<g>
	<path fill="#FFFFFF" d="M-164-16.7c0,0,0-0.1,0.1-0.2c0.1-0.1,0.1-0.1,0.2-0.1c0.1,0,0.1,0,0.2,0l7,6.8l7-6.8c0.1,0,0.1,0,0.2,0
		c0.1,0,0.1,0,0.2,0c0.1,0,0.1,0.2,0.1,0.2c0,0,0,0.1-0.1,0.2l-7.2,7c-0.1,0-0.1,0-0.2,0s-0.1,0-0.2,0l-7.2-7
		C-164-16.6-164-16.7-164-16.7z"/>
</g>
<g>
	<path fill="#FFFFFF" d="M-153.1,9c0.1,0,0.1,0,0.2,0.1c0.1,0.1,0.1,0.2,0.1,0.2c0,0.1,0,0.1-0.1,0.2l-6.8,7l6.8,7
		c0.1,0.1,0.1,0.1,0.1,0.2c0,0.1,0,0.1-0.1,0.2c-0.1,0.1-0.1,0.1-0.2,0.1c-0.1,0-0.1,0-0.2-0.1l-6.9-7.2c-0.1-0.1-0.1-0.2-0.1-0.2
		s0-0.1,0.1-0.2l6.9-7.2C-153.1,9-153.1,9-153.1,9z"/>
</g>
<g>
	<path fill="#FFFFFF" d="M-159.9,54c-0.1,0-0.1,0-0.2-0.1c-0.1-0.1-0.1-0.2-0.1-0.2c0-0.1,0-0.1,0.1-0.2l6.8-7l-6.8-7
		c-0.1-0.1-0.1-0.1-0.1-0.2c0-0.1,0-0.1,0.1-0.2c0.1-0.1,0.1-0.1,0.2-0.1c0.1,0,0.1,0,0.2,0.1l6.9,7.2c0.1,0.1,0.1,0.2,0.1,0.2
		s0,0.1-0.1,0.2l-6.9,7.2C-159.9,54-159.9,54-159.9,54z"/>
</g>
</svg>
