<?xml version="1.0" encoding="utf-8"?>
<!-- Generator: Adobe Illustrator 18.0.0, SVG Export Plug-In . SVG Version: 6.00 Build 0)  -->
<!DOCTYPE svg PUBLIC "-//W3C//DTD SVG 1.1//EN" "http://www.w3.org/Graphics/SVG/1.1/DTD/svg11.dtd">
<svg version="1.1" id="Layer_1" xmlns="http://www.w3.org/2000/svg" xmlns:xlink="http://www.w3.org/1999/xlink" x="0px" y="0px"
	 width="30" height="240" viewBox="0 0 30 240" enable-background="new 0 0 30 240" xml:space="preserve">
<g>
	<path fill="#FFFFFF" d="M30,36.9c0,0.1,0,0.2-0.1,0.4c-0.1,0.2-0.3,0.2-0.5,0.2c-0.1,0-0.2,0-0.4-0.1L15,23.8L1,37.4
		c-0.1,0.1-0.2,0.1-0.5,0.1c-0.1,0-0.2,0-0.4-0.1C0,37.3,0,37.1,0,36.9c0-0.1,0-0.2,0.1-0.4l14.5-13.9c0.2-0.1,0.3-0.1,0.4-0.1
		s0.2,0,0.4,0.1l14.5,13.9C30,36.7,30,36.8,30,36.9z"/>
</g>
<g>
	<path fill="#FFFFFF" d="M0,83.1c0-0.1,0-0.2,0.1-0.4c0.1-0.2,0.3-0.2,0.5-0.2c0.1,0,0.2,0,0.4,0.1l14,13.6l14-13.6
		c0.1-0.1,0.2-0.1,0.5-0.1c0.1,0,0.2,0,0.4,0.1c0.1,0.1,0.1,0.3,0.1,0.5c0,0.1,0,0.2-0.1,0.4L15.4,97.4c-0.2,0.1-0.3,0.1-0.4,0.1
		s-0.2,0-0.4-0.1L0.1,83.5C0,83.3,0,83.2,0,83.1z"/>
</g>
<g>
	<path fill="#FFFFFF" d="M21.9,134.5c0.1,0,0.2,0,0.4,0.1c0.2,0.1,0.2,0.3,0.2,0.5c0,0.1,0,0.2-0.1,0.4l-13.6,14l13.6,14
		c0.1,0.1,0.1,0.2,0.1,0.5c0,0.1,0,0.2-0.1,0.4c-0.1,0.1-0.3,0.1-0.5,0.1c-0.1,0-0.2,0-0.4-0.1L7.6,149.9c-0.1-0.2-0.1-0.3-0.1-0.4
		s0-0.2,0.1-0.4l13.9-14.5C21.7,134.5,21.8,134.5,21.9,134.5z"/>
</g>
<g>
	<path fill="#FFFFFF" d="M8.1,224.5c-0.1,0-0.2,0-0.4-0.1c-0.2-0.1-0.2-0.3-0.2-0.5c0-0.1,0-0.2,0.1-0.4l13.6-14l-13.6-14
		c-0.1-0.1-0.1-0.2-0.1-0.5c0-0.1,0-0.2,0.1-0.4c0.1-0.1,0.3-0.1,0.5-0.1c0.1,0,0.2,0,0.4,0.1l13.9,14.5c0.1,0.2,0.1,0.3,0.1,0.4
		s0,0.2-0.1,0.4L8.5,224.4C8.3,224.5,8.2,224.5,8.1,224.5z"/>
</g>
</svg>
