<?xml version="1.0" encoding="utf-8"?>
<!-- Generator: Adobe Illustrator 18.0.0, SVG Export Plug-In . SVG Version: 6.00 Build 0)  -->
<!DOCTYPE svg PUBLIC "-//W3C//DTD SVG 1.1//EN" "http://www.w3.org/Graphics/SVG/1.1/DTD/svg11.dtd">
<svg version="1.1" id="Layer_1" xmlns="http://www.w3.org/2000/svg" xmlns:xlink="http://www.w3.org/1999/xlink" x="0px" y="0px"
	 width="16" height="26.1" viewBox="-0.3 -3.5 16 26.1" enable-background="new -0.3 -3.5 16 26.1" xml:space="preserve">
<g>
	<path fill="#0066CC" stroke="#0066CC" stroke-width="0.5" stroke-miterlimit="10" d="M15.1,4.5c-0.1,0-0.1,0-0.2-0.1l-7.2-7l-7.2,7
		C0.4,4.5,0.3,4.5,0.3,4.5c-0.1,0-0.1,0-0.2-0.1C0,4.4,0,4.3,0,4.2C0,4.1,0,4.1,0.1,4l7.4-7.1c0.1-0.1,0.1-0.1,0.2-0.1
		c0.1,0,0.1,0,0.2,0.1L15.3,4c0.1,0.1,0.1,0.1,0.1,0.2c0,0.1,0,0.1-0.1,0.2C15.3,4.5,15.2,4.5,15.1,4.5z"/>
	<path fill="#0066CC" stroke="#0066CC" stroke-width="0.5" stroke-miterlimit="10" d="M7.7,22.1c-0.1,0-0.1,0-0.2-0.1l-7.4-7.1
		C0,14.8,0,14.8,0,14.7c0-0.1,0-0.1,0.1-0.2s0.1-0.1,0.2-0.1c0.1,0,0.1,0,0.2,0.1l7.2,7l7.2-7c0.1-0.1,0.1-0.1,0.2-0.1
		c0.1,0,0.1,0,0.2,0.1c0.1,0.1,0.1,0.1,0.1,0.2c0,0.1,0,0.1-0.1,0.2L7.9,22C7.8,22.1,7.8,22.1,7.7,22.1z"/>
</g>
</svg>
