<?xml version="1.0" encoding="utf-8"?>
<!-- Generator: Adobe Illustrator 18.1.0, SVG Export Plug-In . SVG Version: 6.00 Build 0)  -->
<!DOCTYPE svg PUBLIC "-//W3C//DTD SVG 1.1//EN" "http://www.w3.org/Graphics/SVG/1.1/DTD/svg11.dtd">
<svg version="1.1" id="Layer_1" xmlns="http://www.w3.org/2000/svg" xmlns:xlink="http://www.w3.org/1999/xlink" x="0px" y="0px"
	 width="360px" height="126px" viewBox="0 0 360 126" enable-background="new 0 0 360 126" xml:space="preserve">
<g>
	<g>
		<path fill="#FFFFFF" d="M120.6,20.5h3.8v2.1h0.1c0.4-0.8,1-1.4,1.6-1.8c0.7-0.4,1.5-0.7,2.5-0.7c1.8,0,3,0.8,3.7,2.6l0,0
			c0.5-1,1.2-1.6,1.9-1.9c0.7-0.4,1.5-0.5,2.3-0.5c1.5,0,2.6,0.4,3.4,1.4s1.1,2.1,1.1,3.7v8.9h-4v-8.3c0-0.7-0.1-1.4-0.5-1.8
			c-0.4-0.4-0.8-0.7-1.5-0.7s-1.2,0.3-1.6,0.8s-0.7,1.2-0.7,2.1v7.7h-4v-8.2c0-0.7-0.1-1.4-0.5-1.8c-0.3-0.4-0.8-0.7-1.5-0.7
			c-0.7,0-1.2,0.3-1.6,0.8c-0.4,0.5-0.7,1.2-0.7,2.1v7.7h-4V20.5H120.6z"/>
		<path fill="#FFFFFF" d="M149.4,34.5c-1,0-1.9-0.1-2.6-0.3c-0.8-0.3-1.5-0.5-2.1-1s-1-1-1.4-1.5c-0.3-0.5-0.5-1.2-0.5-1.9h3.7
			c0.1,0.7,0.4,1.1,0.8,1.5c0.4,0.3,1.1,0.5,1.9,0.5c0.7,0,1.2-0.1,1.6-0.4c0.4-0.3,0.5-0.7,0.5-1.1c0-0.3-0.1-0.5-0.3-0.7
			c-0.1-0.1-0.4-0.3-0.8-0.4c-0.3-0.1-0.7-0.3-1.1-0.3c-0.4-0.1-0.8-0.1-1.4-0.3c-0.5-0.1-1.2-0.3-1.8-0.4c-0.5-0.1-1.1-0.4-1.5-0.7
			s-0.8-0.7-1.1-1.2c-0.3-0.5-0.4-1.1-0.4-1.9c0-0.7,0.1-1.4,0.4-1.8c0.3-0.5,0.7-1,1.2-1.4c0.5-0.4,1.1-0.7,1.8-0.8
			c0.7-0.1,1.4-0.3,2.2-0.3c1.9,0,3.3,0.4,4.2,1.1c1,0.7,1.5,1.6,1.8,2.9h-3.4c-0.3-1-1-1.5-2.3-1.5c-0.5,0-1.1,0.1-1.5,0.4
			c-0.4,0.3-0.5,0.5-0.5,1c0,0.3,0.1,0.4,0.3,0.7c0.1,0.1,0.4,0.3,0.7,0.4c0.3,0.1,0.7,0.1,1.1,0.3c0.4,0,0.8,0.1,1.4,0.3
			s1.2,0.3,1.8,0.4c0.5,0.1,1.1,0.4,1.6,0.7c0.4,0.3,1,0.7,1.2,1.2c0.3,0.5,0.4,1.2,0.4,2.1c0,0.7-0.1,1.4-0.4,1.9
			c-0.3,0.5-0.7,1-1.2,1.4s-1.2,0.7-1.9,0.8C151.1,34.3,150.3,34.5,149.4,34.5z"/>
		<path fill="#FFFFFF" d="M161.1,22.6L161.1,22.6c0.5-0.8,1.1-1.4,1.8-1.8c0.7-0.4,1.5-0.5,2.5-0.5c1.5,0,2.6,0.4,3.4,1.4
			c0.8,1,1.2,2.1,1.2,3.7v8.9h-4V26c0-0.7-0.1-1.4-0.5-1.8c-0.4-0.4-1-0.7-1.6-0.7c-0.8,0-1.4,0.3-1.9,0.8c-0.4,0.5-0.7,1.2-0.7,2.2
			v7.7h-4V20.6h3.8L161.1,22.6L161.1,22.6z"/>
		<path fill="#FFFFFF" d="M180.6,34.5c-1,0-1.8-0.3-2.5-0.5c-0.7-0.4-1.2-1-1.6-1.8l0,0v2.1h-3.8V15h4v4.1c0,0.5,0,1.1,0,1.6
			c0,0.5,0,1.1-0.1,1.4h0.1c0.4-0.7,1-1.2,1.6-1.6c0.7-0.4,1.4-0.5,2.3-0.5c1,0,1.6,0.1,2.3,0.5c0.7,0.4,1.4,0.8,1.8,1.5
			c0.5,0.7,1,1.4,1.2,2.3c0.3,0.8,0.4,1.8,0.4,2.9c0,1.1-0.1,2.1-0.4,3c-0.3,1-0.7,1.6-1.1,2.3c-0.5,0.7-1.1,1.1-1.8,1.4
			C182.3,34.3,181.4,34.5,180.6,34.5z M179.5,31.2c1,0,1.6-0.4,2.1-1.1s0.7-1.6,0.7-2.9s-0.3-2.2-0.7-3c-0.4-0.7-1.1-1.1-2.1-1.1
			c-0.5,0-1,0.1-1.4,0.3c-0.4,0.3-0.7,0.5-1,0.8c-0.3,0.4-0.4,0.8-0.5,1.4c-0.1,0.5-0.1,1.1-0.1,1.6c0,1.2,0.3,2.2,0.8,2.9
			C177.7,30.8,178.6,31.2,179.5,31.2z"/>
		<path fill="#FFFFFF" d="M195,34.5c-1.1,0-2.1-0.1-3-0.5c-0.8-0.4-1.6-0.8-2.2-1.5c-0.7-0.7-1.1-1.4-1.4-2.3
			c-0.3-0.8-0.5-1.8-0.5-2.9s0.1-1.9,0.5-2.9c0.3-0.8,0.8-1.6,1.4-2.3s1.4-1.1,2.2-1.5c0.8-0.4,1.8-0.5,2.9-0.5c1,0,1.6,0.1,2.5,0.4
			c0.7,0.3,1.4,0.5,1.9,1.1c0.5,0.4,1,1,1.4,1.6c0.3,0.7,0.5,1.2,0.7,2.1h-3.8c-0.1-0.7-0.4-1.1-0.8-1.5c-0.4-0.4-1-0.5-1.6-0.5
			c-1,0-1.8,0.4-2.3,1.1c-0.5,0.8-0.7,1.8-0.7,3c0,1.2,0.3,2.2,0.7,3c0.5,0.8,1.2,1.1,2.3,1.1c0.7,0,1.4-0.3,1.8-0.7s0.7-1,0.8-1.8
			h3.8c0,0.8-0.3,1.5-0.5,2.2s-0.7,1.2-1.2,1.8c-0.5,0.4-1.2,0.8-1.9,1.1C196.7,34.3,195.8,34.5,195,34.5z"/>
	</g>
	<g>
		<path fill="#FFFFFF" d="M199.8,9.2V7.8h20.1v1.4h-9.3V34h-1.6V9.2H199.8z"/>
		<path fill="#FFFFFF" d="M228.7,32.5L228.7,32.5l9.2-24.9h1.6l-9.8,26.2h-1.9l-9.8-26.2h1.6L228.7,32.5z"/>
	</g>
</g>
<g>
	<path fill="#FFFFFF" d="M232.4,65.6c0-4.3,3.4-7.2,7.2-7.3c2.7,0,4.3,1,5.7,2.5c-0.7,0.8-1.5,1.6-2.2,2.4c-0.9-1-1.9-1.8-3.5-1.8
		c-2,0-3.6,1.7-3.6,4c0,2.3,1.7,4.1,3.8,4.1c1.5,0,2.5-0.8,3.5-1.8c0.7,0.7,1.5,1.4,2.2,2.1c-1.3,1.5-2.9,2.8-5.8,2.8
		C235.7,72.8,232.4,69.8,232.4,65.6z"/>
	<path fill="#FFFFFF" d="M231.2,65.5c0,4.5-3.1,7.2-6.5,7.2c-2.3,0-3.5-1.1-4.3-1.9c0,0.6,0,1.1,0,1.7c-1.2,0-2.4,0-3.5,0
		c0-6.3,0-12.6,0-19c1.2,0,2.4,0,3.5,0c0,2.3,0,4.6,0,6.9c0.7-0.7,1.9-2.1,4.3-2.1C228.1,58.3,231.2,61,231.2,65.5z M224,69.8
		c2.2,0,3.8-1.8,3.8-4.3c0-2.5-1.6-4.3-3.8-4.3c-2.2,0-3.9,1.8-3.9,4.3C220.1,68,221.8,69.8,224,69.8z"/>
	<path fill="#FFFFFF" d="M210.5,58.3c-2.5,0-3.6,1.5-3.9,1.9c0-0.5,0-1.1,0-1.6c-1.2,0-2.4,0-3.5,0c0,4.6,0,9.2,0,13.8
		c1.2,0,2.4,0,3.5,0c0-2.7,0-5.4,0-7.8c0-2.4,1.6-3.1,2.8-3.1c1.2,0,2.6,0.6,2.6,3c0,2.4,0,5.1,0,7.8c1.2,0,2.4,0,3.5,0
		c0-2.4,0-4.9,0-8.7C215.5,59.8,212.9,58.3,210.5,58.3z"/>
	<path fill="#FFFFFF" d="M191.7,62.7c0-3.2,2.6-4.3,5-4.3c2.4,0,3.5,0.6,5.2,1.7c-0.5,0.9-1,1.7-1.4,2.6c-1.1-0.7-2.5-1.4-3.9-1.4
		c-1.3,0-1.6,0.7-1.6,1.1c0,1,1.8,1.3,3.6,1.9c1.8,0.6,3.6,1.6,3.6,3.9c0,3.2-2.5,4.5-5.2,4.5c-2.7,0-4.5-1.1-6-2.2
		c0.5-0.8,1.1-1.6,1.6-2.5c1.4,1.1,2.9,1.8,4.4,1.8c1.5,0,1.8-0.8,1.8-1.2c0-1.1-1.8-1.3-3.6-1.9C193.5,66.1,191.7,65.1,191.7,62.7z
		"/>
	<path fill="#FFFFFF" d="M185.3,58.3c-2.5,0-3.7,1.4-4.5,2.2c-0.6-1.1-1.9-2.2-4-2.2c-2.1,0-3.3,1.3-3.8,1.9c0-0.5,0-1.1,0-1.6
		c-1.2,0-2.4,0-3.5,0c0,4.6,0,9.2,0,13.8c1.2,0,2.4,0,3.5,0c0-2.7,0-5.4,0-7.8c0-2.3,1.5-3.1,2.6-3.1c1.2,0,2.5,0.7,2.5,3
		c0,2.3,0,5.1,0,7.9c1.2,0,2.4,0,3.5,0c0-2.7,0-5.3,0-7.8c0-2.5,1.5-3.1,2.6-3.1c1.2,0,2.5,0.6,2.5,3c0,2.5,0,5.1,0,7.8
		c1.2,0,2.4,0,3.5,0c0-2.5,0-5,0-8.8C190.2,59.9,187.8,58.3,185.3,58.3z"/>
	<g>
		<path fill="#FFFFFF" d="M120.4,72.9c-0.9,0-1.7-0.1-2.4-0.4c-0.7-0.2-1.3-0.6-1.8-1c-0.5-0.4-0.8-0.9-1.1-1.5
			c-0.3-0.6-0.4-1.2-0.4-1.9h1.7c0.1,1.2,0.6,2,1.3,2.5c0.7,0.5,1.7,0.8,2.8,0.8c1.2,0,2-0.2,2.6-0.7c0.6-0.5,0.9-1.1,0.9-2
			c0-0.4-0.1-0.7-0.2-1s-0.3-0.5-0.6-0.7c-0.3-0.2-0.7-0.4-1.1-0.5c-0.5-0.2-1.1-0.3-1.8-0.5c-0.7-0.2-1.4-0.3-2-0.5
			c-0.6-0.2-1.2-0.4-1.6-0.7c-0.5-0.3-0.8-0.6-1.1-1.1c-0.3-0.4-0.4-1-0.4-1.7c0-0.6,0.1-1.1,0.3-1.6c0.2-0.5,0.6-0.9,1-1.2
			c0.4-0.3,0.9-0.6,1.5-0.8c0.6-0.2,1.2-0.3,2-0.3c0.8,0,1.5,0.1,2.2,0.3c0.6,0.2,1.1,0.5,1.5,0.8c0.4,0.4,0.7,0.8,1,1.3
			c0.2,0.5,0.4,1.1,0.5,1.7h-1.7c-0.1-0.9-0.4-1.6-1-2.1c-0.6-0.5-1.4-0.7-2.5-0.7c-1.1,0-1.9,0.2-2.4,0.7c-0.5,0.4-0.8,1-0.8,1.6
			c0,0.4,0.1,0.7,0.2,1c0.2,0.3,0.4,0.5,0.7,0.7c0.3,0.2,0.7,0.3,1.3,0.5c0.5,0.1,1.1,0.3,1.7,0.4c0.7,0.1,1.3,0.3,1.9,0.5
			c0.6,0.2,1.1,0.4,1.5,0.7c0.4,0.3,0.8,0.7,1,1.2c0.2,0.5,0.4,1.1,0.4,1.8c0,1.2-0.5,2.2-1.4,3C123.3,72.5,122,72.9,120.4,72.9z"/>
		<path fill="#FFFFFF" d="M127.7,53.3h1.7v7.5h0.1c0.5-0.7,1.1-1.3,1.8-1.7c0.8-0.5,1.7-0.7,2.8-0.7c1.3,0,2.4,0.4,3.2,1.1
			c0.8,0.7,1.3,1.8,1.3,3.2v9.9h-1.7v-9.7c0-1.1-0.3-1.8-0.8-2.3c-0.6-0.5-1.3-0.7-2.3-0.7c-0.6,0-1.1,0.1-1.7,0.3
			c-0.5,0.2-1,0.5-1.4,0.8c-0.4,0.3-0.7,0.8-0.9,1.3c-0.2,0.5-0.3,1-0.3,1.6v8.8h-1.7L127.7,53.3L127.7,53.3z"/>
		<path fill="#FFFFFF" d="M141.3,53.3h1.7v2.4h-1.7V53.3z M141.3,58.6h1.7v13.9h-1.7V58.6z"/>
		<path fill="#FFFFFF" d="M146.8,60h-2v-1.4h2v-2.5c0-1,0.3-1.8,0.8-2.3c0.5-0.5,1.4-0.7,2.4-0.7c0.1,0,0.3,0,0.5,0
			c0.2,0,0.4,0,0.4,0v1.4h-0.7c-0.7,0-1.2,0.1-1.4,0.4c-0.3,0.3-0.4,0.7-0.4,1.2v2.4h2.6V60h-2.6v12.5h-1.6L146.8,60L146.8,60z"/>
		<path fill="#FFFFFF" d="M156.6,72.6c-0.8,0-1.5-0.2-1.9-0.6c-0.5-0.4-0.7-1-0.7-1.9V60h-2.1v-1.4h2.1v-4.3h1.7v4.3h2.6V60h-2.6
			v9.9c0,0.5,0.1,0.8,0.3,1c0.2,0.2,0.6,0.3,1,0.3c0.2,0,0.4,0,0.6-0.1c0.2,0,0.4-0.1,0.5-0.1h0.1v1.4
			C157.6,72.5,157.1,72.6,156.6,72.6z"/>
		<path fill="#FFFFFF" d="M167,53.3h1.7l-7.6,19.2h-1.7L167,53.3z"/>
	</g>
</g>
<g>
	<path fill="#FFFFFF" d="M150.6,100.5h1.8l3,8.9c0.1,0.3,0.2,0.7,0.4,1.1c0.1,0.4,0.3,0.8,0.4,1.2c0.1,0.4,0.3,0.9,0.4,1.3h0.1
		c0.1-0.4,0.3-0.8,0.4-1.3c0.1-0.4,0.3-0.7,0.4-1.2c0.1-0.4,0.3-0.8,0.4-1.1l3.2-8.9h1.7l-5.1,14h-2L150.6,100.5z"/>
	<path fill="#FFFFFF" d="M164.3,95.1h1.7v2.4h-1.7V95.1z M164.3,100.5h1.7v14h-1.7V100.5z"/>
	<path fill="#FFFFFF" d="M174.2,114.9c-0.9,0-1.8-0.2-2.5-0.5c-0.8-0.4-1.4-0.9-1.9-1.5c-0.5-0.7-0.9-1.4-1.2-2.3
		c-0.3-0.9-0.4-1.9-0.4-3c0-1.2,0.2-2.2,0.5-3.1c0.3-0.9,0.7-1.7,1.3-2.3c0.5-0.6,1.2-1.1,1.9-1.4c0.7-0.3,1.5-0.5,2.4-0.5
		c1.1,0,2,0.2,2.8,0.7c0.8,0.5,1.4,1.1,1.8,1.9h0.1v-7.7h1.7v19.4h-1.7v-2.1h-0.1c-0.5,0.8-1.2,1.4-1.9,1.8
		C176.2,114.7,175.3,114.9,174.2,114.9z M174.2,113.5c0.8,0,1.4-0.1,2-0.4c0.6-0.3,1.1-0.7,1.5-1.2c0.4-0.5,0.7-1.1,0.9-1.9
		c0.2-0.7,0.3-1.5,0.3-2.4c0-0.9-0.1-1.7-0.3-2.4c-0.2-0.7-0.5-1.4-0.9-1.9c-0.4-0.5-0.9-1-1.5-1.2c-0.6-0.3-1.3-0.4-2-0.4
		c-0.7,0-1.3,0.1-1.8,0.4c-0.5,0.3-1,0.7-1.4,1.2c-0.4,0.5-0.7,1.2-0.9,1.9c-0.2,0.7-0.3,1.5-0.3,2.4c0,0.8,0.1,1.6,0.3,2.3
		c0.2,0.7,0.5,1.4,0.8,1.9c0.4,0.5,0.8,1,1.4,1.3C172.9,113.3,173.5,113.5,174.2,113.5z"/>
	<path fill="#FFFFFF" d="M189.1,114.9c-1.1,0-2-0.2-2.8-0.6c-0.8-0.4-1.5-0.9-2.1-1.5c-0.6-0.7-1-1.4-1.3-2.3
		c-0.3-0.9-0.4-1.9-0.4-2.9c0-1.1,0.2-2,0.5-2.9c0.3-0.9,0.7-1.7,1.3-2.3c0.6-0.7,1.2-1.2,2-1.5c0.8-0.4,1.7-0.6,2.6-0.6
		c1.1,0,2.1,0.2,2.8,0.6c0.8,0.4,1.4,1,1.9,1.7c0.5,0.7,0.8,1.5,1,2.5c0.2,0.9,0.3,1.9,0.3,2.9h-10.7c0,0.8,0.1,1.5,0.3,2.2
		c0.2,0.7,0.5,1.3,0.9,1.8c0.4,0.5,0.9,0.9,1.5,1.2c0.6,0.3,1.3,0.4,2.1,0.4c1.2,0,2.1-0.3,2.7-0.9c0.6-0.6,1.1-1.3,1.4-2.3h1.6
		c-0.3,1.4-0.9,2.5-1.9,3.3C192,114.5,190.7,114.9,189.1,114.9z M193.3,106.5c0-0.7-0.1-1.3-0.3-1.9c-0.2-0.6-0.4-1.1-0.8-1.6
		c-0.3-0.4-0.8-0.8-1.3-1c-0.5-0.3-1.1-0.4-1.9-0.4c-0.7,0-1.3,0.1-1.9,0.4c-0.6,0.3-1,0.6-1.4,1c-0.4,0.4-0.7,1-0.9,1.6
		c-0.2,0.6-0.4,1.2-0.4,2H193.3z"/>
	<path fill="#FFFFFF" d="M202.9,114.9c-1,0-1.9-0.2-2.7-0.6c-0.8-0.4-1.5-0.9-2.1-1.5c-0.6-0.7-1-1.4-1.3-2.3
		c-0.3-0.9-0.4-1.9-0.4-2.9c0-1.1,0.1-2,0.4-2.9c0.3-0.9,0.7-1.7,1.3-2.3c0.6-0.7,1.2-1.2,2.1-1.5c0.8-0.4,1.7-0.6,2.7-0.6
		c1,0,1.9,0.2,2.7,0.6c0.8,0.4,1.5,0.9,2,1.5c0.6,0.7,1,1.4,1.3,2.3c0.3,0.9,0.4,1.9,0.4,2.9c0,1.1-0.1,2-0.4,2.9
		c-0.3,0.9-0.7,1.7-1.3,2.3c-0.6,0.7-1.2,1.2-2,1.5C204.8,114.7,203.9,114.9,202.9,114.9z M202.9,113.5c0.8,0,1.5-0.2,2.1-0.5
		c0.6-0.3,1.1-0.7,1.5-1.3c0.4-0.5,0.7-1.2,0.9-1.9c0.2-0.7,0.3-1.5,0.3-2.3c0-0.8-0.1-1.6-0.3-2.3c-0.2-0.7-0.5-1.4-0.9-1.9
		c-0.4-0.5-0.9-1-1.5-1.3c-0.6-0.3-1.3-0.5-2.1-0.5c-0.8,0-1.5,0.2-2.1,0.5c-0.6,0.3-1.1,0.7-1.5,1.3c-0.4,0.5-0.7,1.2-0.9,1.9
		c-0.2,0.7-0.3,1.5-0.3,2.3c0,0.8,0.1,1.6,0.3,2.3c0.2,0.7,0.5,1.4,0.9,1.9c0.4,0.5,0.9,1,1.5,1.3
		C201.4,113.3,202.1,113.5,202.9,113.5z"/>
</g>
</svg>
