<?xml version="1.0" standalone="yes"?><svg version="1.1" xmlns = 'http://www.w3.org/2000/svg'><defs><font id='web' horiz-adv-x="1000">
<font-face font-family="web" descent="-230" cap-height="715" units-per-em="1000" bbox="-183,-214,1106,914" x-height="510" ascent="770" />
<missing-glyph horiz-adv-x="500" d="" /><glyph horiz-adv-x="431" d="M 91 466 L 16 466 L 16 517 L 91 517 L 91 609 C 91 647 101 675 121 693 C 141 711 172 720 212 720 C 215 720 221 719 230 719 C 239 719 245 719 247 719 L 247 666 L 220 666 C 194 666 176 661 166 651 C 156 641 152 626 152 607 L 152 517 L 248 517 L 248 466 L 152 466 L 152 0 L 91 0 L 91 466 Z M 315 517 L 377 517 L 377 0 L 315 0 L 315 517 Z M 315 715 L 377 715 L 377 627 L 315 627 L 315 715 Z" unicode="" />
<glyph horiz-adv-x="433" d="M 91 466 L 16 466 L 16 517 L 91 517 L 91 609 C 91 647 101 675 121 693 C 141 711 172 720 212 720 C 215 720 221 719 230 719 C 239 719 245 719 247 719 L 247 666 L 220 666 C 194 666 176 661 166 651 C 156 641 152 626 152 607 L 152 517 L 248 517 L 248 466 L 152 466 L 152 0 L 91 0 L 91 466 Z M 316 715 L 378 715 L 378 0 L 316 0 L 316 715 Z" unicode="" />
<glyph horiz-adv-x="55" d="" unicode=" " />
<glyph horiz-adv-x="500" d="M 0 281 L 500 281 L 500 228 L 0 228 L 0 281 Z" unicode="–" />
<glyph horiz-adv-x="1000" d="M 100 281 L 900 281 L 900 228 L 100 228 L 100 281 Z" unicode="—" />
<glyph horiz-adv-x="153" d="M 42 621 C 42 651 48 673 61 689 C 73 704 90 713 112 717 L 112 684 C 102 680 95 673 89 665 C 83 656 80 642 80 624 L 80 616 L 111 616 L 111 530 L 42 530 L 42 621 Z" unicode="‘" />
<glyph horiz-adv-x="153" d="M 41 561 C 51 565 58 571 64 580 C 70 589 73 603 73 622 L 73 629 L 42 629 L 42 715 L 111 715 L 111 624 C 111 594 104 571 92 556 C 80 540 63 531 41 528 L 41 561 Z" unicode="’" />
<glyph horiz-adv-x="153" d="M 41 -68 C 51 -64 58 -57 64 -49 C 70 -40 73 -26 73 -8 L 73 0 L 42 0 L 42 86 L 111 86 L 111 -5 C 111 -35 104 -57 92 -73 C 80 -88 63 -97 41 -101 L 41 -68 Z" unicode="‚" />
<glyph horiz-adv-x="282" d="M 42 621 C 42 651 48 673 61 689 C 73 704 90 713 112 717 L 112 684 C 102 680 95 673 89 665 C 83 656 80 642 80 624 L 80 616 L 111 616 L 111 530 L 42 530 L 42 621 Z M 170 621 C 170 651 176 673 189 689 C 201 704 218 713 240 717 L 240 684 C 230 680 223 673 217 665 C 211 656 208 642 208 624 L 208 616 L 240 616 L 240 530 L 170 530 L 170 621 Z" unicode="“" />
<glyph horiz-adv-x="282" d="M 41 561 C 51 565 58 571 64 580 C 70 589 73 603 73 622 L 73 629 L 42 629 L 42 715 L 111 715 L 111 624 C 111 594 104 571 92 556 C 80 540 63 531 41 528 L 41 561 Z M 169 561 C 179 565 186 571 192 580 C 198 589 201 603 201 622 L 201 629 L 170 629 L 170 715 L 240 715 L 240 624 C 240 594 233 571 221 556 C 208 540 191 531 169 528 L 169 561 Z" unicode="”" />
<glyph horiz-adv-x="282" d="M 41 -68 C 51 -64 58 -57 64 -49 C 70 -40 73 -26 73 -8 L 73 0 L 42 0 L 42 86 L 111 86 L 111 -5 C 111 -35 104 -57 92 -73 C 80 -88 63 -97 41 -101 L 41 -68 Z M 169 -68 C 179 -64 186 -57 192 -49 C 198 -40 201 -26 201 -8 L 201 0 L 170 0 L 170 86 L 240 86 L 240 -5 C 240 -35 233 -57 221 -73 C 208 -88 191 -97 169 -101 L 169 -68 Z" unicode="„" />
<glyph horiz-adv-x="150" d="" unicode=" " />
<glyph horiz-adv-x="212" d="M 72 486 L 72 715 L 140 715 L 140 486 L 126 173 L 87 173 L 72 486 Z M 68 87 L 144 87 L 144 0 L 68 0 L 68 87 Z" unicode="!" />
<glyph horiz-adv-x="276" d="M 43 715 L 102 715 L 102 501 L 43 501 L 43 715 Z M 174 715 L 233 715 L 233 501 L 174 501 L 174 715 Z" unicode="&#x22;" />
<glyph horiz-adv-x="562" d="M 135 207 L 33 207 L 41 262 L 142 262 L 166 432 L 65 432 L 73 487 L 174 487 L 202 686 L 256 686 L 229 487 L 373 487 L 401 686 L 456 686 L 428 487 L 529 487 L 521 432 L 420 432 L 396 262 L 496 262 L 488 207 L 389 207 L 361 0 L 306 0 L 334 207 L 190 207 L 161 0 L 107 0 L 135 207 Z M 342 262 L 365 432 L 221 432 L 197 262 L 342 262 Z" unicode="#" />
<glyph horiz-adv-x="555" d="M 257 2 C 218 4 184 12 155 25 C 126 38 102 55 83 75 C 63 95 48 118 38 144 C 28 170 22 198 21 228 L 84 228 C 87 178 103 138 133 108 C 162 78 203 60 257 55 L 257 338 C 225 344 196 352 170 361 C 144 369 123 380 105 394 C 87 408 73 425 63 445 C 53 465 49 489 49 519 C 49 545 54 569 64 591 C 74 613 88 631 106 647 C 124 663 146 675 172 684 C 197 693 225 698 257 700 L 257 757 L 303 757 L 303 700 C 365 694 412 675 446 642 C 479 609 499 567 505 515 L 444 515 C 439 554 424 585 399 607 C 374 629 342 642 303 646 L 303 389 C 333 383 362 375 389 367 C 416 359 440 348 460 334 C 480 320 495 302 507 280 C 518 258 524 231 524 199 C 524 170 518 144 507 120 C 496 96 481 76 462 59 C 442 41 419 28 392 18 C 364 8 335 2 303 1 L 303 -85 L 257 -85 L 257 2 Z M 257 647 C 211 644 175 631 149 609 C 123 586 110 557 110 521 C 110 485 121 459 145 441 C 168 423 205 409 257 398 L 257 647 Z M 303 54 C 325 55 345 59 364 66 C 383 72 400 82 414 94 C 428 106 440 120 448 137 C 456 154 460 173 460 195 C 460 215 457 233 451 247 C 445 261 435 273 423 283 C 410 293 394 301 374 308 C 354 315 331 322 303 328 L 303 54 Z" unicode="$" />
<glyph horiz-adv-x="799" d="M 184 357 C 212 357 234 369 252 394 C 270 419 279 456 279 505 C 279 553 269 589 251 614 C 233 639 210 652 184 652 C 156 652 133 639 115 615 C 97 590 89 553 89 505 C 89 457 97 420 115 395 C 133 369 156 357 184 357 Z M 184 310 C 139 310 102 327 73 361 C 44 395 30 443 30 505 C 30 535 34 563 42 587 C 50 611 61 632 75 649 C 89 665 105 678 124 687 C 142 695 162 700 184 700 C 204 700 224 695 243 687 C 261 678 277 665 291 649 C 305 633 316 612 324 588 C 332 564 336 536 336 505 C 336 474 332 446 324 422 C 316 398 306 377 293 361 C 279 344 263 331 245 323 C 226 314 206 310 184 310 Z M 570 685 L 624 685 L 230 0 L 175 0 L 570 685 Z M 616 34 C 644 34 666 46 684 71 C 702 95 711 132 711 181 C 711 229 702 265 684 291 C 666 316 643 329 616 329 C 588 329 566 316 548 291 C 530 266 521 229 521 181 C 521 133 530 96 548 71 C 566 46 588 34 616 34 Z M 616 -14 C 594 -14 573 -9 555 0 C 536 8 520 21 506 38 C 492 54 482 75 474 99 C 466 123 463 150 463 181 C 463 212 467 240 475 264 C 483 288 494 309 508 325 C 522 341 538 354 556 363 C 574 371 594 376 616 376 C 637 376 657 371 676 363 C 694 355 710 342 724 326 C 738 309 749 289 757 265 C 765 241 769 213 769 181 C 769 119 754 71 726 37 C 697 3 660 -14 616 -14 Z" unicode="%" />
<glyph horiz-adv-x="577" d="M 245 -13 C 216 -13 189 -8 163 0 C 137 8 115 21 95 37 C 75 53 60 73 49 97 C 37 120 32 147 32 177 C 32 205 36 229 45 250 C 53 271 65 290 80 307 C 94 324 112 339 132 353 C 152 367 173 380 196 394 L 178 417 C 156 444 141 469 133 491 C 124 513 120 538 120 564 C 120 584 123 602 131 620 C 139 637 149 652 163 665 C 176 677 192 687 210 695 C 228 702 248 706 270 706 C 289 706 307 702 325 696 C 343 690 358 680 372 668 C 386 656 397 641 405 623 C 413 605 417 584 417 560 C 417 538 413 518 405 501 C 397 483 387 468 375 454 C 362 440 347 428 330 417 C 313 405 296 394 278 384 L 437 179 C 455 222 464 271 465 325 L 522 325 C 522 289 518 255 510 222 C 502 188 491 157 476 129 L 576 0 L 501 0 L 441 77 C 418 49 390 27 358 11 C 325 -5 287 -13 245 -13 Z M 247 424 C 283 445 310 466 328 486 C 346 506 355 532 355 562 C 355 590 347 613 331 629 C 315 645 295 653 270 653 C 244 653 223 645 207 629 C 190 613 182 591 182 563 C 182 543 185 525 192 509 C 198 492 209 473 225 453 L 247 424 Z M 248 42 C 282 42 312 49 338 63 C 364 77 387 97 406 123 L 227 353 C 209 342 193 331 177 320 C 161 308 148 296 136 282 C 124 268 114 253 107 236 C 100 218 97 199 97 177 C 97 136 111 103 139 79 C 167 54 203 42 248 42 Z" unicode="&#x26;" />
<glyph horiz-adv-x="145" d="M 43 715 L 102 715 L 102 501 L 43 501 L 43 715 Z" unicode="'" />
<glyph horiz-adv-x="284" d="M 210 -118 C 170 -57 138 9 112 83 C 86 157 73 241 73 335 C 73 378 76 419 84 459 C 91 498 101 535 114 570 C 126 605 141 638 158 669 C 174 699 192 728 210 754 L 264 754 C 230 698 201 635 178 565 C 155 494 144 417 144 335 C 144 246 154 165 174 92 C 194 18 224 -51 264 -118 L 210 -118 L 210 -118 Z" unicode="(" />
<glyph horiz-adv-x="284" d="M 20 -118 C 56 -57 85 8 107 80 C 129 151 140 229 140 315 C 140 401 129 480 108 552 C 87 624 58 691 20 754 L 74 754 C 93 725 111 695 128 663 C 144 631 159 596 172 560 C 184 523 194 484 201 444 C 208 403 212 360 212 315 C 212 269 208 227 201 187 C 193 147 183 109 171 73 C 159 37 144 3 127 -28 C 110 -60 92 -90 74 -118 L 20 -118 L 20 -118 Z" unicode=")" />
<glyph horiz-adv-x="360" d="M 77 469 L 141 560 L 41 595 L 56 634 L 156 599 L 156 715 L 203 715 L 203 599 L 304 634 L 319 595 L 219 560 L 283 469 L 247 443 L 180 541 L 112 443 L 77 469 Z" unicode="*" />
<glyph horiz-adv-x="530" d="M 237 299 L 55 299 L 55 353 L 237 353 L 237 545 L 293 545 L 293 353 L 475 353 L 475 299 L 293 299 L 293 105 L 237 105 L 237 299 Z" unicode="+" />
<glyph horiz-adv-x="160" d="M 42 -72 C 51 -68 59 -62 66 -53 C 72 -43 76 -27 76 -4 L 76 0 L 42 0 L 42 87 L 118 87 L 118 -3 C 118 -36 111 -61 97 -77 C 83 -93 65 -103 42 -108 L 42 -72 Z" unicode="," />
<glyph horiz-adv-x="326" d="M 35 308 L 291 308 L 291 252 L 35 252 L 35 308 Z" unicode="-" />
<glyph horiz-adv-x="160" d="M 42 87 L 118 87 L 118 0 L 42 0 L 42 87 Z" unicode="." />
<glyph horiz-adv-x="381" d="M 300 715 L 365 715 L 81 0 L 16 0 L 300 715 Z" unicode="/" />
<glyph horiz-adv-x="583" d="M 292 42 C 354 42 400 68 431 122 C 462 175 478 249 478 343 C 478 389 474 430 466 468 C 458 505 446 537 430 563 C 414 589 395 609 372 623 C 348 637 322 645 292 645 C 230 645 184 618 152 564 C 120 510 105 437 105 343 C 105 297 109 255 117 218 C 125 181 136 149 152 123 C 168 97 187 77 211 63 C 234 49 261 42 292 42 Z M 291 -14 C 250 -14 214 -5 183 11 C 151 27 125 51 103 82 C 81 113 65 151 54 195 C 43 239 38 288 38 343 C 38 398 44 448 56 492 C 68 536 85 574 107 605 C 129 635 155 659 187 675 C 218 691 253 700 292 700 C 330 700 365 691 397 675 C 428 659 455 635 477 605 C 499 575 515 537 527 493 C 539 449 545 399 545 343 C 545 288 539 239 528 195 C 517 151 501 113 479 82 C 457 51 431 27 399 11 C 367 -5 331 -14 291 -14 Z" unicode="0" />
<glyph horiz-adv-x="327" d="M 177 515 L 33 515 L 33 559 C 58 560 80 563 99 567 C 117 571 133 577 146 587 C 159 597 169 610 177 626 C 184 642 189 663 193 689 L 242 689 L 242 0 L 177 0 L 177 515 Z" unicode="1" />
<glyph horiz-adv-x="520" d="M 32 0 C 32 44 40 81 54 113 C 68 144 85 171 107 195 C 129 219 153 239 180 257 C 207 275 234 292 262 308 C 285 322 306 335 326 347 C 345 359 361 372 375 386 C 389 400 399 415 407 433 C 415 451 419 472 419 498 C 419 544 405 579 379 605 C 352 631 316 644 271 644 C 222 644 184 629 157 600 C 143 584 133 566 126 545 C 118 523 114 497 114 465 L 48 465 C 48 503 53 537 64 565 C 74 593 89 617 109 637 C 129 657 154 673 183 683 C 211 693 242 699 275 699 C 307 699 336 694 362 684 C 388 674 410 660 428 642 C 446 624 460 602 470 578 C 480 554 485 528 485 500 C 485 466 479 436 468 412 C 456 388 441 366 423 348 C 405 330 384 313 360 299 C 336 284 311 269 286 255 C 266 243 246 230 226 218 C 206 205 188 191 172 175 C 155 159 141 142 129 124 C 117 105 109 84 106 60 L 476 60 L 476 0 L 32 0 L 32 0 Z" unicode="2" />
<glyph horiz-adv-x="529" d="M 267 -14 C 233 -14 201 -8 171 1 C 141 11 116 26 94 46 C 72 65 55 89 43 117 C 30 145 24 176 24 212 L 89 212 C 91 156 108 114 140 86 C 172 57 214 43 266 43 C 318 43 358 56 387 83 C 415 109 430 146 430 193 C 430 239 415 274 386 299 C 356 324 315 337 261 337 L 213 337 L 213 390 L 260 390 C 307 390 343 401 369 424 C 394 447 407 478 407 517 C 407 559 393 591 366 613 C 339 635 305 647 265 647 C 240 647 218 642 199 634 C 179 626 163 614 150 600 C 137 585 127 568 120 548 C 113 528 110 506 110 483 L 46 483 C 46 514 51 543 61 570 C 71 596 85 619 104 639 C 123 658 146 673 174 684 C 201 694 232 700 267 700 C 295 700 322 695 347 687 C 372 679 394 667 412 651 C 430 635 445 616 455 594 C 465 571 471 545 471 517 C 471 477 461 446 442 422 C 423 398 398 380 368 368 L 368 365 C 412 351 444 329 465 299 C 485 269 496 232 496 188 C 496 156 490 128 479 103 C 467 78 452 57 432 40 C 412 22 388 9 360 0 C 332 -9 301 -14 267 -14 Z" unicode="3" />
<glyph horiz-adv-x="537" d="M 344 175 L 24 175 L 24 235 L 353 692 L 407 692 L 407 229 L 513 229 L 513 175 L 407 175 L 407 0 L 344 0 L 344 175 Z M 344 229 L 344 583 L 342 583 L 89 232 L 89 229 L 344 229 Z" unicode="4" />
<glyph horiz-adv-x="512" d="M 252 -14 C 220 -14 190 -9 163 0 C 135 10 112 23 92 41 C 72 59 56 80 44 104 C 32 128 26 155 26 185 L 90 185 C 95 141 111 107 137 82 C 163 57 201 45 251 45 C 276 45 299 49 319 58 C 339 66 356 78 370 94 C 384 109 394 127 402 149 C 409 171 413 195 413 221 C 413 247 409 271 401 292 C 393 313 382 331 368 346 C 354 360 337 371 318 379 C 298 387 277 391 255 391 C 216 391 185 384 161 370 C 137 356 118 340 105 321 L 43 321 L 104 685 L 445 685 L 445 627 L 151 627 L 113 393 L 115 393 C 134 410 155 423 179 433 C 202 443 231 448 266 448 C 294 448 320 443 346 433 C 372 423 394 409 414 390 C 434 370 449 346 461 318 C 473 289 479 256 479 219 C 479 184 473 152 462 124 C 451 95 436 70 416 50 C 396 30 373 14 345 3 C 317 -8 286 -14 252 -14 Z" unicode="5" />
<glyph horiz-adv-x="544" d="M 289 -14 C 253 -14 223 -8 198 1 C 172 11 150 26 130 44 C 96 74 72 115 58 165 C 44 215 38 275 38 347 C 38 397 43 444 54 488 C 64 531 80 568 102 600 C 124 631 150 655 182 673 C 214 691 251 700 293 700 C 323 700 349 695 373 686 C 396 676 416 664 432 648 C 448 632 461 613 471 591 C 481 569 487 546 490 522 L 425 522 C 421 557 408 586 386 609 C 363 632 332 644 294 644 C 260 644 231 636 207 621 C 183 606 163 585 147 558 C 131 530 120 497 113 459 C 105 420 102 377 102 330 L 104 330 C 124 366 150 393 182 412 C 213 431 249 441 291 441 C 322 441 351 435 378 424 C 404 412 427 397 447 377 C 466 357 481 334 492 307 C 502 279 508 250 508 218 C 508 185 502 155 492 127 C 481 99 466 74 447 53 C 427 32 404 16 377 4 C 350 -8 321 -14 289 -14 Z M 287 40 C 310 40 331 44 351 53 C 370 61 387 73 401 89 C 415 105 425 123 433 145 C 441 167 445 190 445 216 C 445 241 441 264 433 285 C 425 306 415 324 401 339 C 387 354 370 366 351 374 C 331 382 310 387 287 387 C 263 387 240 382 220 374 C 199 366 181 354 166 339 C 151 323 139 305 131 284 C 123 262 119 239 119 214 C 119 188 123 164 131 143 C 139 121 151 103 166 88 C 180 72 198 60 219 52 C 239 44 262 40 287 40 Z" unicode="6" />
<glyph horiz-adv-x="489" d="M 128 0 C 132 60 143 119 159 179 C 175 239 195 296 219 350 C 243 404 271 455 303 502 C 334 549 368 590 404 625 L 404 627 L 23 627 L 23 685 L 471 685 L 471 629 C 437 595 404 556 374 512 C 343 468 315 419 291 365 C 267 311 246 254 230 193 C 214 131 203 67 198 0 L 128 0 L 128 0 Z" unicode="7" />
<glyph horiz-adv-x="547" d="M 275 -14 C 243 -14 213 -9 184 -1 C 154 7 128 20 106 37 C 83 54 65 76 52 102 C 38 128 32 158 32 192 C 32 240 44 278 70 308 C 96 337 128 358 167 372 L 167 375 C 135 387 110 406 92 432 C 74 457 65 488 65 524 C 65 550 70 573 81 595 C 91 617 106 635 125 651 C 143 666 165 678 191 687 C 216 695 243 700 273 700 C 303 700 331 695 357 686 C 383 677 405 665 423 649 C 441 633 456 615 466 594 C 476 572 481 549 481 524 C 481 488 471 457 453 432 C 435 407 410 388 378 376 L 378 373 C 396 367 414 358 431 347 C 447 335 462 322 474 307 C 486 291 496 274 503 255 C 510 235 514 214 514 192 C 514 157 507 127 494 101 C 481 75 464 53 442 36 C 420 19 394 6 365 -1 C 336 -9 306 -14 275 -14 Z M 275 41 C 329 41 371 55 402 83 C 433 111 449 148 449 192 C 449 237 433 274 402 302 C 371 330 328 345 272 345 C 216 345 174 330 144 302 C 114 274 99 237 99 192 C 99 147 114 111 144 83 C 174 55 218 41 275 41 Z M 272 398 C 317 398 352 409 378 433 C 404 457 417 486 417 521 C 417 557 404 586 379 610 C 354 634 319 646 273 646 C 227 646 191 634 166 610 C 141 586 129 557 129 521 C 129 486 141 457 166 433 C 190 409 226 398 272 398 Z" unicode="8" />
<glyph horiz-adv-x="543" d="M 256 -14 C 226 -14 198 -9 173 -1 C 148 7 127 20 109 36 C 91 52 76 71 66 93 C 55 115 49 140 47 168 L 113 168 C 116 130 130 99 155 76 C 179 53 212 42 254 42 C 304 42 344 57 372 87 C 397 112 415 147 426 191 C 436 235 442 289 443 352 L 441 352 C 421 318 396 291 364 273 C 332 254 295 245 254 245 C 222 245 193 250 167 262 C 140 273 117 288 98 308 C 78 328 63 351 52 379 C 41 406 36 436 36 468 C 36 500 41 531 52 559 C 63 587 78 611 98 632 C 118 653 141 670 169 682 C 197 694 227 700 260 700 C 293 700 322 695 347 685 C 371 675 393 662 413 646 C 448 616 472 576 486 525 C 499 474 506 412 506 339 C 506 274 499 217 485 168 C 471 118 448 78 416 46 C 374 6 321 -14 256 -14 Z M 259 299 C 283 299 306 303 327 311 C 347 319 365 331 380 347 C 394 362 406 380 414 401 C 422 422 427 445 427 471 C 427 497 422 520 414 542 C 406 564 394 582 380 598 C 365 613 347 625 327 633 C 307 641 285 646 261 646 C 237 646 215 641 195 633 C 175 624 158 612 144 596 C 130 580 119 562 111 540 C 103 518 99 495 99 470 C 99 444 102 421 110 400 C 118 379 129 361 143 346 C 157 331 173 319 193 311 C 213 303 235 299 259 299 Z" unicode="9" />
<glyph horiz-adv-x="168" d="M 46 87 L 122 87 L 122 0 L 46 0 L 46 87 Z M 46 394 L 122 394 L 122 307 L 46 307 L 46 394 Z" unicode=":" />
<glyph horiz-adv-x="168" d="M 46 -72 C 55 -68 63 -62 70 -53 C 76 -43 80 -27 80 -4 L 80 0 L 46 0 L 46 87 L 122 87 L 122 -3 C 122 -36 115 -61 101 -77 C 87 -93 69 -103 46 -108 L 46 -72 Z M 46 394 L 122 394 L 122 307 L 46 307 L 46 394 Z" unicode=";" />
<glyph horiz-adv-x="499" d="M 50 278 L 50 345 L 445 514 L 445 455 L 102 313 L 102 311 L 445 168 L 445 109 L 50 278 Z" unicode="&#x3C;" />
<glyph horiz-adv-x="530" d="M 55 257 L 475 257 L 475 204 L 55 204 L 55 257 Z M 55 417 L 475 417 L 475 364 L 55 364 L 55 417 Z" unicode="=" />
<glyph horiz-adv-x="499" d="M 54 168 L 397 310 L 397 312 L 54 455 L 54 514 L 449 345 L 449 278 L 54 109 L 54 168 Z" unicode="&#x3E;" />
<glyph horiz-adv-x="497" d="M 199 173 C 199 201 200 226 204 247 C 208 267 214 286 222 303 C 230 319 240 335 253 349 C 266 363 282 379 301 395 C 312 404 323 413 334 423 C 344 433 354 443 362 455 C 370 466 377 479 382 493 C 387 507 390 524 390 544 C 390 582 377 612 352 636 C 327 660 294 672 252 672 C 226 672 203 667 183 659 C 163 651 147 639 133 624 C 119 609 109 591 102 571 C 95 550 91 528 91 504 L 27 504 C 27 532 32 560 41 587 C 50 614 64 638 82 659 C 100 680 124 697 153 709 C 181 721 215 728 255 728 C 286 728 314 723 339 714 C 364 704 385 691 403 675 C 420 658 433 639 443 617 C 452 595 457 571 457 545 C 457 520 454 499 448 481 C 442 463 434 446 424 432 C 414 418 402 405 390 394 C 378 383 365 372 353 362 C 335 346 319 332 307 320 C 295 308 285 295 278 282 C 271 268 266 253 263 236 C 260 218 259 197 259 173 L 199 173 Z M 191 87 L 266 87 L 266 0 L 191 0 L 191 87 Z" unicode="?" />
<glyph horiz-adv-x="870" d="M 434 -102 C 374 -102 319 -92 270 -74 C 221 -55 179 -29 145 5 C 111 39 84 80 66 128 C 47 176 38 229 38 289 C 38 356 49 416 73 468 C 97 520 128 565 167 601 C 206 637 251 664 301 683 C 351 702 402 712 454 712 C 502 712 549 704 595 688 C 640 672 680 649 715 618 C 750 587 778 549 800 504 C 821 458 832 406 832 346 C 832 308 828 274 820 243 C 812 211 800 184 785 162 C 770 139 752 121 730 109 C 708 96 682 90 654 90 C 622 90 597 97 580 113 C 563 129 552 146 548 166 L 546 166 C 532 141 512 121 486 105 C 460 89 431 81 399 81 C 373 81 349 85 329 95 C 309 104 292 117 278 133 C 264 149 253 169 245 193 C 237 216 234 242 234 270 C 234 308 239 343 249 375 C 259 406 274 433 292 455 C 310 477 331 493 355 505 C 379 517 406 523 434 523 C 466 523 492 515 514 501 C 535 486 551 468 562 446 L 565 446 L 575 514 L 631 514 L 597 234 C 593 204 595 181 605 164 C 615 147 632 139 656 139 C 692 139 722 156 744 192 C 766 227 777 278 777 344 C 777 396 768 442 752 482 C 735 522 712 555 683 582 C 653 608 619 628 580 641 C 540 654 498 661 452 661 C 404 661 358 652 315 635 C 272 618 234 594 201 562 C 168 530 142 491 123 445 C 103 399 94 347 94 289 C 94 239 101 193 116 151 C 130 109 152 73 181 43 C 209 13 245 -10 287 -27 C 329 -43 377 -52 433 -52 C 467 -52 500 -48 532 -41 C 563 -34 594 -25 624 -14 L 642 -59 C 610 -72 577 -82 543 -90 C 509 -98 472 -102 434 -102 Z M 402 130 C 427 130 449 135 468 146 C 486 157 502 172 514 191 C 526 209 534 231 540 256 C 546 281 549 308 549 336 C 549 377 540 410 522 436 C 504 461 475 474 435 474 C 412 474 392 468 375 458 C 357 447 343 432 331 414 C 319 396 311 374 305 350 C 299 325 296 299 296 271 C 296 231 304 197 321 170 C 337 143 364 130 402 130 Z" unicode="@" />
<glyph horiz-adv-x="634" d="M 278 715 L 354 715 L 626 0 L 554 0 L 471 225 L 160 225 L 76 0 L 8 0 L 278 715 Z M 451 280 L 353 547 C 349 557 344 568 340 580 C 336 592 332 603 329 614 C 325 626 321 638 317 651 L 315 651 L 303 615 C 299 604 296 593 292 581 C 288 569 284 557 280 547 L 180 280 L 451 280 Z" unicode="A" />
<glyph horiz-adv-x="623" d="M 64 715 L 361 715 C 425 715 476 697 513 663 C 529 647 542 629 551 608 C 560 586 565 562 565 535 C 565 494 555 461 537 436 C 519 411 492 392 456 380 L 456 377 C 497 365 530 345 556 316 C 582 287 595 249 595 201 C 595 143 577 97 543 61 C 524 41 500 26 472 16 C 444 5 411 0 374 0 L 64 0 L 64 715 Z M 370 61 C 398 61 421 64 441 72 C 461 79 477 89 491 102 C 515 126 527 158 527 200 C 527 246 512 281 484 306 C 455 330 417 343 370 343 L 131 343 L 131 61 L 370 61 Z M 360 401 C 404 401 437 412 461 436 C 485 459 497 490 497 530 C 497 570 485 601 461 623 C 437 645 404 656 362 656 L 131 656 L 131 401 L 360 401 Z" unicode="B" />
<glyph horiz-adv-x="677" d="M 358 -13 C 308 -13 263 -4 223 14 C 183 32 150 57 122 90 C 94 122 73 161 58 207 C 43 252 36 302 36 357 C 36 411 43 460 58 506 C 73 552 95 591 123 624 C 151 657 185 683 225 702 C 265 720 310 730 361 730 C 437 730 498 710 546 671 C 594 632 624 579 636 513 L 570 513 C 560 559 538 597 502 627 C 466 657 418 672 360 672 C 318 672 281 663 249 647 C 217 631 191 608 170 580 C 148 552 132 518 122 480 C 111 442 106 401 106 357 C 106 312 111 271 122 233 C 133 195 149 162 171 134 C 192 106 218 85 250 69 C 281 53 317 46 359 46 C 393 46 424 51 451 63 C 477 74 500 89 519 109 C 537 128 552 151 563 177 C 573 203 580 230 583 260 L 648 260 C 646 224 638 190 625 157 C 612 124 595 96 574 73 C 548 45 517 23 481 9 C 445 -5 404 -13 358 -13 Z" unicode="C" />
<glyph horiz-adv-x="660" d="M 309 59 C 351 59 388 66 419 80 C 450 94 476 113 496 139 C 516 165 530 196 540 232 C 549 268 554 309 554 355 C 554 400 549 441 541 478 C 532 515 518 547 499 573 C 480 599 455 620 425 634 C 395 648 358 656 316 656 L 131 656 L 131 59 L 309 59 Z M 64 715 L 318 715 C 370 715 416 706 455 688 C 493 670 525 646 550 614 C 575 582 594 544 606 500 C 618 456 624 407 624 355 C 624 301 617 253 605 210 C 592 166 573 129 547 98 C 521 66 488 42 449 25 C 409 8 363 0 311 0 L 64 0 L 64 715 Z" unicode="D" />
<glyph horiz-adv-x="598" d="M 64 715 L 550 715 L 550 656 L 131 656 L 131 399 L 515 399 L 515 341 L 131 341 L 131 62 L 561 62 L 561 0 L 64 0 L 64 715 Z" unicode="E" />
<glyph horiz-adv-x="556" d="M 64 715 L 530 715 L 530 656 L 131 656 L 131 402 L 471 402 L 471 344 L 131 344 L 131 0 L 64 0 L 64 715 Z" unicode="F" />
<glyph horiz-adv-x="722" d="M 364 -14 C 312 -14 265 -4 225 14 C 184 32 150 58 122 91 C 94 124 72 163 58 209 C 43 254 36 303 36 357 C 36 409 43 458 58 504 C 73 549 95 588 124 622 C 152 655 188 681 230 700 C 272 719 320 729 374 729 C 448 729 510 710 560 673 C 610 635 642 580 656 508 L 587 508 C 575 562 551 602 513 630 C 475 657 428 671 374 671 C 328 671 288 662 254 646 C 220 630 193 607 171 579 C 149 550 132 517 122 479 C 111 441 106 400 106 357 C 106 313 111 272 122 234 C 133 196 149 163 171 135 C 193 107 220 85 252 69 C 284 53 322 45 365 45 C 406 45 441 51 471 64 C 501 77 525 95 545 117 C 564 139 578 164 587 193 C 596 221 601 251 601 283 L 601 308 L 371 308 L 371 367 L 667 367 L 667 0 L 620 0 L 606 114 L 603 114 C 593 99 582 84 568 69 C 554 54 538 40 519 28 C 499 16 477 6 451 -2 C 425 -10 396 -14 364 -14 Z" unicode="G" />
<glyph horiz-adv-x="667" d="M 64 715 L 131 715 L 131 406 L 536 406 L 536 715 L 603 715 L 603 0 L 536 0 L 536 350 L 131 350 L 131 0 L 64 0 L 64 715 Z" unicode="H" />
<glyph horiz-adv-x="202" d="M 67 715 L 134 715 L 134 0 L 67 0 L 67 715 Z" unicode="I" />
<glyph horiz-adv-x="475" d="M 224 -13 C 160 -13 111 4 75 38 C 39 72 22 125 22 199 L 22 226 L 88 226 L 88 202 C 88 143 99 102 122 79 C 145 55 180 44 226 44 C 264 44 294 54 316 75 C 338 96 349 130 349 176 L 349 715 L 416 715 L 416 171 C 416 145 412 120 404 98 C 396 75 385 55 369 39 C 353 23 333 10 309 1 C 285 -8 256 -13 224 -13 Z" unicode="J" />
<glyph horiz-adv-x="625" d="M 64 715 L 131 715 L 131 334 L 517 715 L 604 715 L 305 424 L 622 0 L 542 0 L 259 378 L 131 252 L 131 0 L 64 0 L 64 715 Z" unicode="K" />
<glyph horiz-adv-x="536" d="M 64 715 L 131 715 L 131 62 L 512 62 L 512 0 L 64 0 L 64 715 Z" unicode="L" />
<glyph horiz-adv-x="803" d="M 64 715 L 155 715 L 402 91 L 404 91 L 645 715 L 739 715 L 739 0 L 674 0 L 674 623 L 672 623 C 668 611 665 600 661 589 C 657 579 653 569 649 558 C 645 546 641 536 638 526 L 431 0 L 372 0 L 163 526 C 159 535 155 545 151 556 C 147 567 143 578 140 588 C 136 600 132 611 128 623 L 126 623 L 126 0 L 64 0 L 64 715 Z" unicode="M" />
<glyph horiz-adv-x="667" d="M 64 715 L 137 715 L 466 213 C 475 199 484 186 492 172 C 500 158 508 145 515 134 C 522 120 529 107 537 95 L 539 95 L 539 715 L 603 715 L 603 0 L 533 0 L 205 496 C 196 508 187 522 179 536 C 170 550 162 563 155 575 C 146 589 138 603 130 617 L 128 617 L 128 0 L 64 0 L 64 715 Z" unicode="N" />
<glyph horiz-adv-x="738" d="M 368 46 C 410 46 448 54 481 70 C 514 86 542 109 564 137 C 586 165 603 198 615 236 C 626 274 632 314 632 358 C 632 401 626 442 615 480 C 603 518 586 551 564 579 C 542 607 514 629 481 645 C 448 661 410 670 368 670 C 325 670 287 661 255 645 C 222 629 195 607 173 579 C 151 551 134 518 123 480 C 111 442 106 401 106 358 C 106 314 111 274 123 236 C 134 198 151 165 173 137 C 195 109 222 86 255 70 C 287 54 325 46 368 46 Z M 368 -14 C 317 -14 271 -4 231 14 C 190 32 155 58 126 92 C 97 125 75 164 59 210 C 43 255 36 304 36 358 C 36 411 43 460 59 506 C 75 551 97 590 126 624 C 155 657 190 683 231 702 C 271 720 317 730 368 730 C 418 730 464 720 506 702 C 547 683 582 657 611 624 C 640 590 662 551 678 506 C 694 460 702 411 702 358 C 702 304 694 255 678 210 C 662 164 640 125 611 92 C 582 58 547 32 506 14 C 464 -4 418 -14 368 -14 Z" unicode="O" />
<glyph horiz-adv-x="586" d="M 64 715 L 345 715 C 384 715 417 709 444 699 C 470 688 493 673 513 653 C 529 635 541 615 550 593 C 558 571 563 545 563 515 C 563 448 544 397 506 363 C 468 328 411 311 336 311 L 131 311 L 131 0 L 64 0 L 64 715 Z M 331 368 C 389 368 430 380 456 406 C 482 432 495 467 495 513 C 495 559 481 594 455 619 C 428 643 389 656 337 656 L 131 656 L 131 368 L 331 368 Z" unicode="P" />
<glyph horiz-adv-x="738" d="M 368 46 C 416 46 458 56 494 77 L 417 141 L 453 186 L 543 113 C 573 141 595 176 610 218 C 624 260 632 307 632 358 C 632 401 626 442 615 480 C 603 518 586 551 564 579 C 542 607 514 629 481 645 C 448 661 410 670 368 670 C 325 670 287 661 255 645 C 222 629 195 607 173 579 C 151 551 134 518 123 480 C 111 442 106 401 106 358 C 106 314 111 274 123 236 C 134 198 151 165 173 137 C 195 109 222 86 255 70 C 287 54 325 46 368 46 Z M 545 36 C 520 20 493 7 463 -1 C 433 -9 402 -14 368 -14 C 317 -14 271 -4 231 14 C 190 32 155 58 126 92 C 97 125 75 164 59 210 C 43 255 36 304 36 358 C 36 411 43 460 59 506 C 75 551 97 590 126 624 C 155 657 190 683 231 702 C 271 720 317 730 368 730 C 418 730 464 720 506 702 C 547 683 582 657 611 624 C 640 590 662 551 678 506 C 694 460 702 411 702 358 C 702 298 692 244 673 196 C 654 148 627 107 592 73 L 686 -3 L 649 -49 L 545 36 Z" unicode="Q" />
<glyph horiz-adv-x="618" d="M 64 715 L 355 715 C 393 715 426 709 453 698 C 480 687 503 672 522 653 C 555 618 572 572 572 515 C 572 464 559 422 535 390 C 510 357 475 334 429 322 L 599 0 L 525 0 L 363 313 L 131 313 L 131 0 L 64 0 L 64 715 Z M 343 370 C 400 370 441 382 467 407 C 492 432 505 467 505 513 C 505 559 491 594 465 619 C 438 643 398 656 346 656 L 131 656 L 131 370 L 343 370 Z" unicode="R" />
<glyph horiz-adv-x="599" d="M 312 -13 C 264 -13 223 -6 188 5 C 153 17 124 35 100 57 C 76 79 57 105 45 135 C 32 165 25 197 23 232 L 90 232 C 93 171 114 124 153 92 C 192 59 245 43 313 43 C 339 43 363 46 385 53 C 407 59 427 69 443 82 C 459 94 472 110 482 129 C 491 147 496 169 496 193 C 496 218 491 239 483 255 C 474 271 461 285 443 297 C 425 308 402 317 374 325 C 346 333 314 341 276 349 C 242 355 212 363 185 372 C 157 381 134 393 114 407 C 94 421 78 439 67 461 C 56 482 51 508 51 540 C 51 568 56 594 68 617 C 79 640 95 660 116 677 C 137 693 162 706 192 715 C 221 724 254 729 290 729 C 330 729 365 723 395 713 C 425 703 450 688 471 670 C 491 652 507 630 519 604 C 531 578 538 550 542 520 L 477 520 C 471 570 451 608 418 634 C 384 660 342 673 291 673 C 236 673 193 661 162 637 C 131 613 116 582 116 542 C 116 520 120 502 128 488 C 136 474 149 462 165 452 C 181 442 201 433 225 426 C 249 419 278 413 310 407 C 344 400 377 392 408 384 C 439 375 466 363 489 348 C 512 332 530 312 544 288 C 557 264 564 233 564 196 C 564 164 557 135 545 109 C 533 83 516 62 494 44 C 472 26 445 12 414 2 C 383 -8 349 -13 312 -13 Z" unicode="S" />
<glyph horiz-adv-x="588" d="M 261 655 L 19 655 L 19 715 L 569 715 L 569 655 L 328 655 L 328 0 L 261 0 L 261 655 Z" unicode="T" />
<glyph horiz-adv-x="636" d="M 316 -11 C 276 -11 241 -6 209 3 C 177 12 150 26 127 46 C 104 66 86 90 74 120 C 62 150 56 185 56 227 L 56 715 L 123 715 L 123 233 C 123 167 140 119 174 90 C 208 61 256 47 319 47 C 349 47 376 50 400 57 C 424 64 444 75 461 90 C 478 105 491 124 500 148 C 509 171 514 199 514 233 L 514 715 L 581 715 L 581 227 C 581 185 574 150 561 120 C 548 90 530 65 506 46 C 482 26 454 12 422 3 C 390 -6 354 -11 316 -11 Z" unicode="U" />
<glyph horiz-adv-x="604" d="M 8 715 L 78 715 L 263 187 C 267 175 271 163 275 149 C 279 135 284 123 288 111 C 292 97 296 83 301 69 L 303 69 C 307 83 311 98 316 113 C 320 125 324 138 329 152 C 333 166 338 178 342 190 L 528 715 L 596 715 L 337 0 L 264 0 L 8 715 Z" unicode="V" />
<glyph horiz-adv-x="880" d="M 12 715 L 81 715 L 205 233 C 208 219 212 205 216 189 C 220 173 223 157 227 143 C 230 125 234 108 238 92 L 240 92 C 244 108 248 124 252 141 C 255 155 259 169 263 185 C 267 201 270 215 274 229 L 405 715 L 477 715 L 608 230 C 611 216 614 202 618 186 C 622 170 625 156 629 142 C 633 125 637 108 641 92 L 643 92 C 647 108 651 125 655 143 C 658 157 661 173 665 189 C 669 205 672 219 676 233 L 801 715 L 868 715 L 674 0 L 606 0 L 470 521 C 466 532 463 544 460 558 C 456 572 453 584 451 596 C 448 609 445 623 442 637 L 440 637 C 436 623 433 609 431 596 C 428 584 425 572 422 558 C 419 544 416 532 413 521 L 273 0 L 202 0 L 12 715 Z" unicode="W" />
<glyph horiz-adv-x="590" d="M 258 365 L 26 715 L 103 715 L 298 413 L 300 413 L 493 715 L 567 715 L 336 364 L 578 0 L 499 0 L 296 316 L 294 316 L 88 0 L 12 0 L 258 365 Z" unicode="X" />
<glyph horiz-adv-x="600" d="M 265 312 L 7 715 L 81 715 L 299 369 L 301 369 L 521 715 L 593 715 L 333 310 L 333 0 L 265 0 L 265 312 Z" unicode="Y" />
<glyph horiz-adv-x="593" d="M 26 65 L 463 655 L 463 658 L 53 658 L 53 715 L 544 715 L 544 658 L 104 63 L 104 60 L 560 60 L 560 0 L 26 0 L 26 65 Z" unicode="Z" />
<glyph horiz-adv-x="288" d="M 80 754 L 255 754 L 255 701 L 144 701 L 144 -63 L 255 -63 L 255 -118 L 80 -118 L 80 754 Z" unicode="[" />
<glyph horiz-adv-x="381" d="M 16 715 L 81 715 L 365 0 L 300 0 L 16 715 Z" unicode="\" />
<glyph horiz-adv-x="288" d="M 33 -63 L 144 -63 L 144 701 L 33 701 L 33 754 L 208 754 L 208 -118 L 33 -118 L 33 -63 Z" unicode="]" />
<glyph horiz-adv-x="410" d="M 169 715 L 241 715 L 398 446 L 332 446 L 206 666 L 204 666 L 77 446 L 12 446 L 169 715 Z" unicode="^" />
<glyph horiz-adv-x="384" d="M -2 -117 L 386 -117 L 386 -166 L -2 -166 L -2 -117 Z" unicode="_" />
<glyph horiz-adv-x="500" d="M 143 719 L 225 719 L 291 592 L 237 592 L 143 719 Z" unicode="`" />
<glyph horiz-adv-x="499" d="M 192 -12 C 168 -12 145 -9 125 -3 C 104 3 86 12 71 24 C 56 36 44 51 36 69 C 27 87 23 108 23 132 C 23 162 28 187 40 207 C 51 226 66 241 86 253 C 105 265 127 274 153 280 C 179 286 206 290 236 294 C 261 296 282 299 300 302 C 318 305 332 309 343 314 C 354 318 362 324 367 332 C 372 340 375 350 375 364 L 375 374 C 375 409 364 435 343 452 C 321 469 291 478 251 478 C 159 478 110 439 106 363 L 45 363 C 48 413 66 453 100 483 C 134 513 184 528 251 528 C 307 528 352 515 385 490 C 417 465 434 424 434 368 L 434 87 C 434 71 436 60 442 53 C 448 46 456 42 468 42 C 471 42 474 42 478 43 C 482 43 486 44 491 46 L 494 46 L 494 1 C 489 -1 483 -2 477 -4 C 470 -6 462 -7 452 -7 C 429 -7 411 -1 398 10 C 384 22 377 40 376 66 L 376 77 L 373 77 C 365 67 356 56 346 46 C 336 35 323 25 309 17 C 294 8 277 1 258 -4 C 238 -9 216 -12 192 -12 Z M 203 38 C 231 38 255 42 277 51 C 299 60 317 72 332 86 C 346 100 357 115 365 133 C 372 151 376 169 376 187 L 376 280 C 359 270 339 263 315 258 C 291 253 267 249 242 246 C 220 242 199 239 181 235 C 162 231 146 226 132 218 C 118 210 108 199 100 185 C 92 171 88 154 88 132 C 88 114 91 99 97 87 C 103 75 112 65 122 58 C 132 50 145 45 159 42 C 173 39 187 38 203 38 Z" unicode="a" />
<glyph horiz-adv-x="530" d="M 287 -14 C 247 -14 213 -6 186 9 C 159 24 136 47 116 78 L 114 78 L 114 0 L 52 0 L 52 715 L 114 715 L 114 428 L 116 428 C 134 458 157 482 186 500 C 214 518 249 528 291 528 C 321 528 350 522 376 510 C 402 498 425 480 444 457 C 462 433 477 405 488 371 C 498 337 504 299 504 257 C 504 217 499 180 489 147 C 479 114 464 86 446 62 C 428 38 405 19 378 6 C 351 -7 321 -14 287 -14 Z M 284 38 C 310 38 333 43 353 55 C 373 66 389 81 402 101 C 415 121 425 144 431 171 C 437 197 441 226 441 256 C 441 288 437 317 431 344 C 424 371 414 394 401 414 C 387 434 371 449 351 460 C 331 470 309 476 283 476 C 254 476 229 470 207 459 C 185 447 167 432 153 412 C 138 392 127 368 120 342 C 112 315 109 286 109 256 C 109 224 112 194 120 167 C 127 140 138 117 153 98 C 167 79 186 64 208 54 C 230 43 255 38 284 38 Z" unicode="b" />
<glyph horiz-adv-x="491" d="M 260 -13 C 222 -13 188 -6 159 7 C 130 21 106 40 86 64 C 66 88 50 117 40 150 C 30 183 25 219 25 258 C 25 296 30 332 41 365 C 51 398 67 427 87 451 C 107 475 131 494 161 508 C 190 522 223 529 261 529 C 318 529 365 514 401 485 C 437 455 460 414 469 361 L 407 361 C 399 399 383 428 358 448 C 333 467 301 477 261 477 C 231 477 205 471 183 459 C 161 447 144 432 130 412 C 116 392 105 369 99 343 C 92 316 89 288 89 258 C 89 228 92 199 99 173 C 106 147 117 124 131 104 C 145 84 162 68 184 57 C 205 45 230 40 260 40 C 304 40 339 52 365 77 C 391 102 407 136 413 178 L 472 178 C 466 119 444 72 408 38 C 371 4 322 -13 260 -13 Z" unicode="c" />
<glyph horiz-adv-x="532" d="M 248 -14 C 213 -14 182 -7 154 6 C 126 19 103 38 84 62 C 65 86 50 114 40 147 C 30 180 25 217 25 257 C 25 299 30 337 42 371 C 53 405 69 433 89 457 C 109 480 132 498 159 510 C 186 522 215 528 246 528 C 286 528 320 519 348 502 C 376 484 399 461 416 431 L 418 431 L 418 715 L 480 715 L 480 0 L 418 0 L 418 77 L 416 77 C 396 47 373 24 347 9 C 320 -6 287 -14 248 -14 Z M 250 38 C 278 38 302 43 324 54 C 346 64 364 79 379 98 C 393 117 404 140 412 167 C 419 194 423 224 423 256 C 423 288 419 317 411 344 C 403 370 392 393 378 413 C 364 433 346 448 324 459 C 302 470 278 476 250 476 C 224 476 202 470 182 460 C 162 449 145 434 131 414 C 117 394 107 371 100 344 C 92 317 89 288 89 256 C 89 226 92 197 99 171 C 105 144 115 121 129 101 C 142 81 159 66 179 55 C 199 43 222 38 250 38 Z" unicode="d" />
<glyph horiz-adv-x="508" d="M 266 -13 C 227 -13 193 -6 163 7 C 133 21 107 40 87 64 C 67 88 51 117 41 150 C 30 183 25 219 25 258 C 25 296 30 332 42 365 C 53 398 69 427 89 451 C 109 475 134 494 163 508 C 192 522 225 529 261 529 C 302 529 337 521 365 505 C 393 489 416 468 434 442 C 452 416 464 386 472 352 C 479 318 483 283 483 247 L 89 247 C 89 217 93 190 101 165 C 109 140 120 118 134 100 C 148 81 167 66 189 56 C 211 45 236 40 266 40 C 309 40 342 50 366 71 C 390 92 407 120 417 156 L 477 156 C 465 104 442 63 407 33 C 371 2 324 -13 266 -13 Z M 418 296 C 417 321 413 345 407 367 C 400 389 390 409 378 425 C 365 441 349 454 330 464 C 310 473 287 478 261 478 C 235 478 211 473 191 464 C 171 454 154 441 140 425 C 126 409 114 390 106 368 C 98 346 92 322 90 296 L 418 296 Z" unicode="e" />
<glyph horiz-adv-x="269" d="M 91 466 L 16 466 L 16 517 L 91 517 L 91 609 C 91 647 101 675 121 693 C 141 711 172 720 212 720 C 215 720 221 719 230 719 C 239 719 245 719 247 719 L 247 666 L 220 666 C 194 666 176 661 166 651 C 156 641 152 626 152 607 L 152 517 L 248 517 L 248 466 L 152 466 L 152 0 L 91 0 L 91 466 Z" unicode="f" />
<glyph horiz-adv-x="527" d="M 254 -181 C 190 -181 140 -168 106 -142 C 71 -116 51 -84 47 -46 L 107 -46 C 112 -76 128 -97 155 -110 C 182 -123 214 -130 252 -130 C 307 -130 348 -116 374 -90 C 400 -64 414 -28 414 18 L 414 100 L 411 100 C 391 70 369 48 344 33 C 318 17 286 10 247 10 C 213 10 182 16 155 29 C 127 41 104 59 85 82 C 65 104 50 131 40 163 C 30 195 25 230 25 268 C 25 310 31 347 43 379 C 55 411 71 439 91 461 C 111 483 134 499 161 511 C 188 522 217 528 247 528 C 287 528 320 519 346 503 C 372 487 393 465 411 437 L 414 437 L 414 517 L 475 517 L 475 20 C 475 -37 459 -83 427 -119 C 387 -160 330 -181 254 -181 Z M 250 62 C 307 62 349 81 377 119 C 404 157 418 207 418 269 C 418 299 414 327 408 353 C 401 378 391 400 377 418 C 363 436 345 451 324 461 C 303 471 279 476 251 476 C 199 476 159 457 131 419 C 103 381 89 330 89 267 C 89 237 92 210 99 185 C 105 160 115 138 129 120 C 142 102 159 87 179 77 C 199 67 222 62 250 62 Z" unicode="g" />
<glyph horiz-adv-x="505" d="M 55 715 L 117 715 L 117 438 L 119 438 C 136 464 159 485 187 502 C 215 519 250 528 292 528 C 340 528 379 514 410 486 C 441 458 457 419 457 367 L 457 0 L 395 0 L 395 361 C 395 400 384 429 363 447 C 342 465 313 475 277 475 C 255 475 234 471 215 464 C 195 456 178 446 164 433 C 149 420 137 405 129 387 C 121 369 117 349 117 328 L 117 0 L 55 0 L 55 715 Z" unicode="h" />
<glyph horiz-adv-x="169" d="M 54 517 L 116 517 L 116 0 L 54 0 L 54 517 Z M 54 715 L 116 715 L 116 627 L 54 627 L 54 715 Z" unicode="i" />
<glyph horiz-adv-x="169" d="M -20 -105 L -19 -105 C -17 -105 -14 -106 -10 -106 C -6 -106 -4 -106 -2 -106 C 17 -106 31 -101 40 -92 C 49 -83 54 -68 54 -47 L 54 517 L 116 517 L 116 -50 C 116 -92 106 -120 86 -135 C 66 -150 40 -158 6 -158 C 2 -158 -2 -158 -8 -158 C -13 -158 -17 -157 -20 -157 L -20 -105 Z M 54 715 L 116 715 L 116 627 L 54 627 L 54 715 Z" unicode="j" />
<glyph horiz-adv-x="476" d="M 52 715 L 114 715 L 114 268 L 371 517 L 450 517 L 252 330 L 474 0 L 402 0 L 209 290 L 114 199 L 114 0 L 52 0 L 52 715 Z" unicode="k" />
<glyph horiz-adv-x="172" d="M 55 715 L 117 715 L 117 0 L 55 0 L 55 715 Z" unicode="l" />
<glyph horiz-adv-x="784" d="M 52 517 L 114 517 L 114 439 L 116 439 C 132 465 153 486 179 503 C 204 519 235 528 273 528 C 305 528 333 520 358 504 C 382 488 400 465 411 434 L 413 434 C 430 464 453 487 481 503 C 509 519 542 528 579 528 C 601 528 621 524 640 517 C 659 510 676 500 690 486 C 704 472 715 456 723 436 C 731 416 735 393 735 367 L 735 0 L 674 0 L 674 362 C 674 400 663 429 643 447 C 623 465 597 475 565 475 C 545 475 527 471 511 465 C 494 458 479 448 466 436 C 453 424 443 408 436 390 C 428 372 425 351 425 329 L 425 0 L 363 0 L 363 362 C 363 400 353 429 333 447 C 313 465 289 475 259 475 C 240 475 222 471 205 464 C 187 456 172 446 158 433 C 144 420 134 405 126 387 C 118 369 114 349 114 329 L 114 0 L 52 0 L 52 517 Z" unicode="m" />
<glyph horiz-adv-x="502" d="M 52 517 L 114 517 L 114 438 L 116 438 C 133 464 156 485 184 502 C 212 519 247 528 289 528 C 337 528 376 514 407 486 C 438 458 454 419 454 367 L 454 0 L 392 0 L 392 361 C 392 400 381 429 360 447 C 339 465 310 475 274 475 C 252 475 231 471 212 464 C 192 456 175 446 161 433 C 146 420 134 405 126 387 C 118 369 114 349 114 328 L 114 0 L 52 0 L 52 517 Z" unicode="n" />
<glyph horiz-adv-x="529" d="M 265 39 C 293 39 319 44 341 56 C 363 67 381 83 396 103 C 410 123 421 146 429 173 C 436 199 440 228 440 258 C 440 288 436 316 429 343 C 421 369 410 393 396 413 C 381 433 363 448 341 460 C 319 471 293 477 265 477 C 235 477 210 471 188 460 C 166 448 148 433 133 413 C 118 393 107 369 100 343 C 92 316 89 288 89 258 C 89 228 92 199 100 173 C 107 146 118 123 133 103 C 148 83 166 67 188 56 C 210 44 235 39 265 39 Z M 265 -13 C 227 -13 194 -6 164 7 C 134 21 109 40 89 64 C 68 88 52 117 41 150 C 30 183 25 219 25 258 C 25 296 30 332 41 365 C 52 398 68 427 89 451 C 109 475 134 494 164 508 C 194 522 227 529 265 529 C 302 529 335 522 365 508 C 394 494 419 475 440 451 C 460 427 476 398 487 365 C 497 332 503 296 503 258 C 503 219 497 183 487 150 C 476 117 460 88 440 64 C 419 40 394 21 365 7 C 335 -6 302 -13 265 -13 Z" unicode="o" />
<glyph horiz-adv-x="530" d="M 52 517 L 114 517 L 114 428 L 116 428 C 134 458 157 483 186 501 C 214 519 249 528 291 528 C 321 528 350 522 376 510 C 402 498 425 480 444 457 C 463 434 478 406 489 372 C 499 338 505 300 505 258 C 505 218 500 181 490 148 C 480 115 465 87 447 63 C 428 39 405 20 378 7 C 351 -6 321 -13 287 -13 C 247 -13 213 -5 186 9 C 158 24 135 46 116 75 L 114 75 L 114 -166 L 52 -166 L 52 517 Z M 284 39 C 310 39 333 44 353 56 C 373 67 389 83 402 103 C 415 123 425 146 432 172 C 438 198 442 227 442 257 C 442 289 438 318 431 345 C 424 372 414 395 401 415 C 387 434 371 449 351 460 C 331 470 309 476 283 476 C 254 476 229 470 207 459 C 185 447 167 432 153 412 C 138 392 127 368 120 342 C 112 315 109 286 109 256 C 109 224 112 194 119 168 C 126 142 137 119 152 100 C 166 80 185 65 207 55 C 229 44 254 39 284 39 Z" unicode="p" />
<glyph horiz-adv-x="532" d="M 418 77 L 416 77 C 396 47 373 25 346 10 C 319 -5 286 -13 247 -13 C 212 -13 181 -6 154 7 C 126 20 103 38 85 62 C 66 86 52 114 42 147 C 32 180 27 217 27 257 C 27 299 32 337 44 371 C 55 405 71 433 91 457 C 111 480 134 498 161 510 C 187 522 216 528 247 528 C 287 528 320 519 348 503 C 376 486 398 463 416 435 L 418 435 L 418 517 L 480 517 L 480 -166 L 418 -166 L 418 77 Z M 250 39 C 278 39 303 44 325 55 C 346 65 364 80 379 99 C 393 118 404 141 412 168 C 419 194 423 224 423 256 C 423 288 419 317 412 344 C 404 370 393 393 379 413 C 365 433 347 448 326 459 C 304 470 279 476 251 476 C 225 476 202 470 182 460 C 162 449 145 434 131 414 C 117 394 107 371 100 344 C 93 317 90 288 90 256 C 90 226 93 197 99 171 C 105 144 115 121 128 102 C 141 82 158 67 178 56 C 198 44 222 39 250 39 Z" unicode="q" />
<glyph horiz-adv-x="308" d="M 52 517 L 114 517 L 114 421 L 116 421 C 132 451 153 475 180 493 C 206 511 238 521 274 521 C 278 521 281 520 284 520 C 286 520 289 519 291 519 L 291 458 C 272 461 253 460 234 456 C 214 452 197 444 181 433 C 161 417 144 398 132 375 C 120 351 114 324 114 294 L 114 0 L 52 0 L 52 517 Z" unicode="r" />
<glyph horiz-adv-x="451" d="M 233 -14 C 198 -14 168 -9 142 0 C 116 8 94 20 76 36 C 58 51 45 69 35 91 C 25 112 20 135 19 161 L 82 161 C 86 117 102 85 130 67 C 157 48 192 39 234 39 C 277 39 310 48 332 66 C 354 84 365 109 365 139 C 365 153 362 165 358 175 C 354 185 346 193 336 201 C 325 209 311 215 293 221 C 275 227 253 233 227 239 C 201 245 176 251 153 258 C 130 265 110 274 93 285 C 76 295 63 309 53 325 C 43 341 38 362 38 388 C 38 409 42 428 51 446 C 59 463 72 478 88 490 C 104 502 123 511 145 518 C 167 524 191 528 218 528 C 248 528 275 524 298 517 C 320 509 339 499 355 485 C 371 471 383 455 392 437 C 400 418 406 397 410 375 L 348 375 C 344 409 331 434 309 451 C 287 468 256 477 218 477 C 178 477 148 468 129 452 C 109 435 100 415 100 391 C 100 376 103 364 109 354 C 115 344 124 336 136 329 C 148 322 164 316 183 311 C 201 306 223 301 248 295 C 274 289 298 283 320 276 C 342 269 360 260 376 249 C 392 237 404 223 413 206 C 422 188 427 166 427 140 C 427 94 409 56 375 28 C 340 0 293 -14 233 -14 Z" unicode="s" />
<glyph horiz-adv-x="282" d="M 194 -4 C 164 -4 140 3 122 17 C 104 31 95 55 95 89 L 95 466 L 17 466 L 17 517 L 95 517 L 95 676 L 157 676 L 157 517 L 253 517 L 253 466 L 157 466 L 157 99 C 157 80 161 67 169 60 C 177 53 190 50 207 50 C 214 50 221 50 229 52 C 237 54 243 56 248 58 L 251 58 L 251 5 C 233 -1 214 -4 194 -4 Z" unicode="t" />
<glyph horiz-adv-x="495" d="M 218 -12 C 168 -12 127 2 95 31 C 63 59 48 100 48 152 L 48 517 L 110 517 L 110 156 C 110 116 120 87 142 68 C 164 49 194 40 232 40 C 254 40 274 43 292 51 C 310 59 326 70 340 84 C 353 98 363 114 371 133 C 378 151 382 172 382 194 L 382 517 L 443 517 L 443 0 L 382 0 L 382 76 L 380 76 C 362 50 340 29 316 13 C 291 -3 258 -12 218 -12 Z" unicode="u" />
<glyph horiz-adv-x="456" d="M 6 517 L 72 517 L 183 189 C 187 176 191 162 196 147 C 201 132 206 118 210 105 C 214 89 219 73 225 58 L 227 58 C 231 73 236 89 242 105 C 246 118 251 132 256 147 C 260 162 265 176 270 189 L 386 517 L 449 517 L 262 0 L 189 0 L 6 517 Z" unicode="v" />
<glyph horiz-adv-x="711" d="M 10 517 L 75 517 L 165 197 C 168 183 172 169 176 153 C 180 137 183 123 187 110 C 190 94 194 78 198 62 L 200 62 C 204 77 208 93 212 109 C 215 122 218 136 222 151 C 226 166 229 180 233 192 L 321 517 L 388 517 L 473 192 C 476 180 479 166 483 151 C 486 136 489 122 493 109 C 496 93 500 77 504 62 L 506 62 C 510 78 514 94 518 111 C 521 124 525 138 529 154 C 533 170 538 184 542 197 L 638 517 L 701 517 L 538 0 L 470 0 L 381 330 C 377 342 374 355 371 369 C 368 383 365 395 363 407 C 360 420 357 433 354 447 L 352 447 C 348 433 345 420 343 407 C 340 395 337 383 334 369 C 331 355 328 342 325 330 L 234 0 L 164 0 L 10 517 Z" unicode="w" />
<glyph horiz-adv-x="481" d="M 202 273 L 29 517 L 101 517 L 236 318 L 238 318 L 373 517 L 443 517 L 275 278 L 473 0 L 400 0 L 239 233 L 237 233 L 78 0 L 8 0 L 202 273 Z" unicode="x" />
<glyph horiz-adv-x="469" d="M 106 -171 C 94 -171 85 -170 77 -169 C 69 -167 61 -165 53 -163 L 53 -108 L 56 -108 C 60 -109 66 -110 74 -112 C 81 -114 91 -115 103 -115 C 122 -115 139 -110 153 -100 C 167 -90 179 -71 189 -45 L 206 1 L 7 517 L 73 517 L 197 183 C 201 171 206 158 211 144 C 215 130 220 117 224 106 C 228 92 233 78 238 65 L 240 65 C 244 78 248 92 253 106 C 257 117 261 130 265 144 C 269 158 274 171 279 183 L 398 517 L 462 517 L 249 -54 C 240 -77 231 -96 221 -111 C 211 -126 201 -138 189 -147 C 177 -156 165 -162 151 -166 C 137 -169 122 -171 106 -171 Z" unicode="y" />
<glyph horiz-adv-x="447" d="M 28 53 L 330 460 L 330 463 L 48 463 L 48 517 L 413 517 L 413 473 L 105 58 L 105 55 L 422 55 L 422 0 L 28 0 L 28 53 Z" unicode="z" />
<glyph horiz-adv-x="288" d="M 228 -118 C 184 -118 150 -107 127 -86 C 104 -64 93 -29 93 21 L 93 225 C 93 247 88 264 78 276 C 68 287 50 293 24 295 L 24 349 C 50 349 68 355 78 367 C 88 378 93 395 93 418 L 93 616 C 93 666 104 701 127 722 C 150 743 184 754 228 754 L 246 754 L 246 701 L 230 701 C 204 701 185 694 174 682 C 162 670 157 647 157 615 L 157 414 C 157 388 152 367 143 353 C 134 338 120 328 101 323 L 101 321 C 120 315 134 304 143 290 C 152 276 157 256 157 230 L 157 22 C 157 -10 162 -33 174 -45 C 185 -57 204 -63 230 -63 L 246 -63 L 246 -118 L 228 -118 L 228 -118 Z" unicode="{" />
<glyph horiz-adv-x="210" d="M 77 754 L 133 754 L 133 -118 L 77 -118 L 77 754 Z" unicode="|" />
<glyph horiz-adv-x="288" d="M 42 -63 L 58 -63 C 83 -63 101 -57 113 -45 C 125 -33 131 -11 131 21 L 131 229 C 131 278 149 308 187 319 L 187 322 C 149 332 131 362 131 412 L 131 614 C 131 646 125 669 113 682 C 101 694 83 701 58 701 L 42 701 L 42 754 L 60 754 C 104 754 137 743 160 722 C 183 700 195 665 195 615 L 195 417 C 195 394 199 377 209 366 C 218 354 236 348 264 348 L 264 293 C 237 292 219 286 209 275 C 199 263 195 246 195 224 L 195 20 C 195 -30 183 -65 160 -86 C 137 -107 104 -118 60 -118 L 42 -118 L 42 -63 Z" unicode="}" />
<glyph horiz-adv-x="385" d="M 260 281 C 247 281 235 283 223 288 C 211 292 200 298 189 304 C 175 311 163 317 153 322 C 143 327 134 330 126 330 C 116 330 107 325 101 317 C 95 309 91 297 90 282 L 37 282 C 39 316 48 342 64 360 C 80 378 100 388 125 388 C 139 388 152 385 165 379 C 178 373 190 367 202 360 C 214 352 224 347 232 344 C 239 340 247 339 256 339 C 266 339 275 343 282 351 C 289 359 293 370 294 386 L 347 386 C 345 353 337 327 322 309 C 306 290 286 281 260 281 Z" unicode="~" />
<glyph horiz-adv-x="384" d="M 193 -111 C 227 -111 252 -96 268 -68 C 284 -40 293 0 293 51 C 293 101 284 141 268 171 C 251 200 226 215 193 215 C 159 215 133 200 116 172 C 99 143 91 103 91 51 C 91 1 99 -38 116 -67 C 133 -96 159 -111 193 -111 Z M 192 -159 C 141 -159 102 -140 74 -102 C 46 -64 32 -13 32 51 C 32 117 46 168 75 206 C 104 243 143 262 193 262 C 241 262 280 243 309 206 C 337 169 352 117 352 51 C 352 -13 338 -64 310 -102 C 282 -140 242 -159 192 -159 Z" unicode="₀" />
<glyph horiz-adv-x="256" d="M 121 143 L 29 143 L 29 181 C 58 181 81 187 99 198 C 116 208 127 228 131 256 L 178 256 L 178 -150 L 121 -150 L 121 143 Z" unicode="₁" />
<glyph horiz-adv-x="339" d="M 28 -150 C 28 -126 32 -106 40 -88 C 48 -70 57 -55 69 -41 C 81 -27 94 -14 108 -4 C 122 6 137 16 152 26 C 165 34 178 42 190 50 C 202 57 212 65 221 73 C 230 81 237 91 243 101 C 248 111 251 124 251 138 C 251 162 244 181 230 194 C 216 207 198 214 176 214 C 150 214 130 206 115 190 C 100 174 92 151 92 119 L 38 119 C 38 165 50 201 76 225 C 102 249 136 261 178 261 C 198 261 216 257 232 251 C 248 245 261 236 273 225 C 284 214 293 201 299 186 C 305 171 309 155 309 139 C 309 119 305 102 299 88 C 292 74 283 61 272 50 C 261 39 249 29 235 21 C 221 12 208 3 194 -5 C 184 -11 173 -17 163 -24 C 152 -30 142 -38 133 -46 C 123 -54 115 -62 109 -72 C 102 -81 97 -91 95 -103 L 307 -103 L 307 -150 L 28 -150 L 28 -150 Z" unicode="₂" />
<glyph horiz-adv-x="351" d="M 177 -158 C 154 -158 133 -154 115 -148 C 96 -142 80 -133 67 -121 C 53 -109 43 -94 36 -77 C 29 -60 26 -41 26 -20 L 80 -20 C 81 -50 90 -72 106 -88 C 122 -104 145 -112 175 -112 C 203 -112 224 -105 240 -91 C 255 -77 263 -58 263 -33 C 263 -9 255 8 239 21 C 223 34 201 41 173 41 L 146 41 L 146 85 L 172 85 C 196 85 215 90 229 102 C 243 114 250 130 250 151 C 250 172 243 188 229 200 C 215 212 197 218 176 218 C 148 218 128 210 114 194 C 100 178 93 157 92 132 L 39 132 C 39 170 52 201 76 225 C 100 249 133 262 177 262 C 214 262 245 252 269 233 C 293 213 305 187 305 153 C 305 130 299 112 287 98 C 275 84 260 73 242 67 L 242 65 C 294 51 321 16 321 -38 C 321 -57 317 -74 310 -89 C 302 -104 292 -117 279 -127 C 266 -137 251 -144 233 -150 C 215 -155 197 -158 177 -158 Z" unicode="₃" />
<glyph horiz-adv-x="358" d="M 217 -53 L 24 -53 L 24 2 L 218 258 L 271 258 L 271 -9 L 333 -9 L 333 -53 L 271 -53 L 271 -150 L 217 -150 L 217 -53 Z M 217 -9 L 217 180 L 215 180 L 72 -7 L 72 -9 L 217 -9 Z" unicode="₄" />
<glyph horiz-adv-x="345" d="M 172 -158 C 130 -158 96 -147 70 -125 C 43 -103 28 -74 26 -38 L 82 -38 C 85 -61 94 -79 109 -92 C 124 -104 145 -111 171 -111 C 197 -111 218 -102 234 -85 C 249 -68 257 -46 257 -18 C 257 10 249 32 233 48 C 217 64 196 72 172 72 C 152 72 135 68 122 61 C 108 54 98 46 91 36 L 39 36 L 76 253 L 294 253 L 294 205 L 115 205 L 95 88 L 96 88 C 106 97 119 104 133 110 C 147 115 164 118 184 118 C 201 118 217 115 233 109 C 249 103 263 94 275 82 C 287 70 296 56 304 39 C 311 22 315 3 315 -19 C 315 -61 301 -94 275 -120 C 248 -145 214 -158 172 -158 Z" unicode="₅" />
<glyph horiz-adv-x="362" d="M 192 -159 C 169 -159 149 -155 132 -149 C 115 -142 100 -133 88 -121 C 67 -101 52 -77 44 -49 C 36 -21 32 12 32 51 C 32 81 35 108 41 134 C 47 160 57 182 70 201 C 83 219 99 234 119 245 C 139 255 162 261 190 261 C 210 261 227 258 243 252 C 259 246 272 238 283 228 C 294 218 303 206 309 193 C 315 180 319 166 321 152 L 265 152 C 263 169 255 184 243 197 C 231 209 214 216 193 216 C 155 216 129 202 113 174 C 97 146 88 110 88 65 L 91 65 C 102 81 116 93 134 103 C 152 112 173 117 197 117 C 215 117 233 113 250 106 C 266 99 281 89 293 77 C 305 65 314 50 321 33 C 328 16 332 -1 332 -21 C 332 -40 328 -58 321 -75 C 313 -91 303 -106 291 -119 C 279 -131 264 -141 247 -148 C 230 -155 212 -159 192 -159 Z M 191 -113 C 216 -113 237 -104 253 -88 C 269 -71 278 -49 278 -22 C 278 4 269 26 253 44 C 236 61 215 70 190 70 C 162 70 139 61 122 44 C 104 27 96 5 96 -21 C 96 -48 105 -70 123 -87 C 141 -104 163 -113 191 -113 Z" unicode="₆" />
<glyph horiz-adv-x="328" d="M 89 -150 C 91 -114 96 -78 106 -44 C 115 -10 127 22 141 52 C 155 82 171 110 189 136 C 207 162 225 184 244 203 L 244 204 L 24 204 L 24 253 L 303 253 L 303 206 C 283 186 265 164 247 139 C 229 114 214 87 200 57 C 186 27 174 -5 165 -40 C 156 -74 150 -111 148 -150 L 89 -150 Z" unicode="₇" />
<glyph horiz-adv-x="367" d="M 184 -157 C 164 -157 144 -154 126 -149 C 107 -144 91 -136 77 -126 C 63 -116 51 -103 43 -88 C 34 -72 30 -54 30 -34 C 30 -7 37 14 52 32 C 66 49 85 62 108 71 L 108 73 C 69 89 50 117 50 157 C 50 173 53 187 60 201 C 66 214 76 225 88 234 C 100 243 114 250 130 255 C 146 260 164 263 183 263 C 222 263 254 253 279 234 C 303 215 316 190 316 159 C 316 119 296 90 258 74 L 258 72 C 281 64 300 51 314 33 C 328 15 336 -7 336 -33 C 336 -53 331 -71 323 -87 C 315 -103 304 -116 290 -126 C 276 -136 259 -144 241 -149 C 223 -154 204 -157 184 -157 Z M 184 -113 C 214 -113 237 -105 254 -90 C 270 -75 279 -56 279 -34 C 279 -9 270 10 254 25 C 237 40 213 48 183 48 C 153 48 129 40 113 25 C 96 10 88 -9 88 -34 C 88 -57 96 -76 113 -91 C 129 -105 153 -113 184 -113 Z M 183 89 C 208 89 227 95 241 107 C 254 119 261 135 261 155 C 261 173 254 189 241 201 C 227 213 208 220 183 220 C 157 220 138 213 125 201 C 112 189 106 173 106 155 C 106 135 112 119 125 107 C 138 95 157 89 183 89 Z" unicode="₈" />
<glyph horiz-adv-x="364" d="M 178 -158 C 137 -158 104 -147 80 -127 C 55 -106 41 -78 38 -44 L 94 -44 C 96 -63 104 -79 118 -93 C 132 -106 151 -113 176 -113 C 204 -113 226 -104 242 -86 C 253 -74 261 -57 266 -37 C 271 -16 274 8 276 36 L 274 36 C 262 20 247 8 230 0 C 213 -9 193 -14 171 -14 C 150 -14 131 -10 114 -3 C 97 3 82 13 70 25 C 57 37 47 52 40 69 C 33 85 30 103 30 123 C 30 142 33 160 40 177 C 47 194 57 209 70 221 C 83 233 98 243 116 251 C 133 258 152 262 174 262 C 193 262 210 259 226 254 C 242 249 255 242 267 234 C 291 216 307 193 317 164 C 327 134 332 98 332 55 C 332 11 327 -25 318 -55 C 309 -85 294 -109 273 -127 C 261 -137 247 -145 231 -150 C 215 -155 197 -158 178 -158 Z M 176 33 C 204 33 226 41 243 58 C 260 74 269 96 270 124 C 270 137 267 149 262 161 C 257 172 250 182 242 190 C 233 198 223 205 212 210 C 200 214 188 217 176 217 C 149 217 127 208 110 191 C 93 173 85 151 85 125 C 85 97 93 75 110 58 C 126 41 148 33 176 33 Z" unicode="₉" />
<glyph horiz-adv-x="150" d="" unicode=" " />
<glyph horiz-adv-x="212" d="M 72 102 L 87 415 L 126 415 L 140 102 L 140 -127 L 72 -127 L 72 102 Z M 68 588 L 144 588 L 144 501 L 68 501 L 68 588 Z" unicode="¡" />
<glyph horiz-adv-x="495" d="M 236 -12 C 202 -8 172 0 146 15 C 120 30 98 49 80 73 C 62 97 49 124 40 156 C 30 188 26 222 26 258 C 26 294 30 327 40 359 C 49 390 62 417 80 441 C 98 465 120 484 146 499 C 172 514 202 523 236 527 L 236 591 L 282 591 L 282 528 C 333 524 375 508 408 479 C 441 450 461 411 469 361 L 408 361 C 400 396 386 423 365 442 C 343 460 316 471 282 475 L 282 41 C 320 45 350 59 373 84 C 395 108 409 140 413 178 L 473 178 C 467 122 447 78 415 44 C 382 10 338 -8 282 -12 L 282 -85 L 236 -85 L 236 -12 Z M 236 475 C 210 471 188 463 170 451 C 152 438 137 422 125 403 C 113 383 104 361 98 337 C 92 312 89 286 89 258 C 89 230 92 203 98 179 C 104 154 113 132 125 113 C 137 93 152 77 170 65 C 188 52 210 44 236 41 L 236 475 Z" unicode="¢" />
<glyph horiz-adv-x="535" d="M 370 -11 C 347 -11 328 -8 312 -3 C 296 2 282 8 268 14 C 254 20 240 25 226 31 C 212 36 195 39 175 39 C 155 39 136 34 119 25 C 101 15 85 6 71 -4 L 34 49 C 64 71 89 95 108 123 C 127 151 137 185 137 227 C 137 240 135 253 132 267 C 129 281 125 294 121 308 L 38 308 L 38 359 L 104 359 C 94 381 86 404 79 428 C 72 452 69 477 69 505 C 69 531 73 555 83 579 C 92 603 106 623 124 641 C 142 659 164 673 191 683 C 217 693 248 699 284 699 C 313 699 340 694 366 685 C 392 675 414 662 433 644 C 452 626 467 603 479 576 C 490 548 496 517 497 481 L 435 481 C 434 510 429 535 421 556 C 413 577 402 594 388 607 C 374 620 357 630 339 636 C 320 642 301 645 281 645 C 233 645 197 632 172 606 C 146 580 134 546 134 504 C 134 480 138 456 146 432 C 154 408 162 384 171 359 L 331 359 L 331 308 L 187 308 C 189 296 192 285 194 273 C 196 261 197 249 197 237 C 197 201 190 169 177 143 C 164 116 146 93 122 73 L 123 71 C 136 77 148 81 158 84 C 168 87 181 89 197 89 C 215 89 231 86 246 82 C 260 78 274 73 288 67 C 302 61 315 56 329 52 C 342 48 357 46 373 46 C 393 46 412 50 429 60 C 446 69 462 80 477 94 L 513 49 C 493 31 472 16 450 5 C 428 -5 402 -11 370 -11 Z" unicode="£" />
<glyph horiz-adv-x="486" d="M 17 147 L 88 222 C 63 258 51 300 51 350 C 51 398 63 440 88 475 L 17 551 L 52 585 L 121 512 C 136 524 154 534 175 542 C 195 549 218 553 243 553 C 267 553 290 549 310 542 C 330 534 348 524 364 512 L 434 585 L 469 551 L 398 476 C 422 440 434 398 434 350 C 434 300 421 258 397 222 L 469 147 L 434 112 L 363 186 C 347 173 330 163 310 156 C 290 149 267 146 243 146 C 218 146 195 149 175 156 C 155 163 137 173 122 186 L 52 112 L 17 147 Z M 243 196 C 264 196 283 200 299 208 C 315 216 328 227 339 241 C 350 255 358 271 364 290 C 370 308 373 328 373 350 C 373 371 370 391 364 410 C 358 428 350 445 339 459 C 328 473 315 484 299 492 C 283 500 264 504 243 504 C 221 504 202 500 186 492 C 170 484 156 473 145 459 C 134 445 126 428 120 410 C 114 391 112 371 112 350 C 112 328 114 308 120 290 C 126 271 134 255 145 241 C 156 227 170 216 186 208 C 202 200 221 196 243 196 Z" unicode="¤" />
<glyph horiz-adv-x="543" d="M 240 161 L 59 161 L 59 207 L 240 207 L 240 280 L 59 280 L 59 326 L 228 326 L 11 686 L 84 686 L 271 360 L 273 360 L 463 686 L 532 686 L 315 326 L 484 326 L 484 280 L 303 280 L 303 207 L 484 207 L 484 161 L 303 161 L 303 0 L 240 0 L 240 161 Z" unicode="¥" />
<glyph horiz-adv-x="210" d="M 77 293 L 133 293 L 133 -118 L 77 -118 L 77 293 Z M 77 754 L 133 754 L 133 359 L 77 359 L 77 754 Z" unicode="¦" />
<glyph horiz-adv-x="562" d="M 290 -184 C 256 -184 227 -178 201 -168 C 175 -158 154 -144 136 -127 C 118 -109 105 -89 95 -66 C 85 -43 80 -19 80 6 L 145 6 C 147 -35 161 -67 186 -91 C 210 -115 245 -127 291 -127 C 327 -127 353 -119 371 -104 C 389 -89 398 -68 398 -41 C 398 -27 394 -14 388 -3 C 382 7 372 18 359 29 C 345 39 328 51 308 63 C 287 75 263 89 235 106 C 203 124 175 140 150 156 C 124 172 103 188 85 205 C 67 221 53 239 43 258 C 33 276 28 298 28 322 C 28 358 38 387 59 409 C 79 431 106 447 140 458 C 128 471 118 485 112 500 C 105 515 102 532 102 551 C 102 573 106 593 114 611 C 122 629 134 645 150 658 C 165 671 183 681 205 689 C 227 696 251 700 279 700 C 308 700 334 695 357 687 C 380 678 400 666 416 651 C 432 635 444 617 453 596 C 462 574 468 551 470 525 L 405 525 C 402 563 389 592 367 612 C 345 632 315 643 277 643 C 239 643 212 634 194 617 C 176 600 168 579 168 554 C 168 538 171 525 178 513 C 184 501 194 490 207 480 C 220 469 236 458 256 447 C 275 436 297 424 323 410 C 352 394 379 379 405 364 C 431 349 453 333 472 317 C 491 300 506 282 517 262 C 528 242 534 219 534 194 C 534 158 524 129 504 106 C 484 83 457 66 421 56 C 434 42 444 27 452 12 C 460 -3 464 -20 464 -40 C 464 -82 448 -117 418 -144 C 388 -170 345 -184 290 -184 Z M 382 89 C 415 98 438 112 451 131 C 463 150 470 170 470 192 C 470 208 466 223 459 236 C 451 249 440 262 426 274 C 411 286 393 299 371 311 C 349 323 323 338 295 354 C 272 366 251 378 232 389 C 212 400 195 411 180 423 C 150 416 128 404 114 388 C 99 371 92 351 92 327 C 92 310 95 295 101 283 C 107 270 117 258 131 246 C 145 234 162 221 184 208 C 205 195 231 180 261 163 C 283 150 304 138 325 126 C 345 114 364 102 382 89 Z" unicode="§" />
<glyph horiz-adv-x="512" d="M 148 713 L 208 713 L 208 627 L 148 627 L 148 713 Z M 304 713 L 364 713 L 364 627 L 304 627 L 304 713 Z" unicode="¨" />
<glyph horiz-adv-x="812" d="M 408 124 C 377 124 349 129 324 141 C 298 152 277 168 259 189 C 241 209 227 234 217 262 C 207 290 202 321 202 355 C 202 389 206 420 216 449 C 225 477 239 502 257 523 C 275 544 296 560 322 572 C 348 584 377 590 410 590 C 460 590 500 576 530 550 C 560 524 579 490 587 448 L 526 448 C 520 475 508 497 488 513 C 468 529 442 538 410 538 C 386 538 364 533 346 524 C 328 514 312 501 300 485 C 288 468 279 449 273 427 C 267 405 264 381 264 355 C 264 329 267 305 273 283 C 279 261 289 242 301 226 C 313 210 329 197 347 188 C 365 179 385 175 408 175 C 446 175 475 185 496 207 C 517 229 529 256 533 289 L 592 289 C 590 267 586 247 578 227 C 570 207 558 190 544 176 C 528 160 509 147 487 138 C 464 128 438 124 408 124 Z M 406 18 C 452 18 494 26 534 43 C 573 60 607 84 636 114 C 664 144 687 179 703 220 C 719 261 728 306 728 355 C 728 403 719 448 703 490 C 687 531 664 567 636 597 C 607 627 573 650 534 667 C 494 684 452 693 406 693 C 360 693 317 684 278 667 C 238 650 204 627 176 597 C 147 567 124 531 108 490 C 92 448 84 403 84 355 C 84 306 92 261 108 220 C 124 179 147 144 176 114 C 204 84 238 60 278 43 C 317 26 360 18 406 18 Z M 406 -17 C 354 -17 306 -7 262 11 C 218 29 179 55 146 88 C 113 121 87 160 69 206 C 50 252 41 301 41 355 C 41 408 50 457 69 503 C 87 549 113 588 146 622 C 179 655 218 681 262 700 C 306 718 354 728 406 728 C 457 728 505 718 549 700 C 593 681 632 655 665 622 C 698 588 724 549 743 503 C 761 457 771 408 771 355 C 771 301 761 252 743 206 C 724 160 698 121 665 88 C 632 55 593 29 549 11 C 505 -7 457 -17 406 -17 Z" unicode="©" />
<glyph horiz-adv-x="470" d="M 191 228 C 169 228 149 230 131 236 C 113 242 97 250 83 261 C 69 271 58 285 50 301 C 42 317 38 335 38 357 C 38 383 43 405 53 422 C 63 438 76 452 93 462 C 110 472 130 480 154 485 C 177 490 202 494 228 497 C 250 499 268 501 283 503 C 297 505 309 509 319 513 C 328 517 335 523 339 530 C 343 537 345 546 345 558 L 345 565 C 345 623 310 653 242 653 C 204 653 174 644 154 627 C 134 610 122 586 119 554 L 61 554 C 65 597 81 632 111 659 C 141 686 184 700 241 700 C 290 700 329 688 359 666 C 388 644 403 608 403 558 L 403 322 C 403 294 413 280 435 280 C 438 280 441 280 445 281 C 449 281 452 282 456 284 L 459 284 L 459 240 C 455 238 449 237 443 235 C 436 233 428 233 419 233 C 373 233 349 255 346 301 L 346 305 L 344 305 C 337 295 329 286 320 277 C 311 268 301 260 289 253 C 277 245 263 239 247 235 C 231 230 212 228 191 228 Z M 201 276 C 225 276 247 279 265 287 C 283 295 298 305 310 317 C 322 329 331 342 337 357 C 343 372 346 387 346 403 L 346 479 C 332 471 315 465 295 461 C 274 457 253 453 232 451 C 212 449 194 446 178 443 C 162 439 148 434 137 428 C 125 421 116 412 110 401 C 104 389 101 375 101 357 C 101 341 103 328 109 318 C 115 308 122 299 131 293 C 140 287 151 282 163 280 C 175 277 187 276 201 276 Z" unicode="ª" />
<glyph horiz-adv-x="411" d="M 56 234 L 56 309 L 185 422 L 185 353 L 92 272 L 92 270 L 185 190 L 185 121 L 56 234 Z M 226 234 L 226 309 L 355 422 L 355 353 L 262 272 L 262 270 L 355 190 L 355 121 L 226 234 Z" unicode="«" />
<glyph horiz-adv-x="530" d="M 395 329 L 59 329 L 59 382 L 451 382 L 451 139 L 395 139 L 395 329 Z" unicode="¬" />
<glyph horiz-adv-x="326" d="M 35 308 L 291 308 L 291 252 L 35 252 L 35 308 Z" unicode="­" />
<glyph horiz-adv-x="528" d="M 171 619 L 289 619 C 313 619 332 612 347 599 C 361 585 369 568 369 547 C 369 531 365 518 357 508 C 349 497 337 489 321 485 L 321 484 C 334 480 344 474 350 466 C 356 457 359 444 361 428 C 363 408 364 393 365 382 C 366 370 368 364 372 362 L 372 360 L 329 360 C 325 361 323 367 322 379 C 320 390 319 403 318 419 C 316 451 299 468 267 468 L 215 468 L 215 360 L 171 360 L 171 619 Z M 279 502 C 294 502 305 505 313 513 C 321 520 325 530 325 542 C 325 554 321 563 314 571 C 306 579 295 583 280 583 L 215 583 L 215 502 L 279 502 Z M 264 276 C 292 276 319 281 344 291 C 368 301 389 316 407 335 C 424 353 438 375 448 401 C 458 427 463 455 463 486 C 463 516 458 543 448 569 C 438 595 424 617 407 636 C 389 654 368 669 344 680 C 319 690 292 696 264 696 C 234 696 207 690 183 680 C 159 669 138 654 121 636 C 103 617 90 595 80 569 C 70 543 65 516 65 486 C 65 455 70 427 80 401 C 90 375 103 353 121 335 C 138 316 159 301 183 291 C 207 281 234 276 264 276 Z M 264 244 C 230 244 199 250 171 262 C 142 274 117 290 96 312 C 74 334 57 359 45 389 C 33 418 27 450 27 486 C 27 520 33 552 45 582 C 57 612 74 637 96 659 C 117 680 142 697 171 709 C 199 721 230 728 264 728 C 296 728 327 721 356 709 C 385 697 410 680 432 659 C 453 637 470 612 482 582 C 494 552 501 520 501 486 C 501 450 494 418 482 389 C 470 359 453 334 432 312 C 410 290 385 274 356 262 C 327 250 296 244 264 244 Z" unicode="®" />
<glyph horiz-adv-x="500" d="M 126 683 L 374 683 L 374 627 L 126 627 L 126 683 Z" unicode="¯" />
<glyph horiz-adv-x="318" d="M 159 500 C 181 500 198 507 211 522 C 224 536 231 555 231 579 C 231 601 224 620 211 635 C 198 650 181 658 159 658 C 137 658 120 650 107 635 C 93 620 87 601 87 579 C 87 555 93 536 107 522 C 120 507 137 500 159 500 Z M 159 459 C 142 459 126 462 112 468 C 97 474 84 483 73 494 C 62 504 53 517 47 532 C 41 546 38 562 38 579 C 38 595 41 611 47 626 C 53 640 62 653 73 664 C 84 675 97 684 112 690 C 126 696 142 700 159 700 C 175 700 191 696 206 690 C 221 684 234 675 245 664 C 255 653 264 640 270 626 C 276 611 280 595 280 579 C 280 562 276 546 270 532 C 264 517 255 504 245 494 C 234 483 221 474 206 468 C 191 462 175 459 159 459 Z" unicode="°" />
<glyph horiz-adv-x="530" d="M 237 313 L 55 313 L 55 367 L 237 367 L 237 545 L 293 545 L 293 367 L 475 367 L 475 313 L 293 313 L 293 133 L 237 133 L 237 313 Z M 55 53 L 475 53 L 475 0 L 55 0 L 55 53 Z" unicode="±" />
<glyph horiz-adv-x="339" d="M 28 312 C 28 335 32 355 40 373 C 48 391 57 406 69 420 C 81 434 94 446 108 457 C 122 467 137 477 152 487 C 165 495 178 503 190 511 C 202 519 212 527 221 535 C 230 543 237 553 243 563 C 248 573 251 586 251 600 C 251 624 244 642 230 656 C 216 669 198 676 176 676 C 150 676 130 668 115 652 C 100 636 92 612 92 580 L 38 580 C 38 627 50 663 76 687 C 102 711 136 723 178 723 C 198 723 216 719 232 713 C 248 707 261 698 273 687 C 284 676 293 663 299 648 C 305 633 309 617 309 601 C 309 581 305 564 299 550 C 292 536 283 523 272 512 C 261 501 249 491 235 483 C 221 474 208 465 194 457 C 184 451 173 444 163 437 C 152 430 142 423 133 415 C 123 407 115 398 109 389 C 102 379 97 369 95 359 L 307 359 L 307 312 L 28 312 L 28 312 Z" unicode="²" />
<glyph horiz-adv-x="351" d="M 177 303 C 154 303 133 306 115 312 C 96 318 80 328 67 340 C 53 352 43 366 36 383 C 29 400 26 419 26 441 L 80 441 C 81 411 90 389 106 373 C 122 357 145 350 175 350 C 203 350 224 356 240 370 C 255 383 263 402 263 428 C 263 452 255 470 239 483 C 223 496 201 503 173 503 L 146 503 L 146 547 L 172 547 C 196 547 215 552 229 564 C 243 576 250 592 250 613 C 250 634 243 650 229 662 C 215 674 197 680 176 680 C 148 680 128 671 114 655 C 100 639 93 618 92 593 L 39 593 C 39 631 52 663 76 687 C 100 711 133 723 177 723 C 214 723 245 713 269 694 C 293 675 305 649 305 615 C 305 592 299 574 287 560 C 275 546 260 535 242 529 L 242 527 C 294 513 321 478 321 424 C 321 404 317 387 310 372 C 302 357 292 344 279 334 C 266 324 251 316 233 311 C 215 305 197 303 177 303 Z" unicode="³" />
<glyph horiz-adv-x="500" d="M 275 719 L 357 719 L 263 592 L 209 592 L 275 719 Z" unicode="´" />
<glyph horiz-adv-x="499" d="M 52 517 L 114 517 L 114 156 C 114 116 124 87 146 68 C 168 49 198 40 236 40 C 258 40 278 43 296 51 C 314 59 329 70 343 84 C 356 98 366 114 374 133 C 381 151 385 172 385 194 L 385 517 L 447 517 L 447 0 L 385 0 L 385 76 L 383 76 C 374 63 364 51 354 41 C 344 30 332 21 320 13 C 307 5 293 -1 277 -5 C 261 -9 243 -12 223 -12 C 200 -12 180 -8 162 -1 C 144 5 128 17 116 34 L 114 34 L 114 -166 L 52 -166 L 52 517 Z" unicode="µ" />
<glyph horiz-adv-x="511" d="M 254 370 L 221 370 C 157 370 109 385 77 416 C 45 447 29 490 29 545 C 29 570 33 593 42 614 C 50 634 62 652 78 668 C 107 699 152 715 214 715 L 447 715 L 447 0 L 386 0 L 386 654 L 314 654 L 314 0 L 254 0 L 254 370 Z" unicode="¶" />
<glyph horiz-adv-x="160" d="M 43 355 L 119 355 L 119 268 L 43 268 L 43 355 Z" unicode="·" />
<glyph horiz-adv-x="500" d="M 223 -187 C 201 -187 183 -184 167 -180 C 151 -175 137 -169 126 -162 L 141 -135 C 163 -144 186 -149 210 -149 C 227 -149 241 -146 251 -140 C 261 -134 267 -125 267 -114 C 267 -103 263 -96 256 -92 C 248 -88 238 -86 226 -86 C 217 -86 209 -86 203 -88 C 197 -89 191 -91 186 -93 L 172 -70 L 243 0 L 294 0 L 237 -50 L 237 -52 C 247 -51 258 -52 268 -54 C 278 -56 287 -59 295 -64 C 303 -69 309 -76 314 -84 C 319 -92 322 -102 322 -114 C 322 -137 312 -155 294 -168 C 276 -180 252 -187 223 -187 Z" unicode="¸" />
<glyph horiz-adv-x="256" d="M 121 604 L 29 604 L 29 643 C 58 643 81 649 99 660 C 116 670 127 690 131 718 L 178 718 L 178 312 L 121 312 L 121 604 Z" unicode="¹" />
<glyph horiz-adv-x="479" d="M 240 276 C 264 276 286 280 304 290 C 322 300 338 313 350 330 C 362 346 372 366 378 389 C 384 412 388 437 388 463 C 388 489 384 513 378 536 C 372 559 362 579 350 596 C 338 613 322 627 304 637 C 286 647 264 652 240 652 C 215 652 193 647 175 637 C 156 627 140 613 128 596 C 116 579 106 559 100 536 C 94 513 91 489 91 463 C 91 437 94 412 100 389 C 106 366 116 346 128 330 C 140 313 156 300 175 290 C 193 280 215 276 240 276 Z M 240 226 C 206 226 177 232 151 244 C 125 256 103 272 85 294 C 67 315 53 340 43 369 C 33 398 29 429 29 463 C 29 496 33 527 43 556 C 53 585 67 610 85 632 C 103 653 125 670 151 682 C 177 694 206 700 240 700 C 272 700 302 694 328 682 C 354 670 376 653 394 632 C 412 610 425 585 435 556 C 445 527 450 496 450 463 C 450 429 445 398 435 369 C 425 340 412 315 394 294 C 376 272 354 256 328 244 C 302 232 272 226 240 226 Z" unicode="º" />
<glyph horiz-adv-x="411" d="M 56 190 L 149 271 L 149 273 L 56 353 L 56 422 L 185 309 L 185 234 L 56 121 L 56 190 Z M 226 190 L 319 271 L 319 273 L 226 353 L 226 422 L 355 309 L 355 234 L 226 121 L 226 190 Z" unicode="»" />
<glyph horiz-adv-x="734" d="M 589 97 L 396 97 L 396 152 L 590 408 L 643 408 L 643 141 L 705 141 L 705 97 L 643 97 L 643 0 L 589 0 L 589 97 Z M 589 141 L 589 330 L 587 330 L 444 143 L 444 141 L 589 141 Z M 125 604 L 33 604 L 33 643 C 62 643 85 649 103 660 C 120 670 131 690 135 718 L 182 718 L 182 312 L 125 312 L 125 604 Z M 566 715 L 626 715 L 138 0 L 77 0 L 566 715 Z" unicode="¼" />
<glyph horiz-adv-x="767" d="M 451 0 C 451 23 455 43 463 61 C 471 79 480 95 492 109 C 504 123 517 135 531 146 C 545 156 560 166 575 176 C 588 184 601 192 613 200 C 625 207 635 215 644 223 C 653 231 660 241 666 251 C 671 261 674 274 674 288 C 674 312 667 331 653 344 C 639 357 621 364 599 364 C 573 364 553 356 538 340 C 523 324 515 301 515 269 L 461 269 C 461 315 473 351 499 375 C 525 399 559 411 601 411 C 621 411 639 407 655 401 C 671 395 684 386 696 375 C 707 364 716 351 722 336 C 728 321 732 305 732 289 C 732 269 728 252 722 238 C 715 224 706 211 695 200 C 684 189 672 179 658 171 C 644 162 631 153 617 145 C 607 139 596 132 586 126 C 575 119 565 112 556 104 C 546 96 538 87 532 78 C 525 68 520 58 518 47 L 730 47 L 730 0 L 451 0 Z M 125 604 L 33 604 L 33 643 C 62 643 85 649 103 660 C 120 670 131 690 135 718 L 182 718 L 182 312 L 125 312 L 125 604 Z M 556 715 L 616 715 L 128 0 L 67 0 L 556 715 Z" unicode="½" />
<glyph horiz-adv-x="800" d="M 181 303 C 158 303 137 306 119 312 C 100 318 84 328 71 340 C 57 352 47 366 40 383 C 33 400 30 419 30 441 L 84 441 C 85 411 94 389 110 373 C 126 357 149 350 179 350 C 207 350 228 356 244 370 C 259 383 267 402 267 428 C 267 452 259 470 243 483 C 227 496 205 503 177 503 L 150 503 L 150 547 L 176 547 C 200 547 219 552 233 564 C 247 576 254 592 254 613 C 254 634 247 650 233 662 C 219 674 201 680 180 680 C 152 680 132 671 118 655 C 104 639 97 618 96 593 L 43 593 C 43 631 56 663 80 687 C 104 711 137 723 181 723 C 218 723 249 713 273 694 C 297 675 309 649 309 615 C 309 592 303 574 291 560 C 279 546 264 535 246 529 L 246 527 C 298 513 325 478 325 424 C 325 404 321 387 314 372 C 306 357 296 344 283 334 C 270 324 255 316 237 311 C 219 305 201 303 181 303 Z M 655 97 L 462 97 L 462 152 L 656 408 L 709 408 L 709 141 L 771 141 L 771 97 L 709 97 L 709 0 L 655 0 L 655 97 Z M 655 141 L 655 330 L 653 330 L 510 143 L 510 141 L 655 141 Z M 640 715 L 700 715 L 212 0 L 151 0 L 640 715 Z" unicode="¾" />
<glyph horiz-adv-x="497" d="M 243 -140 C 211 -140 183 -135 158 -126 C 133 -116 112 -103 95 -87 C 77 -70 64 -51 55 -29 C 45 -7 41 17 41 43 C 41 67 44 89 50 107 C 56 125 64 141 74 155 C 84 169 95 182 107 193 C 119 204 132 215 145 226 C 163 241 178 255 190 267 C 202 279 211 292 219 306 C 226 319 231 334 234 351 C 237 368 239 389 239 415 L 299 415 C 299 386 297 361 293 341 C 289 320 283 301 275 285 C 267 268 256 252 243 238 C 230 224 214 209 196 193 C 184 183 173 174 163 164 C 152 154 142 144 134 132 C 126 120 119 107 114 93 C 109 79 107 62 107 44 C 107 6 119 -24 144 -48 C 169 -72 203 -84 246 -84 C 272 -84 294 -79 314 -71 C 334 -63 350 -51 364 -36 C 377 -21 387 -3 395 17 C 402 37 406 60 407 84 L 470 84 C 469 54 464 26 456 0 C 447 -26 433 -50 415 -71 C 396 -92 372 -109 344 -121 C 316 -133 282 -140 243 -140 Z M 231 588 L 307 588 L 307 501 L 231 501 L 231 588 Z" unicode="¿" />
<glyph horiz-adv-x="634" d="M 278 715 L 354 715 L 626 0 L 554 0 L 471 225 L 160 225 L 76 0 L 8 0 L 278 715 Z M 451 280 L 353 547 C 349 557 344 568 340 580 C 336 592 332 603 329 614 C 325 626 321 638 317 651 L 315 651 L 303 615 C 299 604 296 593 292 581 C 288 569 284 557 280 547 L 180 280 L 451 280 Z M 205 867 L 287 867 L 353 753 L 299 753 L 205 867 Z" unicode="À" />
<glyph horiz-adv-x="634" d="M 278 715 L 354 715 L 626 0 L 554 0 L 471 225 L 160 225 L 76 0 L 8 0 L 278 715 Z M 451 280 L 353 547 C 349 557 344 568 340 580 C 336 592 332 603 329 614 C 325 626 321 638 317 651 L 315 651 L 303 615 C 299 604 296 593 292 581 C 288 569 284 557 280 547 L 180 280 L 451 280 Z M 349 867 L 431 867 L 337 753 L 283 753 L 349 867 Z" unicode="Á" />
<glyph horiz-adv-x="634" d="M 278 715 L 354 715 L 626 0 L 554 0 L 471 225 L 160 225 L 76 0 L 8 0 L 278 715 Z M 451 280 L 353 547 C 349 557 344 568 340 580 C 336 592 332 603 329 614 C 325 626 321 638 317 651 L 315 651 L 303 615 C 299 604 296 593 292 581 C 288 569 284 557 280 547 L 180 280 L 451 280 Z M 281 857 L 355 857 L 447 754 L 377 754 L 317 822 L 315 822 L 255 754 L 187 754 L 281 857 Z" unicode="Â" />
<glyph horiz-adv-x="634" d="M 278 715 L 354 715 L 626 0 L 554 0 L 471 225 L 160 225 L 76 0 L 8 0 L 278 715 Z M 451 280 L 353 547 C 349 557 344 568 340 580 C 336 592 332 603 329 614 C 325 626 321 638 317 651 L 315 651 L 303 615 C 299 604 296 593 292 581 C 288 569 284 557 280 547 L 180 280 L 451 280 Z M 378 760 C 366 760 355 762 344 766 C 333 770 323 774 313 779 C 303 784 293 789 284 793 C 274 797 266 799 260 799 C 252 799 246 795 241 789 C 236 782 233 773 232 762 L 183 762 C 185 790 193 812 206 827 C 218 841 235 849 257 849 C 269 849 280 847 290 843 C 300 839 310 834 320 830 C 330 825 339 821 348 817 C 356 813 365 811 373 811 C 382 811 389 814 394 820 C 399 826 402 835 404 847 L 452 847 C 450 820 443 799 430 783 C 417 767 400 760 378 760 Z" unicode="Ã" />
<glyph horiz-adv-x="634" d="M 278 715 L 354 715 L 626 0 L 554 0 L 471 225 L 160 225 L 76 0 L 8 0 L 278 715 Z M 451 280 L 353 547 C 349 557 344 568 340 580 C 336 592 332 603 329 614 C 325 626 321 638 317 651 L 315 651 L 303 615 C 299 604 296 593 292 581 C 288 569 284 557 280 547 L 180 280 L 451 280 Z M 209 843 L 269 843 L 269 757 L 209 757 L 209 843 Z M 365 843 L 425 843 L 425 757 L 365 757 L 365 843 Z" unicode="Ä" />
<glyph horiz-adv-x="634" d="M 278 715 L 354 715 L 626 0 L 554 0 L 471 225 L 160 225 L 76 0 L 8 0 L 278 715 Z M 451 280 L 353 547 C 349 557 344 568 340 580 C 336 592 332 603 329 614 C 325 626 321 638 317 651 L 315 651 L 303 615 C 299 604 296 593 292 581 C 288 569 284 557 280 547 L 180 280 L 451 280 Z M 317 777 C 331 777 343 782 352 792 C 360 802 365 814 365 829 C 365 843 360 855 352 865 C 343 875 331 880 317 880 C 302 880 290 875 282 865 C 273 855 269 843 269 829 C 269 814 273 802 282 792 C 290 782 302 777 317 777 Z M 317 744 C 305 744 293 746 283 750 C 272 754 263 760 255 768 C 247 776 241 785 237 795 C 232 805 230 817 230 829 C 230 841 232 852 237 862 C 241 872 247 881 255 889 C 263 897 272 903 283 907 C 293 911 305 914 317 914 C 329 914 340 911 351 907 C 361 903 370 897 378 889 C 386 881 392 872 397 862 C 401 852 404 841 404 829 C 404 817 401 805 397 795 C 392 785 386 776 378 768 C 370 760 361 754 351 750 C 340 746 329 744 317 744 Z" unicode="Å" />
<glyph horiz-adv-x="945" d="M 293 715 L 898 715 L 898 656 L 520 656 L 520 399 L 862 399 L 862 341 L 520 341 L 520 62 L 909 62 L 909 0 L 453 0 L 453 225 L 167 225 L 79 0 L 11 0 L 293 715 Z M 453 280 L 453 656 L 336 656 L 188 280 L 453 280 Z" unicode="Æ" />
<glyph horiz-adv-x="677" d="M 328 -187 C 306 -187 288 -184 272 -180 C 256 -175 242 -169 231 -162 L 246 -135 C 268 -144 291 -149 315 -149 C 332 -149 346 -146 356 -140 C 366 -134 372 -125 372 -114 C 372 -103 368 -96 361 -92 C 353 -88 343 -86 331 -86 C 322 -86 314 -86 308 -88 C 302 -89 296 -91 291 -93 L 277 -70 L 335 -12 C 288 -9 246 1 209 20 C 172 39 141 65 115 97 C 89 129 70 168 56 212 C 42 256 36 304 36 357 C 36 411 43 460 58 506 C 73 552 95 591 123 624 C 151 657 185 683 225 702 C 265 720 310 730 361 730 C 437 730 498 710 546 671 C 594 632 624 579 636 513 L 570 513 C 560 559 538 597 502 627 C 466 657 418 672 360 672 C 318 672 281 663 249 647 C 217 631 191 608 170 580 C 148 552 132 518 122 480 C 111 442 106 401 106 357 C 106 312 111 271 122 233 C 133 195 149 162 171 134 C 192 106 218 85 250 69 C 281 53 317 46 359 46 C 393 46 424 51 451 63 C 477 74 500 89 519 109 C 537 128 552 151 563 177 C 573 203 580 230 583 260 L 648 260 C 646 224 638 190 625 157 C 612 124 595 96 574 73 C 551 47 524 28 492 14 C 460 0 425 -8 385 -12 L 342 -50 L 342 -52 C 352 -51 363 -52 373 -54 C 383 -56 392 -59 400 -64 C 408 -69 414 -76 419 -84 C 424 -92 427 -102 427 -114 C 427 -137 417 -155 399 -168 C 381 -180 357 -187 328 -187 Z" unicode="Ç" />
<glyph horiz-adv-x="598" d="M 207 867 L 289 867 L 355 753 L 301 753 L 207 867 Z M 64 715 L 550 715 L 550 656 L 131 656 L 131 399 L 515 399 L 515 341 L 131 341 L 131 62 L 561 62 L 561 0 L 64 0 L 64 715 Z" unicode="È" />
<glyph horiz-adv-x="598" d="M 350 867 L 432 867 L 338 753 L 284 753 L 350 867 Z M 64 715 L 550 715 L 550 656 L 131 656 L 131 399 L 515 399 L 515 341 L 131 341 L 131 62 L 561 62 L 561 0 L 64 0 L 64 715 Z" unicode="É" />
<glyph horiz-adv-x="598" d="M 64 715 L 550 715 L 550 656 L 131 656 L 131 399 L 515 399 L 515 341 L 131 341 L 131 62 L 561 62 L 561 0 L 64 0 L 64 715 Z M 283 857 L 357 857 L 449 754 L 379 754 L 319 822 L 317 822 L 257 754 L 189 754 L 283 857 Z" unicode="Ê" />
<glyph horiz-adv-x="598" d="M 211 843 L 271 843 L 271 757 L 211 757 L 211 843 Z M 367 843 L 427 843 L 427 757 L 367 757 L 367 843 Z M 64 715 L 550 715 L 550 656 L 131 656 L 131 399 L 515 399 L 515 341 L 131 341 L 131 62 L 561 62 L 561 0 L 64 0 L 64 715 Z" unicode="Ë" />
<glyph horiz-adv-x="202" d="M 67 715 L 134 715 L 134 0 L 67 0 L 67 715 Z M -15 867 L 67 867 L 133 753 L 79 753 L -15 867 Z" unicode="Ì" />
<glyph horiz-adv-x="202" d="M 67 715 L 134 715 L 134 0 L 67 0 L 67 715 Z M 138 867 L 220 867 L 126 753 L 72 753 L 138 867 Z" unicode="Í" />
<glyph horiz-adv-x="202" d="M 67 715 L 134 715 L 134 0 L 67 0 L 67 715 Z M 65 857 L 139 857 L 231 754 L 161 754 L 101 822 L 99 822 L 39 754 L -29 754 L 65 857 Z" unicode="Î" />
<glyph horiz-adv-x="202" d="M 67 715 L 134 715 L 134 0 L 67 0 L 67 715 Z M -7 843 L 53 843 L 53 757 L -7 757 L -7 843 Z M 149 843 L 209 843 L 209 757 L 149 757 L 149 843 Z" unicode="Ï" />
<glyph horiz-adv-x="674" d="M 319 59 C 361 59 398 66 429 80 C 460 94 486 113 506 139 C 526 165 540 196 550 232 C 560 268 565 309 565 355 C 565 400 560 441 551 478 C 542 515 528 547 509 573 C 490 599 465 620 435 634 C 405 648 368 656 326 656 L 142 656 L 142 387 L 379 387 L 379 330 L 142 330 L 142 59 L 319 59 Z M 74 330 L 3 330 L 3 387 L 74 387 L 74 715 L 328 715 C 380 715 426 706 465 688 C 503 670 535 646 560 614 C 585 582 604 544 616 500 C 628 456 634 407 634 355 C 634 301 627 253 615 210 C 602 166 583 129 557 98 C 531 66 498 42 459 25 C 419 8 373 0 321 0 L 74 0 L 74 330 Z" unicode="Ð" />
<glyph horiz-adv-x="667" d="M 411 760 C 399 760 388 762 377 766 C 366 770 356 774 346 779 C 336 784 326 789 317 793 C 307 797 299 799 293 799 C 285 799 279 795 274 789 C 269 782 266 773 265 762 L 216 762 C 218 790 226 812 239 827 C 251 841 268 849 290 849 C 302 849 313 847 323 843 C 333 839 343 834 353 830 C 363 825 372 821 381 817 C 389 813 398 811 406 811 C 415 811 422 814 427 820 C 432 826 435 835 437 847 L 485 847 C 483 820 476 799 463 783 C 450 767 433 760 411 760 Z M 64 715 L 137 715 L 466 213 C 475 199 484 186 492 172 C 500 158 508 145 515 134 C 522 120 529 107 537 95 L 539 95 L 539 715 L 603 715 L 603 0 L 533 0 L 205 496 C 196 508 187 522 179 536 C 170 550 162 563 155 575 C 146 589 138 603 130 617 L 128 617 L 128 0 L 64 0 L 64 715 Z" unicode="Ñ" />
<glyph horiz-adv-x="738" d="M 259 867 L 341 867 L 407 753 L 353 753 L 259 867 Z M 368 46 C 410 46 448 54 481 70 C 514 86 542 109 564 137 C 586 165 603 198 615 236 C 626 274 632 314 632 358 C 632 401 626 442 615 480 C 603 518 586 551 564 579 C 542 607 514 629 481 645 C 448 661 410 670 368 670 C 325 670 287 661 255 645 C 222 629 195 607 173 579 C 151 551 134 518 123 480 C 111 442 106 401 106 358 C 106 314 111 274 123 236 C 134 198 151 165 173 137 C 195 109 222 86 255 70 C 287 54 325 46 368 46 Z M 368 -14 C 317 -14 271 -4 231 14 C 190 32 155 58 126 92 C 97 125 75 164 59 210 C 43 255 36 304 36 358 C 36 411 43 460 59 506 C 75 551 97 590 126 624 C 155 657 190 683 231 702 C 271 720 317 730 368 730 C 418 730 464 720 506 702 C 547 683 582 657 611 624 C 640 590 662 551 678 506 C 694 460 702 411 702 358 C 702 304 694 255 678 210 C 662 164 640 125 611 92 C 582 58 547 32 506 14 C 464 -4 418 -14 368 -14 Z" unicode="Ò" />
<glyph horiz-adv-x="738" d="M 398 867 L 480 867 L 386 753 L 332 753 L 398 867 Z M 368 46 C 410 46 448 54 481 70 C 514 86 542 109 564 137 C 586 165 603 198 615 236 C 626 274 632 314 632 358 C 632 401 626 442 615 480 C 603 518 586 551 564 579 C 542 607 514 629 481 645 C 448 661 410 670 368 670 C 325 670 287 661 255 645 C 222 629 195 607 173 579 C 151 551 134 518 123 480 C 111 442 106 401 106 358 C 106 314 111 274 123 236 C 134 198 151 165 173 137 C 195 109 222 86 255 70 C 287 54 325 46 368 46 Z M 368 -14 C 317 -14 271 -4 231 14 C 190 32 155 58 126 92 C 97 125 75 164 59 210 C 43 255 36 304 36 358 C 36 411 43 460 59 506 C 75 551 97 590 126 624 C 155 657 190 683 231 702 C 271 720 317 730 368 730 C 418 730 464 720 506 702 C 547 683 582 657 611 624 C 640 590 662 551 678 506 C 694 460 702 411 702 358 C 702 304 694 255 678 210 C 662 164 640 125 611 92 C 582 58 547 32 506 14 C 464 -4 418 -14 368 -14 Z" unicode="Ó" />
<glyph horiz-adv-x="738" d="M 368 46 C 410 46 448 54 481 70 C 514 86 542 109 564 137 C 586 165 603 198 615 236 C 626 274 632 314 632 358 C 632 401 626 442 615 480 C 603 518 586 551 564 579 C 542 607 514 629 481 645 C 448 661 410 670 368 670 C 325 670 287 661 255 645 C 222 629 195 607 173 579 C 151 551 134 518 123 480 C 111 442 106 401 106 358 C 106 314 111 274 123 236 C 134 198 151 165 173 137 C 195 109 222 86 255 70 C 287 54 325 46 368 46 Z M 368 -14 C 317 -14 271 -4 231 14 C 190 32 155 58 126 92 C 97 125 75 164 59 210 C 43 255 36 304 36 358 C 36 411 43 460 59 506 C 75 551 97 590 126 624 C 155 657 190 683 231 702 C 271 720 317 730 368 730 C 418 730 464 720 506 702 C 547 683 582 657 611 624 C 640 590 662 551 678 506 C 694 460 702 411 702 358 C 702 304 694 255 678 210 C 662 164 640 125 611 92 C 582 58 547 32 506 14 C 464 -4 418 -14 368 -14 Z M 333 857 L 407 857 L 499 754 L 429 754 L 369 822 L 367 822 L 307 754 L 239 754 L 333 857 Z" unicode="Ô" />
<glyph horiz-adv-x="738" d="M 430 760 C 418 760 407 762 396 766 C 385 770 375 774 365 779 C 355 784 345 789 336 793 C 326 797 318 799 312 799 C 304 799 298 795 293 789 C 288 782 285 773 284 762 L 235 762 C 237 790 245 812 258 827 C 270 841 287 849 309 849 C 321 849 332 847 342 843 C 352 839 362 834 372 830 C 382 825 391 821 400 817 C 408 813 417 811 425 811 C 434 811 441 814 446 820 C 451 826 454 835 456 847 L 504 847 C 502 820 495 799 482 783 C 469 767 452 760 430 760 Z M 368 46 C 410 46 448 54 481 70 C 514 86 542 109 564 137 C 586 165 603 198 615 236 C 626 274 632 314 632 358 C 632 401 626 442 615 480 C 603 518 586 551 564 579 C 542 607 514 629 481 645 C 448 661 410 670 368 670 C 325 670 287 661 255 645 C 222 629 195 607 173 579 C 151 551 134 518 123 480 C 111 442 106 401 106 358 C 106 314 111 274 123 236 C 134 198 151 165 173 137 C 195 109 222 86 255 70 C 287 54 325 46 368 46 Z M 368 -14 C 317 -14 271 -4 231 14 C 190 32 155 58 126 92 C 97 125 75 164 59 210 C 43 255 36 304 36 358 C 36 411 43 460 59 506 C 75 551 97 590 126 624 C 155 657 190 683 231 702 C 271 720 317 730 368 730 C 418 730 464 720 506 702 C 547 683 582 657 611 624 C 640 590 662 551 678 506 C 694 460 702 411 702 358 C 702 304 694 255 678 210 C 662 164 640 125 611 92 C 582 58 547 32 506 14 C 464 -4 418 -14 368 -14 Z" unicode="Õ" />
<glyph horiz-adv-x="738" d="M 261 843 L 321 843 L 321 757 L 261 757 L 261 843 Z M 417 843 L 477 843 L 477 757 L 417 757 L 417 843 Z M 368 46 C 410 46 448 54 481 70 C 514 86 542 109 564 137 C 586 165 603 198 615 236 C 626 274 632 314 632 358 C 632 401 626 442 615 480 C 603 518 586 551 564 579 C 542 607 514 629 481 645 C 448 661 410 670 368 670 C 325 670 287 661 255 645 C 222 629 195 607 173 579 C 151 551 134 518 123 480 C 111 442 106 401 106 358 C 106 314 111 274 123 236 C 134 198 151 165 173 137 C 195 109 222 86 255 70 C 287 54 325 46 368 46 Z M 368 -14 C 317 -14 271 -4 231 14 C 190 32 155 58 126 92 C 97 125 75 164 59 210 C 43 255 36 304 36 358 C 36 411 43 460 59 506 C 75 551 97 590 126 624 C 155 657 190 683 231 702 C 271 720 317 730 368 730 C 418 730 464 720 506 702 C 547 683 582 657 611 624 C 640 590 662 551 678 506 C 694 460 702 411 702 358 C 702 304 694 255 678 210 C 662 164 640 125 611 92 C 582 58 547 32 506 14 C 464 -4 418 -14 368 -14 Z" unicode="Ö" />
<glyph horiz-adv-x="528" d="M 76 170 L 228 325 L 76 480 L 113 516 L 264 362 L 415 516 L 452 480 L 301 325 L 452 170 L 415 133 L 264 287 L 113 133 L 76 170 Z" unicode="×" />
<glyph horiz-adv-x="738" d="M 28 14 L 113 108 C 88 140 69 178 56 220 C 42 262 36 308 36 358 C 36 411 43 460 59 506 C 75 551 97 590 126 624 C 155 657 190 683 231 702 C 271 720 317 730 368 730 C 414 730 457 722 495 706 C 533 690 566 667 596 639 L 677 729 L 710 699 L 626 606 C 650 573 668 536 682 494 C 695 452 702 406 702 358 C 702 304 694 255 678 210 C 662 164 640 125 611 92 C 582 58 547 32 506 14 C 464 -4 418 -14 368 -14 C 322 -14 280 -6 242 9 C 204 24 171 46 143 74 L 61 -16 L 28 14 Z M 553 592 C 531 616 504 635 474 649 C 443 663 408 670 368 670 C 325 670 287 661 255 645 C 222 629 195 607 173 579 C 151 551 134 518 123 480 C 111 442 106 401 106 358 C 106 319 110 283 119 249 C 127 215 140 184 158 157 L 553 592 Z M 368 46 C 410 46 448 54 481 70 C 514 86 542 109 564 137 C 586 165 603 198 615 236 C 626 274 632 314 632 358 C 632 396 627 431 619 465 C 610 499 597 529 580 557 L 185 121 C 207 97 234 79 264 66 C 294 52 328 46 368 46 Z" unicode="Ø" />
<glyph horiz-adv-x="636" d="M 206 867 L 288 867 L 354 753 L 300 753 L 206 867 Z M 316 -11 C 276 -11 241 -6 209 3 C 177 12 150 26 127 46 C 104 66 86 90 74 120 C 62 150 56 185 56 227 L 56 715 L 123 715 L 123 233 C 123 167 140 119 174 90 C 208 61 256 47 319 47 C 349 47 376 50 400 57 C 424 64 444 75 461 90 C 478 105 491 124 500 148 C 509 171 514 199 514 233 L 514 715 L 581 715 L 581 227 C 581 185 574 150 561 120 C 548 90 530 65 506 46 C 482 26 454 12 422 3 C 390 -6 354 -11 316 -11 Z" unicode="Ù" />
<glyph horiz-adv-x="636" d="M 349 867 L 431 867 L 337 753 L 283 753 L 349 867 Z M 316 -11 C 276 -11 241 -6 209 3 C 177 12 150 26 127 46 C 104 66 86 90 74 120 C 62 150 56 185 56 227 L 56 715 L 123 715 L 123 233 C 123 167 140 119 174 90 C 208 61 256 47 319 47 C 349 47 376 50 400 57 C 424 64 444 75 461 90 C 478 105 491 124 500 148 C 509 171 514 199 514 233 L 514 715 L 581 715 L 581 227 C 581 185 574 150 561 120 C 548 90 530 65 506 46 C 482 26 454 12 422 3 C 390 -6 354 -11 316 -11 Z" unicode="Ú" />
<glyph horiz-adv-x="636" d="M 316 -11 C 276 -11 241 -6 209 3 C 177 12 150 26 127 46 C 104 66 86 90 74 120 C 62 150 56 185 56 227 L 56 715 L 123 715 L 123 233 C 123 167 140 119 174 90 C 208 61 256 47 319 47 C 349 47 376 50 400 57 C 424 64 444 75 461 90 C 478 105 491 124 500 148 C 509 171 514 199 514 233 L 514 715 L 581 715 L 581 227 C 581 185 574 150 561 120 C 548 90 530 65 506 46 C 482 26 454 12 422 3 C 390 -6 354 -11 316 -11 Z M 282 857 L 356 857 L 448 754 L 378 754 L 318 822 L 316 822 L 256 754 L 188 754 L 282 857 Z" unicode="Û" />
<glyph horiz-adv-x="636" d="M 210 843 L 270 843 L 270 757 L 210 757 L 210 843 Z M 366 843 L 426 843 L 426 757 L 366 757 L 366 843 Z M 316 -11 C 276 -11 241 -6 209 3 C 177 12 150 26 127 46 C 104 66 86 90 74 120 C 62 150 56 185 56 227 L 56 715 L 123 715 L 123 233 C 123 167 140 119 174 90 C 208 61 256 47 319 47 C 349 47 376 50 400 57 C 424 64 444 75 461 90 C 478 105 491 124 500 148 C 509 171 514 199 514 233 L 514 715 L 581 715 L 581 227 C 581 185 574 150 561 120 C 548 90 530 65 506 46 C 482 26 454 12 422 3 C 390 -6 354 -11 316 -11 Z" unicode="Ü" />
<glyph horiz-adv-x="600" d="M 265 312 L 7 715 L 81 715 L 299 369 L 301 369 L 521 715 L 593 715 L 333 310 L 333 0 L 265 0 L 265 312 Z M 331 867 L 413 867 L 319 753 L 265 753 L 331 867 Z" unicode="Ý" />
<glyph horiz-adv-x="587" d="M 64 715 L 131 715 L 131 581 L 345 581 C 384 581 417 575 444 565 C 470 554 493 539 513 520 C 546 484 563 438 563 382 C 563 315 544 264 506 230 C 468 195 411 178 336 178 L 131 178 L 131 0 L 64 0 L 64 715 Z M 331 235 C 389 235 430 247 456 273 C 482 299 495 334 495 380 C 495 426 481 461 455 485 C 428 509 389 522 337 522 L 131 522 L 131 235 L 331 235 Z" unicode="Þ" />
<glyph horiz-adv-x="483" d="M 245 -7 C 239 -7 230 -6 219 -5 C 207 -4 198 -3 190 -1 L 190 50 L 192 50 C 210 46 227 45 243 45 C 289 46 325 60 352 88 C 379 115 393 154 393 206 C 393 257 379 298 352 328 C 325 358 286 374 234 374 L 197 374 L 197 423 L 237 423 C 277 423 307 435 328 460 C 349 484 360 515 360 552 C 360 588 349 617 328 639 C 306 661 277 672 239 672 C 199 672 169 660 147 637 C 125 613 114 581 114 541 L 114 0 L 52 0 L 52 544 C 52 598 68 642 102 674 C 136 706 182 723 240 723 C 266 723 291 718 313 710 C 335 701 355 689 371 674 C 387 659 399 641 408 621 C 417 600 422 578 422 554 C 422 479 388 429 320 405 L 320 403 C 360 390 393 368 419 336 C 444 304 457 261 457 209 C 457 174 451 143 441 116 C 431 89 416 66 398 48 C 380 30 358 16 332 7 C 306 -2 277 -7 245 -7 Z" unicode="ß" />
<glyph horiz-adv-x="499" d="M 192 -12 C 168 -12 145 -9 125 -3 C 104 3 86 12 71 24 C 56 36 44 51 36 69 C 27 87 23 108 23 132 C 23 162 28 187 40 207 C 51 226 66 241 86 253 C 105 265 127 274 153 280 C 179 286 206 290 236 294 C 261 296 282 299 300 302 C 318 305 332 309 343 314 C 354 318 362 324 367 332 C 372 340 375 350 375 364 L 375 374 C 375 409 364 435 343 452 C 321 469 291 478 251 478 C 159 478 110 439 106 363 L 45 363 C 48 413 66 453 100 483 C 134 513 184 528 251 528 C 307 528 352 515 385 490 C 417 465 434 424 434 368 L 434 87 C 434 71 436 60 442 53 C 448 46 456 42 468 42 C 471 42 474 42 478 43 C 482 43 486 44 491 46 L 494 46 L 494 1 C 489 -1 483 -2 477 -4 C 470 -6 462 -7 452 -7 C 429 -7 411 -1 398 10 C 384 22 377 40 376 66 L 376 77 L 373 77 C 365 67 356 56 346 46 C 336 35 323 25 309 17 C 294 8 277 1 258 -4 C 238 -9 216 -12 192 -12 Z M 203 38 C 231 38 255 42 277 51 C 299 60 317 72 332 86 C 346 100 357 115 365 133 C 372 151 376 169 376 187 L 376 280 C 359 270 339 263 315 258 C 291 253 267 249 242 246 C 220 242 199 239 181 235 C 162 231 146 226 132 218 C 118 210 108 199 100 185 C 92 171 88 154 88 132 C 88 114 91 99 97 87 C 103 75 112 65 122 58 C 132 50 145 45 159 42 C 173 39 187 38 203 38 Z M 144 719 L 226 719 L 292 592 L 238 592 L 144 719 Z" unicode="à" />
<glyph horiz-adv-x="499" d="M 192 -12 C 168 -12 145 -9 125 -3 C 104 3 86 12 71 24 C 56 36 44 51 36 69 C 27 87 23 108 23 132 C 23 162 28 187 40 207 C 51 226 66 241 86 253 C 105 265 127 274 153 280 C 179 286 206 290 236 294 C 261 296 282 299 300 302 C 318 305 332 309 343 314 C 354 318 362 324 367 332 C 372 340 375 350 375 364 L 375 374 C 375 409 364 435 343 452 C 321 469 291 478 251 478 C 159 478 110 439 106 363 L 45 363 C 48 413 66 453 100 483 C 134 513 184 528 251 528 C 307 528 352 515 385 490 C 417 465 434 424 434 368 L 434 87 C 434 71 436 60 442 53 C 448 46 456 42 468 42 C 471 42 474 42 478 43 C 482 43 486 44 491 46 L 494 46 L 494 1 C 489 -1 483 -2 477 -4 C 470 -6 462 -7 452 -7 C 429 -7 411 -1 398 10 C 384 22 377 40 376 66 L 376 77 L 373 77 C 365 67 356 56 346 46 C 336 35 323 25 309 17 C 294 8 277 1 258 -4 C 238 -9 216 -12 192 -12 Z M 203 38 C 231 38 255 42 277 51 C 299 60 317 72 332 86 C 346 100 357 115 365 133 C 372 151 376 169 376 187 L 376 280 C 359 270 339 263 315 258 C 291 253 267 249 242 246 C 220 242 199 239 181 235 C 162 231 146 226 132 218 C 118 210 108 199 100 185 C 92 171 88 154 88 132 C 88 114 91 99 97 87 C 103 75 112 65 122 58 C 132 50 145 45 159 42 C 173 39 187 38 203 38 Z M 281 719 L 363 719 L 269 592 L 215 592 L 281 719 Z" unicode="á" />
<glyph horiz-adv-x="499" d="M 192 -12 C 168 -12 145 -9 125 -3 C 104 3 86 12 71 24 C 56 36 44 51 36 69 C 27 87 23 108 23 132 C 23 162 28 187 40 207 C 51 226 66 241 86 253 C 105 265 127 274 153 280 C 179 286 206 290 236 294 C 261 296 282 299 300 302 C 318 305 332 309 343 314 C 354 318 362 324 367 332 C 372 340 375 350 375 364 L 375 374 C 375 409 364 435 343 452 C 321 469 291 478 251 478 C 159 478 110 439 106 363 L 45 363 C 48 413 66 453 100 483 C 134 513 184 528 251 528 C 307 528 352 515 385 490 C 417 465 434 424 434 368 L 434 87 C 434 71 436 60 442 53 C 448 46 456 42 468 42 C 471 42 474 42 478 43 C 482 43 486 44 491 46 L 494 46 L 494 1 C 489 -1 483 -2 477 -4 C 470 -6 462 -7 452 -7 C 429 -7 411 -1 398 10 C 384 22 377 40 376 66 L 376 77 L 373 77 C 365 67 356 56 346 46 C 336 35 323 25 309 17 C 294 8 277 1 258 -4 C 238 -9 216 -12 192 -12 Z M 203 38 C 231 38 255 42 277 51 C 299 60 317 72 332 86 C 346 100 357 115 365 133 C 372 151 376 169 376 187 L 376 280 C 359 270 339 263 315 258 C 291 253 267 249 242 246 C 220 242 199 239 181 235 C 162 231 146 226 132 218 C 118 210 108 199 100 185 C 92 171 88 154 88 132 C 88 114 91 99 97 87 C 103 75 112 65 122 58 C 132 50 145 45 159 42 C 173 39 187 38 203 38 Z M 216 702 L 290 702 L 373 596 L 304 596 L 252 667 L 250 667 L 197 596 L 131 596 L 216 702 Z" unicode="â" />
<glyph horiz-adv-x="499" d="M 192 -12 C 168 -12 145 -9 125 -3 C 104 3 86 12 71 24 C 56 36 44 51 36 69 C 27 87 23 108 23 132 C 23 162 28 187 40 207 C 51 226 66 241 86 253 C 105 265 127 274 153 280 C 179 286 206 290 236 294 C 261 296 282 299 300 302 C 318 305 332 309 343 314 C 354 318 362 324 367 332 C 372 340 375 350 375 364 L 375 374 C 375 409 364 435 343 452 C 321 469 291 478 251 478 C 159 478 110 439 106 363 L 45 363 C 48 413 66 453 100 483 C 134 513 184 528 251 528 C 307 528 352 515 385 490 C 417 465 434 424 434 368 L 434 87 C 434 71 436 60 442 53 C 448 46 456 42 468 42 C 471 42 474 42 478 43 C 482 43 486 44 491 46 L 494 46 L 494 1 C 489 -1 483 -2 477 -4 C 470 -6 462 -7 452 -7 C 429 -7 411 -1 398 10 C 384 22 377 40 376 66 L 376 77 L 373 77 C 365 67 356 56 346 46 C 336 35 323 25 309 17 C 294 8 277 1 258 -4 C 238 -9 216 -12 192 -12 Z M 203 38 C 231 38 255 42 277 51 C 299 60 317 72 332 86 C 346 100 357 115 365 133 C 372 151 376 169 376 187 L 376 280 C 359 270 339 263 315 258 C 291 253 267 249 242 246 C 220 242 199 239 181 235 C 162 231 146 226 132 218 C 118 210 108 199 100 185 C 92 171 88 154 88 132 C 88 114 91 99 97 87 C 103 75 112 65 122 58 C 132 50 145 45 159 42 C 173 39 187 38 203 38 Z M 313 600 C 301 600 290 602 279 606 C 268 610 258 614 248 619 C 238 624 228 629 219 633 C 209 637 201 639 195 639 C 187 639 181 635 176 629 C 171 622 168 613 167 602 L 118 602 C 120 630 128 652 141 667 C 153 682 170 690 192 690 C 204 690 215 688 225 684 C 235 680 245 675 255 670 C 265 665 274 661 283 657 C 291 653 300 651 308 651 C 317 651 324 654 329 661 C 334 667 337 676 339 688 L 387 688 C 385 660 378 639 365 623 C 352 607 335 600 313 600 Z" unicode="ã" />
<glyph horiz-adv-x="499" d="M 192 -12 C 168 -12 145 -9 125 -3 C 104 3 86 12 71 24 C 56 36 44 51 36 69 C 27 87 23 108 23 132 C 23 162 28 187 40 207 C 51 226 66 241 86 253 C 105 265 127 274 153 280 C 179 286 206 290 236 294 C 261 296 282 299 300 302 C 318 305 332 309 343 314 C 354 318 362 324 367 332 C 372 340 375 350 375 364 L 375 374 C 375 409 364 435 343 452 C 321 469 291 478 251 478 C 159 478 110 439 106 363 L 45 363 C 48 413 66 453 100 483 C 134 513 184 528 251 528 C 307 528 352 515 385 490 C 417 465 434 424 434 368 L 434 87 C 434 71 436 60 442 53 C 448 46 456 42 468 42 C 471 42 474 42 478 43 C 482 43 486 44 491 46 L 494 46 L 494 1 C 489 -1 483 -2 477 -4 C 470 -6 462 -7 452 -7 C 429 -7 411 -1 398 10 C 384 22 377 40 376 66 L 376 77 L 373 77 C 365 67 356 56 346 46 C 336 35 323 25 309 17 C 294 8 277 1 258 -4 C 238 -9 216 -12 192 -12 Z M 203 38 C 231 38 255 42 277 51 C 299 60 317 72 332 86 C 346 100 357 115 365 133 C 372 151 376 169 376 187 L 376 280 C 359 270 339 263 315 258 C 291 253 267 249 242 246 C 220 242 199 239 181 235 C 162 231 146 226 132 218 C 118 210 108 199 100 185 C 92 171 88 154 88 132 C 88 114 91 99 97 87 C 103 75 112 65 122 58 C 132 50 145 45 159 42 C 173 39 187 38 203 38 Z M 145 713 L 205 713 L 205 627 L 145 627 L 145 713 Z M 301 713 L 361 713 L 361 627 L 301 627 L 301 713 Z" unicode="ä" />
<glyph horiz-adv-x="499" d="M 192 -12 C 168 -12 145 -9 125 -3 C 104 3 86 12 71 24 C 56 36 44 51 36 69 C 27 87 23 108 23 132 C 23 162 28 187 40 207 C 51 226 66 241 86 253 C 105 265 127 274 153 280 C 179 286 206 290 236 294 C 261 296 282 299 300 302 C 318 305 332 309 343 314 C 354 318 362 324 367 332 C 372 340 375 350 375 364 L 375 374 C 375 409 364 435 343 452 C 321 469 291 478 251 478 C 159 478 110 439 106 363 L 45 363 C 48 413 66 453 100 483 C 134 513 184 528 251 528 C 307 528 352 515 385 490 C 417 465 434 424 434 368 L 434 87 C 434 71 436 60 442 53 C 448 46 456 42 468 42 C 471 42 474 42 478 43 C 482 43 486 44 491 46 L 494 46 L 494 1 C 489 -1 483 -2 477 -4 C 470 -6 462 -7 452 -7 C 429 -7 411 -1 398 10 C 384 22 377 40 376 66 L 376 77 L 373 77 C 365 67 356 56 346 46 C 336 35 323 25 309 17 C 294 8 277 1 258 -4 C 238 -9 216 -12 192 -12 Z M 203 38 C 231 38 255 42 277 51 C 299 60 317 72 332 86 C 346 100 357 115 365 133 C 372 151 376 169 376 187 L 376 280 C 359 270 339 263 315 258 C 291 253 267 249 242 246 C 220 242 199 239 181 235 C 162 231 146 226 132 218 C 118 210 108 199 100 185 C 92 171 88 154 88 132 C 88 114 91 99 97 87 C 103 75 112 65 122 58 C 132 50 145 45 159 42 C 173 39 187 38 203 38 Z M 253 603 C 267 603 279 608 288 618 C 296 628 301 640 301 654 C 301 668 296 680 288 690 C 279 700 267 705 253 705 C 238 705 226 700 218 690 C 209 680 205 668 205 654 C 205 640 209 628 218 618 C 226 608 238 603 253 603 Z M 253 569 C 241 569 229 571 219 575 C 208 579 199 585 191 593 C 183 601 177 610 173 620 C 168 630 166 642 166 654 C 166 666 168 677 173 687 C 177 697 183 706 191 714 C 199 722 208 728 219 732 C 229 736 241 739 253 739 C 265 739 276 736 287 732 C 297 728 306 722 314 714 C 322 706 328 697 333 687 C 337 677 340 666 340 654 C 340 642 337 630 333 620 C 328 610 322 601 314 593 C 306 585 297 579 287 575 C 276 571 265 569 253 569 Z" unicode="å" />
<glyph horiz-adv-x="842" d="M 201 -12 C 175 -12 152 -8 130 -2 C 108 3 90 13 74 25 C 58 37 45 53 36 71 C 27 89 23 111 23 135 C 23 165 28 190 40 209 C 51 228 66 243 86 255 C 105 266 128 274 154 280 C 180 285 207 289 237 293 C 263 295 284 298 302 301 C 320 304 334 308 345 313 C 355 318 363 324 368 332 C 372 340 375 350 375 364 L 375 372 C 375 407 364 433 344 451 C 323 469 293 478 253 478 C 165 478 118 439 110 363 L 49 363 C 54 413 73 453 107 483 C 140 513 189 528 253 528 C 297 528 333 519 362 503 C 390 487 410 462 421 428 C 439 459 463 484 493 502 C 523 520 559 529 601 529 C 653 529 696 514 732 484 C 762 458 784 425 798 385 C 811 345 817 299 817 247 L 435 247 C 435 217 439 190 446 165 C 453 140 464 118 478 100 C 492 81 509 66 531 56 C 553 45 578 40 608 40 C 649 40 681 50 703 72 C 725 94 741 122 751 156 L 811 156 C 801 105 778 64 744 33 C 709 2 664 -13 608 -13 C 560 -13 519 -2 487 17 C 454 37 428 66 410 102 L 408 102 C 384 60 356 31 323 14 C 289 -3 249 -12 201 -12 Z M 210 38 C 237 38 261 42 282 51 C 302 60 320 72 334 86 C 348 100 358 115 365 133 C 372 151 376 169 376 187 L 376 277 C 359 268 339 261 315 257 C 291 252 266 248 241 245 C 218 242 197 239 179 236 C 160 232 144 227 130 219 C 116 211 106 201 99 187 C 91 173 88 156 88 134 C 88 116 91 101 98 89 C 104 77 113 67 124 59 C 135 51 148 46 163 43 C 178 39 194 38 210 38 Z M 752 296 C 751 321 747 345 741 367 C 735 389 725 409 713 425 C 701 441 685 454 667 464 C 648 473 626 478 601 478 C 575 478 552 473 533 464 C 513 454 497 441 484 425 C 470 409 460 390 452 368 C 444 346 439 322 437 296 L 752 296 Z" unicode="æ" />
<glyph horiz-adv-x="491" d="M 227 -187 C 205 -187 187 -184 171 -180 C 155 -175 141 -169 130 -162 L 145 -135 C 167 -144 190 -149 214 -149 C 231 -149 245 -146 255 -140 C 265 -134 271 -125 271 -114 C 271 -103 267 -96 260 -92 C 252 -88 242 -86 230 -86 C 221 -86 213 -86 207 -88 C 201 -89 195 -91 190 -93 L 176 -70 L 235 -11 C 201 -8 171 0 145 15 C 119 30 97 49 79 73 C 61 97 48 124 39 156 C 29 188 25 222 25 258 C 25 296 30 332 41 365 C 51 398 67 427 87 451 C 107 475 131 494 161 508 C 190 522 223 529 261 529 C 318 529 365 514 401 485 C 437 455 460 414 469 361 L 407 361 C 399 399 383 428 358 448 C 333 467 301 477 261 477 C 231 477 205 471 183 459 C 161 447 144 432 130 412 C 116 392 105 369 99 343 C 92 316 89 288 89 258 C 89 228 92 199 99 173 C 106 147 117 124 131 104 C 145 84 162 68 184 57 C 205 45 230 40 260 40 C 304 40 339 52 365 77 C 391 102 407 136 413 178 L 472 178 C 466 123 447 79 415 45 C 382 11 338 -7 284 -12 L 241 -50 L 241 -52 C 251 -51 262 -52 272 -54 C 282 -56 291 -59 299 -64 C 307 -69 313 -76 318 -84 C 323 -92 326 -102 326 -114 C 326 -137 316 -155 298 -168 C 280 -180 256 -187 227 -187 Z" unicode="ç" />
<glyph horiz-adv-x="508" d="M 266 -13 C 227 -13 193 -6 163 7 C 133 21 107 40 87 64 C 67 88 51 117 41 150 C 30 183 25 219 25 258 C 25 296 30 332 42 365 C 53 398 69 427 89 451 C 109 475 134 494 163 508 C 192 522 225 529 261 529 C 302 529 337 521 365 505 C 393 489 416 468 434 442 C 452 416 464 386 472 352 C 479 318 483 283 483 247 L 89 247 C 89 217 93 190 101 165 C 109 140 120 118 134 100 C 148 81 167 66 189 56 C 211 45 236 40 266 40 C 309 40 342 50 366 71 C 390 92 407 120 417 156 L 477 156 C 465 104 442 63 407 33 C 371 2 324 -13 266 -13 Z M 418 296 C 417 321 413 345 407 367 C 400 389 390 409 378 425 C 365 441 349 454 330 464 C 310 473 287 478 261 478 C 235 478 211 473 191 464 C 171 454 154 441 140 425 C 126 409 114 390 106 368 C 98 346 92 322 90 296 L 418 296 Z M 151 719 L 233 719 L 299 592 L 245 592 L 151 719 Z" unicode="è" />
<glyph horiz-adv-x="508" d="M 288 719 L 370 719 L 276 592 L 222 592 L 288 719 Z M 266 -13 C 227 -13 193 -6 163 7 C 133 21 107 40 87 64 C 67 88 51 117 41 150 C 30 183 25 219 25 258 C 25 296 30 332 42 365 C 53 398 69 427 89 451 C 109 475 134 494 163 508 C 192 522 225 529 261 529 C 302 529 337 521 365 505 C 393 489 416 468 434 442 C 452 416 464 386 472 352 C 479 318 483 283 483 247 L 89 247 C 89 217 93 190 101 165 C 109 140 120 118 134 100 C 148 81 167 66 189 56 C 211 45 236 40 266 40 C 309 40 342 50 366 71 C 390 92 407 120 417 156 L 477 156 C 465 104 442 63 407 33 C 371 2 324 -13 266 -13 Z M 418 296 C 417 321 413 345 407 367 C 400 389 390 409 378 425 C 365 441 349 454 330 464 C 310 473 287 478 261 478 C 235 478 211 473 191 464 C 171 454 154 441 140 425 C 126 409 114 390 106 368 C 98 346 92 322 90 296 L 418 296 Z" unicode="é" />
<glyph horiz-adv-x="508" d="M 223 702 L 297 702 L 380 596 L 311 596 L 259 667 L 257 667 L 204 596 L 138 596 L 223 702 Z M 266 -13 C 227 -13 193 -6 163 7 C 133 21 107 40 87 64 C 67 88 51 117 41 150 C 30 183 25 219 25 258 C 25 296 30 332 42 365 C 53 398 69 427 89 451 C 109 475 134 494 163 508 C 192 522 225 529 261 529 C 302 529 337 521 365 505 C 393 489 416 468 434 442 C 452 416 464 386 472 352 C 479 318 483 283 483 247 L 89 247 C 89 217 93 190 101 165 C 109 140 120 118 134 100 C 148 81 167 66 189 56 C 211 45 236 40 266 40 C 309 40 342 50 366 71 C 390 92 407 120 417 156 L 477 156 C 465 104 442 63 407 33 C 371 2 324 -13 266 -13 Z M 418 296 C 417 321 413 345 407 367 C 400 389 390 409 378 425 C 365 441 349 454 330 464 C 310 473 287 478 261 478 C 235 478 211 473 191 464 C 171 454 154 441 140 425 C 126 409 114 390 106 368 C 98 346 92 322 90 296 L 418 296 Z" unicode="ê" />
<glyph horiz-adv-x="508" d="M 151 713 L 211 713 L 211 627 L 151 627 L 151 713 Z M 307 713 L 367 713 L 367 627 L 307 627 L 307 713 Z M 266 -13 C 227 -13 193 -6 163 7 C 133 21 107 40 87 64 C 67 88 51 117 41 150 C 30 183 25 219 25 258 C 25 296 30 332 42 365 C 53 398 69 427 89 451 C 109 475 134 494 163 508 C 192 522 225 529 261 529 C 302 529 337 521 365 505 C 393 489 416 468 434 442 C 452 416 464 386 472 352 C 479 318 483 283 483 247 L 89 247 C 89 217 93 190 101 165 C 109 140 120 118 134 100 C 148 81 167 66 189 56 C 211 45 236 40 266 40 C 309 40 342 50 366 71 C 390 92 407 120 417 156 L 477 156 C 465 104 442 63 407 33 C 371 2 324 -13 266 -13 Z M 418 296 C 417 321 413 345 407 367 C 400 389 390 409 378 425 C 365 441 349 454 330 464 C 310 473 287 478 261 478 C 235 478 211 473 191 464 C 171 454 154 441 140 425 C 126 409 114 390 106 368 C 98 346 92 322 90 296 L 418 296 Z" unicode="ë" />
<glyph horiz-adv-x="169" d="M 54 517 L 116 517 L 116 0 L 54 0 L 54 517 Z M -32 719 L 50 719 L 116 592 L 62 592 L -32 719 Z" unicode="ì" />
<glyph horiz-adv-x="169" d="M 54 517 L 116 517 L 116 0 L 54 0 L 54 517 Z M 113 719 L 191 719 L 112 592 L 59 592 L 113 719 Z" unicode="í" />
<glyph horiz-adv-x="169" d="M 48 702 L 122 702 L 190 596 L 126 596 L 85 665 L 83 665 L 40 596 L -22 596 L 48 702 Z M 54 517 L 116 517 L 116 0 L 54 0 L 54 517 Z" unicode="î" />
<glyph horiz-adv-x="169" d="M -4 713 L 57 713 L 57 627 L -4 627 L -4 713 Z M 54 517 L 116 517 L 116 0 L 54 0 L 54 517 Z M 112 713 L 173 713 L 173 627 L 112 627 L 112 713 Z" unicode="ï" />
<glyph horiz-adv-x="529" d="M 156 598 L 279 643 C 265 655 251 668 237 680 C 222 692 207 703 192 715 L 271 715 C 281 707 291 699 302 691 C 313 683 324 674 336 664 L 436 700 L 450 664 L 367 634 C 385 614 402 593 418 569 C 434 545 449 518 461 488 C 473 458 483 424 491 388 C 499 352 503 312 503 270 C 503 228 497 189 487 155 C 476 120 460 90 440 65 C 419 40 394 21 365 7 C 335 -6 302 -13 265 -13 C 227 -13 194 -6 164 7 C 134 21 109 40 89 64 C 68 88 52 117 41 150 C 30 183 25 219 25 258 C 25 296 30 332 41 365 C 52 397 68 426 88 450 C 108 474 133 492 162 506 C 190 520 223 527 259 527 C 291 527 320 520 346 507 C 372 493 394 475 414 452 L 415 452 C 402 483 387 512 369 538 C 351 564 331 589 309 613 L 170 562 L 156 598 Z M 265 39 C 293 39 319 44 341 56 C 363 68 381 84 396 104 C 410 124 421 147 429 174 C 436 200 440 229 440 259 C 440 289 436 318 428 345 C 420 371 409 394 395 414 C 380 433 361 448 339 459 C 317 470 291 476 263 476 C 234 476 209 470 187 459 C 165 447 147 432 133 412 C 118 392 107 369 100 343 C 92 316 89 288 89 258 C 89 228 92 199 100 173 C 107 146 118 123 133 103 C 148 83 166 67 188 56 C 210 44 235 39 265 39 Z" unicode="ð" />
<glyph horiz-adv-x="502" d="M 52 517 L 114 517 L 114 438 L 116 438 C 133 464 156 485 184 502 C 212 519 247 528 289 528 C 337 528 376 514 407 486 C 438 458 454 419 454 367 L 454 0 L 392 0 L 392 361 C 392 400 381 429 360 447 C 339 465 310 475 274 475 C 252 475 231 471 212 464 C 192 456 175 446 161 433 C 146 420 134 405 126 387 C 118 369 114 349 114 328 L 114 0 L 52 0 L 52 517 Z M 315 600 C 303 600 292 602 281 606 C 270 610 260 614 250 619 C 240 624 230 629 221 633 C 211 637 203 639 197 639 C 189 639 183 635 178 629 C 173 622 170 613 169 602 L 120 602 C 122 630 130 652 143 667 C 155 682 172 690 194 690 C 206 690 217 688 227 684 C 237 680 247 675 257 670 C 267 665 276 661 285 657 C 293 653 302 651 310 651 C 319 651 326 654 331 661 C 336 667 339 676 341 688 L 389 688 C 387 660 380 639 367 623 C 354 607 337 600 315 600 Z" unicode="ñ" />
<glyph horiz-adv-x="529" d="M 265 39 C 293 39 319 44 341 56 C 363 67 381 83 396 103 C 410 123 421 146 429 173 C 436 199 440 228 440 258 C 440 288 436 316 429 343 C 421 369 410 393 396 413 C 381 433 363 448 341 460 C 319 471 293 477 265 477 C 235 477 210 471 188 460 C 166 448 148 433 133 413 C 118 393 107 369 100 343 C 92 316 89 288 89 258 C 89 228 92 199 100 173 C 107 146 118 123 133 103 C 148 83 166 67 188 56 C 210 44 235 39 265 39 Z M 265 -13 C 227 -13 194 -6 164 7 C 134 21 109 40 89 64 C 68 88 52 117 41 150 C 30 183 25 219 25 258 C 25 296 30 332 41 365 C 52 398 68 427 89 451 C 109 475 134 494 164 508 C 194 522 227 529 265 529 C 302 529 335 522 365 508 C 394 494 419 475 440 451 C 460 427 476 398 487 365 C 497 332 503 296 503 258 C 503 219 497 183 487 150 C 476 117 460 88 440 64 C 419 40 394 21 365 7 C 335 -6 302 -13 265 -13 Z M 155 719 L 237 719 L 303 592 L 249 592 L 155 719 Z" unicode="ò" />
<glyph horiz-adv-x="529" d="M 293 719 L 375 719 L 281 592 L 227 592 L 293 719 Z M 265 39 C 293 39 319 44 341 56 C 363 67 381 83 396 103 C 410 123 421 146 429 173 C 436 199 440 228 440 258 C 440 288 436 316 429 343 C 421 369 410 393 396 413 C 381 433 363 448 341 460 C 319 471 293 477 265 477 C 235 477 210 471 188 460 C 166 448 148 433 133 413 C 118 393 107 369 100 343 C 92 316 89 288 89 258 C 89 228 92 199 100 173 C 107 146 118 123 133 103 C 148 83 166 67 188 56 C 210 44 235 39 265 39 Z M 265 -13 C 227 -13 194 -6 164 7 C 134 21 109 40 89 64 C 68 88 52 117 41 150 C 30 183 25 219 25 258 C 25 296 30 332 41 365 C 52 398 68 427 89 451 C 109 475 134 494 164 508 C 194 522 227 529 265 529 C 302 529 335 522 365 508 C 394 494 419 475 440 451 C 460 427 476 398 487 365 C 497 332 503 296 503 258 C 503 219 497 183 487 150 C 476 117 460 88 440 64 C 419 40 394 21 365 7 C 335 -6 302 -13 265 -13 Z" unicode="ó" />
<glyph horiz-adv-x="529" d="M 228 702 L 302 702 L 385 596 L 316 596 L 264 667 L 262 667 L 209 596 L 143 596 L 228 702 Z M 265 39 C 293 39 319 44 341 56 C 363 67 381 83 396 103 C 410 123 421 146 429 173 C 436 199 440 228 440 258 C 440 288 436 316 429 343 C 421 369 410 393 396 413 C 381 433 363 448 341 460 C 319 471 293 477 265 477 C 235 477 210 471 188 460 C 166 448 148 433 133 413 C 118 393 107 369 100 343 C 92 316 89 288 89 258 C 89 228 92 199 100 173 C 107 146 118 123 133 103 C 148 83 166 67 188 56 C 210 44 235 39 265 39 Z M 265 -13 C 227 -13 194 -6 164 7 C 134 21 109 40 89 64 C 68 88 52 117 41 150 C 30 183 25 219 25 258 C 25 296 30 332 41 365 C 52 398 68 427 89 451 C 109 475 134 494 164 508 C 194 522 227 529 265 529 C 302 529 335 522 365 508 C 394 494 419 475 440 451 C 460 427 476 398 487 365 C 497 332 503 296 503 258 C 503 219 497 183 487 150 C 476 117 460 88 440 64 C 419 40 394 21 365 7 C 335 -6 302 -13 265 -13 Z" unicode="ô" />
<glyph horiz-adv-x="529" d="M 265 39 C 293 39 319 44 341 56 C 363 67 381 83 396 103 C 410 123 421 146 429 173 C 436 199 440 228 440 258 C 440 288 436 316 429 343 C 421 369 410 393 396 413 C 381 433 363 448 341 460 C 319 471 293 477 265 477 C 235 477 210 471 188 460 C 166 448 148 433 133 413 C 118 393 107 369 100 343 C 92 316 89 288 89 258 C 89 228 92 199 100 173 C 107 146 118 123 133 103 C 148 83 166 67 188 56 C 210 44 235 39 265 39 Z M 265 -13 C 227 -13 194 -6 164 7 C 134 21 109 40 89 64 C 68 88 52 117 41 150 C 30 183 25 219 25 258 C 25 296 30 332 41 365 C 52 398 68 427 89 451 C 109 475 134 494 164 508 C 194 522 227 529 265 529 C 302 529 335 522 365 508 C 394 494 419 475 440 451 C 460 427 476 398 487 365 C 497 332 503 296 503 258 C 503 219 497 183 487 150 C 476 117 460 88 440 64 C 419 40 394 21 365 7 C 335 -6 302 -13 265 -13 Z M 325 600 C 313 600 302 602 291 606 C 280 610 270 614 260 619 C 250 624 240 629 231 633 C 221 637 213 639 207 639 C 199 639 193 635 188 629 C 183 622 180 613 179 602 L 130 602 C 132 630 140 652 153 667 C 165 682 182 690 204 690 C 216 690 227 688 237 684 C 247 680 257 675 267 670 C 277 665 286 661 295 657 C 303 653 312 651 320 651 C 329 651 336 654 341 661 C 346 667 349 676 351 688 L 399 688 C 397 660 390 639 377 623 C 364 607 347 600 325 600 Z" unicode="õ" />
<glyph horiz-adv-x="529" d="M 156 713 L 216 713 L 216 627 L 156 627 L 156 713 Z M 312 713 L 372 713 L 372 627 L 312 627 L 312 713 Z M 265 39 C 293 39 319 44 341 56 C 363 67 381 83 396 103 C 410 123 421 146 429 173 C 436 199 440 228 440 258 C 440 288 436 316 429 343 C 421 369 410 393 396 413 C 381 433 363 448 341 460 C 319 471 293 477 265 477 C 235 477 210 471 188 460 C 166 448 148 433 133 413 C 118 393 107 369 100 343 C 92 316 89 288 89 258 C 89 228 92 199 100 173 C 107 146 118 123 133 103 C 148 83 166 67 188 56 C 210 44 235 39 265 39 Z M 265 -13 C 227 -13 194 -6 164 7 C 134 21 109 40 89 64 C 68 88 52 117 41 150 C 30 183 25 219 25 258 C 25 296 30 332 41 365 C 52 398 68 427 89 451 C 109 475 134 494 164 508 C 194 522 227 529 265 529 C 302 529 335 522 365 508 C 394 494 419 475 440 451 C 460 427 476 398 487 365 C 497 332 503 296 503 258 C 503 219 497 183 487 150 C 476 117 460 88 440 64 C 419 40 394 21 365 7 C 335 -6 302 -13 265 -13 Z" unicode="ö" />
<glyph horiz-adv-x="530" d="M 227 200 L 303 200 L 303 116 L 227 116 L 227 200 Z M 55 353 L 475 353 L 475 299 L 55 299 L 55 353 Z M 227 536 L 303 536 L 303 452 L 227 452 L 227 536 Z" unicode="÷" />
<glyph horiz-adv-x="529" d="M 18 10 L 78 78 C 60 101 47 128 38 159 C 29 189 25 222 25 258 C 25 296 30 332 41 365 C 52 398 68 427 89 451 C 109 475 134 494 164 508 C 194 522 227 529 265 529 C 298 529 328 523 355 512 C 382 500 406 485 426 466 L 483 530 L 511 505 L 450 437 C 467 413 480 386 489 356 C 498 326 503 293 503 258 C 503 219 497 183 487 150 C 476 117 460 88 440 64 C 419 40 394 21 365 7 C 335 -6 302 -13 265 -13 C 231 -13 200 -7 173 3 C 146 14 123 30 103 50 L 45 -15 L 18 10 Z M 387 423 C 372 440 354 453 334 463 C 314 472 291 477 265 477 C 235 477 210 471 188 460 C 166 448 148 433 133 413 C 118 393 107 369 100 343 C 92 316 89 288 89 258 C 89 205 99 160 120 124 L 387 423 Z M 265 39 C 293 39 319 44 341 56 C 363 67 381 83 396 103 C 410 123 421 146 429 173 C 436 199 440 228 440 258 C 440 283 437 307 432 330 C 427 352 419 373 409 392 L 141 93 C 156 75 174 62 194 53 C 214 43 238 39 265 39 Z" unicode="ø" />
<glyph horiz-adv-x="495" d="M 218 -12 C 168 -12 127 2 95 31 C 63 59 48 100 48 152 L 48 517 L 110 517 L 110 156 C 110 116 120 87 142 68 C 164 49 194 40 232 40 C 254 40 274 43 292 51 C 310 59 326 70 340 84 C 353 98 363 114 371 133 C 378 151 382 172 382 194 L 382 517 L 443 517 L 443 0 L 382 0 L 382 76 L 380 76 C 362 50 340 29 316 13 C 291 -3 258 -12 218 -12 Z M 141 719 L 223 719 L 289 592 L 235 592 L 141 719 Z" unicode="ù" />
<glyph horiz-adv-x="495" d="M 277 719 L 359 719 L 265 592 L 211 592 L 277 719 Z M 218 -12 C 168 -12 127 2 95 31 C 63 59 48 100 48 152 L 48 517 L 110 517 L 110 156 C 110 116 120 87 142 68 C 164 49 194 40 232 40 C 254 40 274 43 292 51 C 310 59 326 70 340 84 C 353 98 363 114 371 133 C 378 151 382 172 382 194 L 382 517 L 443 517 L 443 0 L 382 0 L 382 76 L 380 76 C 362 50 340 29 316 13 C 291 -3 258 -12 218 -12 Z" unicode="ú" />
<glyph horiz-adv-x="495" d="M 213 702 L 287 702 L 370 596 L 301 596 L 249 667 L 247 667 L 194 596 L 128 596 L 213 702 Z M 218 -12 C 168 -12 127 2 95 31 C 63 59 48 100 48 152 L 48 517 L 110 517 L 110 156 C 110 116 120 87 142 68 C 164 49 194 40 232 40 C 254 40 274 43 292 51 C 310 59 326 70 340 84 C 353 98 363 114 371 133 C 378 151 382 172 382 194 L 382 517 L 443 517 L 443 0 L 382 0 L 382 76 L 380 76 C 362 50 340 29 316 13 C 291 -3 258 -12 218 -12 Z" unicode="û" />
<glyph horiz-adv-x="495" d="M 141 713 L 201 713 L 201 627 L 141 627 L 141 713 Z M 297 713 L 357 713 L 357 627 L 297 627 L 297 713 Z M 218 -12 C 168 -12 127 2 95 31 C 63 59 48 100 48 152 L 48 517 L 110 517 L 110 156 C 110 116 120 87 142 68 C 164 49 194 40 232 40 C 254 40 274 43 292 51 C 310 59 326 70 340 84 C 353 98 363 114 371 133 C 378 151 382 172 382 194 L 382 517 L 443 517 L 443 0 L 382 0 L 382 76 L 380 76 C 362 50 340 29 316 13 C 291 -3 258 -12 218 -12 Z" unicode="ü" />
<glyph horiz-adv-x="469" d="M 106 -171 C 94 -171 85 -170 77 -169 C 69 -167 61 -165 53 -163 L 53 -108 L 56 -108 C 60 -109 66 -110 74 -112 C 81 -114 91 -115 103 -115 C 122 -115 139 -110 153 -100 C 167 -90 179 -71 189 -45 L 206 1 L 7 517 L 73 517 L 197 183 C 201 171 206 158 211 144 C 215 130 220 117 224 106 C 228 92 233 78 238 65 L 240 65 C 244 78 248 92 253 106 C 257 117 261 130 265 144 C 269 158 274 171 279 183 L 398 517 L 462 517 L 249 -54 C 240 -77 231 -96 221 -111 C 211 -126 201 -138 189 -147 C 177 -156 165 -162 151 -166 C 137 -169 122 -171 106 -171 Z M 267 719 L 349 719 L 255 592 L 201 592 L 267 719 Z" unicode="ý" />
<glyph horiz-adv-x="530" d="M 52 715 L 114 715 L 114 428 L 116 428 C 134 458 157 483 186 501 C 214 519 249 528 291 528 C 321 528 350 522 376 510 C 402 498 425 480 444 457 C 463 434 478 406 489 372 C 499 338 505 300 505 258 C 505 218 500 181 490 148 C 480 115 465 87 447 63 C 428 39 405 20 378 7 C 351 -6 321 -13 287 -13 C 247 -13 213 -5 186 9 C 158 24 135 46 116 75 L 114 75 L 114 -166 L 52 -166 L 52 715 Z M 284 39 C 310 39 333 44 353 56 C 373 67 389 83 402 103 C 415 123 425 146 432 172 C 438 198 442 227 442 257 C 442 289 438 318 431 345 C 424 372 414 395 401 415 C 387 434 371 449 351 460 C 331 470 309 476 283 476 C 254 476 229 470 207 459 C 185 447 167 432 153 412 C 138 392 127 368 120 342 C 112 315 109 286 109 256 C 109 224 112 194 119 168 C 126 142 137 119 152 100 C 166 80 185 65 207 55 C 229 44 254 39 284 39 Z" unicode="þ" />
<glyph horiz-adv-x="469" d="M 106 -171 C 94 -171 85 -170 77 -169 C 69 -167 61 -165 53 -163 L 53 -108 L 56 -108 C 60 -109 66 -110 74 -112 C 81 -114 91 -115 103 -115 C 122 -115 139 -110 153 -100 C 167 -90 179 -71 189 -45 L 206 1 L 7 517 L 73 517 L 197 183 C 201 171 206 158 211 144 C 215 130 220 117 224 106 C 228 92 233 78 238 65 L 240 65 C 244 78 248 92 253 106 C 257 117 261 130 265 144 C 269 158 274 171 279 183 L 398 517 L 462 517 L 249 -54 C 240 -77 231 -96 221 -111 C 211 -126 201 -138 189 -147 C 177 -156 165 -162 151 -166 C 137 -169 122 -171 106 -171 Z M 131 713 L 191 713 L 191 627 L 131 627 L 131 713 Z M 287 713 L 347 713 L 347 627 L 287 627 L 287 713 Z" unicode="ÿ" />
<glyph horiz-adv-x="634" d="M 278 715 L 354 715 L 626 0 L 554 0 L 471 225 L 160 225 L 76 0 L 8 0 L 278 715 Z M 451 280 L 353 547 C 349 557 344 568 340 580 C 336 592 332 603 329 614 C 325 626 321 638 317 651 L 315 651 L 303 615 C 299 604 296 593 292 581 C 288 569 284 557 280 547 L 180 280 L 451 280 Z M 193 817 L 441 817 L 441 761 L 193 761 L 193 817 Z" unicode="Ā" />
<glyph horiz-adv-x="499" d="M 192 -12 C 168 -12 145 -9 125 -3 C 104 3 86 12 71 24 C 56 36 44 51 36 69 C 27 87 23 108 23 132 C 23 162 28 187 40 207 C 51 226 66 241 86 253 C 105 265 127 274 153 280 C 179 286 206 290 236 294 C 261 296 282 299 300 302 C 318 305 332 309 343 314 C 354 318 362 324 367 332 C 372 340 375 350 375 364 L 375 374 C 375 409 364 435 343 452 C 321 469 291 478 251 478 C 159 478 110 439 106 363 L 45 363 C 48 413 66 453 100 483 C 134 513 184 528 251 528 C 307 528 352 515 385 490 C 417 465 434 424 434 368 L 434 87 C 434 71 436 60 442 53 C 448 46 456 42 468 42 C 471 42 474 42 478 43 C 482 43 486 44 491 46 L 494 46 L 494 1 C 489 -1 483 -2 477 -4 C 470 -6 462 -7 452 -7 C 429 -7 411 -1 398 10 C 384 22 377 40 376 66 L 376 77 L 373 77 C 365 67 356 56 346 46 C 336 35 323 25 309 17 C 294 8 277 1 258 -4 C 238 -9 216 -12 192 -12 Z M 203 38 C 231 38 255 42 277 51 C 299 60 317 72 332 86 C 346 100 357 115 365 133 C 372 151 376 169 376 187 L 376 280 C 359 270 339 263 315 258 C 291 253 267 249 242 246 C 220 242 199 239 181 235 C 162 231 146 226 132 218 C 118 210 108 199 100 185 C 92 171 88 154 88 132 C 88 114 91 99 97 87 C 103 75 112 65 122 58 C 132 50 145 45 159 42 C 173 39 187 38 203 38 Z M 128 683 L 376 683 L 376 627 L 128 627 L 128 683 Z" unicode="ā" />
<glyph horiz-adv-x="634" d="M 278 715 L 354 715 L 626 0 L 554 0 L 471 225 L 160 225 L 76 0 L 8 0 L 278 715 Z M 451 280 L 353 547 C 349 557 344 568 340 580 C 336 592 332 603 329 614 C 325 626 321 638 317 651 L 315 651 L 303 615 C 299 604 296 593 292 581 C 288 569 284 557 280 547 L 180 280 L 451 280 Z M 317 755 C 283 755 254 764 232 784 C 210 803 198 829 196 861 L 247 861 C 250 845 257 832 269 822 C 280 812 296 808 317 808 C 337 808 353 812 365 822 C 377 832 384 845 388 861 L 439 861 C 437 831 425 805 403 785 C 381 765 353 755 317 755 Z" unicode="Ă" />
<glyph horiz-adv-x="499" d="M 192 -12 C 168 -12 145 -9 125 -3 C 104 3 86 12 71 24 C 56 36 44 51 36 69 C 27 87 23 108 23 132 C 23 162 28 187 40 207 C 51 226 66 241 86 253 C 105 265 127 274 153 280 C 179 286 206 290 236 294 C 261 296 282 299 300 302 C 318 305 332 309 343 314 C 354 318 362 324 367 332 C 372 340 375 350 375 364 L 375 374 C 375 409 364 435 343 452 C 321 469 291 478 251 478 C 159 478 110 439 106 363 L 45 363 C 48 413 66 453 100 483 C 134 513 184 528 251 528 C 307 528 352 515 385 490 C 417 465 434 424 434 368 L 434 87 C 434 71 436 60 442 53 C 448 46 456 42 468 42 C 471 42 474 42 478 43 C 482 43 486 44 491 46 L 494 46 L 494 1 C 489 -1 483 -2 477 -4 C 470 -6 462 -7 452 -7 C 429 -7 411 -1 398 10 C 384 22 377 40 376 66 L 376 77 L 373 77 C 365 67 356 56 346 46 C 336 35 323 25 309 17 C 294 8 277 1 258 -4 C 238 -9 216 -12 192 -12 Z M 203 38 C 231 38 255 42 277 51 C 299 60 317 72 332 86 C 346 100 357 115 365 133 C 372 151 376 169 376 187 L 376 280 C 359 270 339 263 315 258 C 291 253 267 249 242 246 C 220 242 199 239 181 235 C 162 231 146 226 132 218 C 118 210 108 199 100 185 C 92 171 88 154 88 132 C 88 114 91 99 97 87 C 103 75 112 65 122 58 C 132 50 145 45 159 42 C 173 39 187 38 203 38 Z M 252 595 C 218 595 189 605 167 625 C 145 645 133 671 131 703 L 182 703 C 185 687 192 673 204 663 C 215 653 231 648 252 648 C 272 648 288 653 300 663 C 312 673 319 687 323 703 L 374 703 C 372 673 360 647 338 626 C 316 605 288 595 252 595 Z" unicode="ă" />
<glyph horiz-adv-x="634" d="M 573 -174 C 542 -174 519 -167 504 -153 C 488 -139 481 -122 481 -100 C 481 -78 488 -59 503 -42 C 518 -24 535 -10 554 1 L 471 225 L 160 225 L 76 0 L 8 0 L 278 715 L 354 715 L 624 7 C 598 -11 577 -28 563 -44 C 549 -60 542 -76 542 -93 C 542 -115 555 -127 582 -127 C 598 -127 613 -124 627 -118 L 630 -118 L 630 -161 C 623 -164 615 -167 606 -170 C 596 -172 585 -174 573 -174 Z M 451 280 L 353 547 C 349 557 344 568 340 580 C 336 592 332 603 329 614 C 325 626 321 638 317 651 L 315 651 L 303 615 C 299 604 296 593 292 581 C 288 569 284 557 280 547 L 180 280 L 451 280 Z" unicode="Ą" />
<glyph horiz-adv-x="499" d="M 439 -174 C 409 -174 386 -167 371 -153 C 355 -139 348 -122 348 -100 C 348 -89 350 -79 354 -69 C 358 -59 364 -50 371 -42 C 378 -34 386 -26 395 -20 C 403 -13 412 -7 421 -2 C 407 2 397 9 389 21 C 381 32 377 47 376 66 L 376 77 L 373 77 C 365 67 356 56 346 46 C 336 35 323 25 309 17 C 294 8 277 1 258 -4 C 238 -9 216 -12 192 -12 C 168 -12 145 -9 125 -3 C 104 3 86 12 71 24 C 56 36 44 51 36 69 C 27 87 23 108 23 132 C 23 162 28 187 40 207 C 51 226 66 241 86 253 C 105 265 127 274 153 280 C 179 286 206 290 236 294 C 261 296 282 299 300 302 C 318 305 332 309 343 314 C 354 318 362 324 367 332 C 372 340 375 350 375 364 L 375 374 C 375 409 364 435 343 452 C 321 469 291 478 251 478 C 159 478 110 439 106 363 L 45 363 C 48 413 66 453 100 483 C 134 513 184 528 251 528 C 307 528 352 515 385 490 C 417 465 434 424 434 368 L 434 87 C 434 71 436 60 442 53 C 448 46 456 42 468 42 C 471 42 474 42 478 43 C 482 43 486 44 491 46 L 494 46 L 494 1 C 469 -9 448 -23 432 -41 C 416 -58 408 -75 408 -93 C 408 -116 421 -128 449 -128 C 463 -128 478 -124 494 -118 L 497 -118 L 497 -162 C 490 -165 482 -168 473 -170 C 463 -172 452 -174 439 -174 Z M 203 38 C 231 38 255 42 277 51 C 299 60 317 72 332 86 C 346 100 357 115 365 133 C 372 151 376 169 376 187 L 376 280 C 359 270 339 263 315 258 C 291 253 267 249 242 246 C 220 242 199 239 181 235 C 162 231 146 226 132 218 C 118 210 108 199 100 185 C 92 171 88 154 88 132 C 88 114 91 99 97 87 C 103 75 112 65 122 58 C 132 50 145 45 159 42 C 173 39 187 38 203 38 Z" unicode="ą" />
<glyph horiz-adv-x="677" d="M 358 -13 C 308 -13 263 -4 223 14 C 183 32 150 57 122 90 C 94 122 73 161 58 207 C 43 252 36 302 36 357 C 36 411 43 460 58 506 C 73 552 95 591 123 624 C 151 657 185 683 225 702 C 265 720 310 730 361 730 C 437 730 498 710 546 671 C 594 632 624 579 636 513 L 570 513 C 560 559 538 597 502 627 C 466 657 418 672 360 672 C 318 672 281 663 249 647 C 217 631 191 608 170 580 C 148 552 132 518 122 480 C 111 442 106 401 106 357 C 106 312 111 271 122 233 C 133 195 149 162 171 134 C 192 106 218 85 250 69 C 281 53 317 46 359 46 C 393 46 424 51 451 63 C 477 74 500 89 519 109 C 537 128 552 151 563 177 C 573 203 580 230 583 260 L 648 260 C 646 224 638 190 625 157 C 612 124 595 96 574 73 C 548 45 517 23 481 9 C 445 -5 404 -13 358 -13 Z M 389 867 L 471 867 L 377 753 L 323 753 L 389 867 Z" unicode="Ć" />
<glyph horiz-adv-x="491" d="M 286 719 L 368 719 L 274 592 L 220 592 L 286 719 Z M 260 -13 C 222 -13 188 -6 159 7 C 130 21 106 40 86 64 C 66 88 50 117 40 150 C 30 183 25 219 25 258 C 25 296 30 332 41 365 C 51 398 67 427 87 451 C 107 475 131 494 161 508 C 190 522 223 529 261 529 C 318 529 365 514 401 485 C 437 455 460 414 469 361 L 407 361 C 399 399 383 428 358 448 C 333 467 301 477 261 477 C 231 477 205 471 183 459 C 161 447 144 432 130 412 C 116 392 105 369 99 343 C 92 316 89 288 89 258 C 89 228 92 199 99 173 C 106 147 117 124 131 104 C 145 84 162 68 184 57 C 205 45 230 40 260 40 C 304 40 339 52 365 77 C 391 102 407 136 413 178 L 472 178 C 466 119 444 72 408 38 C 371 4 322 -13 260 -13 Z" unicode="ć" />
<glyph horiz-adv-x="677" d="M 358 -13 C 308 -13 263 -4 223 14 C 183 32 150 57 122 90 C 94 122 73 161 58 207 C 43 252 36 302 36 357 C 36 411 43 460 58 506 C 73 552 95 591 123 624 C 151 657 185 683 225 702 C 265 720 310 730 361 730 C 437 730 498 710 546 671 C 594 632 624 579 636 513 L 570 513 C 560 559 538 597 502 627 C 466 657 418 672 360 672 C 318 672 281 663 249 647 C 217 631 191 608 170 580 C 148 552 132 518 122 480 C 111 442 106 401 106 357 C 106 312 111 271 122 233 C 133 195 149 162 171 134 C 192 106 218 85 250 69 C 281 53 317 46 359 46 C 393 46 424 51 451 63 C 477 74 500 89 519 109 C 537 128 552 151 563 177 C 573 203 580 230 583 260 L 648 260 C 646 224 638 190 625 157 C 612 124 595 96 574 73 C 548 45 517 23 481 9 C 445 -5 404 -13 358 -13 Z M 322 857 L 396 857 L 488 754 L 418 754 L 358 822 L 356 822 L 296 754 L 228 754 L 322 857 Z" unicode="Ĉ" />
<glyph horiz-adv-x="491" d="M 221 702 L 295 702 L 378 596 L 309 596 L 257 667 L 255 667 L 202 596 L 136 596 L 221 702 Z M 260 -13 C 222 -13 188 -6 159 7 C 130 21 106 40 86 64 C 66 88 50 117 40 150 C 30 183 25 219 25 258 C 25 296 30 332 41 365 C 51 398 67 427 87 451 C 107 475 131 494 161 508 C 190 522 223 529 261 529 C 318 529 365 514 401 485 C 437 455 460 414 469 361 L 407 361 C 399 399 383 428 358 448 C 333 467 301 477 261 477 C 231 477 205 471 183 459 C 161 447 144 432 130 412 C 116 392 105 369 99 343 C 92 316 89 288 89 258 C 89 228 92 199 99 173 C 106 147 117 124 131 104 C 145 84 162 68 184 57 C 205 45 230 40 260 40 C 304 40 339 52 365 77 C 391 102 407 136 413 178 L 472 178 C 466 119 444 72 408 38 C 371 4 322 -13 260 -13 Z" unicode="ĉ" />
<glyph horiz-adv-x="677" d="M 327 843 L 388 843 L 388 757 L 327 757 L 327 843 Z M 358 -13 C 308 -13 263 -4 223 14 C 183 32 150 57 122 90 C 94 122 73 161 58 207 C 43 252 36 302 36 357 C 36 411 43 460 58 506 C 73 552 95 591 123 624 C 151 657 185 683 225 702 C 265 720 310 730 361 730 C 437 730 498 710 546 671 C 594 632 624 579 636 513 L 570 513 C 560 559 538 597 502 627 C 466 657 418 672 360 672 C 318 672 281 663 249 647 C 217 631 191 608 170 580 C 148 552 132 518 122 480 C 111 442 106 401 106 357 C 106 312 111 271 122 233 C 133 195 149 162 171 134 C 192 106 218 85 250 69 C 281 53 317 46 359 46 C 393 46 424 51 451 63 C 477 74 500 89 519 109 C 537 128 552 151 563 177 C 573 203 580 230 583 260 L 648 260 C 646 224 638 190 625 157 C 612 124 595 96 574 73 C 548 45 517 23 481 9 C 445 -5 404 -13 358 -13 Z" unicode="Ċ" />
<glyph horiz-adv-x="491" d="M 260 -13 C 222 -13 188 -6 159 7 C 130 21 106 40 86 64 C 66 88 50 117 40 150 C 30 183 25 219 25 258 C 25 296 30 332 41 365 C 51 398 67 427 87 451 C 107 475 131 494 161 508 C 190 522 223 529 261 529 C 318 529 365 514 401 485 C 437 455 460 414 469 361 L 407 361 C 399 399 383 428 358 448 C 333 467 301 477 261 477 C 231 477 205 471 183 459 C 161 447 144 432 130 412 C 116 392 105 369 99 343 C 92 316 89 288 89 258 C 89 228 92 199 99 173 C 106 147 117 124 131 104 C 145 84 162 68 184 57 C 205 45 230 40 260 40 C 304 40 339 52 365 77 C 391 102 407 136 413 178 L 472 178 C 466 119 444 72 408 38 C 371 4 322 -13 260 -13 Z M 227 715 L 288 715 L 288 627 L 227 627 L 227 715 Z" unicode="ċ" />
<glyph horiz-adv-x="677" d="M 358 -13 C 308 -13 263 -4 223 14 C 183 32 150 57 122 90 C 94 122 73 161 58 207 C 43 252 36 302 36 357 C 36 411 43 460 58 506 C 73 552 95 591 123 624 C 151 657 185 683 225 702 C 265 720 310 730 361 730 C 437 730 498 710 546 671 C 594 632 624 579 636 513 L 570 513 C 560 559 538 597 502 627 C 466 657 418 672 360 672 C 318 672 281 663 249 647 C 217 631 191 608 170 580 C 148 552 132 518 122 480 C 111 442 106 401 106 357 C 106 312 111 271 122 233 C 133 195 149 162 171 134 C 192 106 218 85 250 69 C 281 53 317 46 359 46 C 393 46 424 51 451 63 C 477 74 500 89 519 109 C 537 128 552 151 563 177 C 573 203 580 230 583 260 L 648 260 C 646 224 638 190 625 157 C 612 124 595 96 574 73 C 548 45 517 23 481 9 C 445 -5 404 -13 358 -13 Z M 228 857 L 298 857 L 358 790 L 360 790 L 420 857 L 488 857 L 394 754 L 320 754 L 228 857 Z" unicode="Č" />
<glyph horiz-adv-x="491" d="M 136 702 L 205 702 L 257 631 L 259 631 L 312 702 L 378 702 L 293 596 L 219 596 L 136 702 Z M 260 -13 C 222 -13 188 -6 159 7 C 130 21 106 40 86 64 C 66 88 50 117 40 150 C 30 183 25 219 25 258 C 25 296 30 332 41 365 C 51 398 67 427 87 451 C 107 475 131 494 161 508 C 190 522 223 529 261 529 C 318 529 365 514 401 485 C 437 455 460 414 469 361 L 407 361 C 399 399 383 428 358 448 C 333 467 301 477 261 477 C 231 477 205 471 183 459 C 161 447 144 432 130 412 C 116 392 105 369 99 343 C 92 316 89 288 89 258 C 89 228 92 199 99 173 C 106 147 117 124 131 104 C 145 84 162 68 184 57 C 205 45 230 40 260 40 C 304 40 339 52 365 77 C 391 102 407 136 413 178 L 472 178 C 466 119 444 72 408 38 C 371 4 322 -13 260 -13 Z" unicode="č" />
<glyph horiz-adv-x="660" d="M 170 857 L 240 857 L 300 790 L 302 790 L 362 857 L 430 857 L 336 754 L 262 754 L 170 857 Z M 309 59 C 351 59 388 66 419 80 C 450 94 476 113 496 139 C 516 165 530 196 540 232 C 549 268 554 309 554 355 C 554 400 549 441 541 478 C 532 515 518 547 499 573 C 480 599 455 620 425 634 C 395 648 358 656 316 656 L 131 656 L 131 59 L 309 59 Z M 64 715 L 318 715 C 370 715 416 706 455 688 C 493 670 525 646 550 614 C 575 582 594 544 606 500 C 618 456 624 407 624 355 C 624 301 617 253 605 210 C 592 166 573 129 547 98 C 521 66 488 42 449 25 C 409 8 363 0 311 0 L 64 0 L 64 715 Z" unicode="Ď" />
<glyph horiz-adv-x="532" d="M 520 585 C 530 589 538 594 544 602 C 550 609 553 621 553 637 L 553 639 L 521 639 L 521 715 L 591 715 L 591 639 C 591 612 584 592 572 578 C 559 564 542 555 520 552 L 520 585 Z M 248 -14 C 213 -14 182 -7 154 6 C 126 19 103 38 84 62 C 65 86 50 114 40 147 C 30 180 25 217 25 257 C 25 299 30 337 42 371 C 53 405 69 433 89 457 C 109 480 132 498 159 510 C 186 522 215 528 246 528 C 286 528 320 519 348 502 C 376 484 399 461 416 431 L 418 431 L 418 715 L 480 715 L 480 0 L 418 0 L 418 77 L 416 77 C 396 47 373 24 347 9 C 320 -6 287 -14 248 -14 Z M 250 38 C 278 38 302 43 324 54 C 346 64 364 79 379 98 C 393 117 404 140 412 167 C 419 194 423 224 423 256 C 423 288 419 317 411 344 C 403 370 392 393 378 413 C 364 433 346 448 324 459 C 302 470 278 476 250 476 C 224 476 202 470 182 460 C 162 449 145 434 131 414 C 117 394 107 371 100 344 C 92 317 89 288 89 256 C 89 226 92 197 99 171 C 105 144 115 121 129 101 C 142 81 159 66 179 55 C 199 43 222 38 250 38 Z" unicode="ď" />
<glyph horiz-adv-x="674" d="M 319 59 C 361 59 398 66 429 80 C 460 94 486 113 506 139 C 526 165 540 196 550 232 C 560 268 565 309 565 355 C 565 400 560 441 551 478 C 542 515 528 547 509 573 C 490 599 465 620 435 634 C 405 648 368 656 326 656 L 142 656 L 142 387 L 379 387 L 379 330 L 142 330 L 142 59 L 319 59 Z M 74 330 L 3 330 L 3 387 L 74 387 L 74 715 L 328 715 C 380 715 426 706 465 688 C 503 670 535 646 560 614 C 585 582 604 544 616 500 C 628 456 634 407 634 355 C 634 301 627 253 615 210 C 602 166 583 129 557 98 C 531 66 498 42 459 25 C 419 8 373 0 321 0 L 74 0 L 74 330 Z" unicode="Đ" />
<glyph horiz-adv-x="532" d="M 248 -14 C 213 -14 182 -7 154 6 C 126 19 103 38 84 62 C 65 86 50 114 40 147 C 30 180 25 217 25 257 C 25 299 30 337 42 371 C 53 405 69 433 89 457 C 109 480 132 498 159 510 C 186 522 215 528 246 528 C 286 528 320 519 348 502 C 376 484 399 461 416 431 L 418 431 L 418 584 L 288 584 L 288 634 L 418 634 L 418 715 L 480 715 L 480 634 L 539 634 L 539 584 L 480 584 L 480 0 L 418 0 L 418 77 L 416 77 C 396 47 373 24 347 9 C 320 -6 287 -14 248 -14 Z M 250 38 C 278 38 302 43 324 54 C 346 64 364 79 379 98 C 393 117 404 140 412 167 C 419 194 423 224 423 256 C 423 288 419 317 411 344 C 403 370 392 393 378 413 C 364 433 346 448 324 459 C 302 470 278 476 250 476 C 224 476 202 470 182 460 C 162 449 145 434 131 414 C 117 394 107 371 100 344 C 92 317 89 288 89 256 C 89 226 92 197 99 171 C 105 144 115 121 129 101 C 142 81 159 66 179 55 C 199 43 222 38 250 38 Z" unicode="đ" />
<glyph horiz-adv-x="598" d="M 195 817 L 443 817 L 443 761 L 195 761 L 195 817 Z M 64 715 L 550 715 L 550 656 L 131 656 L 131 399 L 515 399 L 515 341 L 131 341 L 131 62 L 561 62 L 561 0 L 64 0 L 64 715 Z" unicode="Ē" />
<glyph horiz-adv-x="508" d="M 266 -13 C 227 -13 193 -6 163 7 C 133 21 107 40 87 64 C 67 88 51 117 41 150 C 30 183 25 219 25 258 C 25 296 30 332 42 365 C 53 398 69 427 89 451 C 109 475 134 494 163 508 C 192 522 225 529 261 529 C 302 529 337 521 365 505 C 393 489 416 468 434 442 C 452 416 464 386 472 352 C 479 318 483 283 483 247 L 89 247 C 89 217 93 190 101 165 C 109 140 120 118 134 100 C 148 81 167 66 189 56 C 211 45 236 40 266 40 C 309 40 342 50 366 71 C 390 92 407 120 417 156 L 477 156 C 465 104 442 63 407 33 C 371 2 324 -13 266 -13 Z M 418 296 C 417 321 413 345 407 367 C 400 389 390 409 378 425 C 365 441 349 454 330 464 C 310 473 287 478 261 478 C 235 478 211 473 191 464 C 171 454 154 441 140 425 C 126 409 114 390 106 368 C 98 346 92 322 90 296 L 418 296 Z M 135 683 L 383 683 L 383 627 L 135 627 L 135 683 Z" unicode="ē" />
<glyph horiz-adv-x="598" d="M 318 755 C 284 755 255 764 233 784 C 211 803 199 829 197 861 L 248 861 C 251 845 258 832 270 822 C 281 812 297 808 318 808 C 338 808 354 812 366 822 C 378 832 385 845 389 861 L 440 861 C 438 831 426 805 404 785 C 382 765 354 755 318 755 Z M 64 715 L 550 715 L 550 656 L 131 656 L 131 399 L 515 399 L 515 341 L 131 341 L 131 62 L 561 62 L 561 0 L 64 0 L 64 715 Z" unicode="Ĕ" />
<glyph horiz-adv-x="508" d="M 266 -13 C 227 -13 193 -6 163 7 C 133 21 107 40 87 64 C 67 88 51 117 41 150 C 30 183 25 219 25 258 C 25 296 30 332 42 365 C 53 398 69 427 89 451 C 109 475 134 494 163 508 C 192 522 225 529 261 529 C 302 529 337 521 365 505 C 393 489 416 468 434 442 C 452 416 464 386 472 352 C 479 318 483 283 483 247 L 89 247 C 89 217 93 190 101 165 C 109 140 120 118 134 100 C 148 81 167 66 189 56 C 211 45 236 40 266 40 C 309 40 342 50 366 71 C 390 92 407 120 417 156 L 477 156 C 465 104 442 63 407 33 C 371 2 324 -13 266 -13 Z M 418 296 C 417 321 413 345 407 367 C 400 389 390 409 378 425 C 365 441 349 454 330 464 C 310 473 287 478 261 478 C 235 478 211 473 191 464 C 171 454 154 441 140 425 C 126 409 114 390 106 368 C 98 346 92 322 90 296 L 418 296 Z M 259 595 C 225 595 196 605 174 625 C 152 645 140 671 138 703 L 189 703 C 192 687 199 673 211 663 C 222 653 238 648 259 648 C 279 648 295 653 307 663 C 319 673 326 687 330 703 L 381 703 C 379 673 367 647 345 626 C 323 605 295 595 259 595 Z" unicode="ĕ" />
<glyph horiz-adv-x="598" d="M 288 843 L 349 843 L 349 757 L 288 757 L 288 843 Z M 64 715 L 550 715 L 550 656 L 131 656 L 131 399 L 515 399 L 515 341 L 131 341 L 131 62 L 561 62 L 561 0 L 64 0 L 64 715 Z" unicode="Ė" />
<glyph horiz-adv-x="508" d="M 266 -13 C 227 -13 193 -6 163 7 C 133 21 107 40 87 64 C 67 88 51 117 41 150 C 30 183 25 219 25 258 C 25 296 30 332 42 365 C 53 398 69 427 89 451 C 109 475 134 494 163 508 C 192 522 225 529 261 529 C 302 529 337 521 365 505 C 393 489 416 468 434 442 C 452 416 464 386 472 352 C 479 318 483 283 483 247 L 89 247 C 89 217 93 190 101 165 C 109 140 120 118 134 100 C 148 81 167 66 189 56 C 211 45 236 40 266 40 C 309 40 342 50 366 71 C 390 92 407 120 417 156 L 477 156 C 465 104 442 63 407 33 C 371 2 324 -13 266 -13 Z M 418 296 C 417 321 413 345 407 367 C 400 389 390 409 378 425 C 365 441 349 454 330 464 C 310 473 287 478 261 478 C 235 478 211 473 191 464 C 171 454 154 441 140 425 C 126 409 114 390 106 368 C 98 346 92 322 90 296 L 418 296 Z M 229 715 L 290 715 L 290 627 L 229 627 L 229 715 Z" unicode="ė" />
<glyph horiz-adv-x="598" d="M 471 -174 C 440 -174 417 -167 402 -153 C 386 -139 379 -122 379 -100 C 379 -78 386 -59 400 -42 C 414 -25 430 -11 449 0 L 64 0 L 64 715 L 550 715 L 550 656 L 131 656 L 131 399 L 515 399 L 515 341 L 131 341 L 131 62 L 561 62 L 561 0 L 513 0 C 491 -15 474 -30 460 -45 C 446 -60 440 -76 440 -93 C 440 -115 453 -127 480 -127 C 496 -127 511 -124 525 -118 L 528 -118 L 528 -161 C 521 -164 513 -167 504 -170 C 494 -172 483 -174 471 -174 Z" unicode="Ę" />
<glyph horiz-adv-x="508" d="M 335 -174 C 304 -174 281 -167 266 -153 C 250 -139 243 -122 243 -100 C 243 -81 249 -64 261 -49 C 273 -33 287 -20 303 -10 C 291 -12 279 -13 266 -13 C 227 -13 193 -6 163 7 C 133 21 107 40 87 64 C 67 88 51 117 41 150 C 30 183 25 219 25 258 C 25 296 30 332 42 365 C 53 398 69 427 89 451 C 109 475 134 494 163 508 C 192 522 225 529 261 529 C 291 529 317 524 341 515 C 365 506 386 493 404 477 C 432 451 453 418 465 380 C 477 341 483 297 483 247 L 89 247 C 89 217 93 190 101 165 C 109 140 120 118 134 100 C 148 81 167 66 189 56 C 211 45 236 40 266 40 C 309 40 342 50 366 71 C 390 92 407 120 417 156 L 477 156 C 469 122 457 94 441 72 C 425 50 407 31 387 14 C 363 -6 343 -25 327 -42 C 311 -59 304 -76 304 -94 C 304 -116 317 -128 344 -128 C 352 -128 360 -127 367 -125 C 374 -123 381 -121 389 -118 L 392 -118 L 392 -162 C 385 -165 377 -168 368 -170 C 358 -172 347 -174 335 -174 Z M 418 296 C 417 321 413 345 407 367 C 400 389 390 409 378 425 C 365 441 349 454 330 464 C 310 473 287 478 261 478 C 235 478 211 473 191 464 C 171 454 154 441 140 425 C 126 409 114 390 106 368 C 98 346 92 322 90 296 L 418 296 Z" unicode="ę" />
<glyph horiz-adv-x="598" d="M 189 857 L 259 857 L 319 790 L 321 790 L 381 857 L 449 857 L 355 754 L 281 754 L 189 857 Z M 64 715 L 550 715 L 550 656 L 131 656 L 131 399 L 515 399 L 515 341 L 131 341 L 131 62 L 561 62 L 561 0 L 64 0 L 64 715 Z" unicode="Ě" />
<glyph horiz-adv-x="508" d="M 138 702 L 207 702 L 259 631 L 261 631 L 314 702 L 380 702 L 295 596 L 221 596 L 138 702 Z M 266 -13 C 227 -13 193 -6 163 7 C 133 21 107 40 87 64 C 67 88 51 117 41 150 C 30 183 25 219 25 258 C 25 296 30 332 42 365 C 53 398 69 427 89 451 C 109 475 134 494 163 508 C 192 522 225 529 261 529 C 302 529 337 521 365 505 C 393 489 416 468 434 442 C 452 416 464 386 472 352 C 479 318 483 283 483 247 L 89 247 C 89 217 93 190 101 165 C 109 140 120 118 134 100 C 148 81 167 66 189 56 C 211 45 236 40 266 40 C 309 40 342 50 366 71 C 390 92 407 120 417 156 L 477 156 C 465 104 442 63 407 33 C 371 2 324 -13 266 -13 Z M 418 296 C 417 321 413 345 407 367 C 400 389 390 409 378 425 C 365 441 349 454 330 464 C 310 473 287 478 261 478 C 235 478 211 473 191 464 C 171 454 154 441 140 425 C 126 409 114 390 106 368 C 98 346 92 322 90 296 L 418 296 Z" unicode="ě" />
<glyph horiz-adv-x="722" d="M 364 -14 C 312 -14 265 -4 225 14 C 184 32 150 58 122 91 C 94 124 72 163 58 209 C 43 254 36 303 36 357 C 36 409 43 458 58 504 C 73 549 95 588 124 622 C 152 655 188 681 230 700 C 272 719 320 729 374 729 C 448 729 510 710 560 673 C 610 635 642 580 656 508 L 587 508 C 575 562 551 602 513 630 C 475 657 428 671 374 671 C 328 671 288 662 254 646 C 220 630 193 607 171 579 C 149 550 132 517 122 479 C 111 441 106 400 106 357 C 106 313 111 272 122 234 C 133 196 149 163 171 135 C 193 107 220 85 252 69 C 284 53 322 45 365 45 C 406 45 441 51 471 64 C 501 77 525 95 545 117 C 564 139 578 164 587 193 C 596 221 601 251 601 283 L 601 308 L 371 308 L 371 367 L 667 367 L 667 0 L 620 0 L 606 114 L 603 114 C 593 99 582 84 568 69 C 554 54 538 40 519 28 C 499 16 477 6 451 -2 C 425 -10 396 -14 364 -14 Z M 329 857 L 403 857 L 495 754 L 425 754 L 365 822 L 363 822 L 303 754 L 235 754 L 329 857 Z" unicode="Ĝ" />
<glyph horiz-adv-x="527" d="M 224 702 L 298 702 L 381 596 L 312 596 L 260 667 L 258 667 L 205 596 L 139 596 L 224 702 Z M 254 -181 C 190 -181 140 -168 106 -142 C 71 -116 51 -84 47 -46 L 107 -46 C 112 -76 128 -97 155 -110 C 182 -123 214 -130 252 -130 C 307 -130 348 -116 374 -90 C 400 -64 414 -28 414 18 L 414 100 L 411 100 C 391 70 369 48 344 33 C 318 17 286 10 247 10 C 213 10 182 16 155 29 C 127 41 104 59 85 82 C 65 104 50 131 40 163 C 30 195 25 230 25 268 C 25 310 31 347 43 379 C 55 411 71 439 91 461 C 111 483 134 499 161 511 C 188 522 217 528 247 528 C 287 528 320 519 346 503 C 372 487 393 465 411 437 L 414 437 L 414 517 L 475 517 L 475 20 C 475 -37 459 -83 427 -119 C 387 -160 330 -181 254 -181 Z M 250 62 C 307 62 349 81 377 119 C 404 157 418 207 418 269 C 418 299 414 327 408 353 C 401 378 391 400 377 418 C 363 436 345 451 324 461 C 303 471 279 476 251 476 C 199 476 159 457 131 419 C 103 381 89 330 89 267 C 89 237 92 210 99 185 C 105 160 115 138 129 120 C 142 102 159 87 179 77 C 199 67 222 62 250 62 Z" unicode="ĝ" />
<glyph horiz-adv-x="722" d="M 365 755 C 331 755 302 764 280 784 C 258 803 246 829 244 861 L 295 861 C 298 845 305 832 317 822 C 328 812 344 808 365 808 C 385 808 401 812 413 822 C 425 832 432 845 436 861 L 487 861 C 485 831 473 805 451 785 C 429 765 401 755 365 755 Z M 364 -14 C 312 -14 265 -4 225 14 C 184 32 150 58 122 91 C 94 124 72 163 58 209 C 43 254 36 303 36 357 C 36 409 43 458 58 504 C 73 549 95 588 124 622 C 152 655 188 681 230 700 C 272 719 320 729 374 729 C 448 729 510 710 560 673 C 610 635 642 580 656 508 L 587 508 C 575 562 551 602 513 630 C 475 657 428 671 374 671 C 328 671 288 662 254 646 C 220 630 193 607 171 579 C 149 550 132 517 122 479 C 111 441 106 400 106 357 C 106 313 111 272 122 234 C 133 196 149 163 171 135 C 193 107 220 85 252 69 C 284 53 322 45 365 45 C 406 45 441 51 471 64 C 501 77 525 95 545 117 C 564 139 578 164 587 193 C 596 221 601 251 601 283 L 601 308 L 371 308 L 371 367 L 667 367 L 667 0 L 620 0 L 606 114 L 603 114 C 593 99 582 84 568 69 C 554 54 538 40 519 28 C 499 16 477 6 451 -2 C 425 -10 396 -14 364 -14 Z" unicode="Ğ" />
<glyph horiz-adv-x="527" d="M 254 -181 C 190 -181 140 -168 106 -142 C 71 -116 51 -84 47 -46 L 107 -46 C 112 -76 128 -97 155 -110 C 182 -123 214 -130 252 -130 C 307 -130 348 -116 374 -90 C 400 -64 414 -28 414 18 L 414 100 L 411 100 C 391 70 369 48 344 33 C 318 17 286 10 247 10 C 213 10 182 16 155 29 C 127 41 104 59 85 82 C 65 104 50 131 40 163 C 30 195 25 230 25 268 C 25 310 31 347 43 379 C 55 411 71 439 91 461 C 111 483 134 499 161 511 C 188 522 217 528 247 528 C 287 528 320 519 346 503 C 372 487 393 465 411 437 L 414 437 L 414 517 L 475 517 L 475 20 C 475 -37 459 -83 427 -119 C 387 -160 330 -181 254 -181 Z M 250 62 C 307 62 349 81 377 119 C 404 157 418 207 418 269 C 418 299 414 327 408 353 C 401 378 391 400 377 418 C 363 436 345 451 324 461 C 303 471 279 476 251 476 C 199 476 159 457 131 419 C 103 381 89 330 89 267 C 89 237 92 210 99 185 C 105 160 115 138 129 120 C 142 102 159 87 179 77 C 199 67 222 62 250 62 Z M 260 595 C 226 595 197 605 175 625 C 153 645 141 671 139 703 L 190 703 C 193 687 200 673 212 663 C 223 653 239 648 260 648 C 280 648 296 653 308 663 C 320 673 327 687 331 703 L 382 703 C 380 673 368 647 346 626 C 324 605 296 595 260 595 Z" unicode="ğ" />
<glyph horiz-adv-x="722" d="M 335 843 L 396 843 L 396 757 L 335 757 L 335 843 Z M 364 -14 C 312 -14 265 -4 225 14 C 184 32 150 58 122 91 C 94 124 72 163 58 209 C 43 254 36 303 36 357 C 36 409 43 458 58 504 C 73 549 95 588 124 622 C 152 655 188 681 230 700 C 272 719 320 729 374 729 C 448 729 510 710 560 673 C 610 635 642 580 656 508 L 587 508 C 575 562 551 602 513 630 C 475 657 428 671 374 671 C 328 671 288 662 254 646 C 220 630 193 607 171 579 C 149 550 132 517 122 479 C 111 441 106 400 106 357 C 106 313 111 272 122 234 C 133 196 149 163 171 135 C 193 107 220 85 252 69 C 284 53 322 45 365 45 C 406 45 441 51 471 64 C 501 77 525 95 545 117 C 564 139 578 164 587 193 C 596 221 601 251 601 283 L 601 308 L 371 308 L 371 367 L 667 367 L 667 0 L 620 0 L 606 114 L 603 114 C 593 99 582 84 568 69 C 554 54 538 40 519 28 C 499 16 477 6 451 -2 C 425 -10 396 -14 364 -14 Z" unicode="Ġ" />
<glyph horiz-adv-x="527" d="M 254 -181 C 190 -181 140 -168 106 -142 C 71 -116 51 -84 47 -46 L 107 -46 C 112 -76 128 -97 155 -110 C 182 -123 214 -130 252 -130 C 307 -130 348 -116 374 -90 C 400 -64 414 -28 414 18 L 414 100 L 411 100 C 391 70 369 48 344 33 C 318 17 286 10 247 10 C 213 10 182 16 155 29 C 127 41 104 59 85 82 C 65 104 50 131 40 163 C 30 195 25 230 25 268 C 25 310 31 347 43 379 C 55 411 71 439 91 461 C 111 483 134 499 161 511 C 188 522 217 528 247 528 C 287 528 320 519 346 503 C 372 487 393 465 411 437 L 414 437 L 414 517 L 475 517 L 475 20 C 475 -37 459 -83 427 -119 C 387 -160 330 -181 254 -181 Z M 250 62 C 307 62 349 81 377 119 C 404 157 418 207 418 269 C 418 299 414 327 408 353 C 401 378 391 400 377 418 C 363 436 345 451 324 461 C 303 471 279 476 251 476 C 199 476 159 457 131 419 C 103 381 89 330 89 267 C 89 237 92 210 99 185 C 105 160 115 138 129 120 C 142 102 159 87 179 77 C 199 67 222 62 250 62 Z M 229 715 L 290 715 L 290 627 L 229 627 L 229 715 Z" unicode="ġ" />
<glyph horiz-adv-x="722" d="M 330 -181 C 340 -177 348 -171 354 -164 C 360 -156 363 -144 363 -126 L 363 -125 L 332 -125 L 332 -46 L 401 -46 L 401 -124 C 401 -152 394 -173 382 -187 C 369 -201 352 -210 330 -214 L 330 -181 Z M 364 -14 C 312 -14 265 -4 225 14 C 184 32 150 58 122 91 C 94 124 72 163 58 209 C 43 254 36 303 36 357 C 36 409 43 458 58 504 C 73 549 95 588 124 622 C 152 655 188 681 230 700 C 272 719 320 729 374 729 C 448 729 510 710 560 673 C 610 635 642 580 656 508 L 587 508 C 575 562 551 602 513 630 C 475 657 428 671 374 671 C 328 671 288 662 254 646 C 220 630 193 607 171 579 C 149 550 132 517 122 479 C 111 441 106 400 106 357 C 106 313 111 272 122 234 C 133 196 149 163 171 135 C 193 107 220 85 252 69 C 284 53 322 45 365 45 C 406 45 441 51 471 64 C 501 77 525 95 545 117 C 564 139 578 164 587 193 C 596 221 601 251 601 283 L 601 308 L 371 308 L 371 367 L 667 367 L 667 0 L 620 0 L 606 114 L 603 114 C 593 99 582 84 568 69 C 554 54 538 40 519 28 C 499 16 477 6 451 -2 C 425 -10 396 -14 364 -14 Z" unicode="Ģ" />
<glyph horiz-adv-x="527" d="M 221 678 C 221 706 227 727 240 741 C 252 755 270 764 292 768 L 292 735 C 282 731 274 725 268 718 C 262 710 259 698 259 680 L 259 679 L 290 679 L 290 600 L 221 600 L 221 678 Z M 254 -181 C 190 -181 140 -168 106 -142 C 71 -116 51 -84 47 -46 L 107 -46 C 112 -76 128 -97 155 -110 C 182 -123 214 -130 252 -130 C 307 -130 348 -116 374 -90 C 400 -64 414 -28 414 18 L 414 100 L 411 100 C 391 70 369 48 344 33 C 318 17 286 10 247 10 C 213 10 182 16 155 29 C 127 41 104 59 85 82 C 65 104 50 131 40 163 C 30 195 25 230 25 268 C 25 310 31 347 43 379 C 55 411 71 439 91 461 C 111 483 134 499 161 511 C 188 522 217 528 247 528 C 287 528 320 519 346 503 C 372 487 393 465 411 437 L 414 437 L 414 517 L 475 517 L 475 20 C 475 -37 459 -83 427 -119 C 387 -160 330 -181 254 -181 Z M 250 62 C 307 62 349 81 377 119 C 404 157 418 207 418 269 C 418 299 414 327 408 353 C 401 378 391 400 377 418 C 363 436 345 451 324 461 C 303 471 279 476 251 476 C 199 476 159 457 131 419 C 103 381 89 330 89 267 C 89 237 92 210 99 185 C 105 160 115 138 129 120 C 142 102 159 87 179 77 C 199 67 222 62 250 62 Z" unicode="ģ" />
<glyph horiz-adv-x="667" d="M 64 715 L 131 715 L 131 406 L 536 406 L 536 715 L 603 715 L 603 0 L 536 0 L 536 350 L 131 350 L 131 0 L 64 0 L 64 715 Z M 297 857 L 371 857 L 463 754 L 393 754 L 333 822 L 331 822 L 271 754 L 203 754 L 297 857 Z" unicode="Ĥ" />
<glyph horiz-adv-x="505" d="M 55 715 L 117 715 L 117 438 L 119 438 C 136 464 159 485 187 502 C 215 519 250 528 292 528 C 340 528 379 514 410 486 C 441 458 457 419 457 367 L 457 0 L 395 0 L 395 361 C 395 400 384 429 363 447 C 342 465 313 475 277 475 C 255 475 234 471 215 464 C 195 456 178 446 164 433 C 149 420 137 405 129 387 C 121 369 117 349 117 328 L 117 0 L 55 0 L 55 715 Z M 219 857 L 293 857 L 385 754 L 315 754 L 255 822 L 253 822 L 193 754 L 125 754 L 219 857 Z" unicode="ĥ" />
<glyph horiz-adv-x="667" d="M 64 516 L -6 516 L -6 570 L 64 570 L 64 715 L 131 715 L 131 570 L 536 570 L 536 715 L 603 715 L 603 570 L 673 570 L 673 516 L 603 516 L 603 0 L 536 0 L 536 350 L 131 350 L 131 0 L 64 0 L 64 516 Z M 536 406 L 536 516 L 131 516 L 131 406 L 536 406 Z" unicode="Ħ" />
<glyph horiz-adv-x="505" d="M 55 584 L -4 584 L -4 634 L 55 634 L 55 715 L 117 715 L 117 634 L 247 634 L 247 584 L 117 584 L 117 438 L 119 438 C 136 464 159 485 187 502 C 215 519 250 528 292 528 C 340 528 379 514 410 486 C 441 458 457 419 457 367 L 457 0 L 395 0 L 395 361 C 395 400 384 429 363 447 C 342 465 313 475 277 475 C 255 475 234 471 215 464 C 195 456 178 446 164 433 C 149 420 137 405 129 387 C 121 369 117 349 117 328 L 117 0 L 55 0 L 55 584 Z" unicode="ħ" />
<glyph horiz-adv-x="202" d="M 67 715 L 134 715 L 134 0 L 67 0 L 67 715 Z M 162 760 C 150 760 139 762 128 766 C 117 770 107 774 97 779 C 87 784 77 789 68 793 C 58 797 50 799 44 799 C 36 799 30 795 25 789 C 20 782 17 773 16 762 L -33 762 C -30 790 -22 812 -10 827 C 2 841 19 849 41 849 C 53 849 64 847 74 843 C 84 839 94 834 104 830 C 114 825 123 821 132 817 C 140 813 149 811 157 811 C 166 811 173 814 178 820 C 183 826 186 835 188 847 L 236 847 C 234 820 227 799 214 783 C 201 767 184 760 162 760 Z" unicode="Ĩ" />
<glyph horiz-adv-x="169" d="M 54 517 L 116 517 L 116 0 L 54 0 L 54 517 Z M 145 600 C 133 600 122 602 111 606 C 100 610 90 614 80 619 C 70 624 60 629 51 633 C 41 637 33 639 27 639 C 19 639 13 635 8 629 C 3 622 0 613 -1 602 L -50 602 C -47 630 -39 652 -27 667 C -14 682 2 690 24 690 C 36 690 47 688 57 684 C 67 680 77 675 87 670 C 97 665 106 661 115 657 C 123 653 132 651 140 651 C 149 651 156 654 161 661 C 166 667 169 676 171 688 L 219 688 C 217 660 210 639 197 623 C 184 607 167 600 145 600 Z" unicode="ĩ" />
<glyph horiz-adv-x="202" d="M 67 715 L 134 715 L 134 0 L 67 0 L 67 715 Z M 9 816 L 193 816 L 193 762 L 9 762 L 9 816 Z" unicode="Ī" />
<glyph horiz-adv-x="169" d="M 54 517 L 116 517 L 116 0 L 54 0 L 54 517 Z M -4 683 L 172 683 L 172 627 L -4 627 L -4 683 Z" unicode="ī" />
<glyph horiz-adv-x="202" d="M 67 715 L 134 715 L 134 0 L 67 0 L 67 715 Z M 101 755 C 67 755 38 764 16 784 C -5 803 -18 829 -20 861 L 31 861 C 34 845 41 832 53 822 C 64 812 80 808 101 808 C 121 808 137 812 149 822 C 161 832 168 845 172 861 L 223 861 C 221 831 209 805 187 785 C 165 765 137 755 101 755 Z" unicode="Ĭ" />
<glyph horiz-adv-x="169" d="M 54 517 L 116 517 L 116 0 L 54 0 L 54 517 Z M 84 595 C 50 595 21 605 0 625 C -22 645 -35 671 -37 703 L 14 703 C 17 687 24 673 36 663 C 47 653 63 648 84 648 C 104 648 120 653 132 663 C 144 673 151 687 155 703 L 206 703 C 204 673 192 647 170 626 C 148 605 120 595 84 595 Z" unicode="ĭ" />
<glyph horiz-adv-x="202" d="M 95 -174 C 65 -174 42 -167 27 -154 C 11 -140 4 -122 4 -100 C 4 -78 11 -59 25 -42 C 39 -24 54 -10 72 1 L 67 1 L 67 715 L 134 715 L 134 2 C 112 -14 95 -29 83 -45 C 70 -60 64 -76 64 -93 C 64 -115 77 -127 104 -127 C 119 -127 134 -124 148 -118 L 151 -118 L 151 -161 C 144 -164 136 -167 127 -170 C 117 -172 107 -174 95 -174 Z" unicode="Į" />
<glyph horiz-adv-x="169" d="M 76 -174 C 46 -174 24 -167 9 -153 C -5 -139 -13 -122 -13 -100 C -13 -78 -6 -59 7 -42 C 21 -24 36 -10 54 0 L 54 517 L 116 517 L 116 0 C 94 -16 78 -31 66 -46 C 54 -60 48 -76 48 -93 C 48 -116 60 -128 85 -128 C 93 -128 100 -127 107 -125 C 113 -123 120 -121 128 -118 L 131 -118 L 131 -161 C 124 -164 116 -167 107 -170 C 98 -172 88 -174 76 -174 Z M 54 715 L 116 715 L 116 627 L 54 627 L 54 715 Z" unicode="į" />
<glyph horiz-adv-x="202" d="M 67 715 L 134 715 L 134 0 L 67 0 L 67 715 Z M 71 843 L 132 843 L 132 757 L 71 757 L 71 843 Z" unicode="İ" />
<glyph horiz-adv-x="169" d="M 54 517 L 116 517 L 116 0 L 54 0 L 54 517 Z" unicode="ı" />
<glyph horiz-adv-x="662" d="M 67 715 L 134 715 L 134 0 L 67 0 L 67 715 Z M 411 -13 C 347 -13 298 4 262 38 C 226 72 209 125 209 199 L 209 226 L 275 226 L 275 202 C 275 143 286 102 309 79 C 332 55 367 44 413 44 C 451 44 481 54 503 75 C 525 96 536 130 536 176 L 536 715 L 603 715 L 603 171 C 603 145 599 120 591 98 C 583 75 572 55 556 39 C 540 23 520 10 496 1 C 472 -8 443 -13 411 -13 Z" unicode="Ĳ" />
<glyph horiz-adv-x="339" d="M 54 517 L 116 517 L 116 0 L 54 0 L 54 517 Z M 54 715 L 116 715 L 116 627 L 54 627 L 54 715 Z M 149 -105 L 150 -105 C 152 -105 154 -106 158 -106 C 162 -106 165 -106 167 -106 C 186 -106 200 -101 209 -92 C 218 -83 223 -68 223 -47 L 223 517 L 285 517 L 285 -50 C 285 -92 275 -120 255 -135 C 235 -150 209 -158 175 -158 C 171 -158 166 -158 161 -158 C 155 -158 151 -157 149 -157 L 149 -105 Z M 223 715 L 285 715 L 285 627 L 223 627 L 223 715 Z" unicode="ĳ" />
<glyph horiz-adv-x="475" d="M 224 -13 C 160 -13 111 4 75 38 C 39 72 22 125 22 199 L 22 226 L 88 226 L 88 202 C 88 143 99 102 122 79 C 145 55 180 44 226 44 C 264 44 294 54 316 75 C 338 96 349 130 349 176 L 349 715 L 416 715 L 416 171 C 416 145 412 120 404 98 C 396 75 385 55 369 39 C 353 23 333 10 309 1 C 285 -8 256 -13 224 -13 Z M 346 857 L 420 857 L 512 754 L 442 754 L 382 822 L 380 822 L 320 754 L 252 754 L 346 857 Z" unicode="Ĵ" />
<glyph horiz-adv-x="169" d="M -20 -105 L -19 -105 C -17 -105 -14 -106 -10 -106 C -6 -106 -4 -106 -2 -106 C 17 -106 31 -101 40 -92 C 49 -83 54 -68 54 -47 L 54 517 L 116 517 L 116 -50 C 116 -92 106 -120 86 -135 C 66 -150 40 -158 6 -158 C 2 -158 -2 -158 -8 -158 C -13 -158 -17 -157 -20 -157 L -20 -105 Z M 48 702 L 122 702 L 190 596 L 126 596 L 85 665 L 83 665 L 40 596 L -22 596 L 48 702 Z" unicode="ĵ" />
<glyph horiz-adv-x="625" d="M 271 -181 C 281 -177 289 -171 295 -164 C 301 -156 304 -144 304 -126 L 304 -125 L 273 -125 L 273 -46 L 342 -46 L 342 -124 C 342 -152 335 -173 323 -187 C 310 -201 293 -210 271 -214 L 271 -181 Z M 64 715 L 131 715 L 131 334 L 517 715 L 604 715 L 305 424 L 622 0 L 542 0 L 259 378 L 131 252 L 131 0 L 64 0 L 64 715 Z" unicode="Ķ" />
<glyph horiz-adv-x="476" d="M 203 -181 C 213 -177 221 -171 227 -164 C 233 -156 236 -144 236 -126 L 236 -125 L 205 -125 L 205 -46 L 274 -46 L 274 -124 C 274 -152 267 -173 255 -187 C 242 -201 225 -210 203 -214 L 203 -181 Z M 52 715 L 114 715 L 114 268 L 371 517 L 450 517 L 252 330 L 474 0 L 402 0 L 209 290 L 114 199 L 114 0 L 52 0 L 52 715 Z" unicode="ķ" />
<glyph horiz-adv-x="476" d="M 52 517 L 114 517 L 114 268 L 371 517 L 450 517 L 252 330 L 474 0 L 402 0 L 209 290 L 114 199 L 114 0 L 52 0 L 52 517 Z" unicode="ĸ" />
<glyph horiz-adv-x="536" d="M 137 867 L 219 867 L 125 753 L 71 753 L 137 867 Z M 64 715 L 131 715 L 131 62 L 512 62 L 512 0 L 64 0 L 64 715 Z" unicode="Ĺ" />
<glyph horiz-adv-x="172" d="M 125 867 L 207 867 L 113 753 L 59 753 L 125 867 Z M 55 715 L 117 715 L 117 0 L 55 0 L 55 715 Z" unicode="ĺ" />
<glyph horiz-adv-x="536" d="M 248 -181 C 258 -177 266 -171 272 -164 C 278 -156 281 -144 281 -126 L 281 -125 L 250 -125 L 250 -46 L 319 -46 L 319 -124 C 319 -152 312 -173 300 -187 C 287 -201 270 -210 248 -214 L 248 -181 Z M 64 715 L 131 715 L 131 62 L 512 62 L 512 0 L 64 0 L 64 715 Z" unicode="Ļ" />
<glyph horiz-adv-x="172" d="M 50 -181 C 60 -177 68 -171 74 -164 C 80 -156 83 -144 83 -126 L 83 -125 L 52 -125 L 52 -46 L 121 -46 L 121 -124 C 121 -152 114 -173 102 -187 C 89 -201 72 -210 50 -214 L 50 -181 Z M 55 715 L 117 715 L 117 0 L 55 0 L 55 715 Z" unicode="ļ" />
<glyph horiz-adv-x="536" d="M 284 585 C 294 589 302 594 308 602 C 314 609 317 621 317 637 L 317 639 L 285 639 L 285 715 L 355 715 L 355 639 C 355 612 348 592 336 578 C 323 564 306 555 284 552 L 284 585 Z M 64 715 L 131 715 L 131 62 L 512 62 L 512 0 L 64 0 L 64 715 Z" unicode="Ľ" />
<glyph horiz-adv-x="172" d="M 158 585 C 168 589 176 594 182 602 C 188 609 191 621 191 637 L 191 639 L 159 639 L 159 715 L 229 715 L 229 639 C 229 612 222 592 210 578 C 197 564 180 555 158 552 L 158 585 Z M 55 715 L 117 715 L 117 0 L 55 0 L 55 715 Z" unicode="ľ" />
<glyph horiz-adv-x="536" d="M 64 715 L 131 715 L 131 62 L 512 62 L 512 0 L 64 0 L 64 715 Z M 349 366 L 425 366 L 425 279 L 349 279 L 349 366 Z" unicode="Ŀ" />
<glyph horiz-adv-x="260" d="M 55 715 L 117 715 L 117 0 L 55 0 L 55 715 Z M 176 366 L 252 366 L 252 279 L 176 279 L 176 366 Z" unicode="ŀ" />
<glyph horiz-adv-x="548" d="M 76 245 L -5 202 L -5 262 L 76 305 L 76 715 L 143 715 L 143 341 L 405 481 L 405 421 L 143 281 L 143 62 L 524 62 L 524 0 L 76 0 L 76 245 Z" unicode="Ł" />
<glyph horiz-adv-x="208" d="M 73 328 L 5 271 L 5 334 L 73 390 L 73 715 L 135 715 L 135 442 L 211 506 L 211 443 L 135 379 L 135 0 L 73 0 L 73 328 Z" unicode="ł" />
<glyph horiz-adv-x="667" d="M 382 867 L 464 867 L 370 753 L 316 753 L 382 867 Z M 64 715 L 137 715 L 466 213 C 475 199 484 186 492 172 C 500 158 508 145 515 134 C 522 120 529 107 537 95 L 539 95 L 539 715 L 603 715 L 603 0 L 533 0 L 205 496 C 196 508 187 522 179 536 C 170 550 162 563 155 575 C 146 589 138 603 130 617 L 128 617 L 128 0 L 64 0 L 64 715 Z" unicode="Ń" />
<glyph horiz-adv-x="502" d="M 283 719 L 365 719 L 271 592 L 217 592 L 283 719 Z M 52 517 L 114 517 L 114 438 L 116 438 C 133 464 156 485 184 502 C 212 519 247 528 289 528 C 337 528 376 514 407 486 C 438 458 454 419 454 367 L 454 0 L 392 0 L 392 361 C 392 400 381 429 360 447 C 339 465 310 475 274 475 C 252 475 231 471 212 464 C 192 456 175 446 161 433 C 146 420 134 405 126 387 C 118 369 114 349 114 328 L 114 0 L 52 0 L 52 517 Z" unicode="ń" />
<glyph horiz-adv-x="667" d="M 283 -181 C 293 -177 301 -171 307 -164 C 313 -156 316 -144 316 -126 L 316 -125 L 285 -125 L 285 -46 L 354 -46 L 354 -124 C 354 -152 347 -173 335 -187 C 322 -201 305 -210 283 -214 L 283 -181 Z M 64 715 L 137 715 L 466 213 C 475 199 484 186 492 172 C 500 158 508 145 515 134 C 522 120 529 107 537 95 L 539 95 L 539 715 L 603 715 L 603 0 L 533 0 L 205 496 C 196 508 187 522 179 536 C 170 550 162 563 155 575 C 146 589 138 603 130 617 L 128 617 L 128 0 L 64 0 L 64 715 Z" unicode="Ņ" />
<glyph horiz-adv-x="502" d="M 219 -181 C 229 -177 237 -171 243 -164 C 249 -156 252 -144 252 -126 L 252 -125 L 221 -125 L 221 -46 L 290 -46 L 290 -124 C 290 -152 283 -173 271 -187 C 258 -201 241 -210 219 -214 L 219 -181 Z M 52 517 L 114 517 L 114 438 L 116 438 C 133 464 156 485 184 502 C 212 519 247 528 289 528 C 337 528 376 514 407 486 C 438 458 454 419 454 367 L 454 0 L 392 0 L 392 361 C 392 400 381 429 360 447 C 339 465 310 475 274 475 C 252 475 231 471 212 464 C 192 456 175 446 161 433 C 146 420 134 405 126 387 C 118 369 114 349 114 328 L 114 0 L 52 0 L 52 517 Z" unicode="ņ" />
<glyph horiz-adv-x="667" d="M 220 857 L 290 857 L 350 790 L 352 790 L 412 857 L 480 857 L 386 754 L 312 754 L 220 857 Z M 64 715 L 137 715 L 466 213 C 475 199 484 186 492 172 C 500 158 508 145 515 134 C 522 120 529 107 537 95 L 539 95 L 539 715 L 603 715 L 603 0 L 533 0 L 205 496 C 196 508 187 522 179 536 C 170 550 162 563 155 575 C 146 589 138 603 130 617 L 128 617 L 128 0 L 64 0 L 64 715 Z" unicode="Ň" />
<glyph horiz-adv-x="502" d="M 133 702 L 202 702 L 254 631 L 256 631 L 309 702 L 375 702 L 290 596 L 216 596 L 133 702 Z M 52 517 L 114 517 L 114 438 L 116 438 C 133 464 156 485 184 502 C 212 519 247 528 289 528 C 337 528 376 514 407 486 C 438 458 454 419 454 367 L 454 0 L 392 0 L 392 361 C 392 400 381 429 360 447 C 339 465 310 475 274 475 C 252 475 231 471 212 464 C 192 456 175 446 161 433 C 146 420 134 405 126 387 C 118 369 114 349 114 328 L 114 0 L 52 0 L 52 517 Z" unicode="ň" />
<glyph horiz-adv-x="502" d="M 52 517 L 114 517 L 114 438 L 116 438 C 133 464 156 485 184 502 C 212 519 247 528 289 528 C 337 528 376 514 407 486 C 438 458 454 419 454 367 L 454 0 L 392 0 L 392 361 C 392 400 381 429 360 447 C 339 465 310 475 274 475 C 252 475 231 471 212 464 C 192 456 175 446 161 433 C 146 420 134 405 126 387 C 118 369 114 349 114 328 L 114 0 L 52 0 L 52 517 Z M -7 585 C 3 589 11 594 17 602 C 23 609 26 621 26 637 L 26 639 L -5 639 L -5 715 L 64 715 L 64 639 C 64 612 57 592 45 578 C 32 564 15 555 -7 552 L -7 585 Z" unicode="ŉ" />
<glyph horiz-adv-x="667" d="M 205 496 C 196 508 187 522 179 536 C 170 550 162 563 155 575 C 146 589 138 603 130 617 L 128 617 L 128 0 L 64 0 L 64 715 L 137 715 L 466 213 C 475 199 484 186 492 172 C 500 158 508 145 515 134 C 522 120 529 107 537 95 L 539 95 L 539 715 L 603 715 L 603 -3 C 603 -27 599 -49 592 -71 C 584 -93 573 -112 557 -128 C 541 -144 522 -156 498 -166 C 474 -176 445 -181 411 -181 C 403 -181 394 -180 385 -180 C 375 -179 367 -178 359 -176 L 359 -119 C 373 -122 389 -124 405 -124 C 445 -124 477 -114 500 -94 C 523 -74 535 -45 536 -5 L 205 496 Z" unicode="Ŋ" />
<glyph horiz-adv-x="502" d="M 392 361 C 392 400 381 429 360 447 C 339 465 310 475 274 475 C 252 475 231 471 212 464 C 192 456 175 446 161 433 C 146 420 134 405 126 387 C 118 369 114 349 114 328 L 114 0 L 52 0 L 52 517 L 114 517 L 114 438 L 116 438 C 133 464 156 485 184 502 C 212 519 247 528 289 528 C 337 528 376 514 407 486 C 438 458 454 419 454 367 L 454 -50 C 454 -92 444 -120 424 -135 C 404 -150 378 -158 344 -158 C 340 -158 335 -158 330 -158 C 324 -158 320 -157 318 -157 L 318 -105 L 319 -105 C 321 -105 323 -106 327 -106 C 331 -106 334 -106 336 -106 C 355 -106 369 -101 378 -92 C 387 -83 392 -68 392 -47 L 392 361 Z" unicode="ŋ" />
<glyph horiz-adv-x="738" d="M 245 817 L 493 817 L 493 761 L 245 761 L 245 817 Z M 368 46 C 410 46 448 54 481 70 C 514 86 542 109 564 137 C 586 165 603 198 615 236 C 626 274 632 314 632 358 C 632 401 626 442 615 480 C 603 518 586 551 564 579 C 542 607 514 629 481 645 C 448 661 410 670 368 670 C 325 670 287 661 255 645 C 222 629 195 607 173 579 C 151 551 134 518 123 480 C 111 442 106 401 106 358 C 106 314 111 274 123 236 C 134 198 151 165 173 137 C 195 109 222 86 255 70 C 287 54 325 46 368 46 Z M 368 -14 C 317 -14 271 -4 231 14 C 190 32 155 58 126 92 C 97 125 75 164 59 210 C 43 255 36 304 36 358 C 36 411 43 460 59 506 C 75 551 97 590 126 624 C 155 657 190 683 231 702 C 271 720 317 730 368 730 C 418 730 464 720 506 702 C 547 683 582 657 611 624 C 640 590 662 551 678 506 C 694 460 702 411 702 358 C 702 304 694 255 678 210 C 662 164 640 125 611 92 C 582 58 547 32 506 14 C 464 -4 418 -14 368 -14 Z" unicode="Ō" />
<glyph horiz-adv-x="529" d="M 140 683 L 388 683 L 388 627 L 140 627 L 140 683 Z M 265 39 C 293 39 319 44 341 56 C 363 67 381 83 396 103 C 410 123 421 146 429 173 C 436 199 440 228 440 258 C 440 288 436 316 429 343 C 421 369 410 393 396 413 C 381 433 363 448 341 460 C 319 471 293 477 265 477 C 235 477 210 471 188 460 C 166 448 148 433 133 413 C 118 393 107 369 100 343 C 92 316 89 288 89 258 C 89 228 92 199 100 173 C 107 146 118 123 133 103 C 148 83 166 67 188 56 C 210 44 235 39 265 39 Z M 265 -13 C 227 -13 194 -6 164 7 C 134 21 109 40 89 64 C 68 88 52 117 41 150 C 30 183 25 219 25 258 C 25 296 30 332 41 365 C 52 398 68 427 89 451 C 109 475 134 494 164 508 C 194 522 227 529 265 529 C 302 529 335 522 365 508 C 394 494 419 475 440 451 C 460 427 476 398 487 365 C 497 332 503 296 503 258 C 503 219 497 183 487 150 C 476 117 460 88 440 64 C 419 40 394 21 365 7 C 335 -6 302 -13 265 -13 Z" unicode="ō" />
<glyph horiz-adv-x="738" d="M 368 755 C 334 755 305 764 283 784 C 261 803 249 829 247 861 L 298 861 C 301 845 308 832 320 822 C 331 812 347 808 368 808 C 388 808 404 812 416 822 C 428 832 435 845 439 861 L 490 861 C 488 831 476 805 454 785 C 432 765 404 755 368 755 Z M 368 46 C 410 46 448 54 481 70 C 514 86 542 109 564 137 C 586 165 603 198 615 236 C 626 274 632 314 632 358 C 632 401 626 442 615 480 C 603 518 586 551 564 579 C 542 607 514 629 481 645 C 448 661 410 670 368 670 C 325 670 287 661 255 645 C 222 629 195 607 173 579 C 151 551 134 518 123 480 C 111 442 106 401 106 358 C 106 314 111 274 123 236 C 134 198 151 165 173 137 C 195 109 222 86 255 70 C 287 54 325 46 368 46 Z M 368 -14 C 317 -14 271 -4 231 14 C 190 32 155 58 126 92 C 97 125 75 164 59 210 C 43 255 36 304 36 358 C 36 411 43 460 59 506 C 75 551 97 590 126 624 C 155 657 190 683 231 702 C 271 720 317 730 368 730 C 418 730 464 720 506 702 C 547 683 582 657 611 624 C 640 590 662 551 678 506 C 694 460 702 411 702 358 C 702 304 694 255 678 210 C 662 164 640 125 611 92 C 582 58 547 32 506 14 C 464 -4 418 -14 368 -14 Z" unicode="Ŏ" />
<glyph horiz-adv-x="529" d="M 265 39 C 293 39 319 44 341 56 C 363 67 381 83 396 103 C 410 123 421 146 429 173 C 436 199 440 228 440 258 C 440 288 436 316 429 343 C 421 369 410 393 396 413 C 381 433 363 448 341 460 C 319 471 293 477 265 477 C 235 477 210 471 188 460 C 166 448 148 433 133 413 C 118 393 107 369 100 343 C 92 316 89 288 89 258 C 89 228 92 199 100 173 C 107 146 118 123 133 103 C 148 83 166 67 188 56 C 210 44 235 39 265 39 Z M 265 -13 C 227 -13 194 -6 164 7 C 134 21 109 40 89 64 C 68 88 52 117 41 150 C 30 183 25 219 25 258 C 25 296 30 332 41 365 C 52 398 68 427 89 451 C 109 475 134 494 164 508 C 194 522 227 529 265 529 C 302 529 335 522 365 508 C 394 494 419 475 440 451 C 460 427 476 398 487 365 C 497 332 503 296 503 258 C 503 219 497 183 487 150 C 476 117 460 88 440 64 C 419 40 394 21 365 7 C 335 -6 302 -13 265 -13 Z M 263 595 C 229 595 200 605 178 625 C 156 645 144 671 142 703 L 193 703 C 196 687 203 673 215 663 C 226 653 242 648 263 648 C 283 648 299 653 311 663 C 323 673 330 687 334 703 L 385 703 C 383 673 371 647 349 626 C 327 605 299 595 263 595 Z" unicode="ŏ" />
<glyph horiz-adv-x="738" d="M 368 46 C 410 46 448 54 481 70 C 514 86 542 109 564 137 C 586 165 603 198 615 236 C 626 274 632 314 632 358 C 632 401 626 442 615 480 C 603 518 586 551 564 579 C 542 607 514 629 481 645 C 448 661 410 670 368 670 C 325 670 287 661 255 645 C 222 629 195 607 173 579 C 151 551 134 518 123 480 C 111 442 106 401 106 358 C 106 314 111 274 123 236 C 134 198 151 165 173 137 C 195 109 222 86 255 70 C 287 54 325 46 368 46 Z M 368 -14 C 317 -14 271 -4 231 14 C 190 32 155 58 126 92 C 97 125 75 164 59 210 C 43 255 36 304 36 358 C 36 411 43 460 59 506 C 75 551 97 590 126 624 C 155 657 190 683 231 702 C 271 720 317 730 368 730 C 418 730 464 720 506 702 C 547 683 582 657 611 624 C 640 590 662 551 678 506 C 694 460 702 411 702 358 C 702 304 694 255 678 210 C 662 164 640 125 611 92 C 582 58 547 32 506 14 C 464 -4 418 -14 368 -14 Z M 317 870 L 385 870 L 330 753 L 280 753 L 317 870 Z M 446 870 L 515 870 L 460 753 L 410 753 L 446 870 Z" unicode="Ő" />
<glyph horiz-adv-x="529" d="M 212 719 L 280 719 L 225 592 L 175 592 L 212 719 Z M 341 719 L 410 719 L 355 592 L 305 592 L 341 719 Z M 265 39 C 293 39 319 44 341 56 C 363 67 381 83 396 103 C 410 123 421 146 429 173 C 436 199 440 228 440 258 C 440 288 436 316 429 343 C 421 369 410 393 396 413 C 381 433 363 448 341 460 C 319 471 293 477 265 477 C 235 477 210 471 188 460 C 166 448 148 433 133 413 C 118 393 107 369 100 343 C 92 316 89 288 89 258 C 89 228 92 199 100 173 C 107 146 118 123 133 103 C 148 83 166 67 188 56 C 210 44 235 39 265 39 Z M 265 -13 C 227 -13 194 -6 164 7 C 134 21 109 40 89 64 C 68 88 52 117 41 150 C 30 183 25 219 25 258 C 25 296 30 332 41 365 C 52 398 68 427 89 451 C 109 475 134 494 164 508 C 194 522 227 529 265 529 C 302 529 335 522 365 508 C 394 494 419 475 440 451 C 460 427 476 398 487 365 C 497 332 503 296 503 258 C 503 219 497 183 487 150 C 476 117 460 88 440 64 C 419 40 394 21 365 7 C 335 -6 302 -13 265 -13 Z" unicode="ő" />
<glyph horiz-adv-x="1086" d="M 360 -14 C 311 -14 267 -4 227 14 C 187 32 153 58 125 92 C 97 125 75 164 59 210 C 43 255 36 304 36 358 C 36 411 43 460 59 506 C 75 551 97 590 126 624 C 154 657 188 683 228 702 C 268 720 312 730 360 730 C 409 730 452 719 488 699 C 524 678 553 650 577 614 L 577 715 L 1039 715 L 1039 656 L 644 656 L 644 399 L 1009 399 L 1009 341 L 644 341 L 644 62 L 1050 62 L 1050 0 L 577 0 L 577 96 C 553 60 523 33 487 14 C 451 -4 408 -14 360 -14 Z M 360 46 C 389 46 417 50 443 60 C 469 70 492 83 512 101 C 532 118 547 139 559 163 C 571 187 577 213 577 243 L 577 481 C 575 508 569 533 557 557 C 545 580 529 600 510 617 C 490 633 468 646 442 656 C 416 665 388 670 360 670 C 318 670 282 661 251 645 C 219 629 193 607 171 579 C 149 551 133 518 122 480 C 111 442 106 401 106 358 C 106 314 111 274 122 236 C 133 198 149 165 171 137 C 192 109 218 86 250 70 C 282 54 318 46 360 46 Z" unicode="Œ" />
<glyph horiz-adv-x="886" d="M 255 -13 C 219 -13 186 -6 158 7 C 129 21 105 40 85 64 C 65 88 50 117 40 150 C 30 183 25 219 25 258 C 25 296 30 332 40 365 C 50 398 65 427 85 451 C 105 475 129 494 158 508 C 186 522 219 529 255 529 C 303 529 343 516 375 492 C 407 468 432 436 450 396 C 466 436 491 469 524 493 C 556 517 597 529 645 529 C 697 529 741 514 777 484 C 807 458 829 425 842 385 C 855 345 862 299 862 247 L 480 247 C 480 217 484 190 491 165 C 498 140 509 118 523 100 C 537 81 554 66 576 56 C 597 45 622 40 652 40 C 693 40 725 50 748 72 C 770 94 786 122 796 156 L 855 156 C 845 105 822 64 788 33 C 754 2 708 -13 652 -13 C 600 -13 558 -1 525 22 C 491 46 466 78 450 120 C 432 78 407 46 375 22 C 343 -1 303 -13 255 -13 Z M 255 39 C 282 39 306 44 327 56 C 347 67 364 83 378 103 C 392 123 402 146 409 173 C 416 199 420 228 420 258 C 420 288 416 316 409 343 C 402 369 392 393 378 413 C 364 433 347 448 327 460 C 306 471 282 477 255 477 C 227 477 203 471 183 460 C 162 448 145 433 131 413 C 117 393 106 369 99 343 C 92 316 89 288 89 258 C 89 228 92 199 99 173 C 106 146 117 123 131 103 C 145 83 162 67 183 56 C 203 44 227 39 255 39 Z M 797 296 C 796 321 792 345 786 367 C 780 389 771 409 759 425 C 747 441 731 454 713 464 C 694 473 672 478 646 478 C 620 478 597 473 578 464 C 558 454 542 441 528 425 C 514 409 503 390 495 368 C 487 346 481 322 479 296 L 797 296 Z" unicode="œ" />
<glyph horiz-adv-x="618" d="M 64 715 L 355 715 C 393 715 426 709 453 698 C 480 687 503 672 522 653 C 555 618 572 572 572 515 C 572 464 559 422 535 390 C 510 357 475 334 429 322 L 599 0 L 525 0 L 363 313 L 131 313 L 131 0 L 64 0 L 64 715 Z M 343 370 C 400 370 441 382 467 407 C 492 432 505 467 505 513 C 505 559 491 594 465 619 C 438 643 398 656 346 656 L 131 656 L 131 370 L 343 370 Z M 333 867 L 415 867 L 321 753 L 267 753 L 333 867 Z" unicode="Ŕ" />
<glyph horiz-adv-x="308" d="M 208 719 L 290 719 L 196 592 L 142 592 L 208 719 Z M 52 517 L 114 517 L 114 421 L 116 421 C 132 451 153 475 180 493 C 206 511 238 521 274 521 C 278 521 281 520 284 520 C 286 520 289 519 291 519 L 291 458 C 272 461 253 460 234 456 C 214 452 197 444 181 433 C 161 417 144 398 132 375 C 120 351 114 324 114 294 L 114 0 L 52 0 L 52 517 Z" unicode="ŕ" />
<glyph horiz-adv-x="618" d="M 64 715 L 355 715 C 393 715 426 709 453 698 C 480 687 503 672 522 653 C 555 618 572 572 572 515 C 572 464 559 422 535 390 C 510 357 475 334 429 322 L 599 0 L 525 0 L 363 313 L 131 313 L 131 0 L 64 0 L 64 715 Z M 343 370 C 400 370 441 382 467 407 C 492 432 505 467 505 513 C 505 559 491 594 465 619 C 438 643 398 656 346 656 L 131 656 L 131 370 L 343 370 Z M 266 -181 C 276 -177 284 -171 290 -164 C 296 -156 299 -144 299 -126 L 299 -125 L 268 -125 L 268 -46 L 337 -46 L 337 -124 C 337 -152 330 -173 318 -187 C 305 -201 288 -210 266 -214 L 266 -181 Z" unicode="Ŗ" />
<glyph horiz-adv-x="308" d="M 46 -181 C 56 -177 64 -171 70 -164 C 76 -156 79 -144 79 -126 L 79 -125 L 48 -125 L 48 -46 L 117 -46 L 117 -124 C 117 -152 110 -173 98 -187 C 85 -201 68 -210 46 -214 L 46 -181 Z M 52 517 L 114 517 L 114 421 L 116 421 C 132 451 153 475 180 493 C 206 511 238 521 274 521 C 278 521 281 520 284 520 C 286 520 289 519 291 519 L 291 458 C 272 461 253 460 234 456 C 214 452 197 444 181 433 C 161 417 144 398 132 375 C 120 351 114 324 114 294 L 114 0 L 52 0 L 52 517 Z" unicode="ŗ" />
<glyph horiz-adv-x="618" d="M 64 715 L 355 715 C 393 715 426 709 453 698 C 480 687 503 672 522 653 C 555 618 572 572 572 515 C 572 464 559 422 535 390 C 510 357 475 334 429 322 L 599 0 L 525 0 L 363 313 L 131 313 L 131 0 L 64 0 L 64 715 Z M 343 370 C 400 370 441 382 467 407 C 492 432 505 467 505 513 C 505 559 491 594 465 619 C 438 643 398 656 346 656 L 131 656 L 131 370 L 343 370 Z M 171 857 L 241 857 L 301 790 L 303 790 L 363 857 L 431 857 L 337 754 L 263 754 L 171 857 Z" unicode="Ř" />
<glyph horiz-adv-x="308" d="M 58 702 L 127 702 L 179 631 L 181 631 L 234 702 L 300 702 L 215 596 L 141 596 L 58 702 Z M 52 517 L 114 517 L 114 421 L 116 421 C 132 451 153 475 180 493 C 206 511 238 521 274 521 C 278 521 281 520 284 520 C 286 520 289 519 291 519 L 291 458 C 272 461 253 460 234 456 C 214 452 197 444 181 433 C 161 417 144 398 132 375 C 120 351 114 324 114 294 L 114 0 L 52 0 L 52 517 Z" unicode="ř" />
<glyph horiz-adv-x="599" d="M 312 -13 C 264 -13 223 -6 188 5 C 153 17 124 35 100 57 C 76 79 57 105 45 135 C 32 165 25 197 23 232 L 90 232 C 93 171 114 124 153 92 C 192 59 245 43 313 43 C 339 43 363 46 385 53 C 407 59 427 69 443 82 C 459 94 472 110 482 129 C 491 147 496 169 496 193 C 496 218 491 239 483 255 C 474 271 461 285 443 297 C 425 308 402 317 374 325 C 346 333 314 341 276 349 C 242 355 212 363 185 372 C 157 381 134 393 114 407 C 94 421 78 439 67 461 C 56 482 51 508 51 540 C 51 568 56 594 68 617 C 79 640 95 660 116 677 C 137 693 162 706 192 715 C 221 724 254 729 290 729 C 330 729 365 723 395 713 C 425 703 450 688 471 670 C 491 652 507 630 519 604 C 531 578 538 550 542 520 L 477 520 C 471 570 451 608 418 634 C 384 660 342 673 291 673 C 236 673 193 661 162 637 C 131 613 116 582 116 542 C 116 520 120 502 128 488 C 136 474 149 462 165 452 C 181 442 201 433 225 426 C 249 419 278 413 310 407 C 344 400 377 392 408 384 C 439 375 466 363 489 348 C 512 332 530 312 544 288 C 557 264 564 233 564 196 C 564 164 557 135 545 109 C 533 83 516 62 494 44 C 472 26 445 12 414 2 C 383 -8 349 -13 312 -13 Z M 324 867 L 406 867 L 312 753 L 258 753 L 324 867 Z" unicode="Ś" />
<glyph horiz-adv-x="451" d="M 255 719 L 337 719 L 243 592 L 189 592 L 255 719 Z M 233 -14 C 198 -14 168 -9 142 0 C 116 8 94 20 76 36 C 58 51 45 69 35 91 C 25 112 20 135 19 161 L 82 161 C 86 117 102 85 130 67 C 157 48 192 39 234 39 C 277 39 310 48 332 66 C 354 84 365 109 365 139 C 365 153 362 165 358 175 C 354 185 346 193 336 201 C 325 209 311 215 293 221 C 275 227 253 233 227 239 C 201 245 176 251 153 258 C 130 265 110 274 93 285 C 76 295 63 309 53 325 C 43 341 38 362 38 388 C 38 409 42 428 51 446 C 59 463 72 478 88 490 C 104 502 123 511 145 518 C 167 524 191 528 218 528 C 248 528 275 524 298 517 C 320 509 339 499 355 485 C 371 471 383 455 392 437 C 400 418 406 397 410 375 L 348 375 C 344 409 331 434 309 451 C 287 468 256 477 218 477 C 178 477 148 468 129 452 C 109 435 100 415 100 391 C 100 376 103 364 109 354 C 115 344 124 336 136 329 C 148 322 164 316 183 311 C 201 306 223 301 248 295 C 274 289 298 283 320 276 C 342 269 360 260 376 249 C 392 237 404 223 413 206 C 422 188 427 166 427 140 C 427 94 409 56 375 28 C 340 0 293 -14 233 -14 Z" unicode="ś" />
<glyph horiz-adv-x="599" d="M 312 -13 C 264 -13 223 -6 188 5 C 153 17 124 35 100 57 C 76 79 57 105 45 135 C 32 165 25 197 23 232 L 90 232 C 93 171 114 124 153 92 C 192 59 245 43 313 43 C 339 43 363 46 385 53 C 407 59 427 69 443 82 C 459 94 472 110 482 129 C 491 147 496 169 496 193 C 496 218 491 239 483 255 C 474 271 461 285 443 297 C 425 308 402 317 374 325 C 346 333 314 341 276 349 C 242 355 212 363 185 372 C 157 381 134 393 114 407 C 94 421 78 439 67 461 C 56 482 51 508 51 540 C 51 568 56 594 68 617 C 79 640 95 660 116 677 C 137 693 162 706 192 715 C 221 724 254 729 290 729 C 330 729 365 723 395 713 C 425 703 450 688 471 670 C 491 652 507 630 519 604 C 531 578 538 550 542 520 L 477 520 C 471 570 451 608 418 634 C 384 660 342 673 291 673 C 236 673 193 661 162 637 C 131 613 116 582 116 542 C 116 520 120 502 128 488 C 136 474 149 462 165 452 C 181 442 201 433 225 426 C 249 419 278 413 310 407 C 344 400 377 392 408 384 C 439 375 466 363 489 348 C 512 332 530 312 544 288 C 557 264 564 233 564 196 C 564 164 557 135 545 109 C 533 83 516 62 494 44 C 472 26 445 12 414 2 C 383 -8 349 -13 312 -13 Z M 256 857 L 330 857 L 422 754 L 352 754 L 292 822 L 290 822 L 230 754 L 162 754 L 256 857 Z" unicode="Ŝ" />
<glyph horiz-adv-x="451" d="M 190 702 L 264 702 L 347 596 L 278 596 L 226 667 L 224 667 L 171 596 L 105 596 L 190 702 Z M 233 -14 C 198 -14 168 -9 142 0 C 116 8 94 20 76 36 C 58 51 45 69 35 91 C 25 112 20 135 19 161 L 82 161 C 86 117 102 85 130 67 C 157 48 192 39 234 39 C 277 39 310 48 332 66 C 354 84 365 109 365 139 C 365 153 362 165 358 175 C 354 185 346 193 336 201 C 325 209 311 215 293 221 C 275 227 253 233 227 239 C 201 245 176 251 153 258 C 130 265 110 274 93 285 C 76 295 63 309 53 325 C 43 341 38 362 38 388 C 38 409 42 428 51 446 C 59 463 72 478 88 490 C 104 502 123 511 145 518 C 167 524 191 528 218 528 C 248 528 275 524 298 517 C 320 509 339 499 355 485 C 371 471 383 455 392 437 C 400 418 406 397 410 375 L 348 375 C 344 409 331 434 309 451 C 287 468 256 477 218 477 C 178 477 148 468 129 452 C 109 435 100 415 100 391 C 100 376 103 364 109 354 C 115 344 124 336 136 329 C 148 322 164 316 183 311 C 201 306 223 301 248 295 C 274 289 298 283 320 276 C 342 269 360 260 376 249 C 392 237 404 223 413 206 C 422 188 427 166 427 140 C 427 94 409 56 375 28 C 340 0 293 -14 233 -14 Z" unicode="ŝ" />
<glyph horiz-adv-x="599" d="M 270 -187 C 248 -187 230 -184 214 -180 C 198 -175 184 -169 173 -162 L 188 -135 C 210 -144 233 -149 257 -149 C 274 -149 288 -146 298 -140 C 308 -134 314 -125 314 -114 C 314 -103 310 -96 303 -92 C 295 -88 285 -86 273 -86 C 264 -86 256 -86 250 -88 C 244 -89 238 -91 233 -93 L 219 -70 L 278 -11 C 236 -8 200 0 169 13 C 138 26 112 43 91 65 C 70 87 54 112 43 140 C 31 168 25 199 23 232 L 90 232 C 93 171 114 124 153 92 C 192 59 245 43 313 43 C 339 43 363 46 385 53 C 407 59 427 69 443 82 C 459 94 472 110 482 129 C 491 147 496 169 496 193 C 496 218 491 239 483 255 C 474 271 461 285 443 297 C 425 308 402 317 374 325 C 346 333 314 341 276 349 C 242 355 212 363 185 372 C 157 381 134 393 114 407 C 94 421 78 439 67 461 C 56 482 51 508 51 540 C 51 568 56 594 68 617 C 79 640 95 660 116 677 C 137 693 162 706 192 715 C 221 724 254 729 290 729 C 330 729 365 723 395 713 C 425 703 450 688 471 670 C 491 652 507 630 519 604 C 531 578 538 550 542 520 L 477 520 C 471 570 451 608 418 634 C 384 660 342 673 291 673 C 236 673 193 661 162 637 C 131 613 116 582 116 542 C 116 520 120 502 128 488 C 136 474 149 462 165 452 C 181 442 201 433 225 426 C 249 419 278 413 310 407 C 344 400 377 392 408 384 C 439 375 466 363 489 348 C 512 332 530 312 544 288 C 557 264 564 233 564 196 C 564 165 558 137 547 112 C 535 86 519 65 498 47 C 477 29 452 14 423 4 C 393 -5 361 -11 326 -13 L 284 -50 L 284 -52 C 294 -51 305 -52 315 -54 C 325 -56 334 -59 342 -64 C 350 -69 356 -76 361 -84 C 366 -92 369 -102 369 -114 C 369 -137 359 -155 341 -168 C 323 -180 299 -187 270 -187 Z" unicode="Ş" />
<glyph horiz-adv-x="451" d="M 202 -187 C 180 -187 162 -184 146 -180 C 130 -175 116 -169 105 -162 L 120 -135 C 142 -144 165 -149 189 -149 C 206 -149 220 -146 230 -140 C 240 -134 246 -125 246 -114 C 246 -103 242 -96 235 -92 C 227 -88 217 -86 205 -86 C 196 -86 188 -86 182 -88 C 176 -89 170 -91 165 -93 L 151 -70 L 208 -13 C 178 -11 151 -5 128 4 C 105 14 86 26 70 42 C 54 57 41 75 33 95 C 25 115 20 137 19 161 L 82 161 C 86 117 102 85 130 67 C 157 48 192 39 234 39 C 277 39 310 48 332 66 C 354 84 365 109 365 139 C 365 153 362 165 358 175 C 354 185 346 193 336 201 C 325 209 311 215 293 221 C 275 227 253 233 227 239 C 201 245 176 251 153 258 C 130 265 110 274 93 285 C 76 295 63 309 53 325 C 43 341 38 362 38 388 C 38 409 42 428 51 446 C 59 463 72 478 88 490 C 104 502 123 511 145 518 C 167 524 191 528 218 528 C 248 528 275 524 298 517 C 320 509 339 499 355 485 C 371 471 383 455 392 437 C 400 418 406 397 410 375 L 348 375 C 344 409 331 434 309 451 C 287 468 256 477 218 477 C 178 477 148 468 129 452 C 109 435 100 415 100 391 C 100 376 103 364 109 354 C 115 344 124 336 136 329 C 148 322 164 316 183 311 C 201 306 223 301 248 295 C 274 289 298 283 320 276 C 342 269 360 260 376 249 C 392 237 404 223 413 206 C 422 188 427 166 427 140 C 427 96 412 61 382 34 C 352 6 310 -9 258 -13 L 216 -50 L 216 -52 C 226 -51 237 -52 247 -54 C 257 -56 266 -59 274 -64 C 282 -69 288 -76 293 -84 C 298 -92 301 -102 301 -114 C 301 -137 291 -155 273 -168 C 255 -180 231 -187 202 -187 Z" unicode="ş" />
<glyph horiz-adv-x="599" d="M 312 -13 C 264 -13 223 -6 188 5 C 153 17 124 35 100 57 C 76 79 57 105 45 135 C 32 165 25 197 23 232 L 90 232 C 93 171 114 124 153 92 C 192 59 245 43 313 43 C 339 43 363 46 385 53 C 407 59 427 69 443 82 C 459 94 472 110 482 129 C 491 147 496 169 496 193 C 496 218 491 239 483 255 C 474 271 461 285 443 297 C 425 308 402 317 374 325 C 346 333 314 341 276 349 C 242 355 212 363 185 372 C 157 381 134 393 114 407 C 94 421 78 439 67 461 C 56 482 51 508 51 540 C 51 568 56 594 68 617 C 79 640 95 660 116 677 C 137 693 162 706 192 715 C 221 724 254 729 290 729 C 330 729 365 723 395 713 C 425 703 450 688 471 670 C 491 652 507 630 519 604 C 531 578 538 550 542 520 L 477 520 C 471 570 451 608 418 634 C 384 660 342 673 291 673 C 236 673 193 661 162 637 C 131 613 116 582 116 542 C 116 520 120 502 128 488 C 136 474 149 462 165 452 C 181 442 201 433 225 426 C 249 419 278 413 310 407 C 344 400 377 392 408 384 C 439 375 466 363 489 348 C 512 332 530 312 544 288 C 557 264 564 233 564 196 C 564 164 557 135 545 109 C 533 83 516 62 494 44 C 472 26 445 12 414 2 C 383 -8 349 -13 312 -13 Z M 162 857 L 232 857 L 292 790 L 294 790 L 354 857 L 422 857 L 328 754 L 254 754 L 162 857 Z" unicode="Š" />
<glyph horiz-adv-x="451" d="M 105 702 L 174 702 L 226 631 L 228 631 L 281 702 L 347 702 L 262 596 L 188 596 L 105 702 Z M 233 -14 C 198 -14 168 -9 142 0 C 116 8 94 20 76 36 C 58 51 45 69 35 91 C 25 112 20 135 19 161 L 82 161 C 86 117 102 85 130 67 C 157 48 192 39 234 39 C 277 39 310 48 332 66 C 354 84 365 109 365 139 C 365 153 362 165 358 175 C 354 185 346 193 336 201 C 325 209 311 215 293 221 C 275 227 253 233 227 239 C 201 245 176 251 153 258 C 130 265 110 274 93 285 C 76 295 63 309 53 325 C 43 341 38 362 38 388 C 38 409 42 428 51 446 C 59 463 72 478 88 490 C 104 502 123 511 145 518 C 167 524 191 528 218 528 C 248 528 275 524 298 517 C 320 509 339 499 355 485 C 371 471 383 455 392 437 C 400 418 406 397 410 375 L 348 375 C 344 409 331 434 309 451 C 287 468 256 477 218 477 C 178 477 148 468 129 452 C 109 435 100 415 100 391 C 100 376 103 364 109 354 C 115 344 124 336 136 329 C 148 322 164 316 183 311 C 201 306 223 301 248 295 C 274 289 298 283 320 276 C 342 269 360 260 376 249 C 392 237 404 223 413 206 C 422 188 427 166 427 140 C 427 94 409 56 375 28 C 340 0 293 -14 233 -14 Z" unicode="š" />
<glyph horiz-adv-x="588" d="M 258 -181 C 268 -177 276 -171 282 -164 C 288 -156 291 -144 291 -126 L 291 -125 L 260 -125 L 260 -46 L 329 -46 L 329 -124 C 329 -152 322 -173 310 -187 C 297 -201 280 -210 258 -214 L 258 -181 Z M 261 655 L 19 655 L 19 715 L 569 715 L 569 655 L 328 655 L 328 0 L 261 0 L 261 655 Z" unicode="Ţ" />
<glyph horiz-adv-x="282" d="M 194 -4 C 164 -4 140 3 122 17 C 104 31 95 55 95 89 L 95 466 L 17 466 L 17 517 L 95 517 L 95 676 L 157 676 L 157 517 L 253 517 L 253 466 L 157 466 L 157 99 C 157 80 161 67 169 60 C 177 53 190 50 207 50 C 214 50 221 50 229 52 C 237 54 243 56 248 58 L 251 58 L 251 5 C 233 -1 214 -4 194 -4 Z M 124 -181 C 134 -177 142 -171 148 -164 C 154 -156 157 -144 157 -126 L 157 -125 L 126 -125 L 126 -46 L 195 -46 L 195 -124 C 195 -152 188 -173 176 -187 C 163 -201 146 -210 124 -214 L 124 -181 Z" unicode="ţ" />
<glyph horiz-adv-x="588" d="M 164 857 L 234 857 L 294 790 L 296 790 L 356 857 L 424 857 L 330 754 L 256 754 L 164 857 Z M 261 655 L 19 655 L 19 715 L 569 715 L 569 655 L 328 655 L 328 0 L 261 0 L 261 655 Z" unicode="Ť" />
<glyph horiz-adv-x="282" d="M 194 -4 C 164 -4 140 3 122 17 C 104 31 95 55 95 89 L 95 466 L 17 466 L 17 517 L 95 517 L 95 676 L 157 676 L 157 517 L 253 517 L 253 466 L 157 466 L 157 99 C 157 80 161 67 169 60 C 177 53 190 50 207 50 C 214 50 221 50 229 52 C 237 54 243 56 248 58 L 251 58 L 251 5 C 233 -1 214 -4 194 -4 Z M 215 592 C 225 595 233 600 239 608 C 245 615 248 626 248 642 L 216 642 L 216 715 L 285 715 L 285 642 C 285 617 278 598 266 584 C 254 570 237 562 215 559 L 215 592 Z" unicode="ť" />
<glyph horiz-adv-x="588" d="M 261 356 L 120 356 L 120 409 L 261 409 L 261 655 L 19 655 L 19 715 L 569 715 L 569 655 L 328 655 L 328 409 L 468 409 L 468 356 L 328 356 L 328 0 L 261 0 L 261 356 Z" unicode="Ŧ" />
<glyph horiz-adv-x="282" d="M 194 -4 C 164 -4 140 3 122 17 C 104 31 95 55 95 89 L 95 305 L 17 305 L 17 356 L 95 356 L 95 466 L 17 466 L 17 517 L 95 517 L 95 676 L 157 676 L 157 517 L 253 517 L 253 466 L 157 466 L 157 356 L 253 356 L 253 305 L 157 305 L 157 99 C 157 80 161 67 169 60 C 177 53 190 50 207 50 C 214 50 221 50 229 52 C 237 54 243 56 248 58 L 251 58 L 251 5 C 233 -1 214 -4 194 -4 Z" unicode="ŧ" />
<glyph horiz-adv-x="636" d="M 379 760 C 367 760 356 762 345 766 C 334 770 324 774 314 779 C 304 784 294 789 285 793 C 275 797 267 799 261 799 C 253 799 247 795 242 789 C 237 782 234 773 233 762 L 184 762 C 186 790 194 812 207 827 C 219 841 236 849 258 849 C 270 849 281 847 291 843 C 301 839 311 834 321 830 C 331 825 340 821 349 817 C 357 813 366 811 374 811 C 383 811 390 814 395 820 C 400 826 403 835 405 847 L 453 847 C 451 820 444 799 431 783 C 418 767 401 760 379 760 Z M 316 -11 C 276 -11 241 -6 209 3 C 177 12 150 26 127 46 C 104 66 86 90 74 120 C 62 150 56 185 56 227 L 56 715 L 123 715 L 123 233 C 123 167 140 119 174 90 C 208 61 256 47 319 47 C 349 47 376 50 400 57 C 424 64 444 75 461 90 C 478 105 491 124 500 148 C 509 171 514 199 514 233 L 514 715 L 581 715 L 581 227 C 581 185 574 150 561 120 C 548 90 530 65 506 46 C 482 26 454 12 422 3 C 390 -6 354 -11 316 -11 Z" unicode="Ũ" />
<glyph horiz-adv-x="495" d="M 218 -12 C 168 -12 127 2 95 31 C 63 59 48 100 48 152 L 48 517 L 110 517 L 110 156 C 110 116 120 87 142 68 C 164 49 194 40 232 40 C 254 40 274 43 292 51 C 310 59 326 70 340 84 C 353 98 363 114 371 133 C 378 151 382 172 382 194 L 382 517 L 443 517 L 443 0 L 382 0 L 382 76 L 380 76 C 362 50 340 29 316 13 C 291 -3 258 -12 218 -12 Z M 310 600 C 298 600 287 602 276 606 C 265 610 255 614 245 619 C 235 624 225 629 216 633 C 206 637 198 639 192 639 C 184 639 178 635 173 629 C 168 622 165 613 164 602 L 115 602 C 117 630 125 652 138 667 C 150 682 167 690 189 690 C 201 690 212 688 222 684 C 232 680 242 675 252 670 C 262 665 271 661 280 657 C 288 653 297 651 305 651 C 314 651 321 654 326 661 C 331 667 334 676 336 688 L 384 688 C 382 660 375 639 362 623 C 349 607 332 600 310 600 Z" unicode="ũ" />
<glyph horiz-adv-x="636" d="M 194 817 L 442 817 L 442 761 L 194 761 L 194 817 Z M 316 -11 C 276 -11 241 -6 209 3 C 177 12 150 26 127 46 C 104 66 86 90 74 120 C 62 150 56 185 56 227 L 56 715 L 123 715 L 123 233 C 123 167 140 119 174 90 C 208 61 256 47 319 47 C 349 47 376 50 400 57 C 424 64 444 75 461 90 C 478 105 491 124 500 148 C 509 171 514 199 514 233 L 514 715 L 581 715 L 581 227 C 581 185 574 150 561 120 C 548 90 530 65 506 46 C 482 26 454 12 422 3 C 390 -6 354 -11 316 -11 Z" unicode="Ū" />
<glyph horiz-adv-x="495" d="M 218 -12 C 168 -12 127 2 95 31 C 63 59 48 100 48 152 L 48 517 L 110 517 L 110 156 C 110 116 120 87 142 68 C 164 49 194 40 232 40 C 254 40 274 43 292 51 C 310 59 326 70 340 84 C 353 98 363 114 371 133 C 378 151 382 172 382 194 L 382 517 L 443 517 L 443 0 L 382 0 L 382 76 L 380 76 C 362 50 340 29 316 13 C 291 -3 258 -12 218 -12 Z M 125 683 L 373 683 L 373 627 L 125 627 L 125 683 Z" unicode="ū" />
<glyph horiz-adv-x="636" d="M 317 755 C 283 755 254 764 232 784 C 210 803 198 829 196 861 L 247 861 C 250 845 257 832 269 822 C 280 812 296 808 317 808 C 337 808 353 812 365 822 C 377 832 384 845 388 861 L 439 861 C 437 831 425 805 403 785 C 381 765 353 755 317 755 Z M 316 -11 C 276 -11 241 -6 209 3 C 177 12 150 26 127 46 C 104 66 86 90 74 120 C 62 150 56 185 56 227 L 56 715 L 123 715 L 123 233 C 123 167 140 119 174 90 C 208 61 256 47 319 47 C 349 47 376 50 400 57 C 424 64 444 75 461 90 C 478 105 491 124 500 148 C 509 171 514 199 514 233 L 514 715 L 581 715 L 581 227 C 581 185 574 150 561 120 C 548 90 530 65 506 46 C 482 26 454 12 422 3 C 390 -6 354 -11 316 -11 Z" unicode="Ŭ" />
<glyph horiz-adv-x="495" d="M 218 -12 C 168 -12 127 2 95 31 C 63 59 48 100 48 152 L 48 517 L 110 517 L 110 156 C 110 116 120 87 142 68 C 164 49 194 40 232 40 C 254 40 274 43 292 51 C 310 59 326 70 340 84 C 353 98 363 114 371 133 C 378 151 382 172 382 194 L 382 517 L 443 517 L 443 0 L 382 0 L 382 76 L 380 76 C 362 50 340 29 316 13 C 291 -3 258 -12 218 -12 Z M 249 595 C 215 595 186 605 164 625 C 142 645 130 671 128 703 L 179 703 C 182 687 189 673 201 663 C 212 653 228 648 249 648 C 269 648 285 653 297 663 C 309 673 316 687 320 703 L 371 703 C 369 673 357 647 335 626 C 313 605 285 595 249 595 Z" unicode="ŭ" />
<glyph horiz-adv-x="636" d="M 316 -11 C 276 -11 241 -6 209 3 C 177 12 150 26 127 46 C 104 66 86 90 74 120 C 62 150 56 185 56 227 L 56 715 L 123 715 L 123 233 C 123 167 140 119 174 90 C 208 61 256 47 319 47 C 349 47 376 50 400 57 C 424 64 444 75 461 90 C 478 105 491 124 500 148 C 509 171 514 199 514 233 L 514 715 L 581 715 L 581 227 C 581 185 574 150 561 120 C 548 90 530 65 506 46 C 482 26 454 12 422 3 C 390 -6 354 -11 316 -11 Z M 318 765 C 332 765 344 770 353 780 C 361 790 366 802 366 817 C 366 831 361 843 353 853 C 344 863 332 868 318 868 C 303 868 291 863 283 853 C 274 843 270 831 270 817 C 270 802 274 790 283 780 C 291 770 303 765 318 765 Z M 318 732 C 306 732 294 734 284 738 C 273 742 264 748 256 756 C 248 764 242 773 238 783 C 233 793 231 805 231 817 C 231 829 233 840 238 850 C 242 860 248 869 256 877 C 264 885 273 891 284 895 C 294 899 306 902 318 902 C 330 902 341 899 352 895 C 362 891 371 885 379 877 C 387 869 393 860 398 850 C 402 840 405 829 405 817 C 405 805 402 793 398 783 C 393 773 387 764 379 756 C 371 748 362 742 352 738 C 341 734 330 732 318 732 Z" unicode="Ů" />
<glyph horiz-adv-x="495" d="M 249 603 C 263 603 275 608 284 618 C 292 628 297 640 297 654 C 297 668 292 680 284 690 C 275 700 263 705 249 705 C 234 705 222 700 214 690 C 205 680 201 668 201 654 C 201 640 205 628 214 618 C 222 608 234 603 249 603 Z M 249 569 C 237 569 225 571 215 575 C 204 579 195 585 187 593 C 179 601 173 610 169 620 C 164 630 162 642 162 654 C 162 666 164 677 169 687 C 173 697 179 706 187 714 C 195 722 204 728 215 732 C 225 736 237 739 249 739 C 261 739 272 736 283 732 C 293 728 302 722 310 714 C 318 706 324 697 329 687 C 333 677 336 666 336 654 C 336 642 333 630 329 620 C 324 610 318 601 310 593 C 302 585 293 579 283 575 C 272 571 261 569 249 569 Z M 218 -12 C 168 -12 127 2 95 31 C 63 59 48 100 48 152 L 48 517 L 110 517 L 110 156 C 110 116 120 87 142 68 C 164 49 194 40 232 40 C 254 40 274 43 292 51 C 310 59 326 70 340 84 C 353 98 363 114 371 133 C 378 151 382 172 382 194 L 382 517 L 443 517 L 443 0 L 382 0 L 382 76 L 380 76 C 362 50 340 29 316 13 C 291 -3 258 -12 218 -12 Z" unicode="ů" />
<glyph horiz-adv-x="636" d="M 316 -11 C 276 -11 241 -6 209 3 C 177 12 150 26 127 46 C 104 66 86 90 74 120 C 62 150 56 185 56 227 L 56 715 L 123 715 L 123 233 C 123 167 140 119 174 90 C 208 61 256 47 319 47 C 349 47 376 50 400 57 C 424 64 444 75 461 90 C 478 105 491 124 500 148 C 509 171 514 199 514 233 L 514 715 L 581 715 L 581 227 C 581 185 574 150 561 120 C 548 90 530 65 506 46 C 482 26 454 12 422 3 C 390 -6 354 -11 316 -11 Z M 266 870 L 334 870 L 279 753 L 229 753 L 266 870 Z M 395 870 L 464 870 L 409 753 L 359 753 L 395 870 Z" unicode="Ű" />
<glyph horiz-adv-x="495" d="M 218 -12 C 168 -12 127 2 95 31 C 63 59 48 100 48 152 L 48 517 L 110 517 L 110 156 C 110 116 120 87 142 68 C 164 49 194 40 232 40 C 254 40 274 43 292 51 C 310 59 326 70 340 84 C 353 98 363 114 371 133 C 378 151 382 172 382 194 L 382 517 L 443 517 L 443 0 L 382 0 L 382 76 L 380 76 C 362 50 340 29 316 13 C 291 -3 258 -12 218 -12 Z M 196 719 L 264 719 L 209 592 L 159 592 L 196 719 Z M 325 719 L 394 719 L 339 592 L 289 592 L 325 719 Z" unicode="ű" />
<glyph horiz-adv-x="636" d="M 363 -174 C 332 -174 309 -167 294 -153 C 279 -139 272 -122 272 -100 C 272 -82 277 -65 288 -50 C 299 -34 312 -21 327 -11 L 316 -11 C 276 -11 241 -6 209 3 C 177 12 150 26 127 46 C 104 66 86 90 74 120 C 62 150 56 185 56 227 L 56 715 L 123 715 L 123 233 C 123 167 140 119 174 90 C 208 61 256 47 319 47 C 349 47 376 50 400 57 C 424 64 444 75 461 90 C 478 105 491 124 500 148 C 509 171 514 199 514 233 L 514 715 L 581 715 L 581 227 C 581 171 569 126 546 92 C 523 58 492 32 452 14 C 436 6 422 0 408 -6 C 394 -12 382 -19 371 -29 C 345 -49 332 -71 332 -93 C 332 -115 345 -127 373 -127 C 389 -127 403 -124 417 -118 L 420 -118 L 420 -161 C 413 -164 405 -167 396 -170 C 386 -172 375 -174 363 -174 Z" unicode="Ų" />
<glyph horiz-adv-x="495" d="M 398 -174 C 367 -174 344 -167 329 -153 C 314 -139 307 -122 307 -100 C 307 -78 314 -59 330 -41 C 345 -23 362 -9 382 2 L 382 76 L 380 76 C 362 50 340 29 316 13 C 291 -3 258 -12 218 -12 C 168 -12 127 2 95 31 C 63 59 48 100 48 152 L 48 517 L 110 517 L 110 156 C 110 116 120 87 142 68 C 164 49 194 40 232 40 C 254 40 274 43 292 51 C 310 59 326 70 340 84 C 353 98 363 114 371 133 C 378 151 382 172 382 194 L 382 517 L 443 517 L 443 2 C 419 -14 401 -29 388 -45 C 374 -60 368 -76 368 -93 C 368 -116 381 -128 408 -128 C 416 -128 423 -127 430 -125 C 437 -123 444 -121 452 -118 L 455 -118 L 455 -161 C 448 -164 440 -167 431 -170 C 421 -172 410 -174 398 -174 Z" unicode="ų" />
<glyph horiz-adv-x="880" d="M 12 715 L 81 715 L 205 233 C 208 219 212 205 216 189 C 220 173 223 157 227 143 C 230 125 234 108 238 92 L 240 92 C 244 108 248 124 252 141 C 255 155 259 169 263 185 C 267 201 270 215 274 229 L 405 715 L 477 715 L 608 230 C 611 216 614 202 618 186 C 622 170 625 156 629 142 C 633 125 637 108 641 92 L 643 92 C 647 108 651 125 655 143 C 658 157 661 173 665 189 C 669 205 672 219 676 233 L 801 715 L 868 715 L 674 0 L 606 0 L 470 521 C 466 532 463 544 460 558 C 456 572 453 584 451 596 C 448 609 445 623 442 637 L 440 637 C 436 623 433 609 431 596 C 428 584 425 572 422 558 C 419 544 416 532 413 521 L 273 0 L 202 0 L 12 715 Z M 403 857 L 477 857 L 569 754 L 499 754 L 439 822 L 437 822 L 377 754 L 309 754 L 403 857 Z" unicode="Ŵ" />
<glyph horiz-adv-x="711" d="M 318 702 L 392 702 L 475 596 L 406 596 L 354 667 L 352 667 L 299 596 L 233 596 L 318 702 Z M 10 517 L 75 517 L 165 197 C 168 183 172 169 176 153 C 180 137 183 123 187 110 C 190 94 194 78 198 62 L 200 62 C 204 77 208 93 212 109 C 215 122 218 136 222 151 C 226 166 229 180 233 192 L 321 517 L 388 517 L 473 192 C 476 180 479 166 483 151 C 486 136 489 122 493 109 C 496 93 500 77 504 62 L 506 62 C 510 78 514 94 518 111 C 521 124 525 138 529 154 C 533 170 538 184 542 197 L 638 517 L 701 517 L 538 0 L 470 0 L 381 330 C 377 342 374 355 371 369 C 368 383 365 395 363 407 C 360 420 357 433 354 447 L 352 447 C 348 433 345 420 343 407 C 340 395 337 383 334 369 C 331 355 328 342 325 330 L 234 0 L 164 0 L 10 517 Z" unicode="ŵ" />
<glyph horiz-adv-x="600" d="M 265 312 L 7 715 L 81 715 L 299 369 L 301 369 L 521 715 L 593 715 L 333 310 L 333 0 L 265 0 L 265 312 Z M 263 857 L 337 857 L 429 754 L 359 754 L 299 822 L 297 822 L 237 754 L 169 754 L 263 857 Z" unicode="Ŷ" />
<glyph horiz-adv-x="469" d="M 106 -171 C 94 -171 85 -170 77 -169 C 69 -167 61 -165 53 -163 L 53 -108 L 56 -108 C 60 -109 66 -110 74 -112 C 81 -114 91 -115 103 -115 C 122 -115 139 -110 153 -100 C 167 -90 179 -71 189 -45 L 206 1 L 7 517 L 73 517 L 197 183 C 201 171 206 158 211 144 C 215 130 220 117 224 106 C 228 92 233 78 238 65 L 240 65 C 244 78 248 92 253 106 C 257 117 261 130 265 144 C 269 158 274 171 279 183 L 398 517 L 462 517 L 249 -54 C 240 -77 231 -96 221 -111 C 211 -126 201 -138 189 -147 C 177 -156 165 -162 151 -166 C 137 -169 122 -171 106 -171 Z M 203 702 L 277 702 L 360 596 L 291 596 L 239 667 L 237 667 L 184 596 L 118 596 L 203 702 Z" unicode="ŷ" />
<glyph horiz-adv-x="600" d="M 265 312 L 7 715 L 81 715 L 299 369 L 301 369 L 521 715 L 593 715 L 333 310 L 333 0 L 265 0 L 265 312 Z M 191 843 L 251 843 L 251 757 L 191 757 L 191 843 Z M 347 843 L 407 843 L 407 757 L 347 757 L 347 843 Z" unicode="Ÿ" />
<glyph horiz-adv-x="593" d="M 26 65 L 463 655 L 463 658 L 53 658 L 53 715 L 544 715 L 544 658 L 104 63 L 104 60 L 560 60 L 560 0 L 26 0 L 26 65 Z M 331 867 L 413 867 L 319 753 L 265 753 L 331 867 Z" unicode="Ź" />
<glyph horiz-adv-x="447" d="M 263 719 L 345 719 L 251 592 L 197 592 L 263 719 Z M 28 53 L 330 460 L 330 463 L 48 463 L 48 517 L 413 517 L 413 473 L 105 58 L 105 55 L 422 55 L 422 0 L 28 0 L 28 53 Z" unicode="ź" />
<glyph horiz-adv-x="593" d="M 269 843 L 330 843 L 330 757 L 269 757 L 269 843 Z M 26 65 L 463 655 L 463 658 L 53 658 L 53 715 L 544 715 L 544 658 L 104 63 L 104 60 L 560 60 L 560 0 L 26 0 L 26 65 Z" unicode="Ż" />
<glyph horiz-adv-x="447" d="M 28 53 L 330 460 L 330 463 L 48 463 L 48 517 L 413 517 L 413 473 L 105 58 L 105 55 L 422 55 L 422 0 L 28 0 L 28 53 Z M 204 715 L 265 715 L 265 627 L 204 627 L 204 715 Z" unicode="ż" />
<glyph horiz-adv-x="593" d="M 169 857 L 239 857 L 299 790 L 301 790 L 361 857 L 429 857 L 335 754 L 261 754 L 169 857 Z M 26 65 L 463 655 L 463 658 L 53 658 L 53 715 L 544 715 L 544 658 L 104 63 L 104 60 L 560 60 L 560 0 L 26 0 L 26 65 Z" unicode="Ž" />
<glyph horiz-adv-x="447" d="M 113 702 L 182 702 L 234 631 L 236 631 L 289 702 L 355 702 L 270 596 L 196 596 L 113 702 Z M 28 53 L 330 460 L 330 463 L 48 463 L 48 517 L 413 517 L 413 473 L 105 58 L 105 55 L 422 55 L 422 0 L 28 0 L 28 53 Z" unicode="ž" />
<glyph horiz-adv-x="335" d="M -20 -96 L -2 -96 C 17 -96 32 -91 44 -83 C 56 -74 63 -59 67 -38 L 121 350 L 39 350 L 39 400 L 128 400 L 154 577 C 159 615 172 644 192 663 C 212 681 242 691 280 691 C 282 691 289 691 299 691 C 309 691 316 690 320 690 L 320 636 C 318 636 312 637 303 637 C 293 637 288 637 286 637 C 262 637 245 631 235 621 C 225 610 218 593 215 570 L 191 400 L 293 400 L 293 350 L 184 350 L 129 -42 C 123 -80 110 -108 90 -125 C 70 -141 42 -150 6 -150 C 3 -150 0 -149 -6 -149 C -12 -149 -16 -148 -20 -148 L -20 -96 Z" unicode="ƒ" />
<glyph horiz-adv-x="183" d="M 306 715 L 366 715 L -122 0 L -183 0 L 306 715 Z" unicode="⁄" />
<glyph horiz-adv-x="789" d="M 125 604 L 33 604 L 33 643 C 62 643 85 649 103 660 C 120 670 131 690 135 718 L 182 718 L 182 312 L 125 312 L 125 604 Z M 558 715 L 618 715 L 130 0 L 69 0 L 558 715 Z M 602 -7 C 582 -7 562 -4 544 0 C 525 5 509 13 495 23 C 481 33 469 46 461 62 C 452 77 448 95 448 116 C 448 142 455 164 470 182 C 484 199 503 212 526 221 L 526 223 C 487 239 468 267 468 307 C 468 323 471 337 478 351 C 484 364 494 375 506 384 C 518 393 532 400 548 405 C 564 410 582 413 601 413 C 640 413 672 403 697 384 C 721 365 734 340 734 309 C 734 269 714 240 676 224 L 676 222 C 699 214 718 201 732 183 C 746 165 754 143 754 117 C 754 96 749 78 741 62 C 733 46 722 33 708 23 C 694 13 677 5 659 0 C 641 -4 622 -7 602 -7 Z M 602 37 C 632 37 655 44 672 59 C 688 74 697 93 697 116 C 697 140 688 160 672 175 C 655 190 631 198 601 198 C 571 198 547 190 531 175 C 514 160 506 140 506 116 C 506 92 514 73 531 59 C 547 44 571 37 602 37 Z M 601 239 C 626 239 645 245 659 257 C 672 269 679 285 679 305 C 679 323 672 339 659 351 C 645 363 626 370 601 370 C 575 370 556 363 543 351 C 530 339 524 323 524 305 C 524 285 530 269 543 257 C 556 245 575 239 601 239 Z" unicode="⅛" />
<glyph horiz-adv-x="856" d="M 181 303 C 158 303 137 306 119 312 C 100 318 84 328 71 340 C 57 352 47 366 40 383 C 33 400 30 419 30 441 L 84 441 C 85 411 94 389 110 373 C 126 357 149 350 179 350 C 207 350 228 356 244 370 C 259 383 267 402 267 428 C 267 452 259 470 243 483 C 227 496 205 503 177 503 L 150 503 L 150 547 L 176 547 C 200 547 219 552 233 564 C 247 576 254 592 254 613 C 254 634 247 650 233 662 C 219 674 201 680 180 680 C 152 680 132 671 118 655 C 104 639 97 618 96 593 L 43 593 C 43 631 56 663 80 687 C 104 711 137 723 181 723 C 218 723 249 713 273 694 C 297 675 309 649 309 615 C 309 592 303 574 291 560 C 279 546 264 535 246 529 L 246 527 C 298 513 325 478 325 424 C 325 404 321 387 314 372 C 306 357 296 344 283 334 C 270 324 255 316 237 311 C 219 305 201 303 181 303 Z M 634 715 L 694 715 L 206 0 L 145 0 L 634 715 Z M 669 -7 C 649 -7 629 -4 611 0 C 592 5 576 13 562 23 C 548 33 536 46 528 62 C 519 77 515 95 515 116 C 515 142 522 164 537 182 C 551 199 570 212 593 221 L 593 223 C 554 239 535 267 535 307 C 535 323 538 337 545 351 C 551 364 561 375 573 384 C 585 393 599 400 615 405 C 631 410 649 413 668 413 C 707 413 739 403 764 384 C 788 365 801 340 801 309 C 801 269 781 240 743 224 L 743 222 C 766 214 785 201 799 183 C 813 165 821 143 821 117 C 821 96 816 78 808 62 C 800 46 789 33 775 23 C 761 13 744 5 726 0 C 708 -4 689 -7 669 -7 Z M 669 37 C 699 37 722 44 739 59 C 755 74 764 93 764 116 C 764 140 755 160 739 175 C 722 190 698 198 668 198 C 638 198 614 190 598 175 C 581 160 573 140 573 116 C 573 92 581 73 598 59 C 614 44 638 37 669 37 Z M 668 239 C 693 239 712 245 726 257 C 739 269 746 285 746 305 C 746 323 739 339 726 351 C 712 363 693 370 668 370 C 642 370 623 363 610 351 C 597 339 591 323 591 305 C 591 285 597 269 610 257 C 623 245 642 239 668 239 Z" unicode="⅜" />
</font>
</defs>
</svg>
