<?xml version="1.0" encoding="utf-8"?>
<!-- Generator: Adobe Illustrator 16.0.0, SVG Export Plug-In . SVG Version: 6.00 Build 0)  -->
<!DOCTYPE svg PUBLIC "-//W3C//DTD SVG 1.1//EN" "http://www.w3.org/Graphics/SVG/1.1/DTD/svg11.dtd">
<svg version="1.1" id="Layer_1" xmlns="http://www.w3.org/2000/svg" xmlns:xlink="http://www.w3.org/1999/xlink" x="0px" y="0px"
	 width="12px" height="112px" viewBox="-0.658 0.081 12 112" enable-background="new -0.658 0.081 12 112" xml:space="preserve">
<path fill="#FFFFFF" d="M1.205,4.607h1.87c0.056,0,0.099,0.018,0.135,0.053c0.036,0.036,0.052,0.08,0.052,0.137v4.149
	c0,0.058-0.017,0.101-0.052,0.137C3.175,9.119,3.13,9.135,3.075,9.135h-1.87c-0.056,0-0.102-0.018-0.137-0.053
	c-0.032-0.036-0.051-0.08-0.051-0.137V4.797c0-0.057,0.019-0.102,0.051-0.138C1.104,4.625,1.15,4.607,1.205,4.607z M4.571,0.081
	h1.87c0.057,0,0.099,0.019,0.135,0.052C6.61,0.166,6.628,0.213,6.628,0.27v8.675C6.628,9,6.61,9.046,6.576,9.082
	C6.541,9.117,6.496,9.133,6.44,9.133h-1.87c-0.057,0-0.101-0.017-0.135-0.05C4.402,9.046,4.384,9,4.384,8.945V0.27
	c0-0.056,0.018-0.101,0.052-0.137C4.47,0.099,4.516,0.081,4.571,0.081z M7.937,2.345h1.868c0.056,0,0.1,0.017,0.137,0.051
	c0.034,0.035,0.052,0.082,0.052,0.137v6.413c0,0.056-0.018,0.101-0.052,0.137c-0.035,0.036-0.081,0.05-0.137,0.05H7.937
	c-0.058,0-0.1-0.017-0.138-0.05C7.766,9.046,7.75,9,7.75,8.945V2.532c0-0.055,0.017-0.1,0.051-0.137
	C7.837,2.361,7.879,2.345,7.937,2.345z"/>
<path fill="#FFFFFF" d="M8.579,39.411c0,1.09-0.378,2.016-1.139,2.784c-0.759,0.765-1.679,1.151-2.76,1.151
	c-1.081,0-2-0.386-2.758-1.151c-0.761-0.768-1.142-1.694-1.142-2.784c0-1.089,0.378-2.018,1.142-2.783
	c0.758-0.768,1.677-1.152,2.758-1.152v3.934L8.579,39.411L8.579,39.411z M9.696,38.473c0,0.056-0.019,0.1-0.053,0.135
	c-0.035,0.034-0.08,0.053-0.135,0.053H5.422v-4.12c0-0.057,0.017-0.102,0.052-0.135c0.035-0.036,0.079-0.054,0.135-0.054
	c1.128,0,2.091,0.403,2.888,1.206C9.296,36.366,9.696,37.338,9.696,38.473z"/>
<path fill="#FFFFFF" d="M1.097,112.081c-0.031,0-0.062-0.013-0.094-0.028c-0.049-0.029-0.074-0.073-0.074-0.139v-7.785
	c0-0.065,0.025-0.109,0.074-0.142c0.057-0.039,0.112-0.04,0.168-0.011l7.718,3.894c0.062,0.03,0.093,0.081,0.093,0.15
	s-0.03,0.118-0.093,0.153l-7.718,3.89C1.135,112.075,1.109,112.081,1.097,112.081z"/>
<g>
	<rect x="-0.658" y="69.169" fill="#FFFFFF" width="8.982" height="6.054"/>
	<g>
		<rect x="0.843" y="75.96" fill="#FFFFFF" width="8.997" height="0.759"/>
		<rect x="9.105" y="70.67" fill="#FFFFFF" width="0.737" height="5.292"/>
	</g>
	<g>
		<rect x="2.342" y="77.476" fill="#FFFFFF" width="9" height="0.752"/>
		<rect x="10.591" y="72.139" fill="#FFFFFF" width="0.751" height="5.337"/>
	</g>
</g>
</svg>
