<?xml version="1.0" encoding="utf-8"?>
<!-- Generator: Adobe Illustrator 18.1.0, SVG Export Plug-In . SVG Version: 6.00 Build 0)  -->
<svg version="1.1" id="Layer_1" xmlns="http://www.w3.org/2000/svg" xmlns:xlink="http://www.w3.org/1999/xlink" x="0px" y="0px"
	 width="94px" height="44px" viewBox="0 617.6 94 44" enable-background="new 0 617.6 93.7 44.4" xml:space="preserve">
<g id="Layer_2_1_" display="none">
	<rect x="296.7" y="187.4" display="inline" stroke="#FFFFFF" stroke-miterlimit="10" width="704.8" height="395.9"/>
</g>
<g id="Layer_2_2_" display="none">
	<rect x="13.9" y="615.9" display="inline" fill="#0066CC" width="95.1" height="60.4"/>
</g>
<g display="none">
	<g display="inline">
		<path fill="#FFFFFF" d="M84.8,654.3c0-2.3,1.9-4,3.9-4c1.5,0,2.4,0.6,3.1,1.4c-0.4,0.4-0.8,0.9-1.2,1.3c-0.5-0.6-1-1-1.9-1
			c-1.1,0-2,1-2,2.2c0,1.3,0.9,2.2,2.1,2.2c0.8,0,1.4-0.4,1.9-1c0.4,0.4,0.8,0.8,1.2,1.2c-0.7,0.8-1.6,1.5-3.2,1.5
			C86.7,658.2,84.8,656.6,84.8,654.3z"/>
		<path fill="#FFFFFF" d="M84.2,654.2c0,2.5-1.7,4-3.6,4c-1.2,0-1.9-0.6-2.4-1.1c0,0.3,0,0.6,0,0.9c-0.6,0-1.3,0-1.9,0
			c0-3.5,0-6.9,0-10.4c0.6,0,1.3,0,1.9,0c0,1.3,0,2.5,0,3.8c0.4-0.4,1.1-1.1,2.4-1.1C82.5,650.3,84.2,651.8,84.2,654.2z M80.2,656.6
			c1.2,0,2.1-1,2.1-2.4c0-1.4-0.9-2.4-2.1-2.4c-1.2,0-2.1,1-2.1,2.4C78.1,655.6,79,656.6,80.2,656.6z"/>
		<path fill="#FFFFFF" d="M72.8,650.3c-1.3,0-2,0.8-2.2,1c0-0.3,0-0.6,0-0.9c-0.6,0-1.3,0-1.9,0c0,2.5,0,5.1,0,7.6
			c0.6,0,1.3,0,1.9,0c0-1.5,0-3,0-4.3c0-1.3,0.9-1.7,1.5-1.7s1.4,0.4,1.4,1.7s0,2.8,0,4.3c0.6,0,1.3,0,1.9,0c0-1.3,0-2.7,0-4.8
			S74.2,650.3,72.8,650.3z"/>
		<path fill="#FFFFFF" d="M62.5,652.7c0-1.8,1.4-2.4,2.7-2.4c1.3,0,1.9,0.3,2.9,0.9c-0.3,0.5-0.5,0.9-0.8,1.4
			c-0.6-0.4-1.4-0.7-2.1-0.7c-0.7,0-0.9,0.4-0.9,0.6c0,0.5,1,0.7,2,1c1,0.4,2,0.9,2,2.2c0,1.8-1.4,2.4-2.9,2.4
			c-1.5,0-2.5-0.6-3.3-1.2c0.3-0.5,0.6-0.9,0.9-1.3c0.8,0.6,1.6,1,2.4,1c0.8,0,1-0.4,1-0.7c0-0.6-1-0.7-2-1
			C63.5,654.5,62.5,654,62.5,652.7z"/>
		<path fill="#FFFFFF" d="M59,650.3c-1.4,0-2.1,0.8-2.5,1.2c-0.3-0.6-1-1.2-2.2-1.2s-1.8,0.7-2.1,1c0-0.3,0-0.6,0-0.9
			c-0.6,0-1.3,0-1.9,0c0,2.5,0,5.1,0,7.6c0.6,0,1.3,0,1.9,0c0-1.5,0-3,0-4.3c0-1.3,0.8-1.7,1.4-1.7c0.6,0,1.4,0.4,1.4,1.7
			c0,1.3,0,2.8,0,4.3c0.6,0,1.3,0,1.9,0c0-1.5,0-2.9,0-4.3c0-1.3,0.8-1.7,1.4-1.7c0.6,0,1.4,0.3,1.4,1.7s0,2.8,0,4.3
			c0.6,0,1.3,0,1.9,0c0-1.4,0-2.7,0-4.8C61.7,651.1,60.4,650.3,59,650.3z"/>
	</g>
	<path display="inline" fill="#FFFFFF" d="M36.7,658.1c-0.6,0-1-0.1-1.4-0.3c-0.4-0.2-0.7-0.5-1-1h0v1.1h-0.9v-10.1h0.9v4.1h0
		c0.3-0.4,0.6-0.8,1-1c0.4-0.3,0.9-0.4,1.5-0.4c0.4,0,0.8,0.1,1.2,0.3c0.4,0.2,0.7,0.4,1,0.8c0.3,0.3,0.5,0.7,0.6,1.2
		c0.2,0.5,0.2,1,0.2,1.6c0,0.6-0.1,1.1-0.2,1.6c-0.1,0.5-0.3,0.9-0.6,1.2c-0.3,0.3-0.6,0.6-1,0.8C37.6,658,37.2,658.1,36.7,658.1z
		 M36.7,657.4c0.4,0,0.7-0.1,1-0.2c0.3-0.2,0.5-0.4,0.7-0.7c0.2-0.3,0.3-0.6,0.4-1c0.1-0.4,0.1-0.8,0.1-1.2c0-0.5-0.1-0.9-0.1-1.3
		c-0.1-0.4-0.2-0.7-0.4-1c-0.2-0.3-0.4-0.5-0.7-0.6s-0.6-0.2-1-0.2c-0.4,0-0.8,0.1-1.1,0.2c-0.3,0.2-0.6,0.4-0.8,0.7
		c-0.2,0.3-0.4,0.6-0.5,1c-0.1,0.4-0.2,0.8-0.2,1.2c0,0.5,0.1,0.9,0.2,1.3c0.1,0.4,0.3,0.7,0.5,1c0.2,0.3,0.5,0.5,0.8,0.6
		S36.3,657.4,36.7,657.4z"/>
	<path display="inline" fill="#FFFFFF" d="M41,660.4c-0.2,0-0.3,0-0.4,0c-0.1,0-0.2-0.1-0.3-0.1v-0.8h0c0.1,0,0.2,0,0.3,0.1
		c0.1,0,0.2,0,0.4,0c0.3,0,0.5-0.1,0.7-0.2c0.2-0.1,0.4-0.4,0.5-0.8l0.2-0.7l-2.8-7.3h0.9l1.8,4.7c0.1,0.2,0.1,0.4,0.2,0.6
		c0.1,0.2,0.1,0.4,0.2,0.5c0.1,0.2,0.1,0.4,0.2,0.6h0c0.1-0.2,0.1-0.4,0.2-0.6c0.1-0.2,0.1-0.3,0.2-0.5s0.1-0.4,0.2-0.6l1.7-4.7h0.9
		l-3,8.1c-0.1,0.3-0.3,0.6-0.4,0.8c-0.1,0.2-0.3,0.4-0.5,0.5c-0.2,0.1-0.3,0.2-0.5,0.3C41.5,660.3,41.3,660.4,41,660.4z"/>
	<g display="inline">
		<path fill="#FFFFFF" d="M41.4,645.3c-1.3,0-2.4-0.2-3.4-0.5c-1-0.3-1.8-0.8-2.4-1.4c-0.7-0.6-1.2-1.3-1.5-2.1
			c-0.4-0.8-0.6-1.7-0.6-2.6h2.4c0.2,1.6,0.8,2.8,1.8,3.5s2.3,1,3.9,1c1.6,0,2.8-0.3,3.7-1c0.8-0.7,1.2-1.6,1.2-2.7
			c0-0.5-0.1-1-0.2-1.3c-0.2-0.4-0.4-0.7-0.8-1c-0.4-0.3-0.9-0.5-1.6-0.7c-0.7-0.2-1.5-0.4-2.5-0.7c-1-0.2-1.9-0.5-2.7-0.7
			c-0.9-0.3-1.6-0.6-2.2-1c-0.6-0.4-1.1-0.9-1.5-1.5c-0.4-0.6-0.6-1.4-0.6-2.3c0-0.8,0.2-1.5,0.5-2.2c0.3-0.6,0.8-1.2,1.4-1.6
			c0.6-0.4,1.3-0.8,2.1-1c0.8-0.3,1.7-0.4,2.7-0.4c1.1,0,2.1,0.1,3,0.4c0.8,0.3,1.6,0.7,2.1,1.2c0.6,0.5,1,1.1,1.4,1.8
			c0.3,0.7,0.5,1.5,0.7,2.3h-2.3c-0.1-1.3-0.6-2.2-1.4-2.9c-0.8-0.6-2-1-3.4-1c-1.5,0-2.6,0.3-3.3,0.9c-0.7,0.6-1.1,1.4-1.1,2.3
			c0,0.5,0.1,1,0.3,1.4c0.2,0.4,0.6,0.7,1,0.9c0.5,0.3,1,0.5,1.7,0.7c0.7,0.2,1.5,0.4,2.4,0.6c1,0.2,1.9,0.4,2.7,0.7
			c0.8,0.3,1.5,0.6,2.1,1c0.6,0.4,1,1,1.4,1.6s0.5,1.5,0.5,2.5c0,1.7-0.6,3.1-1.9,4.2C45.4,644.8,43.6,645.3,41.4,645.3z"/>
		<path fill="#FFFFFF" d="M50.8,618.1h2.3v10.4h0.1c0.6-1,1.5-1.8,2.6-2.4c1.1-0.6,2.4-1,3.9-1c1.8,0,3.3,0.5,4.4,1.6
			c1.2,1,1.7,2.5,1.7,4.5v13.7h-2.3v-13.5c0-1.5-0.4-2.5-1.2-3.2s-1.9-1-3.2-1c-0.8,0-1.6,0.1-2.3,0.4c-0.7,0.3-1.4,0.7-1.9,1.1
			c-0.5,0.5-1,1.1-1.3,1.7c-0.3,0.7-0.5,1.4-0.5,2.2v12.3h-2.3L50.8,618.1L50.8,618.1z"/>
		<path fill="#FFFFFF" d="M68.9,618.1h2.3v3.3h-2.3V618.1z M68.9,625.5h2.3v19.3h-2.3V625.5z"/>
		<path fill="#FFFFFF" d="M75.8,627.4H73v-1.9h2.8V622c0-1.4,0.4-2.5,1.1-3.2c0.8-0.7,1.9-1,3.4-1c0.1,0,0.4,0,0.7,0
			c0.3,0,0.5,0,0.6,0v2h-1c-1,0-1.6,0.2-2,0.6c-0.4,0.4-0.5,0.9-0.5,1.6v3.4h3.6v1.9h-3.6v17.4h-2.3L75.8,627.4L75.8,627.4z"/>
		<path fill="#FFFFFF" d="M89.6,644.9c-1.1,0-2-0.3-2.7-0.8s-1-1.4-1-2.7v-14.1H83v-1.9h2.9v-5.9h2.3v5.9h3.6v1.9h-3.6v13.7
			c0,0.7,0.2,1.2,0.5,1.4c0.3,0.3,0.8,0.4,1.4,0.4c0.3,0,0.6,0,0.8-0.1c0.3-0.1,0.5-0.1,0.7-0.2h0.1v2
			C91.1,644.8,90.4,644.9,89.6,644.9z"/>
	</g>
</g>
<g>
	<path fill="#FFFFFF" d="M25.6,645.2c-1.3,0-2.5-0.2-3.5-0.5c-1-0.3-1.8-0.8-2.5-1.4c-0.6-0.6-1.2-1.3-1.5-2.1
		c-0.3-0.8-0.6-1.7-0.7-2.6h2.4c0.2,1.7,0.8,2.9,1.8,3.5c1,0.7,2.4,1.1,3.8,1.1c1.6,0,2.9-0.3,3.6-1c0.8-0.7,1.3-1.6,1.3-2.8
		c0-0.5-0.1-1-0.2-1.4c-0.2-0.4-0.4-0.7-0.9-1c-0.4-0.3-0.9-0.5-1.6-0.8c-0.7-0.2-1.5-0.4-2.5-0.7c-1-0.2-1.9-0.5-2.8-0.7
		c-0.9-0.3-1.6-0.6-2.3-1c-0.6-0.4-1.2-0.9-1.5-1.5c-0.3-0.7-0.5-1.5-0.5-2.4c0-0.8,0.2-1.5,0.5-2.2c0.3-0.7,0.8-1.2,1.4-1.7
		c0.6-0.5,1.3-0.8,2.1-1.1s1.8-0.4,2.8-0.4c1.2,0,2.2,0.1,3,0.4c0.9,0.3,1.6,0.7,2.2,1.2c0.6,0.5,1.1,1.1,1.4,1.8
		c0.3,0.7,0.6,1.5,0.7,2.4h-2.4c-0.1-1.3-0.6-2.3-1.5-2.9c-0.8-0.6-2-1-3.5-1s-2.6,0.3-3.4,0.9c-0.7,0.6-1.1,1.4-1.1,2.3
		c0,0.6,0.1,1,0.3,1.4c0.2,0.4,0.6,0.7,1,0.9c0.7,0.4,1.3,0.7,2,0.9s1.5,0.4,2.5,0.6c1,0.2,1.9,0.4,2.7,0.7c0.8,0.3,1.5,0.6,2.1,1
		c0.6,0.4,1.1,1,1.4,1.6c0.3,0.7,0.5,1.5,0.5,2.5c0,1.7-0.7,3.2-2,4.1C29.6,644.7,27.8,645.2,25.6,645.2z"/>
	<path fill="#FFFFFF" d="M35.1,618h2.4v10.3h0.1c0.7-1,1.5-1.8,2.6-2.4c1.1-0.6,2.4-1,3.9-1c1.8,0,3.2,0.5,4.4,1.6
		c1.2,1,1.8,2.6,1.8,4.4v13.7h-2.4v-13.5c0-1.5-0.4-2.6-1.2-3.2c-0.8-0.7-1.9-1-3.2-1c-0.8,0-1.6,0.1-2.4,0.4
		c-0.7,0.3-1.4,0.7-1.9,1.2c-0.6,0.5-1,1.1-1.3,1.8c-0.3,0.7-0.5,1.4-0.5,2.2v12.2h-2.4V618z"/>
	<path fill="#FFFFFF" d="M53.1,618h2.4v3.2h-2.4V618z M53.1,625.4h2.4v19.3h-2.4V625.4z"/>
	<path fill="#FFFFFF" d="M60.1,627.3h-2.8v-1.9h2.8V622c0-1.5,0.4-2.5,1.2-3.2s1.9-1,3.4-1c0.1,0,0.4,0,0.7,0c0.3,0,0.5,0,0.6,0v2
		h-1c-1,0-1.7,0.2-2,0.6c-0.4,0.4-0.5,0.9-0.5,1.7v3.4H66v1.9h-3.5v17.4h-2.3v-17.4H60.1z"/>
	<path fill="#FFFFFF" d="M73.9,644.8c-1.1,0-2-0.3-2.7-0.8s-1-1.4-1-2.7v-14.1h-3v-1.9h3v-5.9h2.4v5.9h3.5v1.9h-3.5V641
		c0,0.7,0.2,1.2,0.5,1.5c0.3,0.3,0.8,0.4,1.4,0.4c0.3,0,0.6,0,0.9-0.1c0.3-0.1,0.5-0.1,0.7-0.2h0.1v2
		C75.4,644.7,74.6,644.8,73.9,644.8z"/>
	<g>
		<path fill="#FFFFFF" d="M21.2,659.4c-0.6,0-1.2-0.1-1.6-0.4c-0.4-0.2-0.8-0.6-1.1-1.1l0,0v1.2h-1v-11h1v4.4l0,0
			c0.3-0.5,0.7-0.9,1.1-1.1c0.5-0.3,1-0.4,1.7-0.4c0.5,0,0.9,0.1,1.3,0.3c0.4,0.2,0.8,0.5,1.1,0.8c0.3,0.4,0.5,0.8,0.7,1.3
			c0.2,0.5,0.3,1.1,0.3,1.8c0,0.6-0.1,1.2-0.2,1.7c-0.2,0.5-0.4,1-0.7,1.3c-0.3,0.4-0.6,0.7-1.1,0.9
			C22.2,659.3,21.7,659.4,21.2,659.4z M21.2,658.5c0.4,0,0.8-0.1,1.1-0.3s0.6-0.4,0.8-0.7s0.4-0.7,0.5-1.1c0.1-0.4,0.2-0.9,0.2-1.3
			c0-0.5-0.1-1-0.2-1.4c-0.1-0.4-0.3-0.8-0.5-1.1s-0.5-0.5-0.8-0.7c-0.3-0.2-0.7-0.3-1.1-0.3c-0.5,0-0.8,0.1-1.2,0.3
			c-0.3,0.2-0.6,0.4-0.9,0.7c-0.2,0.3-0.4,0.7-0.5,1.1c-0.1,0.4-0.2,0.9-0.2,1.4c0,0.5,0.1,1,0.2,1.4c0.1,0.4,0.3,0.8,0.5,1.1
			c0.2,0.3,0.5,0.5,0.9,0.7C20.3,658.5,20.7,658.5,21.2,658.5z"/>
		<path fill="#FFFFFF" d="M26.1,661.8c-0.2,0-0.3,0-0.5,0c-0.2,0-0.2,0-0.4-0.1v-0.9l0,0c0.1,0,0.2,0,0.3,0.1c0.1,0,0.3,0,0.5,0
			c0.3,0,0.6-0.1,0.8-0.2c0.2-0.2,0.4-0.4,0.6-0.9l0.3-0.7l-3-8h1l2,5.2c0.1,0.2,0.1,0.4,0.2,0.6c0.1,0.2,0.1,0.4,0.2,0.6
			c0.1,0.2,0.1,0.4,0.2,0.6l0,0c0.1-0.2,0.1-0.4,0.2-0.6c0.1-0.2,0.1-0.4,0.2-0.6c0.1-0.2,0.1-0.4,0.2-0.6l1.9-5.2h1l-3.4,8.9
			c-0.1,0.4-0.3,0.7-0.4,0.9c-0.2,0.2-0.3,0.4-0.5,0.6c-0.2,0.1-0.4,0.2-0.6,0.3C26.6,661.8,26.3,661.8,26.1,661.8z"/>
		<path fill="#FFFFFF" d="M34.2,651.1h1v1.2l0,0c0.3-0.4,0.6-0.7,1-1c0.4-0.3,0.9-0.4,1.5-0.4c0.5,0,1,0.1,1.3,0.4
			c0.4,0.2,0.7,0.6,0.8,1.1l0,0c0.3-0.5,0.6-0.8,1.1-1.1c0.4-0.3,1-0.4,1.5-0.4c0.3,0,0.7,0.1,1,0.2c0.3,0.1,0.6,0.3,0.8,0.5
			s0.4,0.5,0.5,0.8c0.1,0.3,0.2,0.7,0.2,1.1v5.7h-1v-5.6c0-0.6-0.2-1.1-0.5-1.4s-0.7-0.4-1.2-0.4c-0.3,0-0.6,0.1-0.9,0.2
			c-0.3,0.1-0.5,0.3-0.7,0.4c-0.2,0.2-0.4,0.4-0.5,0.7c-0.1,0.3-0.2,0.6-0.2,1v5.1h-1v-5.6c0-0.6-0.2-1.1-0.5-1.4s-0.7-0.4-1.2-0.4
			c-0.3,0-0.6,0.1-0.9,0.2c-0.3,0.1-0.5,0.3-0.7,0.5c-0.2,0.2-0.4,0.4-0.5,0.7c-0.1,0.3-0.2,0.6-0.2,0.9v5.1h-1v-8.1H34.2z"/>
		<path fill="#FFFFFF" d="M49.3,659.4c-0.5,0-1-0.1-1.4-0.2c-0.4-0.1-0.8-0.3-1-0.6c-0.3-0.2-0.5-0.5-0.6-0.9
			c-0.2-0.3-0.2-0.7-0.3-1.1h1c0.1,0.7,0.3,1.2,0.8,1.5c0.5,0.3,1,0.4,1.6,0.4c0.7,0,1.2-0.1,1.5-0.4c0.3-0.3,0.5-0.7,0.5-1.1
			c0-0.2,0-0.4-0.1-0.6c-0.1-0.2-0.2-0.3-0.4-0.4c-0.2-0.1-0.4-0.2-0.7-0.3c-0.3-0.1-0.6-0.2-1-0.3c-0.4-0.1-0.8-0.2-1.2-0.3
			c-0.4-0.1-0.7-0.2-0.9-0.4c-0.3-0.2-0.5-0.4-0.6-0.6c-0.2-0.3-0.2-0.6-0.2-1c0-0.3,0.1-0.6,0.2-0.9c0.1-0.3,0.3-0.5,0.6-0.7
			c0.3-0.2,0.6-0.3,0.9-0.4c0.3-0.1,0.7-0.2,1.2-0.2c0.5,0,0.9,0.1,1.3,0.2c0.4,0.1,0.7,0.3,0.9,0.5c0.2,0.2,0.4,0.5,0.6,0.8
			c0.1,0.3,0.2,0.6,0.3,1h-1c-0.1-0.5-0.3-0.9-0.6-1.2c-0.4-0.3-0.8-0.4-1.4-0.4c-0.6,0-1.1,0.1-1.4,0.4c-0.3,0.3-0.5,0.6-0.5,1
			c0,0.2,0,0.4,0.1,0.6c0.1,0.2,0.2,0.3,0.4,0.4c0.2,0.1,0.4,0.2,0.7,0.3s0.6,0.2,1,0.3c0.4,0.1,0.8,0.2,1.1,0.3
			c0.3,0.1,0.6,0.3,0.9,0.4c0.2,0.2,0.4,0.4,0.6,0.7c0.1,0.3,0.2,0.6,0.2,1c0,0.7-0.3,1.3-0.8,1.8C51,659.1,50.2,659.4,49.3,659.4z"
			/>
		<path fill="#FFFFFF" d="M53.4,651.1h1v1.2l0,0c0.3-0.4,0.6-0.8,1.1-1c0.4-0.3,1-0.4,1.6-0.4c0.8,0,1.4,0.2,1.9,0.7
			c0.5,0.4,0.7,1.1,0.7,1.9v5.7h-1v-5.6c0-0.6-0.2-1.1-0.5-1.4c-0.3-0.3-0.8-0.4-1.4-0.4c-0.3,0-0.7,0.1-1,0.2s-0.6,0.3-0.8,0.5
			c-0.2,0.2-0.4,0.4-0.5,0.7c-0.1,0.3-0.2,0.6-0.2,0.9v5.1h-1L53.4,651.1L53.4,651.1z"/>
		<path fill="#FFFFFF" d="M65,659.4c-0.6,0-1.2-0.1-1.6-0.4c-0.4-0.2-0.8-0.6-1.1-1.1l0,0v1.2h-1v-11h1v4.4l0,0
			c0.3-0.5,0.7-0.9,1.1-1.1c0.5-0.3,1-0.4,1.7-0.4c0.5,0,0.9,0.1,1.3,0.3c0.4,0.2,0.8,0.5,1.1,0.8c0.3,0.4,0.5,0.8,0.7,1.3
			c0.2,0.5,0.3,1.1,0.3,1.8c0,0.6-0.1,1.2-0.2,1.7c-0.2,0.5-0.4,1-0.7,1.3c-0.3,0.3-0.6,0.7-1.1,0.9C65.9,659.3,65.4,659.4,65,659.4
			z M64.8,658.5c0.4,0,0.8-0.1,1.1-0.3c0.3-0.2,0.6-0.4,0.8-0.7c0.2-0.3,0.4-0.7,0.5-1.1c0.1-0.4,0.1-0.9,0.1-1.3
			c0-0.5-0.1-1-0.2-1.4c-0.1-0.4-0.3-0.8-0.5-1.1c-0.2-0.3-0.5-0.5-0.8-0.7c-0.3-0.2-0.7-0.3-1.1-0.3c-0.5,0-0.9,0.1-1.2,0.3
			s-0.6,0.4-0.9,0.7c-0.2,0.3-0.4,0.7-0.5,1.1c-0.1,0.4-0.2,0.9-0.2,1.4c0,0.5,0.1,1,0.2,1.4c0.1,0.4,0.3,0.8,0.5,1.1
			c0.2,0.3,0.5,0.5,0.9,0.7C64.1,658.5,64.5,658.5,64.8,658.5z"/>
		<path fill="#FFFFFF" d="M72.7,659.3c-0.6,0-1.1-0.1-1.6-0.3c-0.5-0.2-0.8-0.5-1.2-0.9c-0.3-0.4-0.6-0.8-0.7-1.4
			c-0.2-0.5-0.2-1.1-0.2-1.7c0-0.6,0.1-1.2,0.3-1.7s0.4-1,0.7-1.4c0.3-0.4,0.7-0.7,1.2-0.9s1-0.3,1.6-0.3c0.9,0,1.6,0.2,2.2,0.7
			c0.6,0.5,0.9,1.1,1.1,2h-1c-0.1-0.6-0.4-1.1-0.8-1.4c-0.4-0.3-0.9-0.5-1.5-0.5c-0.5,0-0.9,0.1-1.2,0.3c-0.3,0.2-0.6,0.4-0.8,0.7
			c-0.2,0.3-0.4,0.7-0.5,1.1c-0.1,0.4-0.2,0.9-0.2,1.3c0,0.5,0.1,0.9,0.2,1.3c0.1,0.4,0.3,0.8,0.5,1.1c0.2,0.3,0.5,0.6,0.8,0.7
			c0.3,0.2,0.7,0.3,1.2,0.3c0.7,0,1.2-0.2,1.7-0.6c0.4-0.4,0.7-0.9,0.7-1.6h0.9c-0.1,0.9-0.4,1.7-1,2.2
			C74.5,659.1,73.7,659.3,72.7,659.3z"/>
	</g>
</g>
</svg>
