<?xml version="1.0" encoding="utf-8"?>
<!-- Generator: Adobe Illustrator 16.2.1, SVG Export Plug-In . SVG Version: 6.00 Build 0)  -->
<!DOCTYPE svg PUBLIC "-//W3C//DTD SVG 1.1//EN" "http://www.w3.org/Graphics/SVG/1.1/DTD/svg11.dtd">
<svg version="1.1" id="Layer_1" xmlns="http://www.w3.org/2000/svg" xmlns:xlink="http://www.w3.org/1999/xlink" x="0px" y="0px"
	 width="15px" height="15px" viewBox="0 0 15 15" enable-background="new 0 0 15 15" xml:space="preserve">
<path fill="#999999" d="M14.928,0.399v6.135c0,0.096-0.029,0.174-0.091,0.232c-0.06,0.061-0.138,0.09-0.231,0.092H8.469
	c-0.143,0-0.246-0.066-0.305-0.198C8.115,6.517,8.14,6.398,8.236,6.301l1.901-1.883C9.3,3.676,8.312,3.306,7.178,3.306
	c-1.244,0-2.309,0.442-3.194,1.327c-0.885,0.886-1.328,1.95-1.327,3.194c0,1.245,0.443,2.307,1.327,3.194
	c0.885,0.885,1.95,1.326,3.194,1.326c1.111,0,2.104-0.369,2.977-1.111c0.146-0.143,0.289-0.143,0.431,0l1.383,1.381v0.02
	c0.06,0.045,0.09,0.119,0.09,0.213c0,0.086-0.03,0.156-0.09,0.217c0,0.012-0.007,0.018-0.021,0.018
	c-1.351,1.232-2.941,1.848-4.771,1.848c-1.962,0-3.636-0.691-5.023-2.082c-1.387-1.387-2.081-3.061-2.081-5.022
	C0.072,5.865,0.766,4.19,2.154,2.802C3.543,1.415,5.216,0.72,7.177,0.72c1.828,0,3.427,0.622,4.79,1.866l2.404-2.422
	c0.095-0.096,0.215-0.119,0.357-0.072c0.133,0.06,0.196,0.162,0.196,0.305L14.928,0.399z"/>
</svg>
