<?xml version="1.0" encoding="utf-8"?>
<!-- Generator: Adobe Illustrator 18.1.0, SVG Export Plug-In . SVG Version: 6.00 Build 0)  -->
<svg version="1.1" id="Layer_1" xmlns="http://www.w3.org/2000/svg" xmlns:xlink="http://www.w3.org/1999/xlink" x="0px" y="0px"
	 width="84px" height="50px" viewBox="0 500.8 84 50" enable-background="new 0 500.8 84 50.3" xml:space="preserve">
<g id="Layer_2_1_" display="none">
	<rect x="296.7" y="187.4" display="inline" stroke="#FFFFFF" stroke-miterlimit="10" width="704.8" height="395.9"/>
</g>
<g id="Layer_1_2_">
	<g id="Layer_2" display="none">
		<rect x="-3.3" y="499.5" display="inline" fill="#0066CC" width="86.4" height="54.9"/>
	</g>
	<g id="Layer_1_1_" display="none">
		<g display="inline">
			<path fill="#FFFFFF" d="M13.8,504.6h2.6v1.4h0.1c0.3-0.5,0.7-1,1.1-1.2c0.4-0.3,1-0.4,1.6-0.4c1.2,0,2,0.6,2.5,1.7h0
				c0.4-0.6,0.8-1.1,1.3-1.3c0.5-0.3,1-0.4,1.6-0.4c1,0,1.8,0.3,2.3,0.9c0.5,0.6,0.8,1.4,0.8,2.4v5.9h-2.6V508
				c0-0.5-0.1-0.9-0.4-1.1c-0.2-0.3-0.6-0.4-1-0.4c-0.5,0-0.8,0.2-1.1,0.5c-0.3,0.4-0.4,0.8-0.4,1.4v5.1h-2.6V508
				c0-0.5-0.1-0.9-0.3-1.1c-0.2-0.3-0.6-0.4-1-0.4c-0.5,0-0.8,0.2-1.1,0.5c-0.3,0.4-0.4,0.8-0.4,1.4v5.1h-2.7L13.8,504.6L13.8,504.6
				L13.8,504.6z"/>
			<path fill="#FFFFFF" d="M32.9,513.8c-0.7,0-1.2-0.1-1.8-0.2c-0.5-0.1-1-0.4-1.3-0.6c-0.4-0.3-0.7-0.6-0.9-1
				c-0.2-0.4-0.3-0.8-0.4-1.2h2.5c0.1,0.4,0.3,0.8,0.6,1c0.3,0.2,0.7,0.3,1.2,0.3c0.5,0,0.8-0.1,1.1-0.3s0.4-0.4,0.4-0.8
				c0-0.2-0.1-0.4-0.2-0.5c-0.1-0.1-0.3-0.2-0.5-0.3c-0.2-0.1-0.5-0.1-0.7-0.2c-0.3-0.1-0.6-0.1-0.9-0.2c-0.4-0.1-0.8-0.2-1.2-0.3
				c-0.4-0.1-0.7-0.3-1-0.5c-0.3-0.2-0.6-0.5-0.7-0.8c-0.2-0.3-0.3-0.8-0.3-1.3c0-0.5,0.1-0.9,0.3-1.2c0.2-0.4,0.5-0.6,0.8-0.9
				c0.3-0.2,0.7-0.4,1.2-0.5c0.5-0.1,1-0.2,1.5-0.2c1.2,0,2.2,0.2,2.8,0.7c0.6,0.5,1,1.1,1.1,1.9h-2.5c-0.2-0.6-0.7-1-1.5-1
				c-0.4,0-0.7,0.1-1,0.2c-0.2,0.2-0.4,0.4-0.4,0.7c0,0.2,0.1,0.3,0.2,0.4c0.1,0.1,0.3,0.2,0.5,0.3c0.2,0.1,0.4,0.1,0.7,0.2
				c0.3,0,0.6,0.1,0.9,0.2c0.4,0.1,0.8,0.2,1.2,0.3c0.4,0.1,0.8,0.3,1.1,0.5c0.3,0.2,0.6,0.5,0.8,0.8c0.2,0.4,0.3,0.8,0.3,1.4
				c0,0.5-0.1,0.9-0.3,1.3c-0.2,0.4-0.5,0.7-0.8,0.9c-0.4,0.3-0.8,0.4-1.3,0.6C34.1,513.8,33.5,513.8,32.9,513.8z"/>
			<path fill="#FFFFFF" d="M40.7,505.9L40.7,505.9c0.3-0.5,0.7-1,1.2-1.2c0.5-0.3,1-0.4,1.6-0.4c1,0,1.8,0.3,2.3,0.9
				c0.6,0.6,0.8,1.4,0.8,2.4v5.9H44v-5.4c0-0.5-0.1-0.9-0.4-1.2c-0.3-0.3-0.6-0.5-1.1-0.5c-0.5,0-0.9,0.2-1.2,0.6
				c-0.3,0.4-0.5,0.9-0.5,1.4v5.1h-2.7v-9h2.6L40.7,505.9L40.7,505.9z"/>
			<path fill="#FFFFFF" d="M53.7,513.8c-0.6,0-1.1-0.1-1.6-0.4s-0.8-0.7-1.1-1.2h0v1.3h-2.6V501H51v2.8c0,0.4,0,0.8,0,1.1
				s0,0.7-0.1,1H51c0.3-0.5,0.7-0.8,1.1-1.1c0.4-0.3,1-0.4,1.6-0.4c0.6,0,1.1,0.1,1.6,0.4c0.5,0.2,0.9,0.6,1.2,1
				c0.3,0.4,0.6,0.9,0.8,1.5c0.2,0.6,0.3,1.2,0.3,1.9c0,0.8-0.1,1.4-0.3,2c-0.2,0.6-0.4,1.1-0.8,1.5c-0.3,0.4-0.8,0.7-1.2,1
				C54.8,513.7,54.3,513.8,53.7,513.8z M53,511.7c0.6,0,1.1-0.2,1.4-0.7c0.3-0.5,0.5-1.1,0.5-1.9c0-0.8-0.2-1.5-0.5-2
				c-0.3-0.5-0.8-0.8-1.4-0.8c-0.4,0-0.7,0.1-0.9,0.2c-0.3,0.1-0.5,0.3-0.6,0.6s-0.3,0.5-0.4,0.9c-0.1,0.3-0.1,0.7-0.1,1.1
				c0,0.8,0.2,1.4,0.5,1.9C51.8,511.5,52.3,511.7,53,511.7z"/>
			<path fill="#FFFFFF" d="M63.2,513.8c-0.7,0-1.4-0.1-2-0.4c-0.6-0.2-1.1-0.6-1.5-1s-0.7-0.9-1-1.5c-0.2-0.6-0.3-1.2-0.3-1.9
				s0.1-1.3,0.3-1.9c0.2-0.6,0.5-1.1,0.9-1.5c0.4-0.4,0.9-0.8,1.5-1c0.6-0.2,1.2-0.4,1.9-0.4c0.6,0,1.1,0.1,1.6,0.2
				c0.5,0.2,0.9,0.4,1.3,0.7c0.4,0.3,0.7,0.7,0.9,1.1c0.2,0.4,0.4,0.9,0.5,1.3h-2.6c-0.1-0.4-0.3-0.8-0.5-1
				c-0.3-0.2-0.6-0.4-1.1-0.4c-0.7,0-1.2,0.3-1.5,0.8c-0.3,0.5-0.5,1.2-0.5,2c0,0.8,0.2,1.5,0.5,2s0.8,0.8,1.5,0.8
				c0.5,0,0.9-0.1,1.2-0.4c0.3-0.3,0.5-0.7,0.5-1.2h2.6c0,0.5-0.1,1-0.3,1.4c-0.2,0.4-0.5,0.8-0.9,1.1c-0.4,0.3-0.8,0.6-1.3,0.8
				C64.4,513.8,63.8,513.8,63.2,513.8z"/>
		</g>
		<g display="inline">
			<path fill="#FFFFFF" d="M13.8,518.4v-1.9h27v1.9H28.3v33.3h-2.2v-33.3H13.8L13.8,518.4z"/>
			<path fill="#FFFFFF" d="M52.8,549.9L52.8,549.9l12.3-33.3h2.1l-13.2,35.2h-2.5l-13.1-35.2h2.3L52.8,549.9z"/>
		</g>
	</g>
	<g>
		<path fill="#FFFFFF" d="M57.7,509.2c0-3,2.4-5,4.9-5c1.8,0,3,0.7,3.9,1.8c-0.5,0.6-1.1,1.2-1.6,1.7c-0.7-0.7-1.3-1.2-2.4-1.2
			c-1.4,0-2.5,1.2-2.5,2.7c0,1.7,1.2,2.9,2.5,2.9c1.1,0,1.7-0.6,2.4-1.2c0.5,0.5,1.1,1,1.6,1.6c-0.8,1.1-2,1.9-3.9,1.9
			C60.1,514.2,57.7,512.2,57.7,509.2z"/>
		<path fill="#FFFFFF" d="M56.8,509.2c0,3.1-2.2,4.9-4.4,4.9c-1.7,0-2.5-0.7-3-1.3c0,0.4,0,0.7,0,1.2c-0.8,0-1.7,0-2.5,0
			c0-4.4,0-8.7,0-13.1c0.8,0,1.7,0,2.5,0c0,1.7,0,3.1,0,4.8c0.5-0.5,1.3-1.4,3-1.4C54.8,504.2,56.8,506,56.8,509.2z M51.9,512.2
			c1.6,0,2.6-1.2,2.6-3c0-1.8-1.2-3-2.6-3c-1.6,0-2.6,1.2-2.6,3C49.2,510.9,50.4,512.2,51.9,512.2z"/>
		<path fill="#FFFFFF" d="M42.5,504.2c-1.7,0-2.5,1.1-2.7,1.3c0-0.4,0-0.7,0-1.2c-0.8,0-1.7,0-2.5,0c0,3.2,0,6.3,0,9.6
			c0.8,0,1.7,0,2.5,0c0-1.9,0-3.7,0-5.4s1.2-2.2,1.9-2.2c0.8,0,1.8,0.5,1.8,2.2c0,1.7,0,3.5,0,5.4c0.8,0,1.7,0,2.5,0
			c0-1.7,0-3.3,0-6.1C46.1,505.3,44.2,504.2,42.5,504.2z"/>
		<path fill="#FFFFFF" d="M29.6,507.3c0-2.2,1.8-3,3.5-3s2.4,0.5,3.6,1.2c-0.2,0.6-0.7,1.2-1.1,1.8c-0.7-0.5-1.8-1-2.6-1
			c-1,0-1.2,0.5-1.2,0.7c0,0.7,1.2,0.8,2.5,1.3c1.2,0.5,2.5,1.2,2.5,2.7c0,2.2-1.7,3.1-3.6,3.1c-1.8,0-3.1-0.7-4.2-1.6
			c0.4-0.6,0.7-1.2,1.2-1.7c1,0.7,2,1.2,3,1.2c1.1,0,1.2-0.6,1.2-0.8c0-0.7-1.2-1-2.5-1.3C30.8,509.6,29.6,509,29.6,507.3z"/>
		<path fill="#FFFFFF" d="M25.2,504.2c-1.7,0-2.5,1-3.1,1.6c-0.5-0.7-1.3-1.6-2.7-1.6c-1.4,0-2.3,0.8-2.6,1.3c0-0.4,0-0.7,0-1.2
			c-0.8,0-1.7,0-2.5,0c0,3.2,0,6.3,0,9.6c0.8,0,1.7,0,2.5,0c0-1.9,0-3.7,0-5.4s1.1-2.2,1.8-2.2c0.7,0,1.7,0.5,1.7,2.2
			c0,1.7,0,3.5,0,5.4c0.8,0,1.7,0,2.5,0c0-1.8,0-3.7,0-5.4s1.1-2.2,1.8-2.2c0.7,0,1.7,0.4,1.7,2.2c0,1.7,0,3.6,0,5.4
			c0.8,0,1.7,0,2.5,0c0-1.7,0-3.5,0-6.1C28.5,505.3,26.9,504.2,25.2,504.2z"/>
	</g>
	<g>
		<path fill="#FFFFFF" d="M25.2,520.6H14.1v-2.7h25.6l4.1,2.7H28.5v30.2h-3.1v-30.2H25.2z"/>
		<path fill="#FFFFFF" d="M39.4,517.8h3.2l8.6,24.2c0.2,0.6,0.4,1.1,0.6,1.8c0.2,0.6,0.4,1.3,0.6,1.8c0.2,0.7,0.4,1.3,0.6,2h0.2
			c0.2-0.7,0.4-1.3,0.6-2c0.2-0.6,0.4-1.3,0.6-1.8c0.2-0.6,0.4-1.3,0.6-1.8l8.6-24.2h3.1l-12.4,33h-3.1L39.4,517.8z"/>
	</g>
</g>
</svg>
