<?xml version="1.0" encoding="utf-8"?>
<!-- Generator: Adobe Illustrator 16.0.4, SVG Export Plug-In . SVG Version: 6.00 Build 0)  -->
<!DOCTYPE svg PUBLIC "-//W3C//DTD SVG 1.1//EN" "http://www.w3.org/Graphics/SVG/1.1/DTD/svg11.dtd">
<svg version="1.1" id="Layer_1" xmlns="http://www.w3.org/2000/svg" xmlns:xlink="http://www.w3.org/1999/xlink" x="0px" y="0px"
   width="127.407px" height="23px" viewBox="0 0 127.407 23" enable-background="new 0 0 127.407 23" xml:space="preserve">
<path d="M111.954,14.434c0.005-5.078,4.048-8.651,8.566-8.656c3.182-0.003,5.143,1.198,6.76,3.033
  c-0.882,0.952-1.764,1.904-2.645,2.856c-1.13-1.198-2.215-2.126-4.146-2.126c-2.398,0.001-4.317,2.078-4.318,4.833
  c-0.001,2.754,2.053,4.891,4.5,4.893c1.818,0.001,2.962-0.902,4.14-2.113c0.865,0.854,1.73,1.708,2.596,2.562
  c-1.524,1.773-3.487,3.289-6.918,3.285C115.934,22.996,111.949,19.511,111.954,14.434z"/>
<path d="M110.475,14.374c0,5.407-3.678,8.598-7.721,8.596c-2.721-0.001-4.226-1.34-5.133-2.315c0,0.661,0,1.322,0,1.982
  c-1.407,0-2.812,0-4.218,0c0-7.546,0-15.091,0-22.637c1.406,0,2.812,0,4.218,0c0,2.745,0,5.491,0,8.235
  c0.782-0.885,2.29-2.457,5.133-2.458C106.797,5.776,110.475,8.965,110.475,14.374z M101.908,19.515c2.647,0,4.567-2.189,4.567-5.141
  c0-2.952-1.919-5.142-4.567-5.142c-2.648,0-4.658,2.189-4.658,5.142C97.25,17.325,99.26,19.515,101.908,19.515z"/>
<path d="M85.78,5.777c-2.938,0-4.262,1.761-4.71,2.255c0-0.64,0-1.281,0-1.922c-1.407,0-2.812,0-4.219,0c0,5.508,0,11.018,0,16.527
  c1.406,0,2.812,0,4.219,0c0-3.218,0.001-6.435,0-9.292c-0.002-2.857,1.897-3.684,3.32-3.683s3.137,0.765,3.139,3.622
  c0.002,2.856,0,6.105,0,9.353c1.405,0,2.812,0,4.217,0c-0.001-2.901-0.001-5.801,0-10.44C91.747,7.557,88.719,5.777,85.78,5.777z"/>
<path d="M63.416,11.017c0-3.809,3.054-5.179,5.965-5.18c2.911,0,4.136,0.74,6.237,2.003c-0.573,1.027-1.146,2.055-1.719,3.081
  c-1.333-0.811-3.042-1.625-4.608-1.623c-1.567,0.002-1.96,0.804-1.96,1.354c0,1.138,2.14,1.508,4.28,2.277
  c2.14,0.771,4.28,1.941,4.281,4.679c0.001,3.848-3.021,5.331-6.208,5.331c-3.186,0-5.389-1.263-7.15-2.608
  c0.647-0.981,1.293-1.962,1.939-2.943c1.71,1.279,3.512,2.091,5.301,2.09c1.79,0,2.201-0.906,2.201-1.476
  c0-1.28-2.139-1.579-4.28-2.282C65.556,15.019,63.416,13.913,63.416,11.017z"/>
<path d="M55.689,5.777c-3.017,0.001-4.468,1.641-5.37,2.591c-0.749-1.265-2.275-2.59-4.793-2.591
  c-2.517-0.001-3.993,1.537-4.59,2.219c0-0.628,0-1.258,0-1.886c-1.406,0-2.812,0-4.219,0c0,5.508,0,11.018,0,16.527
  c1.407,0,2.812,0,4.219,0c0-3.23,0-6.461,0-9.261s1.762-3.714,3.138-3.714c1.376,0,2.957,0.792,2.957,3.593
  c0.001,2.8,0,6.091,0,9.382c1.406,0,2.812,0,4.218,0c0-3.18-0.001-6.361,0-9.292c0.002-2.931,1.763-3.683,3.139-3.683
  c1.377,0,2.956,0.691,2.956,3.622c0.001,2.93,0.001,6.142,0,9.353c1.406,0,2.812,0,4.218,0c0-2.974,0-5.948,0-10.471
  C61.563,7.643,58.706,5.776,55.689,5.777z"/>
<g>
  <path fill="#F37021" d="M8.979,10.712l4.491,10.27l-9.266-6.344c-2.324-1.539-1.853-4.177-0.565-5.339
    C5.461,7.76,8.037,8.294,8.979,10.712z"/>
  <path fill="#C9234A" d="M15.135,8.294l-1.633,11.495L8.854,8.859c-1.006-2.732,1.256-4.522,2.763-4.554
    C13.345,4.117,15.512,5.437,15.135,8.294z"/>
  <path fill="#645FAA" d="M22.202,8.828l-4.617,10.961l-1.476-9.893c-0.126-1.507,0.816-1.539,1.162-1.821
    c-0.062-0.22-0.534-0.22-0.534-0.22h-0.879c-0.094-2.575,1.916-3.706,3.549-3.58C21.165,4.337,23.144,6.378,22.202,8.828z"/>
  <path fill="#0089CF" d="M26.913,14.575l-9.265,6.375l4.365-10.144c1.32-3.203,4.397-2.575,5.497-1.351
    C28.702,10.65,29.048,13.068,26.913,14.575z"/>
  <path fill="#0DB14B" d="M27.886,22.082H17.177l8.7-6.062c2.135-1.413,4.396-0.125,4.993,1.728
    C31.498,19.82,30.084,22.082,27.886,22.082z"/>
  <path fill="#FDB913" d="M0.154,17.622c0.816-2.135,3.078-2.889,5.087-1.602l8.7,6.062H3.389
    C1.191,22.082-0.537,20.071,0.154,17.622z"/>
</g>
</svg>